<?xml version="1.0" encoding="UTF-8" standalone="no"?><svg xmlns="http://www.w3.org/2000/svg" xmlns:xlink="http://www.w3.org/1999/xlink" contentScriptType="application/ecmascript" contentStyleType="text/css" height="128px" preserveAspectRatio="none" style="width:289px;height:128px;background:#FFFFFF;" version="1.1" viewBox="0 0 289 128" width="289px" zoomAndPan="magnify"><defs><filter height="300%" id="fc62ve9ha2ph7" width="300%" x="-1" y="-1"><feGaussianBlur result="blurOut" stdDeviation="2.0"/><feColorMatrix in="blurOut" result="blurOut2" type="matrix" values="0 0 0 0 0 0 0 0 0 0 0 0 0 0 0 0 0 0 .4 0"/><feOffset dx="4.0" dy="4.0" in="blurOut2" result="blurOut3"/><feBlend in="SourceGraphic" in2="blurOut3" mode="normal"/></filter></defs><g><!--MD5=[6552b476420753e26cb16af7b357f67f]
class org.example.model.communication.server.HTTPServer--><a href="HTTPServer.html" target="_top" title="HTTPServer.html" xlink:actuate="onRequest" xlink:href="HTTPServer.html" xlink:show="new" xlink:title="HTTPServer.html" xlink:type="simple"><rect codeLine="5" fill="#FEFECE" filter="url(#fc62ve9ha2ph7)" height="97.1563" id="org.example.model.communication.server.HTTPServer" style="stroke:#A80036;stroke-width:1.5;" width="268" x="7" y="7"/><ellipse cx="35.95" cy="25.9688" fill="#ADD1B2" rx="11" ry="11" style="stroke:#A80036;stroke-width:1.0;"/><path d="M38.9188,31.6094 Q38.3406,31.9063 37.7,32.0469 Q37.0594,32.2031 36.3563,32.2031 Q33.8563,32.2031 32.5281,30.5625 Q31.2156,28.9063 31.2156,25.7813 Q31.2156,22.6563 32.5281,21 Q33.8563,19.3438 36.3563,19.3438 Q37.0594,19.3438 37.7,19.5 Q38.3563,19.6563 38.9188,19.9531 L38.9188,22.6719 Q38.2938,22.0938 37.7,21.8281 Q37.1063,21.5469 36.4813,21.5469 Q35.1375,21.5469 34.45,22.625 Q33.7625,23.6875 33.7625,25.7813 Q33.7625,27.875 34.45,28.9531 Q35.1375,30.0156 36.4813,30.0156 Q37.1063,30.0156 37.7,29.75 Q38.2938,29.4688 38.9188,28.8906 L38.9188,31.6094 Z " fill="#000000"/><text fill="#000000" font-family="sans-serif" font-size="14" lengthAdjust="spacing" textLength="81" x="115.05" y="24.9951">HTTPServer</text><text fill="#000000" font-family="sans-serif" font-size="10" lengthAdjust="spacing" textLength="205" x="53.05" y="37.5791">org.example.model.communication.server</text><line style="stroke:#A80036;stroke-width:1.5;" x1="8" x2="274" y1="44.9375" y2="44.9375"/><ellipse cx="18" cy="55.9375" fill="#84BE84" rx="3" ry="3" style="stroke:#038048;stroke-width:1.0;"/><text fill="#000000" font-family="sans-serif" font-size="11" lengthAdjust="spacing" textLength="89" x="27" y="59.1479">HTTPServer(int)</text><ellipse cx="18" cy="68.7422" fill="#84BE84" rx="3" ry="3" style="stroke:#038048;stroke-width:1.0;"/><text fill="#000000" font-family="sans-serif" font-size="11" lengthAdjust="spacing" text-decoration="underline" textLength="242" x="27" y="71.9526">sendResponse(HttpExchange, String): void</text><ellipse cx="18" cy="81.5469" fill="#84BE84" rx="3" ry="3" style="stroke:#038048;stroke-width:1.0;"/><text fill="#000000" font-family="sans-serif" font-size="11" lengthAdjust="spacing" textLength="212" x="27" y="84.7573">notifyAllSubscribers(HTTPEvent): void</text><ellipse cx="18" cy="94.3516" fill="#84BE84" rx="3" ry="3" style="stroke:#038048;stroke-width:1.0;"/><text fill="#000000" font-family="sans-serif" font-size="11" lengthAdjust="spacing" textLength="233" x="27" y="97.562">addEventList(CompletableFuture&lt;?&gt;): int</text></a><text fill="#888888" font-family="sans-serif" font-size="10" lengthAdjust="spacing" textLength="192" x="45" y="120.4385">UMLDoclet 2.0.15, PlantUML 1.2021.13</text><!--MD5=[af874627da1bc78f5d03553d8f599ec7]
@startuml
    set namespaceSeparator none
    hide empty fields
    hide empty methods

    class "<size:14>HTTPServer\n<size:10>org.example.model.communication.server" as org.example.model.communication.server.HTTPServer [[HTTPServer.html]] {
        +HTTPServer(int)
        {static} +sendResponse(HttpExchange, String): void
        +notifyAllSubscribers(HTTPEvent): void
        +addEventList(CompletableFuture<?>): int
    }

    center footer UMLDoclet 2.0.15, PlantUML 1.2021.13
@enduml

PlantUML version 1.2021.13(Mon Nov 01 11:38:45 UTC 2021)
(APACHE source distribution)
Java Runtime: OpenJDK Runtime Environment
JVM: OpenJDK 64-Bit Server VM
Default Encoding: UTF-8
Language: en
Country: null
--></g></svg>