<?xml version="1.0" encoding="UTF-8" standalone="no"?><svg xmlns="http://www.w3.org/2000/svg" xmlns:xlink="http://www.w3.org/1999/xlink" contentScriptType="application/ecmascript" contentStyleType="text/css" height="563px" preserveAspectRatio="none" style="width:922px;height:563px;background:#FFFFFF;" version="1.1" viewBox="0 0 922 563" width="922px" zoomAndPan="magnify"><defs><filter height="300%" id="f126qglgy13w37" width="300%" x="-1" y="-1"><feGaussianBlur result="blurOut" stdDeviation="2.0"/><feColorMatrix in="blurOut" result="blurOut2" type="matrix" values="0 0 0 0 0 0 0 0 0 0 0 0 0 0 0 0 0 0 .4 0"/><feOffset dx="4.0" dy="4.0" in="blurOut2" result="blurOut3"/><feBlend in="SourceGraphic" in2="blurOut3" mode="normal"/></filter></defs><g><!--MD5=[6279914fff560f1fb17013f7bab78ca2]
cluster org.example.model.communication.server--><polygon fill="#FFFFFF" filter="url(#f126qglgy13w37)" points="16,167,354,167,361,189.2969,874,189.2969,874,540,16,540,16,167" style="stroke:#000000;stroke-width:1.5;"/><line style="stroke:#000000;stroke-width:1.5;" x1="16" x2="361" y1="189.2969" y2="189.2969"/><text fill="#000000" font-family="sans-serif" font-size="14" font-weight="bold" lengthAdjust="spacing" textLength="332" x="20" y="181.9951">org.example.model.communication.server</text><!--MD5=[aa8f7b917213fcc1c2766e2d59b49067]
cluster java.lang--><polygon fill="#FFFFFF" filter="url(#f126qglgy13w37)" points="307,6,382,6,389,28.2969,603,28.2969,603,143,307,143,307,6" style="stroke:#000000;stroke-width:1.5;"/><line style="stroke:#000000;stroke-width:1.5;" x1="307" x2="389" y1="28.2969" y2="28.2969"/><text fill="#000000" font-family="sans-serif" font-size="14" font-weight="bold" lengthAdjust="spacing" textLength="69" x="311" y="20.9951">java.lang</text><!--MD5=[dfd31ff79a596cb41678fb0fb0f0124a]
cluster org.example.model--><polygon fill="#FFFFFF" filter="url(#f126qglgy13w37)" points="627,12,784,12,791,34.2969,905,34.2969,905,137,627,137,627,12" style="stroke:#000000;stroke-width:1.5;"/><line style="stroke:#000000;stroke-width:1.5;" x1="627" x2="791" y1="34.2969" y2="34.2969"/><text fill="#000000" font-family="sans-serif" font-size="14" font-weight="bold" lengthAdjust="spacing" textLength="151" x="631" y="26.9951">org.example.model</text><!--MD5=[bae616675d46511e4666057ca0cfe035]
class org.example.model.communication.server.UDPBroadcast--><a href="UDPBroadcast.html" target="_top" title="UDPBroadcast.html" xlink:actuate="onRequest" xlink:href="UDPBroadcast.html" xlink:show="new" xlink:title="UDPBroadcast.html" xlink:type="simple"><rect codeLine="3" fill="#FEFECE" filter="url(#f126qglgy13w37)" height="48" id="org.example.model.communication.server.UDPBroadcast" style="stroke:#A80036;stroke-width:1.5;" width="122" x="736" y="259.5"/><ellipse cx="751" cy="275.5" fill="#ADD1B2" rx="11" ry="11" style="stroke:#A80036;stroke-width:1.0;"/><path d="M753.9688,281.1406 Q753.3906,281.4375 752.75,281.5781 Q752.1094,281.7344 751.4063,281.7344 Q748.9063,281.7344 747.5781,280.0938 Q746.2656,278.4375 746.2656,275.3125 Q746.2656,272.1875 747.5781,270.5313 Q748.9063,268.875 751.4063,268.875 Q752.1094,268.875 752.75,269.0313 Q753.4063,269.1875 753.9688,269.4844 L753.9688,272.2031 Q753.3438,271.625 752.75,271.3594 Q752.1563,271.0781 751.5313,271.0781 Q750.1875,271.0781 749.5,272.1563 Q748.8125,273.2188 748.8125,275.3125 Q748.8125,277.4063 749.5,278.4844 Q750.1875,279.5469 751.5313,279.5469 Q752.1563,279.5469 752.75,279.2813 Q753.3438,279 753.9688,278.4219 L753.9688,281.1406 Z " fill="#000000"/><text fill="#000000" font-family="sans-serif" font-size="12" lengthAdjust="spacing" textLength="90" x="765" y="279.6543">UDPBroadcast</text><line style="stroke:#A80036;stroke-width:1.5;" x1="737" x2="857" y1="291.5" y2="291.5"/><line style="stroke:#A80036;stroke-width:1.5;" x1="737" x2="857" y1="299.5" y2="299.5"/></a><!--MD5=[07a775311252de8d3b51e9dccb8604bf]
class org.example.model.communication.server.UDPBroadcast.broadcastUDP--><a href="UDPBroadcast.broadcastUDP.html" target="_top" title="UDPBroadcast.broadcastUDP.html" xlink:actuate="onRequest" xlink:href="UDPBroadcast.broadcastUDP.html" xlink:show="new" xlink:title="UDPBroadcast.broadcastUDP.html" xlink:type="simple"><rect codeLine="6" fill="#FEFECE" filter="url(#f126qglgy13w37)" height="99.2188" id="org.example.model.communication.server.UDPBroadcast.broadcastUDP" style="stroke:#A80036;stroke-width:1.5;" width="297" x="560.5" y="425"/><ellipse cx="612.75" cy="441" fill="#ADD1B2" rx="11" ry="11" style="stroke:#A80036;stroke-width:1.0;"/><path d="M615.7188,446.6406 Q615.1406,446.9375 614.5,447.0781 Q613.8594,447.2344 613.1563,447.2344 Q610.6563,447.2344 609.3281,445.5938 Q608.0156,443.9375 608.0156,440.8125 Q608.0156,437.6875 609.3281,436.0313 Q610.6563,434.375 613.1563,434.375 Q613.8594,434.375 614.5,434.5313 Q615.1563,434.6875 615.7188,434.9844 L615.7188,437.7031 Q615.0938,437.125 614.5,436.8594 Q613.9063,436.5781 613.2813,436.5781 Q611.9375,436.5781 611.25,437.6563 Q610.5625,438.7188 610.5625,440.8125 Q610.5625,442.9063 611.25,443.9844 Q611.9375,445.0469 613.2813,445.0469 Q613.9063,445.0469 614.5,444.7813 Q615.0938,444.5 615.7188,443.9219 L615.7188,446.6406 Z " fill="#000000"/><text fill="#000000" font-family="sans-serif" font-size="12" lengthAdjust="spacing" textLength="184" x="633.25" y="445.1543">UDPBroadcast.broadcastUDP</text><line style="stroke:#A80036;stroke-width:1.5;" x1="561.5" x2="856.5" y1="457" y2="457"/><line style="stroke:#A80036;stroke-width:1.5;" x1="561.5" x2="856.5" y1="465" y2="465"/><ellipse cx="571.5" cy="476" fill="#84BE84" rx="3" ry="3" style="stroke:#038048;stroke-width:1.0;"/><text fill="#000000" font-family="sans-serif" font-size="11" lengthAdjust="spacing" textLength="181" x="580.5" y="479.2104">sendBroadcast(String, int): void</text><ellipse cx="571.5" cy="488.8047" fill="#84BE84" rx="3" ry="3" style="stroke:#038048;stroke-width:1.0;"/><text fill="#000000" font-family="sans-serif" font-size="11" lengthAdjust="spacing" textLength="271" x="580.5" y="492.0151">listAllBroadcastAddresses(): List&lt;InetAddress&gt;</text><ellipse cx="571.5" cy="501.6094" fill="#84BE84" rx="3" ry="3" style="stroke:#038048;stroke-width:1.0;"/><text fill="#000000" font-family="sans-serif" font-size="11" lengthAdjust="spacing" textLength="188" x="580.5" y="504.8198">sendUDP(String, int, String): void</text><ellipse cx="571.5" cy="514.4141" fill="#84BE84" rx="3" ry="3" style="stroke:#038048;stroke-width:1.0;"/><text fill="#000000" font-family="sans-serif" font-size="11" lengthAdjust="spacing" textLength="236" x="580.5" y="517.6245">DiscoverNetwork(): List&lt;ConnectedUser&gt;</text></a><!--MD5=[444d34cb8f5bbd352620e764e2884bc1]
class org.example.model.communication.server.UDPReceive--><a href="UDPReceive.html" target="_top" title="UDPReceive.html" xlink:actuate="onRequest" xlink:href="UDPReceive.html" xlink:show="new" xlink:title="UDPReceive.html" xlink:type="simple"><rect codeLine="13" fill="#FEFECE" filter="url(#f126qglgy13w37)" height="163.2422" id="org.example.model.communication.server.UDPReceive" style="stroke:#A80036;stroke-width:1.5;" width="366" x="335" y="202"/><ellipse cx="476.75" cy="218" fill="#ADD1B2" rx="11" ry="11" style="stroke:#A80036;stroke-width:1.0;"/><path d="M479.7188,223.6406 Q479.1406,223.9375 478.5,224.0781 Q477.8594,224.2344 477.1563,224.2344 Q474.6563,224.2344 473.3281,222.5938 Q472.0156,220.9375 472.0156,217.8125 Q472.0156,214.6875 473.3281,213.0313 Q474.6563,211.375 477.1563,211.375 Q477.8594,211.375 478.5,211.5313 Q479.1563,211.6875 479.7188,211.9844 L479.7188,214.7031 Q479.0938,214.125 478.5,213.8594 Q477.9063,213.5781 477.2813,213.5781 Q475.9375,213.5781 475.25,214.6563 Q474.5625,215.7188 474.5625,217.8125 Q474.5625,219.9063 475.25,220.9844 Q475.9375,222.0469 477.2813,222.0469 Q477.9063,222.0469 478.5,221.7813 Q479.0938,221.5 479.7188,220.9219 L479.7188,223.6406 Z " fill="#000000"/><text fill="#000000" font-family="sans-serif" font-size="12" lengthAdjust="spacing" textLength="74" x="497.25" y="222.1543">UDPReceive</text><line style="stroke:#A80036;stroke-width:1.5;" x1="336" x2="700" y1="234" y2="234"/><line style="stroke:#A80036;stroke-width:1.5;" x1="336" x2="700" y1="242" y2="242"/><ellipse cx="346" cy="253" fill="#84BE84" rx="3" ry="3" style="stroke:#038048;stroke-width:1.0;"/><text fill="#000000" font-family="sans-serif" font-size="11" lengthAdjust="spacing" textLength="101" x="355" y="256.2104">isOpen(): boolean</text><ellipse cx="346" cy="265.8047" fill="#84BE84" rx="3" ry="3" style="stroke:#038048;stroke-width:1.0;"/><text fill="#000000" font-family="sans-serif" font-size="11" lengthAdjust="spacing" textLength="132" x="355" y="269.0151">setOpen(boolean): void</text><ellipse cx="346" cy="278.6094" fill="#84BE84" rx="3" ry="3" style="stroke:#038048;stroke-width:1.0;"/><text fill="#000000" font-family="sans-serif" font-size="11" lengthAdjust="spacing" textLength="92" x="355" y="281.8198">getM_state(): int</text><ellipse cx="346" cy="291.4141" fill="#84BE84" rx="3" ry="3" style="stroke:#038048;stroke-width:1.0;"/><text fill="#000000" font-family="sans-serif" font-size="11" lengthAdjust="spacing" textLength="115" x="355" y="294.6245">setM_state(int): void</text><ellipse cx="346" cy="304.2188" fill="#84BE84" rx="3" ry="3" style="stroke:#038048;stroke-width:1.0;"/><text fill="#000000" font-family="sans-serif" font-size="11" lengthAdjust="spacing" textLength="58" x="355" y="307.4292">run(): void</text><ellipse cx="346" cy="317.0234" fill="#84BE84" rx="3" ry="3" style="stroke:#038048;stroke-width:1.0;"/><text fill="#000000" font-family="sans-serif" font-size="11" lengthAdjust="spacing" text-decoration="underline" textLength="109" x="355" y="320.2339">main(String[]): void</text><ellipse cx="346" cy="329.8281" fill="#84BE84" rx="3" ry="3" style="stroke:#038048;stroke-width:1.0;"/><text fill="#000000" font-family="sans-serif" font-size="11" lengthAdjust="spacing" textLength="277" x="355" y="333.0386">notifyAllSubscribers(List&lt;ConnectedUser&gt;): void</text><ellipse cx="346" cy="342.6328" fill="#84BE84" rx="3" ry="3" style="stroke:#038048;stroke-width:1.0;"/><text fill="#000000" font-family="sans-serif" font-size="11" lengthAdjust="spacing" textLength="326" x="355" y="345.8433">subscribe(CustomObserver&lt;List&lt;ConnectedUser&gt;&gt;): int</text><ellipse cx="346" cy="355.4375" fill="#84BE84" rx="3" ry="3" style="stroke:#038048;stroke-width:1.0;"/><text fill="#000000" font-family="sans-serif" font-size="11" lengthAdjust="spacing" textLength="340" x="355" y="358.6479">unsubscribe(int): CustomObserver&lt;List&lt;ConnectedUser&gt;&gt;</text></a><!--MD5=[6552b476420753e26cb16af7b357f67f]
class org.example.model.communication.server.HTTPServer--><a href="HTTPServer.html" target="_top" title="HTTPServer.html" xlink:actuate="onRequest" xlink:href="HTTPServer.html" xlink:show="new" xlink:title="HTTPServer.html" xlink:type="simple"><rect codeLine="25" fill="#FEFECE" filter="url(#f126qglgy13w37)" height="99.2188" id="org.example.model.communication.server.HTTPServer" style="stroke:#A80036;stroke-width:1.5;" width="268" x="32" y="234"/><ellipse cx="126.25" cy="250" fill="#ADD1B2" rx="11" ry="11" style="stroke:#A80036;stroke-width:1.0;"/><path d="M129.2188,255.6406 Q128.6406,255.9375 128,256.0781 Q127.3594,256.2344 126.6563,256.2344 Q124.1563,256.2344 122.8281,254.5938 Q121.5156,252.9375 121.5156,249.8125 Q121.5156,246.6875 122.8281,245.0313 Q124.1563,243.375 126.6563,243.375 Q127.3594,243.375 128,243.5313 Q128.6563,243.6875 129.2188,243.9844 L129.2188,246.7031 Q128.5938,246.125 128,245.8594 Q127.4063,245.5781 126.7813,245.5781 Q125.4375,245.5781 124.75,246.6563 Q124.0625,247.7188 124.0625,249.8125 Q124.0625,251.9063 124.75,252.9844 Q125.4375,254.0469 126.7813,254.0469 Q127.4063,254.0469 128,253.7813 Q128.5938,253.5 129.2188,252.9219 L129.2188,255.6406 Z " fill="#000000"/><text fill="#000000" font-family="sans-serif" font-size="12" lengthAdjust="spacing" textLength="71" x="146.75" y="254.1543">HTTPServer</text><line style="stroke:#A80036;stroke-width:1.5;" x1="33" x2="299" y1="266" y2="266"/><line style="stroke:#A80036;stroke-width:1.5;" x1="33" x2="299" y1="274" y2="274"/><ellipse cx="43" cy="285" fill="#84BE84" rx="3" ry="3" style="stroke:#038048;stroke-width:1.0;"/><text fill="#000000" font-family="sans-serif" font-size="11" lengthAdjust="spacing" textLength="89" x="52" y="288.2104">HTTPServer(int)</text><ellipse cx="43" cy="297.8047" fill="#84BE84" rx="3" ry="3" style="stroke:#038048;stroke-width:1.0;"/><text fill="#000000" font-family="sans-serif" font-size="11" lengthAdjust="spacing" text-decoration="underline" textLength="242" x="52" y="301.0151">sendResponse(HttpExchange, String): void</text><ellipse cx="43" cy="310.6094" fill="#84BE84" rx="3" ry="3" style="stroke:#038048;stroke-width:1.0;"/><text fill="#000000" font-family="sans-serif" font-size="11" lengthAdjust="spacing" textLength="212" x="52" y="313.8198">notifyAllSubscribers(HTTPEvent): void</text><ellipse cx="43" cy="323.4141" fill="#84BE84" rx="3" ry="3" style="stroke:#038048;stroke-width:1.0;"/><text fill="#000000" font-family="sans-serif" font-size="11" lengthAdjust="spacing" textLength="233" x="52" y="326.6245">addEventList(CompletableFuture&lt;?&gt;): int</text></a><!--MD5=[0d73d898558f5941c48aa254e51fef11]
class java.lang.Thread--><rect codeLine="39" fill="#FEFECE" filter="url(#f126qglgy13w37)" height="86.4141" id="java.lang.Thread" style="stroke:#A80036;stroke-width:1.5;" width="137" x="449.5" y="41"/><ellipse cx="491.95" cy="57" fill="#ADD1B2" rx="11" ry="11" style="stroke:#A80036;stroke-width:1.0;"/><path d="M494.9188,62.6406 Q494.3406,62.9375 493.7,63.0781 Q493.0594,63.2344 492.3563,63.2344 Q489.8563,63.2344 488.5281,61.5938 Q487.2156,59.9375 487.2156,56.8125 Q487.2156,53.6875 488.5281,52.0313 Q489.8563,50.375 492.3563,50.375 Q493.0594,50.375 493.7,50.5313 Q494.3563,50.6875 494.9188,50.9844 L494.9188,53.7031 Q494.2938,53.125 493.7,52.8594 Q493.1063,52.5781 492.4813,52.5781 Q491.1375,52.5781 490.45,53.6563 Q489.7625,54.7188 489.7625,56.8125 Q489.7625,58.9063 490.45,59.9844 Q491.1375,61.0469 492.4813,61.0469 Q493.1063,61.0469 493.7,60.7813 Q494.2938,60.5 494.9188,59.9219 L494.9188,62.6406 Z " fill="#000000"/><text fill="#000000" font-family="sans-serif" font-size="12" lengthAdjust="spacing" textLength="44" x="512.05" y="61.1543">Thread</text><line style="stroke:#A80036;stroke-width:1.5;" x1="450.5" x2="585.5" y1="73" y2="73"/><ellipse cx="460.5" cy="84" rx="3" ry="3" style="stroke:#038048;stroke-width:1.0;fill:none;"/><text fill="#000000" font-family="sans-serif" font-size="11" lengthAdjust="spacing" text-decoration="underline" textLength="98" x="469.5" y="87.2104">MIN_PRIORITY: int</text><ellipse cx="460.5" cy="96.8047" rx="3" ry="3" style="stroke:#038048;stroke-width:1.0;fill:none;"/><text fill="#000000" font-family="sans-serif" font-size="11" lengthAdjust="spacing" text-decoration="underline" textLength="111" x="469.5" y="100.0151">NORM_PRIORITY: int</text><ellipse cx="460.5" cy="109.6094" rx="3" ry="3" style="stroke:#038048;stroke-width:1.0;fill:none;"/><text fill="#000000" font-family="sans-serif" font-size="11" lengthAdjust="spacing" text-decoration="underline" textLength="101" x="469.5" y="112.8198">MAX_PRIORITY: int</text><line style="stroke:#A80036;stroke-width:1.5;" x1="450.5" x2="585.5" y1="119.4141" y2="119.4141"/><!--MD5=[8dac795f9edbf65a524ac462449c98fb]
class java.lang.Runnable--><rect codeLine="44" fill="#FEFECE" filter="url(#f126qglgy13w37)" height="60.8047" id="java.lang.Runnable" style="stroke:#A80036;stroke-width:1.5;" width="91" x="323.5" y="53.5"/><ellipse cx="338.5" cy="69.5" fill="#B4A7E5" rx="11" ry="11" style="stroke:#A80036;stroke-width:1.0;"/><path d="M334.4219,65.2656 L334.4219,63.1094 L341.8125,63.1094 L341.8125,65.2656 L339.3438,65.2656 L339.3438,73.3438 L341.8125,73.3438 L341.8125,75.5 L334.4219,75.5 L334.4219,73.3438 L336.8906,73.3438 L336.8906,65.2656 L334.4219,65.2656 Z " fill="#000000"/><text fill="#000000" font-family="sans-serif" font-size="12" font-style="italic" lengthAdjust="spacing" textLength="59" x="352.5" y="73.6543">Runnable</text><line style="stroke:#A80036;stroke-width:1.5;" x1="324.5" x2="413.5" y1="85.5" y2="85.5"/><line style="stroke:#A80036;stroke-width:1.5;" x1="324.5" x2="413.5" y1="93.5" y2="93.5"/><ellipse cx="334.5" cy="104.5" fill="#84BE84" rx="3" ry="3" style="stroke:#038048;stroke-width:1.0;"/><text fill="#000000" font-family="sans-serif" font-size="11" font-style="italic" lengthAdjust="spacing" textLength="59" x="343.5" y="107.7104">run(): void</text><!--MD5=[1dbd0080f1d85bd2496feb2f2ab43e82]
class org.example.model.CustomObservable--><a href="../../CustomObservable.html" target="_top" title="../../CustomObservable.html" xlink:actuate="onRequest" xlink:href="../../CustomObservable.html" xlink:show="new" xlink:title="../../CustomObservable.html" xlink:type="simple"><rect codeLine="50" fill="#FEFECE" filter="url(#f126qglgy13w37)" height="73.6094" id="org.example.model.CustomObservable" style="stroke:#A80036;stroke-width:1.5;" width="245" x="643.5" y="47"/><ellipse cx="699.25" cy="63" fill="#B4A7E5" rx="11" ry="11" style="stroke:#A80036;stroke-width:1.0;"/><path d="M695.1719,58.7656 L695.1719,56.6094 L702.5625,56.6094 L702.5625,58.7656 L700.0938,58.7656 L700.0938,66.8438 L702.5625,66.8438 L702.5625,69 L695.1719,69 L695.1719,66.8438 L697.6406,66.8438 L697.6406,58.7656 L695.1719,58.7656 Z " fill="#000000"/><text fill="#000000" font-family="sans-serif" font-size="12" font-style="italic" lengthAdjust="spacing" textLength="114" x="719.75" y="67.1543">CustomObservable</text><rect fill="#FFFFFF" height="15.9688" style="stroke:#000000;stroke-width:1.0;stroke-dasharray:2.0,2.0;" width="9" x="882.5" y="44"/><text fill="#000000" font-family="sans-serif" font-size="12" font-style="italic" lengthAdjust="spacing" textLength="7" x="883.5" y="56.1387">T</text><line style="stroke:#A80036;stroke-width:1.5;" x1="644.5" x2="887.5" y1="79" y2="79"/><line style="stroke:#A80036;stroke-width:1.5;" x1="644.5" x2="887.5" y1="87" y2="87"/><ellipse cx="654.5" cy="98" fill="#84BE84" rx="3" ry="3" style="stroke:#038048;stroke-width:1.0;"/><text fill="#000000" font-family="sans-serif" font-size="11" font-style="italic" lengthAdjust="spacing" textLength="205" x="663.5" y="101.2104">subscribe(CustomObserver&lt;T&gt;): int</text><ellipse cx="654.5" cy="110.8047" fill="#84BE84" rx="3" ry="3" style="stroke:#038048;stroke-width:1.0;"/><text fill="#000000" font-family="sans-serif" font-size="11" font-style="italic" lengthAdjust="spacing" textLength="219" x="663.5" y="114.0151">unsubscribe(int): CustomObserver&lt;T&gt;</text></a><!--MD5=[6f8dd2cafb39ebe9f188f9589d26ac04]
reverse link org.example.model.communication.server.UDPBroadcast to org.example.model.communication.server.UDPBroadcast.broadcastUDP--><path codeLine="32" d="M779.78,321.48 C766.06,350.95 746.73,392.47 731.73,424.67 " fill="none" id="org.example.model.communication.server.UDPBroadcast-backto-org.example.model.communication.server.UDPBroadcast.broadcastUDP" style="stroke:#A80036;stroke-width:1.0;"/><ellipse cx="782.8348" cy="314.9332" fill="#FFFFFF" rx="8" ry="8" style="stroke:#A80036;stroke-width:1.0;"/><line style="stroke:#A80036;stroke-width:1.0;" x1="779.4597" x2="786.21" y1="322.1863" y2="307.68"/><line style="stroke:#A80036;stroke-width:1.0;" x1="775.5817" x2="790.088" y1="311.558" y2="318.3083"/><!--MD5=[3e56bc69252dcc214b0924514b225de1]
reverse link java.lang.Thread to org.example.model.communication.server.UDPReceive--><path codeLine="33" d="M518,147.44 C518,164.75 518,183.78 518,201.96 " fill="none" id="java.lang.Thread-backto-org.example.model.communication.server.UDPReceive" style="stroke:#A80036;stroke-width:1.0;"/><polygon fill="none" points="511,147.37,518,127.37,525,147.37,511,147.37" style="stroke:#A80036;stroke-width:1.0;"/><!--MD5=[d3155baa6a8f526f0dd6933bdcfdad0e]
reverse link java.lang.Runnable to org.example.model.communication.server.UDPReceive--><path codeLine="34" d="M403.53,130.76 C419.48,151.91 438.9,177.65 457.19,201.89 " fill="none" id="java.lang.Runnable-backto-org.example.model.communication.server.UDPReceive" style="stroke:#A80036;stroke-width:1.0;stroke-dasharray:7.0,7.0;"/><polygon fill="none" points="397.76,134.75,391.31,114.57,408.94,126.32,397.76,134.75" style="stroke:#A80036;stroke-width:1.0;"/><!--MD5=[45f7a151bf23d83954f4871d7493be8b]
reverse link org.example.model.CustomObservable to org.example.model.communication.server.UDPReceive--><path codeLine="35" d="M704.74,133.78 C678.95,154.33 648.23,178.79 619.23,201.88 " fill="none" id="org.example.model.CustomObservable-backto-org.example.model.communication.server.UDPReceive" style="stroke:#A80036;stroke-width:1.0;stroke-dasharray:7.0,7.0;"/><polygon fill="none" points="700.51,128.21,720.51,121.22,709.23,139.16,700.51,128.21" style="stroke:#A80036;stroke-width:1.0;"/><text fill="#888888" font-family="sans-serif" font-size="10" lengthAdjust="spacing" textLength="192" x="358.5" y="555.2822">UMLDoclet 2.0.15, PlantUML 1.2021.13</text><!--MD5=[1d346de62aa8393d5e0d0533f24d964e]
@startuml
    namespace org.example.model.communication.server {

        class UDPBroadcast [[UDPBroadcast.html]] {
        }

        class org.example.model.communication.server.UDPBroadcast.broadcastUDP [[UDPBroadcast.broadcastUDP.html]] {
            +sendBroadcast(String, int): void
            +listAllBroadcastAddresses(): List<InetAddress>
            +sendUDP(String, int, String): void
            +DiscoverNetwork(): List<ConnectedUser>
        }

        class UDPReceive [[UDPReceive.html]] {
            +isOpen(): boolean
            +setOpen(boolean): void
            +getM_state(): int
            +setM_state(int): void
            +run(): void
            {static} +main(String[]): void
            +notifyAllSubscribers(List<ConnectedUser>): void
            +subscribe(CustomObserver<List<ConnectedUser>>): int
            +unsubscribe(int): CustomObserver<List<ConnectedUser>>
        }

        class HTTPServer [[HTTPServer.html]] {
            +HTTPServer(int)
            {static} +sendResponse(HttpExchange, String): void
            +notifyAllSubscribers(HTTPEvent): void
            +addEventList(CompletableFuture<?>): int
        }

        UDPBroadcast +- - org.example.model.communication.server.UDPBroadcast.broadcastUDP
        java.lang.Thread <|- - UDPReceive
        java.lang.Runnable <|.. UDPReceive
        org.example.model.CustomObservable <|.. UDPReceive
    }

    namespace java.lang {
        class Thread {
            {static} +MIN_PRIORITY: int
            {static} +NORM_PRIORITY: int
            {static} +MAX_PRIORITY: int
        }
        interface Runnable {
            {abstract} +run(): void
        }
    }

    namespace org.example.model {
        interface CustomObservable<T> [[../../CustomObservable.html]] {
            {abstract} +subscribe(CustomObserver<T>): int
            {abstract} +unsubscribe(int): CustomObserver<T>
        }
    }

    center footer UMLDoclet 2.0.15, PlantUML 1.2021.13
@enduml

PlantUML version 1.2021.13(Mon Nov 01 11:38:45 UTC 2021)
(APACHE source distribution)
Java Runtime: OpenJDK Runtime Environment
JVM: OpenJDK 64-Bit Server VM
Default Encoding: UTF-8
Language: en
Country: null
--></g></svg>