<?xml version="1.0" encoding="UTF-8" standalone="no"?><svg xmlns="http://www.w3.org/2000/svg" xmlns:xlink="http://www.w3.org/1999/xlink" contentScriptType="application/ecmascript" contentStyleType="text/css" height="232px" preserveAspectRatio="none" style="width:318px;height:232px;background:#FFFFFF;" version="1.1" viewBox="0 0 318 232" width="318px" zoomAndPan="magnify"><defs><filter height="300%" id="fc6ws1hnlsaqg" width="300%" x="-1" y="-1"><feGaussianBlur result="blurOut" stdDeviation="2.0"/><feColorMatrix in="blurOut" result="blurOut2" type="matrix" values="0 0 0 0 0 0 0 0 0 0 0 0 0 0 0 0 0 0 .4 0"/><feOffset dx="4.0" dy="4.0" in="blurOut2" result="blurOut3"/><feBlend in="SourceGraphic" in2="blurOut3" mode="normal"/></filter></defs><g><!--MD5=[07a775311252de8d3b51e9dccb8604bf]
class org.example.model.communication.server.UDPBroadcast.broadcastUDP--><a href="UDPBroadcast.broadcastUDP.html" target="_top" title="UDPBroadcast.broadcastUDP.html" xlink:actuate="onRequest" xlink:href="UDPBroadcast.broadcastUDP.html" xlink:show="new" xlink:title="UDPBroadcast.broadcastUDP.html" xlink:type="simple"><rect codeLine="5" fill="#FEFECE" filter="url(#fc6ws1hnlsaqg)" height="97.1563" id="org.example.model.communication.server.UDPBroadcast.broadcastUDP" style="stroke:#A80036;stroke-width:1.5;" width="297" x="7" y="105"/><ellipse cx="49" cy="123.9688" fill="#ADD1B2" rx="11" ry="11" style="stroke:#A80036;stroke-width:1.0;"/><path d="M51.9688,129.6094 Q51.3906,129.9063 50.75,130.0469 Q50.1094,130.2031 49.4063,130.2031 Q46.9063,130.2031 45.5781,128.5625 Q44.2656,126.9063 44.2656,123.7813 Q44.2656,120.6563 45.5781,119 Q46.9063,117.3438 49.4063,117.3438 Q50.1094,117.3438 50.75,117.5 Q51.4063,117.6563 51.9688,117.9531 L51.9688,120.6719 Q51.3438,120.0938 50.75,119.8281 Q50.1563,119.5469 49.5313,119.5469 Q48.1875,119.5469 47.5,120.625 Q46.8125,121.6875 46.8125,123.7813 Q46.8125,125.875 47.5,126.9531 Q48.1875,128.0156 49.5313,128.0156 Q50.1563,128.0156 50.75,127.75 Q51.3438,127.4688 51.9688,126.8906 L51.9688,129.6094 Z " fill="#000000"/><text fill="#000000" font-family="sans-serif" font-size="14" lengthAdjust="spacing" textLength="203" x="70" y="122.9951">UDPBroadcast.broadcastUDP</text><text fill="#000000" font-family="sans-serif" font-size="10" lengthAdjust="spacing" textLength="205" x="69" y="135.5791">org.example.model.communication.server</text><line style="stroke:#A80036;stroke-width:1.5;" x1="8" x2="303" y1="142.9375" y2="142.9375"/><ellipse cx="18" cy="153.9375" fill="#84BE84" rx="3" ry="3" style="stroke:#038048;stroke-width:1.0;"/><text fill="#000000" font-family="sans-serif" font-size="11" lengthAdjust="spacing" textLength="181" x="27" y="157.1479">sendBroadcast(String, int): void</text><ellipse cx="18" cy="166.7422" fill="#84BE84" rx="3" ry="3" style="stroke:#038048;stroke-width:1.0;"/><text fill="#000000" font-family="sans-serif" font-size="11" lengthAdjust="spacing" textLength="271" x="27" y="169.9526">listAllBroadcastAddresses(): List&lt;InetAddress&gt;</text><ellipse cx="18" cy="179.5469" fill="#84BE84" rx="3" ry="3" style="stroke:#038048;stroke-width:1.0;"/><text fill="#000000" font-family="sans-serif" font-size="11" lengthAdjust="spacing" textLength="188" x="27" y="182.7573">sendUDP(String, int, String): void</text><ellipse cx="18" cy="192.3516" fill="#84BE84" rx="3" ry="3" style="stroke:#038048;stroke-width:1.0;"/><text fill="#000000" font-family="sans-serif" font-size="11" lengthAdjust="spacing" textLength="236" x="27" y="195.562">DiscoverNetwork(): List&lt;ConnectedUser&gt;</text></a><!--MD5=[bae616675d46511e4666057ca0cfe035]
class org.example.model.communication.server.UDPBroadcast--><a href="UDPBroadcast.html" target="_top" title="UDPBroadcast.html" xlink:actuate="onRequest" xlink:href="UDPBroadcast.html" xlink:show="new" xlink:title="UDPBroadcast.html" xlink:type="simple"><rect codeLine="12" fill="#FEFECE" filter="url(#fc6ws1hnlsaqg)" height="37.9375" id="org.example.model.communication.server.UDPBroadcast" style="stroke:#A80036;stroke-width:1.5;" width="237" x="37" y="7"/><ellipse cx="52" cy="25.9688" fill="#ADD1B2" rx="11" ry="11" style="stroke:#A80036;stroke-width:1.0;"/><path d="M54.9688,31.6094 Q54.3906,31.9063 53.75,32.0469 Q53.1094,32.2031 52.4063,32.2031 Q49.9063,32.2031 48.5781,30.5625 Q47.2656,28.9063 47.2656,25.7813 Q47.2656,22.6563 48.5781,21 Q49.9063,19.3438 52.4063,19.3438 Q53.1094,19.3438 53.75,19.5 Q54.4063,19.6563 54.9688,19.9531 L54.9688,22.6719 Q54.3438,22.0938 53.75,21.8281 Q53.1563,21.5469 52.5313,21.5469 Q51.1875,21.5469 50.5,22.625 Q49.8125,23.6875 49.8125,25.7813 Q49.8125,27.875 50.5,28.9531 Q51.1875,30.0156 52.5313,30.0156 Q53.1563,30.0156 53.75,29.75 Q54.3438,29.4688 54.9688,28.8906 L54.9688,31.6094 Z " fill="#000000"/><text fill="#000000" font-family="sans-serif" font-size="14" lengthAdjust="spacing" textLength="100" x="118.5" y="24.9951">UDPBroadcast</text><text fill="#000000" font-family="sans-serif" font-size="10" lengthAdjust="spacing" textLength="205" x="66" y="37.5791">org.example.model.communication.server</text></a><!--MD5=[6f8dd2cafb39ebe9f188f9589d26ac04]
reverse link org.example.model.communication.server.UDPBroadcast to org.example.model.communication.server.UDPBroadcast.broadcastUDP--><path codeLine="14" d="M155.5,60.47 C155.5,74.12 155.5,90.14 155.5,104.96 " fill="none" id="org.example.model.communication.server.UDPBroadcast-backto-org.example.model.communication.server.UDPBroadcast.broadcastUDP" style="stroke:#A80036;stroke-width:1.0;"/><ellipse cx="155.5" cy="53.25" fill="#FFFFFF" rx="8" ry="8" style="stroke:#A80036;stroke-width:1.0;"/><line style="stroke:#A80036;stroke-width:1.0;" x1="155.5" x2="155.5" y1="61.25" y2="45.25"/><line style="stroke:#A80036;stroke-width:1.0;" x1="147.5" x2="163.5" y1="53.25" y2="53.25"/><text fill="#888888" font-family="sans-serif" font-size="10" lengthAdjust="spacing" textLength="192" x="56.5" y="224.4385">UMLDoclet 2.0.15, PlantUML 1.2021.13</text><!--MD5=[018f9de36b73f38ea748726b7e253074]
@startuml
    set namespaceSeparator none
    hide empty fields
    hide empty methods

    class "<size:14>UDPBroadcast.broadcastUDP\n<size:10>org.example.model.communication.server" as org.example.model.communication.server.UDPBroadcast.broadcastUDP [[UDPBroadcast.broadcastUDP.html]] {
        +sendBroadcast(String, int): void
        +listAllBroadcastAddresses(): List<InetAddress>
        +sendUDP(String, int, String): void
        +DiscoverNetwork(): List<ConnectedUser>
    }

    class "<size:14>UDPBroadcast\n<size:10>org.example.model.communication.server" as org.example.model.communication.server.UDPBroadcast [[UDPBroadcast.html]]

    org.example.model.communication.server.UDPBroadcast +- - org.example.model.communication.server.UDPBroadcast.broadcastUDP

    center footer UMLDoclet 2.0.15, PlantUML 1.2021.13
@enduml

PlantUML version 1.2021.13(Mon Nov 01 11:38:45 UTC 2021)
(APACHE source distribution)
Java Runtime: OpenJDK Runtime Environment
JVM: OpenJDK 64-Bit Server VM
Default Encoding: UTF-8
Language: en
Country: null
--></g></svg>