<?xml version="1.0" encoding="UTF-8" standalone="no"?><svg xmlns="http://www.w3.org/2000/svg" xmlns:xlink="http://www.w3.org/1999/xlink" contentScriptType="application/ecmascript" contentStyleType="text/css" height="173px" preserveAspectRatio="none" style="width:258px;height:173px;background:#FFFFFF;" version="1.1" viewBox="0 0 258 173" width="258px" zoomAndPan="magnify"><defs><filter height="300%" id="f3w088g0g5jld" width="300%" x="-1" y="-1"><feGaussianBlur result="blurOut" stdDeviation="2.0"/><feColorMatrix in="blurOut" result="blurOut2" type="matrix" values="0 0 0 0 0 0 0 0 0 0 0 0 0 0 0 0 0 0 .4 0"/><feOffset dx="4.0" dy="4.0" in="blurOut2" result="blurOut3"/><feBlend in="SourceGraphic" in2="blurOut3" mode="normal"/></filter></defs><g><!--MD5=[bae616675d46511e4666057ca0cfe035]
class org.example.model.communication.server.UDPBroadcast--><a href="UDPBroadcast.html" target="_top" title="UDPBroadcast.html" xlink:actuate="onRequest" xlink:href="UDPBroadcast.html" xlink:show="new" xlink:title="UDPBroadcast.html" xlink:type="simple"><rect codeLine="5" fill="#FEFECE" filter="url(#f3w088g0g5jld)" height="37.9375" id="org.example.model.communication.server.UDPBroadcast" style="stroke:#A80036;stroke-width:1.5;" width="237" x="7" y="7"/><ellipse cx="22" cy="25.9688" fill="#ADD1B2" rx="11" ry="11" style="stroke:#A80036;stroke-width:1.0;"/><path d="M24.9688,31.6094 Q24.3906,31.9063 23.75,32.0469 Q23.1094,32.2031 22.4063,32.2031 Q19.9063,32.2031 18.5781,30.5625 Q17.2656,28.9063 17.2656,25.7813 Q17.2656,22.6563 18.5781,21 Q19.9063,19.3438 22.4063,19.3438 Q23.1094,19.3438 23.75,19.5 Q24.4063,19.6563 24.9688,19.9531 L24.9688,22.6719 Q24.3438,22.0938 23.75,21.8281 Q23.1563,21.5469 22.5313,21.5469 Q21.1875,21.5469 20.5,22.625 Q19.8125,23.6875 19.8125,25.7813 Q19.8125,27.875 20.5,28.9531 Q21.1875,30.0156 22.5313,30.0156 Q23.1563,30.0156 23.75,29.75 Q24.3438,29.4688 24.9688,28.8906 L24.9688,31.6094 Z " fill="#000000"/><text fill="#000000" font-family="sans-serif" font-size="14" lengthAdjust="spacing" textLength="100" x="88.5" y="24.9951">UDPBroadcast</text><text fill="#000000" font-family="sans-serif" font-size="10" lengthAdjust="spacing" textLength="205" x="36" y="37.5791">org.example.model.communication.server</text></a><!--MD5=[07a775311252de8d3b51e9dccb8604bf]
class org.example.model.communication.server.UDPBroadcast.broadcastUDP--><a href="UDPBroadcast.broadcastUDP.html" target="_top" title="UDPBroadcast.broadcastUDP.html" xlink:actuate="onRequest" xlink:href="UDPBroadcast.broadcastUDP.html" xlink:show="new" xlink:title="UDPBroadcast.broadcastUDP.html" xlink:type="simple"><rect codeLine="7" fill="#FEFECE" filter="url(#f3w088g0g5jld)" height="37.9375" id="org.example.model.communication.server.UDPBroadcast.broadcastUDP" style="stroke:#A80036;stroke-width:1.5;" width="237" x="7" y="105"/><ellipse cx="22" cy="123.9688" fill="#ADD1B2" rx="11" ry="11" style="stroke:#A80036;stroke-width:1.0;"/><path d="M24.9688,129.6094 Q24.3906,129.9063 23.75,130.0469 Q23.1094,130.2031 22.4063,130.2031 Q19.9063,130.2031 18.5781,128.5625 Q17.2656,126.9063 17.2656,123.7813 Q17.2656,120.6563 18.5781,119 Q19.9063,117.3438 22.4063,117.3438 Q23.1094,117.3438 23.75,117.5 Q24.4063,117.6563 24.9688,117.9531 L24.9688,120.6719 Q24.3438,120.0938 23.75,119.8281 Q23.1563,119.5469 22.5313,119.5469 Q21.1875,119.5469 20.5,120.625 Q19.8125,121.6875 19.8125,123.7813 Q19.8125,125.875 20.5,126.9531 Q21.1875,128.0156 22.5313,128.0156 Q23.1563,128.0156 23.75,127.75 Q24.3438,127.4688 24.9688,126.8906 L24.9688,129.6094 Z " fill="#000000"/><text fill="#000000" font-family="sans-serif" font-size="14" lengthAdjust="spacing" textLength="203" x="37" y="122.9951">UDPBroadcast.broadcastUDP</text><text fill="#000000" font-family="sans-serif" font-size="10" lengthAdjust="spacing" textLength="205" x="36" y="135.5791">org.example.model.communication.server</text></a><!--MD5=[6f8dd2cafb39ebe9f188f9589d26ac04]
reverse link org.example.model.communication.server.UDPBroadcast to org.example.model.communication.server.UDPBroadcast.broadcastUDP--><path codeLine="9" d="M125.5,60.11 C125.5,75.05 125.5,92.11 125.5,104.7 " fill="none" id="org.example.model.communication.server.UDPBroadcast-backto-org.example.model.communication.server.UDPBroadcast.broadcastUDP" style="stroke:#A80036;stroke-width:1.0;"/><ellipse cx="125.5" cy="53.06" fill="#FFFFFF" rx="8" ry="8" style="stroke:#A80036;stroke-width:1.0;"/><line style="stroke:#A80036;stroke-width:1.0;" x1="125.5" x2="125.5" y1="61.06" y2="45.06"/><line style="stroke:#A80036;stroke-width:1.0;" x1="117.5" x2="133.5" y1="53.06" y2="53.06"/><text fill="#888888" font-family="sans-serif" font-size="10" lengthAdjust="spacing" textLength="192" x="26.5" y="165.2197">UMLDoclet 2.0.15, PlantUML 1.2021.13</text><!--MD5=[8b4854ba8bdc88a0ac85aa6be3a53b5c]
@startuml
    set namespaceSeparator none
    hide empty fields
    hide empty methods

    class "<size:14>UDPBroadcast\n<size:10>org.example.model.communication.server" as org.example.model.communication.server.UDPBroadcast [[UDPBroadcast.html]] {
    }
    class "<size:14>UDPBroadcast.broadcastUDP\n<size:10>org.example.model.communication.server" as org.example.model.communication.server.UDPBroadcast.broadcastUDP [[UDPBroadcast.broadcastUDP.html]]

    org.example.model.communication.server.UDPBroadcast +- - org.example.model.communication.server.UDPBroadcast.broadcastUDP

    center footer UMLDoclet 2.0.15, PlantUML 1.2021.13
@enduml

PlantUML version 1.2021.13(Mon Nov 01 11:38:45 UTC 2021)
(APACHE source distribution)
Java Runtime: OpenJDK Runtime Environment
JVM: OpenJDK 64-Bit Server VM
Default Encoding: UTF-8
Language: en
Country: null
--></g></svg>