<?xml version="1.0" encoding="UTF-8" standalone="no"?><svg xmlns="http://www.w3.org/2000/svg" xmlns:xlink="http://www.w3.org/1999/xlink" contentScriptType="application/ecmascript" contentStyleType="text/css" height="333px" preserveAspectRatio="none" style="width:592px;height:333px;background:#FFFFFF;" version="1.1" viewBox="0 0 592 333" width="592px" zoomAndPan="magnify"><defs><filter height="300%" id="f1qx91pkfbus6a" width="300%" x="-1" y="-1"><feGaussianBlur result="blurOut" stdDeviation="2.0"/><feColorMatrix in="blurOut" result="blurOut2" type="matrix" values="0 0 0 0 0 0 0 0 0 0 0 0 0 0 0 0 0 0 .4 0"/><feOffset dx="4.0" dy="4.0" in="blurOut2" result="blurOut3"/><feBlend in="SourceGraphic" in2="blurOut3" mode="normal"/></filter></defs><g><!--MD5=[444d34cb8f5bbd352620e764e2884bc1]
class org.example.model.communication.server.UDPReceive--><a href="UDPReceive.html" target="_top" title="UDPReceive.html" xlink:actuate="onRequest" xlink:href="UDPReceive.html" xlink:show="new" xlink:title="UDPReceive.html" xlink:type="simple"><rect codeLine="5" fill="#FEFECE" filter="url(#f1qx91pkfbus6a)" height="161.1797" id="org.example.model.communication.server.UDPReceive" style="stroke:#A80036;stroke-width:1.5;" width="366" x="7" y="142"/><ellipse cx="83.25" cy="160.9688" fill="#ADD1B2" rx="11" ry="11" style="stroke:#A80036;stroke-width:1.0;"/><path d="M86.2188,166.6094 Q85.6406,166.9063 85,167.0469 Q84.3594,167.2031 83.6563,167.2031 Q81.1563,167.2031 79.8281,165.5625 Q78.5156,163.9063 78.5156,160.7813 Q78.5156,157.6563 79.8281,156 Q81.1563,154.3438 83.6563,154.3438 Q84.3594,154.3438 85,154.5 Q85.6563,154.6563 86.2188,154.9531 L86.2188,157.6719 Q85.5938,157.0938 85,156.8281 Q84.4063,156.5469 83.7813,156.5469 Q82.4375,156.5469 81.75,157.625 Q81.0625,158.6875 81.0625,160.7813 Q81.0625,162.875 81.75,163.9531 Q82.4375,165.0156 83.7813,165.0156 Q84.4063,165.0156 85,164.75 Q85.5938,164.4688 86.2188,163.8906 L86.2188,166.6094 Z " fill="#000000"/><text fill="#000000" font-family="sans-serif" font-size="14" lengthAdjust="spacing" textLength="85" x="163.75" y="159.9951">UDPReceive</text><text fill="#000000" font-family="sans-serif" font-size="10" lengthAdjust="spacing" textLength="205" x="103.75" y="172.5791">org.example.model.communication.server</text><line style="stroke:#A80036;stroke-width:1.5;" x1="8" x2="372" y1="179.9375" y2="179.9375"/><ellipse cx="18" cy="190.9375" fill="#84BE84" rx="3" ry="3" style="stroke:#038048;stroke-width:1.0;"/><text fill="#000000" font-family="sans-serif" font-size="11" lengthAdjust="spacing" textLength="101" x="27" y="194.1479">isOpen(): boolean</text><ellipse cx="18" cy="203.7422" fill="#84BE84" rx="3" ry="3" style="stroke:#038048;stroke-width:1.0;"/><text fill="#000000" font-family="sans-serif" font-size="11" lengthAdjust="spacing" textLength="132" x="27" y="206.9526">setOpen(boolean): void</text><ellipse cx="18" cy="216.5469" fill="#84BE84" rx="3" ry="3" style="stroke:#038048;stroke-width:1.0;"/><text fill="#000000" font-family="sans-serif" font-size="11" lengthAdjust="spacing" textLength="92" x="27" y="219.7573">getM_state(): int</text><ellipse cx="18" cy="229.3516" fill="#84BE84" rx="3" ry="3" style="stroke:#038048;stroke-width:1.0;"/><text fill="#000000" font-family="sans-serif" font-size="11" lengthAdjust="spacing" textLength="115" x="27" y="232.562">setM_state(int): void</text><ellipse cx="18" cy="242.1563" fill="#84BE84" rx="3" ry="3" style="stroke:#038048;stroke-width:1.0;"/><text fill="#000000" font-family="sans-serif" font-size="11" lengthAdjust="spacing" textLength="58" x="27" y="245.3667">run(): void</text><ellipse cx="18" cy="254.9609" fill="#84BE84" rx="3" ry="3" style="stroke:#038048;stroke-width:1.0;"/><text fill="#000000" font-family="sans-serif" font-size="11" lengthAdjust="spacing" text-decoration="underline" textLength="109" x="27" y="258.1714">main(String[]): void</text><ellipse cx="18" cy="267.7656" fill="#84BE84" rx="3" ry="3" style="stroke:#038048;stroke-width:1.0;"/><text fill="#000000" font-family="sans-serif" font-size="11" lengthAdjust="spacing" textLength="277" x="27" y="270.9761">notifyAllSubscribers(List&lt;ConnectedUser&gt;): void</text><ellipse cx="18" cy="280.5703" fill="#84BE84" rx="3" ry="3" style="stroke:#038048;stroke-width:1.0;"/><text fill="#000000" font-family="sans-serif" font-size="11" lengthAdjust="spacing" textLength="326" x="27" y="283.7808">subscribe(CustomObserver&lt;List&lt;ConnectedUser&gt;&gt;): int</text><ellipse cx="18" cy="293.375" fill="#84BE84" rx="3" ry="3" style="stroke:#038048;stroke-width:1.0;"/><text fill="#000000" font-family="sans-serif" font-size="11" lengthAdjust="spacing" textLength="340" x="27" y="296.5854">unsubscribe(int): CustomObserver&lt;List&lt;ConnectedUser&gt;&gt;</text></a><!--MD5=[0d73d898558f5941c48aa254e51fef11]
class java.lang.Thread--><rect codeLine="17" fill="#FEFECE" filter="url(#f1qx91pkfbus6a)" height="37.9375" id="java.lang.Thread" style="stroke:#A80036;stroke-width:1.5;" width="81" x="24.5" y="27"/><ellipse cx="39.5" cy="45.9688" fill="#ADD1B2" rx="11" ry="11" style="stroke:#A80036;stroke-width:1.0;"/><path d="M42.4688,51.6094 Q41.8906,51.9063 41.25,52.0469 Q40.6094,52.2031 39.9063,52.2031 Q37.4063,52.2031 36.0781,50.5625 Q34.7656,48.9063 34.7656,45.7813 Q34.7656,42.6563 36.0781,41 Q37.4063,39.3438 39.9063,39.3438 Q40.6094,39.3438 41.25,39.5 Q41.9063,39.6563 42.4688,39.9531 L42.4688,42.6719 Q41.8438,42.0938 41.25,41.8281 Q40.6563,41.5469 40.0313,41.5469 Q38.6875,41.5469 38,42.625 Q37.3125,43.6875 37.3125,45.7813 Q37.3125,47.875 38,48.9531 Q38.6875,50.0156 40.0313,50.0156 Q40.6563,50.0156 41.25,49.75 Q41.8438,49.4688 42.4688,48.8906 L42.4688,51.6094 Z " fill="#000000"/><text fill="#000000" font-family="sans-serif" font-size="14" lengthAdjust="spacing" textLength="49" x="53.5" y="44.9951">Thread</text><text fill="#000000" font-family="sans-serif" font-size="10" lengthAdjust="spacing" textLength="43" x="56.5" y="57.5791">java.lang</text><!--MD5=[8dac795f9edbf65a524ac462449c98fb]
class java.lang.Runnable--><rect codeLine="18" fill="#FEFECE" filter="url(#f1qx91pkfbus6a)" height="58.7422" id="java.lang.Runnable" style="stroke:#A80036;stroke-width:1.5;" width="98" x="141" y="16.5"/><ellipse cx="156" cy="35.4688" fill="#B4A7E5" rx="11" ry="11" style="stroke:#A80036;stroke-width:1.0;"/><path d="M151.9219,31.2344 L151.9219,29.0781 L159.3125,29.0781 L159.3125,31.2344 L156.8438,31.2344 L156.8438,39.3125 L159.3125,39.3125 L159.3125,41.4688 L151.9219,41.4688 L151.9219,39.3125 L154.3906,39.3125 L154.3906,31.2344 L151.9219,31.2344 Z " fill="#000000"/><text fill="#000000" font-family="sans-serif" font-size="14" font-style="italic" lengthAdjust="spacing" textLength="66" x="170" y="34.4951">Runnable</text><text fill="#000000" font-family="sans-serif" font-size="10" font-style="italic" lengthAdjust="spacing" textLength="45" x="180.5" y="47.0791">java.lang</text><line style="stroke:#A80036;stroke-width:1.5;" x1="142" x2="238" y1="54.4375" y2="54.4375"/><ellipse cx="152" cy="65.4375" fill="#84BE84" rx="3" ry="3" style="stroke:#038048;stroke-width:1.0;"/><text fill="#000000" font-family="sans-serif" font-size="11" font-style="italic" lengthAdjust="spacing" textLength="59" x="161" y="68.6479">run(): void</text><!--MD5=[1dbd0080f1d85bd2496feb2f2ab43e82]
class org.example.model.CustomObservable--><a href="../../CustomObservable.html" target="_top" title="../../CustomObservable.html" xlink:actuate="onRequest" xlink:href="../../CustomObservable.html" xlink:show="new" xlink:title="../../CustomObservable.html" xlink:type="simple"><rect codeLine="21" fill="#FEFECE" filter="url(#f1qx91pkfbus6a)" height="71.5469" id="org.example.model.CustomObservable" style="stroke:#A80036;stroke-width:1.5;" width="304" x="274" y="10"/><ellipse cx="289" cy="28.9688" fill="#B4A7E5" rx="11" ry="11" style="stroke:#A80036;stroke-width:1.0;"/><path d="M284.9219,24.7344 L284.9219,22.5781 L292.3125,22.5781 L292.3125,24.7344 L289.8438,24.7344 L289.8438,32.8125 L292.3125,32.8125 L292.3125,34.9688 L284.9219,34.9688 L284.9219,32.8125 L287.3906,32.8125 L287.3906,24.7344 L284.9219,24.7344 Z " fill="#000000"/><text fill="#000000" font-family="sans-serif" font-size="14" font-style="italic" lengthAdjust="spacing" textLength="131" x="303" y="27.9951">CustomObservable</text><text fill="#000000" font-family="sans-serif" font-size="10" font-style="italic" lengthAdjust="spacing" textLength="96" x="320.5" y="40.5791">org.example.model</text><rect fill="#FFFFFF" height="15.9688" style="stroke:#000000;stroke-width:1.0;stroke-dasharray:2.0,2.0;" width="139" x="442" y="7"/><text fill="#000000" font-family="sans-serif" font-size="12" font-style="italic" lengthAdjust="spacing" textLength="137" x="443" y="19.1387">List&lt;ConnectedUser&gt;</text><line style="stroke:#A80036;stroke-width:1.5;" x1="275" x2="577" y1="47.9375" y2="47.9375"/><ellipse cx="285" cy="58.9375" fill="#84BE84" rx="3" ry="3" style="stroke:#038048;stroke-width:1.0;"/><text fill="#000000" font-family="sans-serif" font-size="11" font-style="italic" lengthAdjust="spacing" textLength="205" x="294" y="62.1479">subscribe(CustomObserver&lt;T&gt;): int</text><ellipse cx="285" cy="71.7422" fill="#84BE84" rx="3" ry="3" style="stroke:#038048;stroke-width:1.0;"/><text fill="#000000" font-family="sans-serif" font-size="11" font-style="italic" lengthAdjust="spacing" textLength="219" x="294" y="74.9526">unsubscribe(int): CustomObserver&lt;T&gt;</text></a><!--MD5=[3e56bc69252dcc214b0924514b225de1]
reverse link java.lang.Thread to org.example.model.communication.server.UDPReceive--><path codeLine="26" d="M89.57,81.29 C102.02,98.69 117.72,120.59 132.97,141.89 " fill="none" id="java.lang.Thread-backto-org.example.model.communication.server.UDPReceive" style="stroke:#A80036;stroke-width:1.0;"/><polygon fill="none" points="83.86,85.35,77.91,65.02,95.24,77.2,83.86,85.35" style="stroke:#A80036;stroke-width:1.0;"/><!--MD5=[d3155baa6a8f526f0dd6933bdcfdad0e]
reverse link java.lang.Runnable to org.example.model.communication.server.UDPReceive--><path codeLine="27" d="M190,95.9 C190,110.17 190,126.15 190,141.8 " fill="none" id="java.lang.Runnable-backto-org.example.model.communication.server.UDPReceive" style="stroke:#A80036;stroke-width:1.0;stroke-dasharray:7.0,7.0;"/><polygon fill="none" points="183,95.82,190,75.82,197,95.82,183,95.82" style="stroke:#A80036;stroke-width:1.0;"/><!--MD5=[45f7a151bf23d83954f4871d7493be8b]
reverse link org.example.model.CustomObservable to org.example.model.communication.server.UDPReceive--><path codeLine="28" d="M362.18,94.19 C342.33,108.86 319.87,125.48 297.87,141.74 " fill="none" id="org.example.model.CustomObservable-backto-org.example.model.communication.server.UDPReceive" style="stroke:#A80036;stroke-width:1.0;stroke-dasharray:7.0,7.0;"/><polygon fill="none" points="358.28,88.37,378.53,82.1,366.61,99.62,358.28,88.37" style="stroke:#A80036;stroke-width:1.0;"/><text fill="#888888" font-family="sans-serif" font-size="10" lengthAdjust="spacing" textLength="192" x="193.5" y="325.4619">UMLDoclet 2.0.15, PlantUML 1.2021.13</text><!--MD5=[b7dbacc30440192b3b718b41c7779587]
@startuml
    set namespaceSeparator none
    hide empty fields
    hide empty methods

    class "<size:14>UDPReceive\n<size:10>org.example.model.communication.server" as org.example.model.communication.server.UDPReceive [[UDPReceive.html]] {
        +isOpen(): boolean
        +setOpen(boolean): void
        +getM_state(): int
        +setM_state(int): void
        +run(): void
        {static} +main(String[]): void
        +notifyAllSubscribers(List<ConnectedUser>): void
        +subscribe(CustomObserver<List<ConnectedUser>>): int
        +unsubscribe(int): CustomObserver<List<ConnectedUser>>
    }

    class "<size:14>Thread\n<size:10>java.lang" as java.lang.Thread
    interface "<size:14>Runnable\n<size:10>java.lang" as java.lang.Runnable {
        {abstract} +run(): void
    }
    interface "<size:14>CustomObservable\n<size:10>org.example.model" as org.example.model.CustomObservable<List<ConnectedUser>> [[../../CustomObservable.html]] {
        {abstract} +subscribe(CustomObserver<T>): int
        {abstract} +unsubscribe(int): CustomObserver<T>
    }

    java.lang.Thread <|- - org.example.model.communication.server.UDPReceive
    java.lang.Runnable <|.. org.example.model.communication.server.UDPReceive
    org.example.model.CustomObservable <|.. org.example.model.communication.server.UDPReceive

    center footer UMLDoclet 2.0.15, PlantUML 1.2021.13
@enduml

PlantUML version 1.2021.13(Mon Nov 01 11:38:45 UTC 2021)
(APACHE source distribution)
Java Runtime: OpenJDK Runtime Environment
JVM: OpenJDK 64-Bit Server VM
Default Encoding: UTF-8
Language: en
Country: null
--></g></svg>