<?xml version="1.0" encoding="UTF-8" standalone="no"?><svg xmlns="http://www.w3.org/2000/svg" xmlns:xlink="http://www.w3.org/1999/xlink" contentScriptType="application/ecmascript" contentStyleType="text/css" height="277px" preserveAspectRatio="none" style="width:247px;height:277px;background:#FFFFFF;" version="1.1" viewBox="0 0 247 277" width="247px" zoomAndPan="magnify"><defs><filter height="300%" id="f16z6xkeow8rkm" width="300%" x="-1" y="-1"><feGaussianBlur result="blurOut" stdDeviation="2.0"/><feColorMatrix in="blurOut" result="blurOut2" type="matrix" values="0 0 0 0 0 0 0 0 0 0 0 0 0 0 0 0 0 0 .4 0"/><feOffset dx="4.0" dy="4.0" in="blurOut2" result="blurOut3"/><feBlend in="SourceGraphic" in2="blurOut3" mode="normal"/></filter></defs><g><!--MD5=[b9e26a5375b9b6889a3e764e0fd0274b]
cluster me.server.handlers--><polygon fill="#FFFFFF" filter="url(#f16z6xkeow8rkm)" points="17,142,178,142,185,164.2969,229,164.2969,229,254,17,254,17,142" style="stroke:#000000;stroke-width:1.5;"/><line style="stroke:#000000;stroke-width:1.5;" x1="17" x2="185" y1="164.2969" y2="164.2969"/><text fill="#000000" font-family="sans-serif" font-size="14" font-weight="bold" lengthAdjust="spacing" textLength="155" x="21" y="156.9951">me.server.handlers</text><!--MD5=[165affddb8a431bc6b1435bff43cfb6b]
cluster com.sun.net.httpserver--><polygon fill="#FFFFFF" filter="url(#f16z6xkeow8rkm)" points="16,6,209,6,216,28.2969,230,28.2969,230,118,16,118,16,6" style="stroke:#000000;stroke-width:1.5;"/><line style="stroke:#000000;stroke-width:1.5;" x1="16" x2="216" y1="28.2969" y2="28.2969"/><text fill="#000000" font-family="sans-serif" font-size="14" font-weight="bold" lengthAdjust="spacing" textLength="187" x="20" y="20.9951">com.sun.net.httpserver</text><!--MD5=[b88f41ee8eff3a9ef83807083bc90559]
class me.server.handlers.UploadLogs--><a href="UploadLogs.html" target="_top" title="UploadLogs.html" xlink:actuate="onRequest" xlink:href="UploadLogs.html" xlink:show="new" xlink:title="UploadLogs.html" xlink:type="simple"><rect codeLine="3" fill="#FEFECE" filter="url(#f16z6xkeow8rkm)" height="60.8047" id="me.server.handlers.UploadLogs" style="stroke:#A80036;stroke-width:1.5;" width="180" x="33" y="177"/><ellipse cx="82.25" cy="193" fill="#ADD1B2" rx="11" ry="11" style="stroke:#A80036;stroke-width:1.0;"/><path d="M85.2188,198.6406 Q84.6406,198.9375 84,199.0781 Q83.3594,199.2344 82.6563,199.2344 Q80.1563,199.2344 78.8281,197.5938 Q77.5156,195.9375 77.5156,192.8125 Q77.5156,189.6875 78.8281,188.0313 Q80.1563,186.375 82.6563,186.375 Q83.3594,186.375 84,186.5313 Q84.6563,186.6875 85.2188,186.9844 L85.2188,189.7031 Q84.5938,189.125 84,188.8594 Q83.4063,188.5781 82.7813,188.5781 Q81.4375,188.5781 80.75,189.6563 Q80.0625,190.7188 80.0625,192.8125 Q80.0625,194.9063 80.75,195.9844 Q81.4375,197.0469 82.7813,197.0469 Q83.4063,197.0469 84,196.7813 Q84.5938,196.5 85.2188,195.9219 L85.2188,198.6406 Z " fill="#000000"/><text fill="#000000" font-family="sans-serif" font-size="12" lengthAdjust="spacing" textLength="73" x="102.75" y="197.1543">UploadLogs</text><line style="stroke:#A80036;stroke-width:1.5;" x1="34" x2="212" y1="209" y2="209"/><line style="stroke:#A80036;stroke-width:1.5;" x1="34" x2="212" y1="217" y2="217"/><ellipse cx="44" cy="228" fill="#84BE84" rx="3" ry="3" style="stroke:#038048;stroke-width:1.0;"/><text fill="#000000" font-family="sans-serif" font-size="11" lengthAdjust="spacing" textLength="154" x="53" y="231.2104">handle(HttpExchange): void</text></a><!--MD5=[fed451cbac7203162405352689e89210]
class com.sun.net.httpserver.HttpHandler--><rect codeLine="11" fill="#FEFECE" filter="url(#f16z6xkeow8rkm)" height="60.8047" id="com.sun.net.httpserver.HttpHandler" style="stroke:#A80036;stroke-width:1.5;" width="182" x="32" y="41"/><ellipse cx="80.75" cy="57" fill="#B4A7E5" rx="11" ry="11" style="stroke:#A80036;stroke-width:1.0;"/><path d="M76.6719,52.7656 L76.6719,50.6094 L84.0625,50.6094 L84.0625,52.7656 L81.5938,52.7656 L81.5938,60.8438 L84.0625,60.8438 L84.0625,63 L76.6719,63 L76.6719,60.8438 L79.1406,60.8438 L79.1406,52.7656 L76.6719,52.7656 Z " fill="#000000"/><text fill="#000000" font-family="sans-serif" font-size="12" font-style="italic" lengthAdjust="spacing" textLength="76" x="101.25" y="61.1543">HttpHandler</text><line style="stroke:#A80036;stroke-width:1.5;" x1="33" x2="213" y1="73" y2="73"/><line style="stroke:#A80036;stroke-width:1.5;" x1="33" x2="213" y1="81" y2="81"/><ellipse cx="43" cy="92" fill="#84BE84" rx="3" ry="3" style="stroke:#038048;stroke-width:1.0;"/><text fill="#000000" font-family="sans-serif" font-size="11" font-style="italic" lengthAdjust="spacing" textLength="156" x="52" y="95.2104">handle(HttpExchange): void</text><!--MD5=[8bebc9149789cec9b1aeb9019b7a0dc3]
reverse link com.sun.net.httpserver.HttpHandler to me.server.handlers.UploadLogs--><path codeLine="7" d="M123,122.52 C123,140.8 123,160.9 123,176.84 " fill="none" id="com.sun.net.httpserver.HttpHandler-backto-me.server.handlers.UploadLogs" style="stroke:#A80036;stroke-width:1.0;stroke-dasharray:7.0,7.0;"/><polygon fill="none" points="116,122.24,123,102.24,130,122.24,116,122.24" style="stroke:#A80036;stroke-width:1.0;"/><text fill="#888888" font-family="sans-serif" font-size="10" lengthAdjust="spacing" textLength="192" x="21" y="269.2822">UMLDoclet 2.0.15, PlantUML 1.2021.13</text><!--MD5=[3bbfc50a6d4b9b05fc4b86aa865b474b]
@startuml
    namespace me.server.handlers {

        class UploadLogs [[UploadLogs.html]] {
            +handle(HttpExchange): void
        }

        com.sun.net.httpserver.HttpHandler <|.. UploadLogs
    }

    namespace com.sun.net.httpserver {
        interface HttpHandler {
            {abstract} +handle(HttpExchange): void
        }
    }

    center footer UMLDoclet 2.0.15, PlantUML 1.2021.13
@enduml

PlantUML version 1.2021.13(Mon Nov 01 11:38:45 UTC 2021)
(APACHE source distribution)
Java Runtime: OpenJDK Runtime Environment
JVM: OpenJDK 64-Bit Server VM
Default Encoding: UTF-8
Language: en
Country: null
--></g></svg>