<?xml version="1.0" encoding="UTF-8" standalone="no"?><svg xmlns="http://www.w3.org/2000/svg" xmlns:xlink="http://www.w3.org/1999/xlink" contentScriptType="application/ecmascript" contentStyleType="text/css" height="215px" preserveAspectRatio="none" style="width:204px;height:215px;background:#FFFFFF;" version="1.1" viewBox="0 0 204 215" width="204px" zoomAndPan="magnify"><defs><filter height="300%" id="fjl3b6iv4nac9" width="300%" x="-1" y="-1"><feGaussianBlur result="blurOut" stdDeviation="2.0"/><feColorMatrix in="blurOut" result="blurOut2" type="matrix" values="0 0 0 0 0 0 0 0 0 0 0 0 0 0 0 0 0 0 .4 0"/><feOffset dx="4.0" dy="4.0" in="blurOut2" result="blurOut3"/><feBlend in="SourceGraphic" in2="blurOut3" mode="normal"/></filter></defs><g><!--MD5=[b88f41ee8eff3a9ef83807083bc90559]
class me.server.handlers.UploadLogs--><a href="UploadLogs.html" target="_top" title="UploadLogs.html" xlink:actuate="onRequest" xlink:href="UploadLogs.html" xlink:show="new" xlink:title="UploadLogs.html" xlink:type="simple"><rect codeLine="5" fill="#FEFECE" filter="url(#fjl3b6iv4nac9)" height="58.7422" id="me.server.handlers.UploadLogs" style="stroke:#A80036;stroke-width:1.5;" width="180" x="9" y="126"/><ellipse cx="48.3" cy="144.9688" fill="#ADD1B2" rx="11" ry="11" style="stroke:#A80036;stroke-width:1.0;"/><path d="M51.2688,150.6094 Q50.6906,150.9063 50.05,151.0469 Q49.4094,151.2031 48.7063,151.2031 Q46.2063,151.2031 44.8781,149.5625 Q43.5656,147.9063 43.5656,144.7813 Q43.5656,141.6563 44.8781,140 Q46.2063,138.3438 48.7063,138.3438 Q49.4094,138.3438 50.05,138.5 Q50.7063,138.6563 51.2688,138.9531 L51.2688,141.6719 Q50.6438,141.0938 50.05,140.8281 Q49.4563,140.5469 48.8313,140.5469 Q47.4875,140.5469 46.8,141.625 Q46.1125,142.6875 46.1125,144.7813 Q46.1125,146.875 46.8,147.9531 Q47.4875,149.0156 48.8313,149.0156 Q49.4563,149.0156 50.05,148.75 Q50.6438,148.4688 51.2688,147.8906 L51.2688,150.6094 Z " fill="#000000"/><text fill="#000000" font-family="sans-serif" font-size="14" lengthAdjust="spacing" textLength="81" x="74.2" y="143.9951">UploadLogs</text><text fill="#000000" font-family="sans-serif" font-size="10" lengthAdjust="spacing" textLength="94" x="67.7" y="156.5791">me.server.handlers</text><line style="stroke:#A80036;stroke-width:1.5;" x1="10" x2="188" y1="163.9375" y2="163.9375"/><ellipse cx="20" cy="174.9375" fill="#84BE84" rx="3" ry="3" style="stroke:#038048;stroke-width:1.0;"/><text fill="#000000" font-family="sans-serif" font-size="11" lengthAdjust="spacing" textLength="154" x="29" y="178.1479">handle(HttpExchange): void</text></a><!--MD5=[fed451cbac7203162405352689e89210]
class com.sun.net.httpserver.HttpHandler--><rect codeLine="9" fill="#FEFECE" filter="url(#fjl3b6iv4nac9)" height="58.7422" id="com.sun.net.httpserver.HttpHandler" style="stroke:#A80036;stroke-width:1.5;" width="182" x="8" y="7"/><ellipse cx="38.75" cy="25.9688" fill="#B4A7E5" rx="11" ry="11" style="stroke:#A80036;stroke-width:1.0;"/><path d="M34.6719,21.7344 L34.6719,19.5781 L42.0625,19.5781 L42.0625,21.7344 L39.5938,21.7344 L39.5938,29.8125 L42.0625,29.8125 L42.0625,31.9688 L34.6719,31.9688 L34.6719,29.8125 L37.1406,29.8125 L37.1406,21.7344 L34.6719,21.7344 Z " fill="#000000"/><text fill="#000000" font-family="sans-serif" font-size="14" font-style="italic" lengthAdjust="spacing" textLength="84" x="71.75" y="24.9951">HttpHandler</text><text fill="#000000" font-family="sans-serif" font-size="10" font-style="italic" lengthAdjust="spacing" textLength="115" x="56.25" y="37.5791">com.sun.net.httpserver</text><line style="stroke:#A80036;stroke-width:1.5;" x1="9" x2="189" y1="44.9375" y2="44.9375"/><ellipse cx="19" cy="55.9375" fill="#84BE84" rx="3" ry="3" style="stroke:#038048;stroke-width:1.0;"/><text fill="#000000" font-family="sans-serif" font-size="11" font-style="italic" lengthAdjust="spacing" textLength="156" x="28" y="59.1479">handle(HttpExchange): void</text><!--MD5=[8bebc9149789cec9b1aeb9019b7a0dc3]
reverse link com.sun.net.httpserver.HttpHandler to me.server.handlers.UploadLogs--><path codeLine="13" d="M99,86.25 C99,99.7 99,113.86 99,125.77 " fill="none" id="com.sun.net.httpserver.HttpHandler-backto-me.server.handlers.UploadLogs" style="stroke:#A80036;stroke-width:1.0;stroke-dasharray:7.0,7.0;"/><polygon fill="none" points="92,86.12,99,66.12,106,86.12,92,86.12" style="stroke:#A80036;stroke-width:1.0;"/><text fill="#888888" font-family="sans-serif" font-size="10" lengthAdjust="spacing" textLength="192" x="0" y="207.0244">UMLDoclet 2.0.15, PlantUML 1.2021.13</text><!--MD5=[18bd7145c73b510ea8e8f0aa5d225900]
@startuml
    set namespaceSeparator none
    hide empty fields
    hide empty methods

    class "<size:14>UploadLogs\n<size:10>me.server.handlers" as me.server.handlers.UploadLogs [[UploadLogs.html]] {
        +handle(HttpExchange): void
    }

    interface "<size:14>HttpHandler\n<size:10>com.sun.net.httpserver" as com.sun.net.httpserver.HttpHandler {
        {abstract} +handle(HttpExchange): void
    }

    com.sun.net.httpserver.HttpHandler <|.. me.server.handlers.UploadLogs

    center footer UMLDoclet 2.0.15, PlantUML 1.2021.13
@enduml

PlantUML version 1.2021.13(Mon Nov 01 11:38:45 UTC 2021)
(APACHE source distribution)
Java Runtime: OpenJDK Runtime Environment
JVM: OpenJDK 64-Bit Server VM
Default Encoding: UTF-8
Language: en
Country: null
--></g></svg>