<?xml version="1.0" encoding="UTF-8" standalone="no"?><svg xmlns="http://www.w3.org/2000/svg" xmlns:xlink="http://www.w3.org/1999/xlink" contentScriptType="application/ecmascript" contentStyleType="text/css" height="111px" preserveAspectRatio="none" style="width:238px;height:111px;background:#FFFFFF;" version="1.1" viewBox="0 0 238 111" width="238px" zoomAndPan="magnify"><defs><filter height="300%" id="fzv3x7zo55i7c" width="300%" x="-1" y="-1"><feGaussianBlur result="blurOut" stdDeviation="2.0"/><feColorMatrix in="blurOut" result="blurOut2" type="matrix" values="0 0 0 0 0 0 0 0 0 0 0 0 0 0 0 0 0 0 .4 0"/><feOffset dx="4.0" dy="4.0" in="blurOut2" result="blurOut3"/><feBlend in="SourceGraphic" in2="blurOut3" mode="normal"/></filter></defs><g><!--MD5=[56cd350432d1d1354560fa873fd0079d]
class org.example.controler.server.handlers.BaseHandler--><a href="BaseHandler.html" target="_top" title="BaseHandler.html" xlink:actuate="onRequest" xlink:href="BaseHandler.html" xlink:show="new" xlink:title="BaseHandler.html" xlink:type="simple"><rect codeLine="5" fill="#FEFECE" filter="url(#fzv3x7zo55i7c)" height="79.5469" id="org.example.controler.server.handlers.BaseHandler" style="stroke:#A80036;stroke-width:1.5;" width="217" x="7" y="7"/><ellipse cx="22" cy="25.9688" fill="#ADD1B2" rx="11" ry="11" style="stroke:#A80036;stroke-width:1.0;"/><path d="M24.9688,31.6094 Q24.3906,31.9063 23.75,32.0469 Q23.1094,32.2031 22.4063,32.2031 Q19.9063,32.2031 18.5781,30.5625 Q17.2656,28.9063 17.2656,25.7813 Q17.2656,22.6563 18.5781,21 Q19.9063,19.3438 22.4063,19.3438 Q23.1094,19.3438 23.75,19.5 Q24.4063,19.6563 24.9688,19.9531 L24.9688,22.6719 Q24.3438,22.0938 23.75,21.8281 Q23.1563,21.5469 22.5313,21.5469 Q21.1875,21.5469 20.5,22.625 Q19.8125,23.6875 19.8125,25.7813 Q19.8125,27.875 20.5,28.9531 Q21.1875,30.0156 22.5313,30.0156 Q23.1563,30.0156 23.75,29.75 Q24.3438,29.4688 24.9688,28.8906 L24.9688,31.6094 Z " fill="#000000"/><text fill="#000000" font-family="sans-serif" font-size="14" lengthAdjust="spacing" textLength="88" x="84.5" y="24.9951">BaseHandler</text><text fill="#000000" font-family="sans-serif" font-size="10" lengthAdjust="spacing" textLength="185" x="36" y="37.5791">org.example.controler.server.handlers</text><line style="stroke:#A80036;stroke-width:1.5;" x1="8" x2="223" y1="44.9375" y2="44.9375"/><polygon fill="none" points="18,50.9375,22,54.9375,18,58.9375,14,54.9375" style="stroke:#B38D22;stroke-width:1.0;"/><text fill="#000000" font-family="sans-serif" font-size="11" lengthAdjust="spacing" textLength="135" x="27" y="59.1479">httpServer: HTTPServer</text><line style="stroke:#A80036;stroke-width:1.5;" x1="8" x2="223" y1="65.7422" y2="65.7422"/><ellipse cx="18" cy="76.7422" fill="#84BE84" rx="3" ry="3" style="stroke:#038048;stroke-width:1.0;"/><text fill="#000000" font-family="sans-serif" font-size="11" lengthAdjust="spacing" textLength="148" x="27" y="79.9526">BaseHandler(HTTPServer)</text></a><text fill="#888888" font-family="sans-serif" font-size="10" lengthAdjust="spacing" textLength="192" x="19.5" y="102.8291">UMLDoclet 2.0.15, PlantUML 1.2021.13</text><!--MD5=[3dea19d9a4be076d38f46d5d3be39ce6]
@startuml
    set namespaceSeparator none
    hide empty fields
    hide empty methods

    class "<size:14>BaseHandler\n<size:10>org.example.controler.server.handlers" as org.example.controler.server.handlers.BaseHandler [[BaseHandler.html]] {
        #httpServer: HTTPServer
        +BaseHandler(HTTPServer)
    }

    center footer UMLDoclet 2.0.15, PlantUML 1.2021.13
@enduml

PlantUML version 1.2021.13(Mon Nov 01 11:38:45 UTC 2021)
(APACHE source distribution)
Java Runtime: OpenJDK Runtime Environment
JVM: OpenJDK 64-Bit Server VM
Default Encoding: UTF-8
Language: en
Country: null
--></g></svg>