<?xml version="1.0" encoding="UTF-8" standalone="no"?><svg xmlns="http://www.w3.org/2000/svg" xmlns:xlink="http://www.w3.org/1999/xlink" contentScriptType="application/ecmascript" contentStyleType="text/css" height="228px" preserveAspectRatio="none" style="width:455px;height:228px;background:#FFFFFF;" version="1.1" viewBox="0 0 455 228" width="455px" zoomAndPan="magnify"><defs><filter height="300%" id="f9x59drvdidmc" width="300%" x="-1" y="-1"><feGaussianBlur result="blurOut" stdDeviation="2.0"/><feColorMatrix in="blurOut" result="blurOut2" type="matrix" values="0 0 0 0 0 0 0 0 0 0 0 0 0 0 0 0 0 0 .4 0"/><feOffset dx="4.0" dy="4.0" in="blurOut2" result="blurOut3"/><feBlend in="SourceGraphic" in2="blurOut3" mode="normal"/></filter></defs><g><!--MD5=[86d5468ee9e22605dd2cb200730b94b8]
class org.example.controler.server.handlers.GetAllConnectedUsers--><a href="GetAllConnectedUsers.html" target="_top" title="GetAllConnectedUsers.html" xlink:actuate="onRequest" xlink:href="GetAllConnectedUsers.html" xlink:show="new" xlink:title="GetAllConnectedUsers.html" xlink:type="simple"><rect codeLine="5" fill="#FEFECE" filter="url(#f9x59drvdidmc)" height="71.5469" id="org.example.controler.server.handlers.GetAllConnectedUsers" style="stroke:#A80036;stroke-width:1.5;" width="228" x="118.5" y="126"/><ellipse cx="138.45" cy="144.9688" fill="#ADD1B2" rx="11" ry="11" style="stroke:#A80036;stroke-width:1.0;"/><path d="M141.4188,150.6094 Q140.8406,150.9063 140.2,151.0469 Q139.5594,151.2031 138.8563,151.2031 Q136.3563,151.2031 135.0281,149.5625 Q133.7156,147.9063 133.7156,144.7813 Q133.7156,141.6563 135.0281,140 Q136.3563,138.3438 138.8563,138.3438 Q139.5594,138.3438 140.2,138.5 Q140.8563,138.6563 141.4188,138.9531 L141.4188,141.6719 Q140.7938,141.0938 140.2,140.8281 Q139.6063,140.5469 138.9813,140.5469 Q137.6375,140.5469 136.95,141.625 Q136.2625,142.6875 136.2625,144.7813 Q136.2625,146.875 136.95,147.9531 Q137.6375,149.0156 138.9813,149.0156 Q139.6063,149.0156 140.2,148.75 Q140.7938,148.4688 141.4188,147.8906 L141.4188,150.6094 Z " fill="#000000"/><text fill="#000000" font-family="sans-serif" font-size="14" lengthAdjust="spacing" textLength="157" x="167.55" y="143.9951">GetAllConnectedUsers</text><text fill="#000000" font-family="sans-serif" font-size="10" lengthAdjust="spacing" textLength="185" x="153.55" y="156.5791">org.example.controler.server.handlers</text><line style="stroke:#A80036;stroke-width:1.5;" x1="119.5" x2="345.5" y1="163.9375" y2="163.9375"/><ellipse cx="129.5" cy="174.9375" fill="#84BE84" rx="3" ry="3" style="stroke:#038048;stroke-width:1.0;"/><text fill="#000000" font-family="sans-serif" font-size="11" lengthAdjust="spacing" textLength="202" x="138.5" y="178.1479">GetAllConnectedUsers(HTTPServer)</text><ellipse cx="129.5" cy="187.7422" fill="#84BE84" rx="3" ry="3" style="stroke:#038048;stroke-width:1.0;"/><text fill="#000000" font-family="sans-serif" font-size="11" lengthAdjust="spacing" textLength="154" x="138.5" y="190.9526">handle(HttpExchange): void</text></a><!--MD5=[56cd350432d1d1354560fa873fd0079d]
class org.example.controler.server.handlers.BaseHandler--><a href="BaseHandler.html" target="_top" title="BaseHandler.html" xlink:actuate="onRequest" xlink:href="BaseHandler.html" xlink:show="new" xlink:title="BaseHandler.html" xlink:type="simple"><rect codeLine="10" fill="#FEFECE" filter="url(#f9x59drvdidmc)" height="37.9375" id="org.example.controler.server.handlers.BaseHandler" style="stroke:#A80036;stroke-width:1.5;" width="217" x="7" y="17.5"/><ellipse cx="22" cy="36.4688" fill="#ADD1B2" rx="11" ry="11" style="stroke:#A80036;stroke-width:1.0;"/><path d="M24.9688,42.1094 Q24.3906,42.4063 23.75,42.5469 Q23.1094,42.7031 22.4063,42.7031 Q19.9063,42.7031 18.5781,41.0625 Q17.2656,39.4063 17.2656,36.2813 Q17.2656,33.1563 18.5781,31.5 Q19.9063,29.8438 22.4063,29.8438 Q23.1094,29.8438 23.75,30 Q24.4063,30.1563 24.9688,30.4531 L24.9688,33.1719 Q24.3438,32.5938 23.75,32.3281 Q23.1563,32.0469 22.5313,32.0469 Q21.1875,32.0469 20.5,33.125 Q19.8125,34.1875 19.8125,36.2813 Q19.8125,38.375 20.5,39.4531 Q21.1875,40.5156 22.5313,40.5156 Q23.1563,40.5156 23.75,40.25 Q24.3438,39.9688 24.9688,39.3906 L24.9688,42.1094 Z " fill="#000000"/><text fill="#000000" font-family="sans-serif" font-size="14" lengthAdjust="spacing" textLength="88" x="84.5" y="35.4951">BaseHandler</text><text fill="#000000" font-family="sans-serif" font-size="10" lengthAdjust="spacing" textLength="185" x="36" y="48.0791">org.example.controler.server.handlers</text></a><!--MD5=[fed451cbac7203162405352689e89210]
class com.sun.net.httpserver.HttpHandler--><rect codeLine="11" fill="#FEFECE" filter="url(#f9x59drvdidmc)" height="58.7422" id="com.sun.net.httpserver.HttpHandler" style="stroke:#A80036;stroke-width:1.5;" width="182" x="259.5" y="7"/><ellipse cx="290.25" cy="25.9688" fill="#B4A7E5" rx="11" ry="11" style="stroke:#A80036;stroke-width:1.0;"/><path d="M286.1719,21.7344 L286.1719,19.5781 L293.5625,19.5781 L293.5625,21.7344 L291.0938,21.7344 L291.0938,29.8125 L293.5625,29.8125 L293.5625,31.9688 L286.1719,31.9688 L286.1719,29.8125 L288.6406,29.8125 L288.6406,21.7344 L286.1719,21.7344 Z " fill="#000000"/><text fill="#000000" font-family="sans-serif" font-size="14" font-style="italic" lengthAdjust="spacing" textLength="84" x="323.25" y="24.9951">HttpHandler</text><text fill="#000000" font-family="sans-serif" font-size="10" font-style="italic" lengthAdjust="spacing" textLength="115" x="307.75" y="37.5791">com.sun.net.httpserver</text><line style="stroke:#A80036;stroke-width:1.5;" x1="260.5" x2="440.5" y1="44.9375" y2="44.9375"/><ellipse cx="270.5" cy="55.9375" fill="#84BE84" rx="3" ry="3" style="stroke:#038048;stroke-width:1.0;"/><text fill="#000000" font-family="sans-serif" font-size="11" font-style="italic" lengthAdjust="spacing" textLength="156" x="279.5" y="59.1479">handle(HttpExchange): void</text><!--MD5=[4b97f623f60a0d9385c69fbe2fad8261]
reverse link org.example.controler.server.handlers.BaseHandler to org.example.controler.server.handlers.GetAllConnectedUsers--><path codeLine="15" d="M146.69,70.43 C162.89,87.52 182.68,108.41 199.17,125.82 " fill="none" id="org.example.controler.server.handlers.BaseHandler-backto-org.example.controler.server.handlers.GetAllConnectedUsers" style="stroke:#A80036;stroke-width:1.0;"/><polygon fill="none" points="141.44,75.06,132.76,55.72,151.6,65.43,141.44,75.06" style="stroke:#A80036;stroke-width:1.0;"/><!--MD5=[3715f1ac961d749c66484e3133b17363]
reverse link com.sun.net.httpserver.HttpHandler to org.example.controler.server.handlers.GetAllConnectedUsers--><path codeLine="16" d="M309.13,80.8 C295.03,95.56 279.45,111.87 266.04,125.9 " fill="none" id="com.sun.net.httpserver.HttpHandler-backto-org.example.controler.server.handlers.GetAllConnectedUsers" style="stroke:#A80036;stroke-width:1.0;stroke-dasharray:7.0,7.0;"/><polygon fill="none" points="304.25,75.77,323.13,66.14,314.38,85.44,304.25,75.77" style="stroke:#A80036;stroke-width:1.0;"/><text fill="#888888" font-family="sans-serif" font-size="10" lengthAdjust="spacing" textLength="192" x="125.25" y="219.8291">UMLDoclet 2.0.15, PlantUML 1.2021.13</text><!--MD5=[cb3be837392692596c056f2fd6c8f58d]
@startuml
    set namespaceSeparator none
    hide empty fields
    hide empty methods

    class "<size:14>GetAllConnectedUsers\n<size:10>org.example.controler.server.handlers" as org.example.controler.server.handlers.GetAllConnectedUsers [[GetAllConnectedUsers.html]] {
        +GetAllConnectedUsers(HTTPServer)
        +handle(HttpExchange): void
    }

    class "<size:14>BaseHandler\n<size:10>org.example.controler.server.handlers" as org.example.controler.server.handlers.BaseHandler [[BaseHandler.html]]
    interface "<size:14>HttpHandler\n<size:10>com.sun.net.httpserver" as com.sun.net.httpserver.HttpHandler {
        {abstract} +handle(HttpExchange): void
    }

    org.example.controler.server.handlers.BaseHandler <|- - org.example.controler.server.handlers.GetAllConnectedUsers
    com.sun.net.httpserver.HttpHandler <|.. org.example.controler.server.handlers.GetAllConnectedUsers

    center footer UMLDoclet 2.0.15, PlantUML 1.2021.13
@enduml

PlantUML version 1.2021.13(Mon Nov 01 11:38:45 UTC 2021)
(APACHE source distribution)
Java Runtime: OpenJDK Runtime Environment
JVM: OpenJDK 64-Bit Server VM
Default Encoding: UTF-8
Language: en
Country: null
--></g></svg>