<?xml version="1.0" encoding="UTF-8" standalone="no"?><svg xmlns="http://www.w3.org/2000/svg" xmlns:xlink="http://www.w3.org/1999/xlink" contentScriptType="application/ecmascript" contentStyleType="text/css" height="249px" preserveAspectRatio="none" style="width:240px;height:249px;background:#FFFFFF;" version="1.1" viewBox="0 0 240 249" width="240px" zoomAndPan="magnify"><defs><filter height="300%" id="f1cky9bh3nihw6" width="300%" x="-1" y="-1"><feGaussianBlur result="blurOut" stdDeviation="2.0"/><feColorMatrix in="blurOut" result="blurOut2" type="matrix" values="0 0 0 0 0 0 0 0 0 0 0 0 0 0 0 0 0 0 .4 0"/><feOffset dx="4.0" dy="4.0" in="blurOut2" result="blurOut3"/><feBlend in="SourceGraphic" in2="blurOut3" mode="normal"/></filter></defs><g><!--MD5=[7d2ead511f9ad25541d5fe8bd09c2623]
class org.example.controler.server.handlers.getIPHandler--><a href="getIPHandler.html" target="_top" title="getIPHandler.html" xlink:actuate="onRequest" xlink:href="getIPHandler.html" xlink:show="new" xlink:title="getIPHandler.html" xlink:type="simple"><rect codeLine="5" fill="#FEFECE" filter="url(#f1cky9bh3nihw6)" height="92.3516" id="org.example.controler.server.handlers.getIPHandler" style="stroke:#A80036;stroke-width:1.5;" width="217" x="9" y="126"/><ellipse cx="24" cy="144.9688" fill="#ADD1B2" rx="11" ry="11" style="stroke:#A80036;stroke-width:1.0;"/><path d="M26.9688,150.6094 Q26.3906,150.9063 25.75,151.0469 Q25.1094,151.2031 24.4063,151.2031 Q21.9063,151.2031 20.5781,149.5625 Q19.2656,147.9063 19.2656,144.7813 Q19.2656,141.6563 20.5781,140 Q21.9063,138.3438 24.4063,138.3438 Q25.1094,138.3438 25.75,138.5 Q26.4063,138.6563 26.9688,138.9531 L26.9688,141.6719 Q26.3438,141.0938 25.75,140.8281 Q25.1563,140.5469 24.5313,140.5469 Q23.1875,140.5469 22.5,141.625 Q21.8125,142.6875 21.8125,144.7813 Q21.8125,146.875 22.5,147.9531 Q23.1875,149.0156 24.5313,149.0156 Q25.1563,149.0156 25.75,148.75 Q26.3438,148.4688 26.9688,147.8906 L26.9688,150.6094 Z " fill="#000000"/><text fill="#000000" font-family="sans-serif" font-size="14" lengthAdjust="spacing" textLength="88" x="86.5" y="143.9951">getIPHandler</text><text fill="#000000" font-family="sans-serif" font-size="10" lengthAdjust="spacing" textLength="185" x="38" y="156.5791">org.example.controler.server.handlers</text><line style="stroke:#A80036;stroke-width:1.5;" x1="10" x2="225" y1="163.9375" y2="163.9375"/><polygon fill="none" points="20,169.9375,24,173.9375,20,177.9375,16,173.9375" style="stroke:#B38D22;stroke-width:1.0;"/><text fill="#000000" font-family="sans-serif" font-size="11" lengthAdjust="spacing" textLength="135" x="29" y="178.1479">httpServer: HTTPServer</text><line style="stroke:#A80036;stroke-width:1.5;" x1="10" x2="225" y1="184.7422" y2="184.7422"/><ellipse cx="20" cy="195.7422" fill="#84BE84" rx="3" ry="3" style="stroke:#038048;stroke-width:1.0;"/><text fill="#000000" font-family="sans-serif" font-size="11" lengthAdjust="spacing" textLength="147" x="29" y="198.9526">getIPHandler(HTTPServer)</text><ellipse cx="20" cy="208.5469" fill="#84BE84" rx="3" ry="3" style="stroke:#038048;stroke-width:1.0;"/><text fill="#000000" font-family="sans-serif" font-size="11" lengthAdjust="spacing" textLength="154" x="29" y="211.7573">handle(HttpExchange): void</text></a><!--MD5=[fed451cbac7203162405352689e89210]
class com.sun.net.httpserver.HttpHandler--><rect codeLine="11" fill="#FEFECE" filter="url(#f1cky9bh3nihw6)" height="58.7422" id="com.sun.net.httpserver.HttpHandler" style="stroke:#A80036;stroke-width:1.5;" width="182" x="26.5" y="7"/><ellipse cx="57.25" cy="25.9688" fill="#B4A7E5" rx="11" ry="11" style="stroke:#A80036;stroke-width:1.0;"/><path d="M53.1719,21.7344 L53.1719,19.5781 L60.5625,19.5781 L60.5625,21.7344 L58.0938,21.7344 L58.0938,29.8125 L60.5625,29.8125 L60.5625,31.9688 L53.1719,31.9688 L53.1719,29.8125 L55.6406,29.8125 L55.6406,21.7344 L53.1719,21.7344 Z " fill="#000000"/><text fill="#000000" font-family="sans-serif" font-size="14" font-style="italic" lengthAdjust="spacing" textLength="84" x="90.25" y="24.9951">HttpHandler</text><text fill="#000000" font-family="sans-serif" font-size="10" font-style="italic" lengthAdjust="spacing" textLength="115" x="74.75" y="37.5791">com.sun.net.httpserver</text><line style="stroke:#A80036;stroke-width:1.5;" x1="27.5" x2="207.5" y1="44.9375" y2="44.9375"/><ellipse cx="37.5" cy="55.9375" fill="#84BE84" rx="3" ry="3" style="stroke:#038048;stroke-width:1.0;"/><text fill="#000000" font-family="sans-serif" font-size="11" font-style="italic" lengthAdjust="spacing" textLength="156" x="46.5" y="59.1479">handle(HttpExchange): void</text><!--MD5=[822c9fe9b35f3d507cc881bf63027e12]
reverse link com.sun.net.httpserver.HttpHandler to org.example.controler.server.handlers.getIPHandler--><path codeLine="15" d="M117.5,86.53 C117.5,99.4 117.5,113.21 117.5,125.86 " fill="none" id="com.sun.net.httpserver.HttpHandler-backto-org.example.controler.server.handlers.getIPHandler" style="stroke:#A80036;stroke-width:1.0;stroke-dasharray:7.0,7.0;"/><polygon fill="none" points="110.5,86.14,117.5,66.14,124.5,86.14,110.5,86.14" style="stroke:#A80036;stroke-width:1.0;"/><text fill="#888888" font-family="sans-serif" font-size="10" lengthAdjust="spacing" textLength="192" x="17.5" y="240.6338">UMLDoclet 2.0.15, PlantUML 1.2021.13</text><!--MD5=[9534d134456aa1267b214ea51c646563]
@startuml
    set namespaceSeparator none
    hide empty fields
    hide empty methods

    class "<size:14>getIPHandler\n<size:10>org.example.controler.server.handlers" as org.example.controler.server.handlers.getIPHandler [[getIPHandler.html]] {
        #httpServer: HTTPServer
        +getIPHandler(HTTPServer)
        +handle(HttpExchange): void
    }

    interface "<size:14>HttpHandler\n<size:10>com.sun.net.httpserver" as com.sun.net.httpserver.HttpHandler {
        {abstract} +handle(HttpExchange): void
    }

    com.sun.net.httpserver.HttpHandler <|.. org.example.controler.server.handlers.getIPHandler

    center footer UMLDoclet 2.0.15, PlantUML 1.2021.13
@enduml

PlantUML version 1.2021.13(Mon Nov 01 11:38:45 UTC 2021)
(APACHE source distribution)
Java Runtime: OpenJDK Runtime Environment
JVM: OpenJDK 64-Bit Server VM
Default Encoding: UTF-8
Language: en
Country: null
--></g></svg>