<?xml version="1.0" encoding="UTF-8" standalone="no"?><svg xmlns="http://www.w3.org/2000/svg" xmlns:xlink="http://www.w3.org/1999/xlink" contentScriptType="application/ecmascript" contentStyleType="text/css" height="215px" preserveAspectRatio="none" style="width:238px;height:215px;background:#FFFFFF;" version="1.1" viewBox="0 0 238 215" width="238px" zoomAndPan="magnify"><defs><filter height="300%" id="frist52jij9w9" width="300%" x="-1" y="-1"><feGaussianBlur result="blurOut" stdDeviation="2.0"/><feColorMatrix in="blurOut" result="blurOut2" type="matrix" values="0 0 0 0 0 0 0 0 0 0 0 0 0 0 0 0 0 0 .4 0"/><feOffset dx="4.0" dy="4.0" in="blurOut2" result="blurOut3"/><feBlend in="SourceGraphic" in2="blurOut3" mode="normal"/></filter></defs><g><!--MD5=[6d461c84eafb06a1a87b5daa13d28a3f]
class org.example.controler.server.handlers.GetPseudo--><a href="GetPseudo.html" target="_top" title="GetPseudo.html" xlink:actuate="onRequest" xlink:href="GetPseudo.html" xlink:show="new" xlink:title="GetPseudo.html" xlink:type="simple"><rect codeLine="5" fill="#FEFECE" filter="url(#frist52jij9w9)" height="58.7422" id="org.example.controler.server.handlers.GetPseudo" style="stroke:#A80036;stroke-width:1.5;" width="217" x="7" y="126"/><ellipse cx="22" cy="144.9688" fill="#ADD1B2" rx="11" ry="11" style="stroke:#A80036;stroke-width:1.0;"/><path d="M24.9688,150.6094 Q24.3906,150.9063 23.75,151.0469 Q23.1094,151.2031 22.4063,151.2031 Q19.9063,151.2031 18.5781,149.5625 Q17.2656,147.9063 17.2656,144.7813 Q17.2656,141.6563 18.5781,140 Q19.9063,138.3438 22.4063,138.3438 Q23.1094,138.3438 23.75,138.5 Q24.4063,138.6563 24.9688,138.9531 L24.9688,141.6719 Q24.3438,141.0938 23.75,140.8281 Q23.1563,140.5469 22.5313,140.5469 Q21.1875,140.5469 20.5,141.625 Q19.8125,142.6875 19.8125,144.7813 Q19.8125,146.875 20.5,147.9531 Q21.1875,149.0156 22.5313,149.0156 Q23.1563,149.0156 23.75,148.75 Q24.3438,148.4688 24.9688,147.8906 L24.9688,150.6094 Z " fill="#000000"/><text fill="#000000" font-family="sans-serif" font-size="14" lengthAdjust="spacing" textLength="78" x="89.5" y="143.9951">GetPseudo</text><text fill="#000000" font-family="sans-serif" font-size="10" lengthAdjust="spacing" textLength="185" x="36" y="156.5791">org.example.controler.server.handlers</text><line style="stroke:#A80036;stroke-width:1.5;" x1="8" x2="223" y1="163.9375" y2="163.9375"/><ellipse cx="18" cy="174.9375" fill="#84BE84" rx="3" ry="3" style="stroke:#038048;stroke-width:1.0;"/><text fill="#000000" font-family="sans-serif" font-size="11" lengthAdjust="spacing" textLength="154" x="27" y="178.1479">handle(HttpExchange): void</text></a><!--MD5=[fed451cbac7203162405352689e89210]
class com.sun.net.httpserver.HttpHandler--><rect codeLine="9" fill="#FEFECE" filter="url(#frist52jij9w9)" height="58.7422" id="com.sun.net.httpserver.HttpHandler" style="stroke:#A80036;stroke-width:1.5;" width="182" x="24.5" y="7"/><ellipse cx="55.25" cy="25.9688" fill="#B4A7E5" rx="11" ry="11" style="stroke:#A80036;stroke-width:1.0;"/><path d="M51.1719,21.7344 L51.1719,19.5781 L58.5625,19.5781 L58.5625,21.7344 L56.0938,21.7344 L56.0938,29.8125 L58.5625,29.8125 L58.5625,31.9688 L51.1719,31.9688 L51.1719,29.8125 L53.6406,29.8125 L53.6406,21.7344 L51.1719,21.7344 Z " fill="#000000"/><text fill="#000000" font-family="sans-serif" font-size="14" font-style="italic" lengthAdjust="spacing" textLength="84" x="88.25" y="24.9951">HttpHandler</text><text fill="#000000" font-family="sans-serif" font-size="10" font-style="italic" lengthAdjust="spacing" textLength="115" x="72.75" y="37.5791">com.sun.net.httpserver</text><line style="stroke:#A80036;stroke-width:1.5;" x1="25.5" x2="205.5" y1="44.9375" y2="44.9375"/><ellipse cx="35.5" cy="55.9375" fill="#84BE84" rx="3" ry="3" style="stroke:#038048;stroke-width:1.0;"/><text fill="#000000" font-family="sans-serif" font-size="11" font-style="italic" lengthAdjust="spacing" textLength="156" x="44.5" y="59.1479">handle(HttpExchange): void</text><!--MD5=[648742e8e38d89204124689f2a41c901]
reverse link com.sun.net.httpserver.HttpHandler to org.example.controler.server.handlers.GetPseudo--><path codeLine="13" d="M115.5,86.25 C115.5,99.7 115.5,113.86 115.5,125.77 " fill="none" id="com.sun.net.httpserver.HttpHandler-backto-org.example.controler.server.handlers.GetPseudo" style="stroke:#A80036;stroke-width:1.0;stroke-dasharray:7.0,7.0;"/><polygon fill="none" points="108.5,86.12,115.5,66.12,122.5,86.12,108.5,86.12" style="stroke:#A80036;stroke-width:1.0;"/><text fill="#888888" font-family="sans-serif" font-size="10" lengthAdjust="spacing" textLength="192" x="16.5" y="207.0244">UMLDoclet 2.0.15, PlantUML 1.2021.13</text><!--MD5=[1101a214f853411be6c2c050e6735edb]
@startuml
    set namespaceSeparator none
    hide empty fields
    hide empty methods

    class "<size:14>GetPseudo\n<size:10>org.example.controler.server.handlers" as org.example.controler.server.handlers.GetPseudo [[GetPseudo.html]] {
        +handle(HttpExchange): void
    }

    interface "<size:14>HttpHandler\n<size:10>com.sun.net.httpserver" as com.sun.net.httpserver.HttpHandler {
        {abstract} +handle(HttpExchange): void
    }

    com.sun.net.httpserver.HttpHandler <|.. org.example.controler.server.handlers.GetPseudo

    center footer UMLDoclet 2.0.15, PlantUML 1.2021.13
@enduml

PlantUML version 1.2021.13(Mon Nov 01 11:38:45 UTC 2021)
(APACHE source distribution)
Java Runtime: OpenJDK Runtime Environment
JVM: OpenJDK 64-Bit Server VM
Default Encoding: UTF-8
Language: en
Country: null
--></g></svg>