<?xml version="1.0" encoding="UTF-8" standalone="no"?><svg xmlns="http://www.w3.org/2000/svg" xmlns:xlink="http://www.w3.org/1999/xlink" contentScriptType="application/ecmascript" contentStyleType="text/css" height="228px" preserveAspectRatio="none" style="width:289px;height:228px;background:#FFFFFF;" version="1.1" viewBox="0 0 289 228" width="289px" zoomAndPan="magnify"><defs><filter height="300%" id="f683xus2czcj9" width="300%" x="-1" y="-1"><feGaussianBlur result="blurOut" stdDeviation="2.0"/><feColorMatrix in="blurOut" result="blurOut2" type="matrix" values="0 0 0 0 0 0 0 0 0 0 0 0 0 0 0 0 0 0 .4 0"/><feOffset dx="4.0" dy="4.0" in="blurOut2" result="blurOut3"/><feBlend in="SourceGraphic" in2="blurOut3" mode="normal"/></filter></defs><g><!--MD5=[1bf23408d5be30806d220f67c25d1351]
class org.example.controler.server.handlers.getUserHandler--><a href="getUserHandler.html" target="_top" title="getUserHandler.html" xlink:actuate="onRequest" xlink:href="getUserHandler.html" xlink:show="new" xlink:title="getUserHandler.html" xlink:type="simple"><rect codeLine="5" fill="#FEFECE" filter="url(#f683xus2czcj9)" height="71.5469" id="org.example.controler.server.handlers.getUserHandler" style="stroke:#A80036;stroke-width:1.5;" width="268" x="7" y="126"/><ellipse cx="44.95" cy="144.9688" fill="#ADD1B2" rx="11" ry="11" style="stroke:#A80036;stroke-width:1.0;"/><path d="M47.9188,150.6094 Q47.3406,150.9063 46.7,151.0469 Q46.0594,151.2031 45.3563,151.2031 Q42.8563,151.2031 41.5281,149.5625 Q40.2156,147.9063 40.2156,144.7813 Q40.2156,141.6563 41.5281,140 Q42.8563,138.3438 45.3563,138.3438 Q46.0594,138.3438 46.7,138.5 Q47.3563,138.6563 47.9188,138.9531 L47.9188,141.6719 Q47.2938,141.0938 46.7,140.8281 Q46.1063,140.5469 45.4813,140.5469 Q44.1375,140.5469 43.45,141.625 Q42.7625,142.6875 42.7625,144.7813 Q42.7625,146.875 43.45,147.9531 Q44.1375,149.0156 45.4813,149.0156 Q46.1063,149.0156 46.7,148.75 Q47.2938,148.4688 47.9188,147.8906 L47.9188,150.6094 Z " fill="#000000"/><text fill="#000000" font-family="sans-serif" font-size="14" lengthAdjust="spacing" textLength="108" x="102.55" y="143.9951">getUserHandler</text><text fill="#000000" font-family="sans-serif" font-size="10" lengthAdjust="spacing" textLength="185" x="64.05" y="156.5791">org.example.controler.server.handlers</text><line style="stroke:#A80036;stroke-width:1.5;" x1="8" x2="274" y1="163.9375" y2="163.9375"/><ellipse cx="18" cy="174.9375" fill="#84BE84" rx="3" ry="3" style="stroke:#038048;stroke-width:1.0;"/><text fill="#000000" font-family="sans-serif" font-size="11" lengthAdjust="spacing" textLength="154" x="27" y="178.1479">handle(HttpExchange): void</text><ellipse cx="18" cy="187.7422" fill="#84BE84" rx="3" ry="3" style="stroke:#038048;stroke-width:1.0;"/><text fill="#000000" font-family="sans-serif" font-size="11" lengthAdjust="spacing" text-decoration="underline" textLength="242" x="27" y="190.9526">sendResponse(HttpExchange, String): void</text></a><!--MD5=[fed451cbac7203162405352689e89210]
class com.sun.net.httpserver.HttpHandler--><rect codeLine="10" fill="#FEFECE" filter="url(#f683xus2czcj9)" height="58.7422" id="com.sun.net.httpserver.HttpHandler" style="stroke:#A80036;stroke-width:1.5;" width="182" x="50" y="7"/><ellipse cx="80.75" cy="25.9688" fill="#B4A7E5" rx="11" ry="11" style="stroke:#A80036;stroke-width:1.0;"/><path d="M76.6719,21.7344 L76.6719,19.5781 L84.0625,19.5781 L84.0625,21.7344 L81.5938,21.7344 L81.5938,29.8125 L84.0625,29.8125 L84.0625,31.9688 L76.6719,31.9688 L76.6719,29.8125 L79.1406,29.8125 L79.1406,21.7344 L76.6719,21.7344 Z " fill="#000000"/><text fill="#000000" font-family="sans-serif" font-size="14" font-style="italic" lengthAdjust="spacing" textLength="84" x="113.75" y="24.9951">HttpHandler</text><text fill="#000000" font-family="sans-serif" font-size="10" font-style="italic" lengthAdjust="spacing" textLength="115" x="98.25" y="37.5791">com.sun.net.httpserver</text><line style="stroke:#A80036;stroke-width:1.5;" x1="51" x2="231" y1="44.9375" y2="44.9375"/><ellipse cx="61" cy="55.9375" fill="#84BE84" rx="3" ry="3" style="stroke:#038048;stroke-width:1.0;"/><text fill="#000000" font-family="sans-serif" font-size="11" font-style="italic" lengthAdjust="spacing" textLength="156" x="70" y="59.1479">handle(HttpExchange): void</text><!--MD5=[41eec599a7553d6d96c6ee70670527af]
reverse link com.sun.net.httpserver.HttpHandler to org.example.controler.server.handlers.getUserHandler--><path codeLine="14" d="M141,86.46 C141,99.64 141,113.64 141,125.9 " fill="none" id="com.sun.net.httpserver.HttpHandler-backto-org.example.controler.server.handlers.getUserHandler" style="stroke:#A80036;stroke-width:1.0;stroke-dasharray:7.0,7.0;"/><polygon fill="none" points="134,86.14,141,66.14,148,86.14,134,86.14" style="stroke:#A80036;stroke-width:1.0;"/><text fill="#888888" font-family="sans-serif" font-size="10" lengthAdjust="spacing" textLength="192" x="42" y="219.8291">UMLDoclet 2.0.15, PlantUML 1.2021.13</text><!--MD5=[f5f9e99720c1f9c9caf815b68bbec717]
@startuml
    set namespaceSeparator none
    hide empty fields
    hide empty methods

    class "<size:14>getUserHandler\n<size:10>org.example.controler.server.handlers" as org.example.controler.server.handlers.getUserHandler [[getUserHandler.html]] {
        +handle(HttpExchange): void
        {static} +sendResponse(HttpExchange, String): void
    }

    interface "<size:14>HttpHandler\n<size:10>com.sun.net.httpserver" as com.sun.net.httpserver.HttpHandler {
        {abstract} +handle(HttpExchange): void
    }

    com.sun.net.httpserver.HttpHandler <|.. org.example.controler.server.handlers.getUserHandler

    center footer UMLDoclet 2.0.15, PlantUML 1.2021.13
@enduml

PlantUML version 1.2021.13(Mon Nov 01 11:38:45 UTC 2021)
(APACHE source distribution)
Java Runtime: OpenJDK Runtime Environment
JVM: OpenJDK 64-Bit Server VM
Default Encoding: UTF-8
Language: en
Country: null
--></g></svg>