<?xml version="1.0" encoding="UTF-8" standalone="no"?><svg xmlns="http://www.w3.org/2000/svg" xmlns:xlink="http://www.w3.org/1999/xlink" contentScriptType="application/ecmascript" contentStyleType="text/css" height="436px" preserveAspectRatio="none" style="width:1850px;height:436px;background:#FFFFFF;" version="1.1" viewBox="0 0 1850 436" width="1850px" zoomAndPan="magnify"><defs><filter height="300%" id="fve64vv77u5q2" width="300%" x="-1" y="-1"><feGaussianBlur result="blurOut" stdDeviation="2.0"/><feColorMatrix in="blurOut" result="blurOut2" type="matrix" values="0 0 0 0 0 0 0 0 0 0 0 0 0 0 0 0 0 0 .4 0"/><feOffset dx="4.0" dy="4.0" in="blurOut2" result="blurOut3"/><feBlend in="SourceGraphic" in2="blurOut3" mode="normal"/></filter></defs><g><!--MD5=[1cdd546150bb7dc38ac85574c5a42913]
cluster org.example.controler.server.handlers--><polygon fill="#FFFFFF" filter="url(#fve64vv77u5q2)" points="16,142,329,142,336,164.2969,1833,164.2969,1833,413,16,413,16,142" style="stroke:#000000;stroke-width:1.5;"/><line style="stroke:#000000;stroke-width:1.5;" x1="16" x2="336" y1="164.2969" y2="164.2969"/><text fill="#000000" font-family="sans-serif" font-size="14" font-weight="bold" lengthAdjust="spacing" textLength="307" x="20" y="156.9951">org.example.controler.server.handlers</text><!--MD5=[165affddb8a431bc6b1435bff43cfb6b]
cluster com.sun.net.httpserver--><polygon fill="#FFFFFF" filter="url(#fve64vv77u5q2)" points="1075,6,1268,6,1275,28.2969,1289,28.2969,1289,118,1075,118,1075,6" style="stroke:#000000;stroke-width:1.5;"/><line style="stroke:#000000;stroke-width:1.5;" x1="1075" x2="1275" y1="28.2969" y2="28.2969"/><text fill="#000000" font-family="sans-serif" font-size="14" font-weight="bold" lengthAdjust="spacing" textLength="187" x="1079" y="20.9951">com.sun.net.httpserver</text><!--MD5=[86d5468ee9e22605dd2cb200730b94b8]
class org.example.controler.server.handlers.GetAllConnectedUsers--><a href="GetAllConnectedUsers.html" target="_top" title="GetAllConnectedUsers.html" xlink:actuate="onRequest" xlink:href="GetAllConnectedUsers.html" xlink:show="new" xlink:title="GetAllConnectedUsers.html" xlink:type="simple"><rect codeLine="3" fill="#FEFECE" filter="url(#fve64vv77u5q2)" height="73.6094" id="org.example.controler.server.handlers.GetAllConnectedUsers" style="stroke:#A80036;stroke-width:1.5;" width="228" x="32" y="323"/><ellipse cx="72.2" cy="339" fill="#ADD1B2" rx="11" ry="11" style="stroke:#A80036;stroke-width:1.0;"/><path d="M75.1688,344.6406 Q74.5906,344.9375 73.95,345.0781 Q73.3094,345.2344 72.6063,345.2344 Q70.1063,345.2344 68.7781,343.5938 Q67.4656,341.9375 67.4656,338.8125 Q67.4656,335.6875 68.7781,334.0313 Q70.1063,332.375 72.6063,332.375 Q73.3094,332.375 73.95,332.5313 Q74.6063,332.6875 75.1688,332.9844 L75.1688,335.7031 Q74.5438,335.125 73.95,334.8594 Q73.3563,334.5781 72.7313,334.5781 Q71.3875,334.5781 70.7,335.6563 Q70.0125,336.7188 70.0125,338.8125 Q70.0125,340.9063 70.7,341.9844 Q71.3875,343.0469 72.7313,343.0469 Q73.3563,343.0469 73.95,342.7813 Q74.5438,342.5 75.1688,341.9219 L75.1688,344.6406 Z " fill="#000000"/><text fill="#000000" font-family="sans-serif" font-size="12" lengthAdjust="spacing" textLength="140" x="91.8" y="343.1543">GetAllConnectedUsers</text><line style="stroke:#A80036;stroke-width:1.5;" x1="33" x2="259" y1="355" y2="355"/><line style="stroke:#A80036;stroke-width:1.5;" x1="33" x2="259" y1="363" y2="363"/><ellipse cx="43" cy="374" fill="#84BE84" rx="3" ry="3" style="stroke:#038048;stroke-width:1.0;"/><text fill="#000000" font-family="sans-serif" font-size="11" lengthAdjust="spacing" textLength="202" x="52" y="377.2104">GetAllConnectedUsers(HTTPServer)</text><ellipse cx="43" cy="386.8047" fill="#84BE84" rx="3" ry="3" style="stroke:#038048;stroke-width:1.0;"/><text fill="#000000" font-family="sans-serif" font-size="11" lengthAdjust="spacing" textLength="154" x="52" y="390.0151">handle(HttpExchange): void</text></a><!--MD5=[8444295d5734354de85843de0b112709]
class org.example.controler.server.handlers.receiveConnectedUsersHandler--><a href="receiveConnectedUsersHandler.html" target="_top" title="receiveConnectedUsersHandler.html" xlink:actuate="onRequest" xlink:href="receiveConnectedUsersHandler.html" xlink:show="new" xlink:title="receiveConnectedUsersHandler.html" xlink:type="simple"><rect codeLine="8" fill="#FEFECE" filter="url(#fve64vv77u5q2)" height="73.6094" id="org.example.controler.server.handlers.receiveConnectedUsersHandler" style="stroke:#A80036;stroke-width:1.5;" width="280" x="295" y="323"/><ellipse cx="332.5" cy="339" fill="#ADD1B2" rx="11" ry="11" style="stroke:#A80036;stroke-width:1.0;"/><path d="M335.4688,344.6406 Q334.8906,344.9375 334.25,345.0781 Q333.6094,345.2344 332.9063,345.2344 Q330.4063,345.2344 329.0781,343.5938 Q327.7656,341.9375 327.7656,338.8125 Q327.7656,335.6875 329.0781,334.0313 Q330.4063,332.375 332.9063,332.375 Q333.6094,332.375 334.25,332.5313 Q334.9063,332.6875 335.4688,332.9844 L335.4688,335.7031 Q334.8438,335.125 334.25,334.8594 Q333.6563,334.5781 333.0313,334.5781 Q331.6875,334.5781 331,335.6563 Q330.3125,336.7188 330.3125,338.8125 Q330.3125,340.9063 331,341.9844 Q331.6875,343.0469 333.0313,343.0469 Q333.6563,343.0469 334.25,342.7813 Q334.8438,342.5 335.4688,341.9219 L335.4688,344.6406 Z " fill="#000000"/><text fill="#000000" font-family="sans-serif" font-size="12" lengthAdjust="spacing" textLength="198" x="351.5" y="343.1543">receiveConnectedUsersHandler</text><line style="stroke:#A80036;stroke-width:1.5;" x1="296" x2="574" y1="355" y2="355"/><line style="stroke:#A80036;stroke-width:1.5;" x1="296" x2="574" y1="363" y2="363"/><ellipse cx="306" cy="374" fill="#84BE84" rx="3" ry="3" style="stroke:#038048;stroke-width:1.0;"/><text fill="#000000" font-family="sans-serif" font-size="11" lengthAdjust="spacing" textLength="254" x="315" y="377.2104">receiveConnectedUsersHandler(HTTPServer)</text><ellipse cx="306" cy="386.8047" fill="#84BE84" rx="3" ry="3" style="stroke:#038048;stroke-width:1.0;"/><text fill="#000000" font-family="sans-serif" font-size="11" lengthAdjust="spacing" textLength="154" x="315" y="390.0151">handle(HttpExchange): void</text></a><!--MD5=[0e77cd97edd11d68084e09ca7037606c]
class org.example.controler.server.handlers.ReceiveMessageHandler--><a href="ReceiveMessageHandler.html" target="_top" title="ReceiveMessageHandler.html" xlink:actuate="onRequest" xlink:href="ReceiveMessageHandler.html" xlink:show="new" xlink:title="ReceiveMessageHandler.html" xlink:type="simple"><rect codeLine="13" fill="#FEFECE" filter="url(#fve64vv77u5q2)" height="73.6094" id="org.example.controler.server.handlers.ReceiveMessageHandler" style="stroke:#A80036;stroke-width:1.5;" width="239" x="610.5" y="323"/><ellipse cx="649.8" cy="339" fill="#ADD1B2" rx="11" ry="11" style="stroke:#A80036;stroke-width:1.0;"/><path d="M652.7688,344.6406 Q652.1906,344.9375 651.55,345.0781 Q650.9094,345.2344 650.2063,345.2344 Q647.7063,345.2344 646.3781,343.5938 Q645.0656,341.9375 645.0656,338.8125 Q645.0656,335.6875 646.3781,334.0313 Q647.7063,332.375 650.2063,332.375 Q650.9094,332.375 651.55,332.5313 Q652.2063,332.6875 652.7688,332.9844 L652.7688,335.7031 Q652.1438,335.125 651.55,334.8594 Q650.9563,334.5781 650.3313,334.5781 Q648.9875,334.5781 648.3,335.6563 Q647.6125,336.7188 647.6125,338.8125 Q647.6125,340.9063 648.3,341.9844 Q648.9875,343.0469 650.3313,343.0469 Q650.9563,343.0469 651.55,342.7813 Q652.1438,342.5 652.7688,341.9219 L652.7688,344.6406 Z " fill="#000000"/><text fill="#000000" font-family="sans-serif" font-size="12" lengthAdjust="spacing" textLength="153" x="669.2" y="343.1543">ReceiveMessageHandler</text><line style="stroke:#A80036;stroke-width:1.5;" x1="611.5" x2="848.5" y1="355" y2="355"/><line style="stroke:#A80036;stroke-width:1.5;" x1="611.5" x2="848.5" y1="363" y2="363"/><ellipse cx="621.5" cy="374" fill="#84BE84" rx="3" ry="3" style="stroke:#038048;stroke-width:1.0;"/><text fill="#000000" font-family="sans-serif" font-size="11" lengthAdjust="spacing" textLength="213" x="630.5" y="377.2104">ReceiveMessageHandler(HTTPServer)</text><ellipse cx="621.5" cy="386.8047" fill="#84BE84" rx="3" ry="3" style="stroke:#038048;stroke-width:1.0;"/><text fill="#000000" font-family="sans-serif" font-size="11" lengthAdjust="spacing" textLength="154" x="630.5" y="390.0151">handle(HttpExchange): void</text></a><!--MD5=[bf0a9b5a8c9b44a538ee0790fe545746]
class org.example.controler.server.handlers.ConnectedUserHandler--><a href="ConnectedUserHandler.html" target="_top" title="ConnectedUserHandler.html" xlink:actuate="onRequest" xlink:href="ConnectedUserHandler.html" xlink:show="new" xlink:title="ConnectedUserHandler.html" xlink:type="simple"><rect codeLine="18" fill="#FEFECE" filter="url(#fve64vv77u5q2)" height="60.8047" id="org.example.controler.server.handlers.ConnectedUserHandler" style="stroke:#A80036;stroke-width:1.5;" width="180" x="877" y="189.5"/><ellipse cx="892.9" cy="205.5" fill="#ADD1B2" rx="11" ry="11" style="stroke:#A80036;stroke-width:1.0;"/><path d="M895.8688,211.1406 Q895.2906,211.4375 894.65,211.5781 Q894.0094,211.7344 893.3063,211.7344 Q890.8063,211.7344 889.4781,210.0938 Q888.1656,208.4375 888.1656,205.3125 Q888.1656,202.1875 889.4781,200.5313 Q890.8063,198.875 893.3063,198.875 Q894.0094,198.875 894.65,199.0313 Q895.3063,199.1875 895.8688,199.4844 L895.8688,202.2031 Q895.2438,201.625 894.65,201.3594 Q894.0563,201.0781 893.4313,201.0781 Q892.0875,201.0781 891.4,202.1563 Q890.7125,203.2188 890.7125,205.3125 Q890.7125,207.4063 891.4,208.4844 Q892.0875,209.5469 893.4313,209.5469 Q894.0563,209.5469 894.65,209.2813 Q895.2438,209 895.8688,208.4219 L895.8688,211.1406 Z " fill="#000000"/><text fill="#000000" font-family="sans-serif" font-size="12" lengthAdjust="spacing" textLength="146" x="907.1" y="209.6543">ConnectedUserHandler</text><line style="stroke:#A80036;stroke-width:1.5;" x1="878" x2="1056" y1="221.5" y2="221.5"/><line style="stroke:#A80036;stroke-width:1.5;" x1="878" x2="1056" y1="229.5" y2="229.5"/><ellipse cx="888" cy="240.5" fill="#84BE84" rx="3" ry="3" style="stroke:#038048;stroke-width:1.0;"/><text fill="#000000" font-family="sans-serif" font-size="11" lengthAdjust="spacing" textLength="154" x="897" y="243.7104">handle(HttpExchange): void</text></a><!--MD5=[ae9e86adbc2ea90e303bcea945c03d0a]
class org.example.controler.server.handlers.UpdatePseudoHandler--><a href="UpdatePseudoHandler.html" target="_top" title="UpdatePseudoHandler.html" xlink:actuate="onRequest" xlink:href="UpdatePseudoHandler.html" xlink:show="new" xlink:title="UpdatePseudoHandler.html" xlink:type="simple"><rect codeLine="22" fill="#FEFECE" filter="url(#fve64vv77u5q2)" height="73.6094" id="org.example.controler.server.handlers.UpdatePseudoHandler" style="stroke:#A80036;stroke-width:1.5;" width="227" x="884.5" y="323"/><ellipse cx="923.35" cy="339" fill="#ADD1B2" rx="11" ry="11" style="stroke:#A80036;stroke-width:1.0;"/><path d="M926.3188,344.6406 Q925.7406,344.9375 925.1,345.0781 Q924.4594,345.2344 923.7563,345.2344 Q921.2563,345.2344 919.9281,343.5938 Q918.6156,341.9375 918.6156,338.8125 Q918.6156,335.6875 919.9281,334.0313 Q921.2563,332.375 923.7563,332.375 Q924.4594,332.375 925.1,332.5313 Q925.7563,332.6875 926.3188,332.9844 L926.3188,335.7031 Q925.6938,335.125 925.1,334.8594 Q924.5063,334.5781 923.8813,334.5781 Q922.5375,334.5781 921.85,335.6563 Q921.1625,336.7188 921.1625,338.8125 Q921.1625,340.9063 921.85,341.9844 Q922.5375,343.0469 923.8813,343.0469 Q924.5063,343.0469 925.1,342.7813 Q925.6938,342.5 926.3188,341.9219 L926.3188,344.6406 Z " fill="#000000"/><text fill="#000000" font-family="sans-serif" font-size="12" lengthAdjust="spacing" textLength="142" x="942.65" y="343.1543">UpdatePseudoHandler</text><line style="stroke:#A80036;stroke-width:1.5;" x1="885.5" x2="1110.5" y1="355" y2="355"/><line style="stroke:#A80036;stroke-width:1.5;" x1="885.5" x2="1110.5" y1="363" y2="363"/><ellipse cx="895.5" cy="374" fill="#84BE84" rx="3" ry="3" style="stroke:#038048;stroke-width:1.0;"/><text fill="#000000" font-family="sans-serif" font-size="11" lengthAdjust="spacing" textLength="201" x="904.5" y="377.2104">UpdatePseudoHandler(HTTPServer)</text><ellipse cx="895.5" cy="386.8047" fill="#84BE84" rx="3" ry="3" style="stroke:#038048;stroke-width:1.0;"/><text fill="#000000" font-family="sans-serif" font-size="11" lengthAdjust="spacing" textLength="154" x="904.5" y="390.0151">handle(HttpExchange): void</text></a><!--MD5=[7d2ead511f9ad25541d5fe8bd09c2623]
class org.example.controler.server.handlers.getIPHandler--><a href="getIPHandler.html" target="_top" title="getIPHandler.html" xlink:actuate="onRequest" xlink:href="getIPHandler.html" xlink:show="new" xlink:title="getIPHandler.html" xlink:type="simple"><rect codeLine="27" fill="#FEFECE" filter="url(#fve64vv77u5q2)" height="86.4141" id="org.example.controler.server.handlers.getIPHandler" style="stroke:#A80036;stroke-width:1.5;" width="180" x="662" y="177"/><ellipse cx="707.25" cy="193" fill="#ADD1B2" rx="11" ry="11" style="stroke:#A80036;stroke-width:1.0;"/><path d="M710.2188,198.6406 Q709.6406,198.9375 709,199.0781 Q708.3594,199.2344 707.6563,199.2344 Q705.1563,199.2344 703.8281,197.5938 Q702.5156,195.9375 702.5156,192.8125 Q702.5156,189.6875 703.8281,188.0313 Q705.1563,186.375 707.6563,186.375 Q708.3594,186.375 709,186.5313 Q709.6563,186.6875 710.2188,186.9844 L710.2188,189.7031 Q709.5938,189.125 709,188.8594 Q708.4063,188.5781 707.7813,188.5781 Q706.4375,188.5781 705.75,189.6563 Q705.0625,190.7188 705.0625,192.8125 Q705.0625,194.9063 705.75,195.9844 Q706.4375,197.0469 707.7813,197.0469 Q708.4063,197.0469 709,196.7813 Q709.5938,196.5 710.2188,195.9219 L710.2188,198.6406 Z " fill="#000000"/><text fill="#000000" font-family="sans-serif" font-size="12" lengthAdjust="spacing" textLength="81" x="727.75" y="197.1543">getIPHandler</text><line style="stroke:#A80036;stroke-width:1.5;" x1="663" x2="841" y1="209" y2="209"/><polygon fill="none" points="673,215,677,219,673,223,669,219" style="stroke:#B38D22;stroke-width:1.0;"/><text fill="#000000" font-family="sans-serif" font-size="11" lengthAdjust="spacing" textLength="135" x="682" y="223.2104">httpServer: HTTPServer</text><line style="stroke:#A80036;stroke-width:1.5;" x1="663" x2="841" y1="229.8047" y2="229.8047"/><ellipse cx="673" cy="240.8047" fill="#84BE84" rx="3" ry="3" style="stroke:#038048;stroke-width:1.0;"/><text fill="#000000" font-family="sans-serif" font-size="11" lengthAdjust="spacing" textLength="147" x="682" y="244.0151">getIPHandler(HTTPServer)</text><ellipse cx="673" cy="253.6094" fill="#84BE84" rx="3" ry="3" style="stroke:#038048;stroke-width:1.0;"/><text fill="#000000" font-family="sans-serif" font-size="11" lengthAdjust="spacing" textLength="154" x="682" y="256.8198">handle(HttpExchange): void</text></a><!--MD5=[b7863e84e43a78c6930427dfd76327b3]
class org.example.controler.server.handlers.PingHandler--><a href="PingHandler.html" target="_top" title="PingHandler.html" xlink:actuate="onRequest" xlink:href="PingHandler.html" xlink:show="new" xlink:title="PingHandler.html" xlink:type="simple"><rect codeLine="33" fill="#FEFECE" filter="url(#fve64vv77u5q2)" height="73.6094" id="org.example.controler.server.handlers.PingHandler" style="stroke:#A80036;stroke-width:1.5;" width="180" x="1147" y="323"/><ellipse cx="1194.75" cy="339" fill="#ADD1B2" rx="11" ry="11" style="stroke:#A80036;stroke-width:1.0;"/><path d="M1197.7188,344.6406 Q1197.1406,344.9375 1196.5,345.0781 Q1195.8594,345.2344 1195.1563,345.2344 Q1192.6563,345.2344 1191.3281,343.5938 Q1190.0156,341.9375 1190.0156,338.8125 Q1190.0156,335.6875 1191.3281,334.0313 Q1192.6563,332.375 1195.1563,332.375 Q1195.8594,332.375 1196.5,332.5313 Q1197.1563,332.6875 1197.7188,332.9844 L1197.7188,335.7031 Q1197.0938,335.125 1196.5,334.8594 Q1195.9063,334.5781 1195.2813,334.5781 Q1193.9375,334.5781 1193.25,335.6563 Q1192.5625,336.7188 1192.5625,338.8125 Q1192.5625,340.9063 1193.25,341.9844 Q1193.9375,343.0469 1195.2813,343.0469 Q1195.9063,343.0469 1196.5,342.7813 Q1197.0938,342.5 1197.7188,341.9219 L1197.7188,344.6406 Z " fill="#000000"/><text fill="#000000" font-family="sans-serif" font-size="12" lengthAdjust="spacing" textLength="76" x="1215.25" y="343.1543">PingHandler</text><line style="stroke:#A80036;stroke-width:1.5;" x1="1148" x2="1326" y1="355" y2="355"/><line style="stroke:#A80036;stroke-width:1.5;" x1="1148" x2="1326" y1="363" y2="363"/><ellipse cx="1158" cy="374" fill="#84BE84" rx="3" ry="3" style="stroke:#038048;stroke-width:1.0;"/><text fill="#000000" font-family="sans-serif" font-size="11" lengthAdjust="spacing" textLength="143" x="1167" y="377.2104">PingHandler(HTTPServer)</text><ellipse cx="1158" cy="386.8047" fill="#84BE84" rx="3" ry="3" style="stroke:#038048;stroke-width:1.0;"/><text fill="#000000" font-family="sans-serif" font-size="11" lengthAdjust="spacing" textLength="154" x="1167" y="390.0151">handle(HttpExchange): void</text></a><!--MD5=[1bf23408d5be30806d220f67c25d1351]
class org.example.controler.server.handlers.getUserHandler--><a href="getUserHandler.html" target="_top" title="getUserHandler.html" xlink:actuate="onRequest" xlink:href="getUserHandler.html" xlink:show="new" xlink:title="getUserHandler.html" xlink:type="simple"><rect codeLine="38" fill="#FEFECE" filter="url(#fve64vv77u5q2)" height="73.6094" id="org.example.controler.server.handlers.getUserHandler" style="stroke:#A80036;stroke-width:1.5;" width="268" x="1307" y="183"/><ellipse cx="1387.25" cy="199" fill="#ADD1B2" rx="11" ry="11" style="stroke:#A80036;stroke-width:1.0;"/><path d="M1390.2188,204.6406 Q1389.6406,204.9375 1389,205.0781 Q1388.3594,205.2344 1387.6563,205.2344 Q1385.1563,205.2344 1383.8281,203.5938 Q1382.5156,201.9375 1382.5156,198.8125 Q1382.5156,195.6875 1383.8281,194.0313 Q1385.1563,192.375 1387.6563,192.375 Q1388.3594,192.375 1389,192.5313 Q1389.6563,192.6875 1390.2188,192.9844 L1390.2188,195.7031 Q1389.5938,195.125 1389,194.8594 Q1388.4063,194.5781 1387.7813,194.5781 Q1386.4375,194.5781 1385.75,195.6563 Q1385.0625,196.7188 1385.0625,198.8125 Q1385.0625,200.9063 1385.75,201.9844 Q1386.4375,203.0469 1387.7813,203.0469 Q1388.4063,203.0469 1389,202.7813 Q1389.5938,202.5 1390.2188,201.9219 L1390.2188,204.6406 Z " fill="#000000"/><text fill="#000000" font-family="sans-serif" font-size="12" lengthAdjust="spacing" textLength="99" x="1407.75" y="203.1543">getUserHandler</text><line style="stroke:#A80036;stroke-width:1.5;" x1="1308" x2="1574" y1="215" y2="215"/><line style="stroke:#A80036;stroke-width:1.5;" x1="1308" x2="1574" y1="223" y2="223"/><ellipse cx="1318" cy="234" fill="#84BE84" rx="3" ry="3" style="stroke:#038048;stroke-width:1.0;"/><text fill="#000000" font-family="sans-serif" font-size="11" lengthAdjust="spacing" textLength="154" x="1327" y="237.2104">handle(HttpExchange): void</text><ellipse cx="1318" cy="246.8047" fill="#84BE84" rx="3" ry="3" style="stroke:#038048;stroke-width:1.0;"/><text fill="#000000" font-family="sans-serif" font-size="11" lengthAdjust="spacing" text-decoration="underline" textLength="242" x="1327" y="250.0151">sendResponse(HttpExchange, String): void</text></a><!--MD5=[2b3e0a2087c26a13ff7cb7bbdc611e1b]
class org.example.controler.server.handlers.DisconnectHandler--><a href="DisconnectHandler.html" target="_top" title="DisconnectHandler.html" xlink:actuate="onRequest" xlink:href="DisconnectHandler.html" xlink:show="new" xlink:title="DisconnectHandler.html" xlink:type="simple"><rect codeLine="43" fill="#FEFECE" filter="url(#fve64vv77u5q2)" height="73.6094" id="org.example.controler.server.handlers.DisconnectHandler" style="stroke:#A80036;stroke-width:1.5;" width="207" x="1362.5" y="323"/><ellipse cx="1402.7" cy="339" fill="#ADD1B2" rx="11" ry="11" style="stroke:#A80036;stroke-width:1.0;"/><path d="M1405.6688,344.6406 Q1405.0906,344.9375 1404.45,345.0781 Q1403.8094,345.2344 1403.1063,345.2344 Q1400.6063,345.2344 1399.2781,343.5938 Q1397.9656,341.9375 1397.9656,338.8125 Q1397.9656,335.6875 1399.2781,334.0313 Q1400.6063,332.375 1403.1063,332.375 Q1403.8094,332.375 1404.45,332.5313 Q1405.1063,332.6875 1405.6688,332.9844 L1405.6688,335.7031 Q1405.0438,335.125 1404.45,334.8594 Q1403.8563,334.5781 1403.2313,334.5781 Q1401.8875,334.5781 1401.2,335.6563 Q1400.5125,336.7188 1400.5125,338.8125 Q1400.5125,340.9063 1401.2,341.9844 Q1401.8875,343.0469 1403.2313,343.0469 Q1403.8563,343.0469 1404.45,342.7813 Q1405.0438,342.5 1405.6688,341.9219 L1405.6688,344.6406 Z " fill="#000000"/><text fill="#000000" font-family="sans-serif" font-size="12" lengthAdjust="spacing" textLength="119" x="1422.3" y="343.1543">DisconnectHandler</text><line style="stroke:#A80036;stroke-width:1.5;" x1="1363.5" x2="1568.5" y1="355" y2="355"/><line style="stroke:#A80036;stroke-width:1.5;" x1="1363.5" x2="1568.5" y1="363" y2="363"/><ellipse cx="1373.5" cy="374" fill="#84BE84" rx="3" ry="3" style="stroke:#038048;stroke-width:1.0;"/><text fill="#000000" font-family="sans-serif" font-size="11" lengthAdjust="spacing" textLength="181" x="1382.5" y="377.2104">DisconnectHandler(HTTPServer)</text><ellipse cx="1373.5" cy="386.8047" fill="#84BE84" rx="3" ry="3" style="stroke:#038048;stroke-width:1.0;"/><text fill="#000000" font-family="sans-serif" font-size="11" lengthAdjust="spacing" textLength="154" x="1382.5" y="390.0151">handle(HttpExchange): void</text></a><!--MD5=[6d461c84eafb06a1a87b5daa13d28a3f]
class org.example.controler.server.handlers.GetPseudo--><a href="GetPseudo.html" target="_top" title="GetPseudo.html" xlink:actuate="onRequest" xlink:href="GetPseudo.html" xlink:show="new" xlink:title="GetPseudo.html" xlink:type="simple"><rect codeLine="48" fill="#FEFECE" filter="url(#fve64vv77u5q2)" height="60.8047" id="org.example.controler.server.handlers.GetPseudo" style="stroke:#A80036;stroke-width:1.5;" width="180" x="1092" y="189.5"/><ellipse cx="1143.25" cy="205.5" fill="#ADD1B2" rx="11" ry="11" style="stroke:#A80036;stroke-width:1.0;"/><path d="M1146.2188,211.1406 Q1145.6406,211.4375 1145,211.5781 Q1144.3594,211.7344 1143.6563,211.7344 Q1141.1563,211.7344 1139.8281,210.0938 Q1138.5156,208.4375 1138.5156,205.3125 Q1138.5156,202.1875 1139.8281,200.5313 Q1141.1563,198.875 1143.6563,198.875 Q1144.3594,198.875 1145,199.0313 Q1145.6563,199.1875 1146.2188,199.4844 L1146.2188,202.2031 Q1145.5938,201.625 1145,201.3594 Q1144.4063,201.0781 1143.7813,201.0781 Q1142.4375,201.0781 1141.75,202.1563 Q1141.0625,203.2188 1141.0625,205.3125 Q1141.0625,207.4063 1141.75,208.4844 Q1142.4375,209.5469 1143.7813,209.5469 Q1144.4063,209.5469 1145,209.2813 Q1145.5938,209 1146.2188,208.4219 L1146.2188,211.1406 Z " fill="#000000"/><text fill="#000000" font-family="sans-serif" font-size="12" lengthAdjust="spacing" textLength="69" x="1163.75" y="209.6543">GetPseudo</text><line style="stroke:#A80036;stroke-width:1.5;" x1="1093" x2="1271" y1="221.5" y2="221.5"/><line style="stroke:#A80036;stroke-width:1.5;" x1="1093" x2="1271" y1="229.5" y2="229.5"/><ellipse cx="1103" cy="240.5" fill="#84BE84" rx="3" ry="3" style="stroke:#038048;stroke-width:1.0;"/><text fill="#000000" font-family="sans-serif" font-size="11" lengthAdjust="spacing" textLength="154" x="1112" y="243.7104">handle(HttpExchange): void</text></a><!--MD5=[3d81ab25475dca16dbb5aa2c01eacba9]
class org.example.controler.server.handlers.EndSessionHandler--><a href="EndSessionHandler.html" target="_top" title="EndSessionHandler.html" xlink:actuate="onRequest" xlink:href="EndSessionHandler.html" xlink:show="new" xlink:title="EndSessionHandler.html" xlink:type="simple"><rect codeLine="52" fill="#FEFECE" filter="url(#fve64vv77u5q2)" height="73.6094" id="org.example.controler.server.handlers.EndSessionHandler" style="stroke:#A80036;stroke-width:1.5;" width="212" x="1605" y="323"/><ellipse cx="1646.1" cy="339" fill="#ADD1B2" rx="11" ry="11" style="stroke:#A80036;stroke-width:1.0;"/><path d="M1649.0688,344.6406 Q1648.4906,344.9375 1647.85,345.0781 Q1647.2094,345.2344 1646.5063,345.2344 Q1644.0063,345.2344 1642.6781,343.5938 Q1641.3656,341.9375 1641.3656,338.8125 Q1641.3656,335.6875 1642.6781,334.0313 Q1644.0063,332.375 1646.5063,332.375 Q1647.2094,332.375 1647.85,332.5313 Q1648.5063,332.6875 1649.0688,332.9844 L1649.0688,335.7031 Q1648.4438,335.125 1647.85,334.8594 Q1647.2563,334.5781 1646.6313,334.5781 Q1645.2875,334.5781 1644.6,335.6563 Q1643.9125,336.7188 1643.9125,338.8125 Q1643.9125,340.9063 1644.6,341.9844 Q1645.2875,343.0469 1646.6313,343.0469 Q1647.2563,343.0469 1647.85,342.7813 Q1648.4438,342.5 1649.0688,341.9219 L1649.0688,344.6406 Z " fill="#000000"/><text fill="#000000" font-family="sans-serif" font-size="12" lengthAdjust="spacing" textLength="122" x="1665.9" y="343.1543">EndSessionHandler</text><line style="stroke:#A80036;stroke-width:1.5;" x1="1606" x2="1816" y1="355" y2="355"/><line style="stroke:#A80036;stroke-width:1.5;" x1="1606" x2="1816" y1="363" y2="363"/><ellipse cx="1616" cy="374" fill="#84BE84" rx="3" ry="3" style="stroke:#038048;stroke-width:1.0;"/><text fill="#000000" font-family="sans-serif" font-size="11" lengthAdjust="spacing" textLength="186" x="1625" y="377.2104">EndSessionHandler(HTTPServer)</text><ellipse cx="1616" cy="386.8047" fill="#84BE84" rx="3" ry="3" style="stroke:#038048;stroke-width:1.0;"/><text fill="#000000" font-family="sans-serif" font-size="11" lengthAdjust="spacing" textLength="154" x="1625" y="390.0151">handle(HttpExchange): void</text></a><!--MD5=[56cd350432d1d1354560fa873fd0079d]
class org.example.controler.server.handlers.BaseHandler--><a href="BaseHandler.html" target="_top" title="BaseHandler.html" xlink:actuate="onRequest" xlink:href="BaseHandler.html" xlink:show="new" xlink:title="BaseHandler.html" xlink:type="simple"><rect codeLine="57" fill="#FEFECE" filter="url(#fve64vv77u5q2)" height="73.6094" id="org.example.controler.server.handlers.BaseHandler" style="stroke:#A80036;stroke-width:1.5;" width="174" x="453" y="183"/><ellipse cx="495.9" cy="199" fill="#ADD1B2" rx="11" ry="11" style="stroke:#A80036;stroke-width:1.0;"/><path d="M498.8688,204.6406 Q498.2906,204.9375 497.65,205.0781 Q497.0094,205.2344 496.3063,205.2344 Q493.8063,205.2344 492.4781,203.5938 Q491.1656,201.9375 491.1656,198.8125 Q491.1656,195.6875 492.4781,194.0313 Q493.8063,192.375 496.3063,192.375 Q497.0094,192.375 497.65,192.5313 Q498.3063,192.6875 498.8688,192.9844 L498.8688,195.7031 Q498.2438,195.125 497.65,194.8594 Q497.0563,194.5781 496.4313,194.5781 Q495.0875,194.5781 494.4,195.6563 Q493.7125,196.7188 493.7125,198.8125 Q493.7125,200.9063 494.4,201.9844 Q495.0875,203.0469 496.4313,203.0469 Q497.0563,203.0469 497.65,202.7813 Q498.2438,202.5 498.8688,201.9219 L498.8688,204.6406 Z " fill="#000000"/><text fill="#000000" font-family="sans-serif" font-size="12" lengthAdjust="spacing" textLength="80" x="516.1" y="203.1543">BaseHandler</text><line style="stroke:#A80036;stroke-width:1.5;" x1="454" x2="626" y1="215" y2="215"/><polygon fill="none" points="464,221,468,225,464,229,460,225" style="stroke:#B38D22;stroke-width:1.0;"/><text fill="#000000" font-family="sans-serif" font-size="11" lengthAdjust="spacing" textLength="135" x="473" y="229.2104">httpServer: HTTPServer</text><line style="stroke:#A80036;stroke-width:1.5;" x1="454" x2="626" y1="235.8047" y2="235.8047"/><ellipse cx="464" cy="246.8047" fill="#84BE84" rx="3" ry="3" style="stroke:#038048;stroke-width:1.0;"/><text fill="#000000" font-family="sans-serif" font-size="11" lengthAdjust="spacing" textLength="148" x="473" y="250.0151">BaseHandler(HTTPServer)</text></a><!--MD5=[fed451cbac7203162405352689e89210]
class com.sun.net.httpserver.HttpHandler--><rect codeLine="83" fill="#FEFECE" filter="url(#fve64vv77u5q2)" height="60.8047" id="com.sun.net.httpserver.HttpHandler" style="stroke:#A80036;stroke-width:1.5;" width="182" x="1091" y="41"/><ellipse cx="1139.75" cy="57" fill="#B4A7E5" rx="11" ry="11" style="stroke:#A80036;stroke-width:1.0;"/><path d="M1135.6719,52.7656 L1135.6719,50.6094 L1143.0625,50.6094 L1143.0625,52.7656 L1140.5938,52.7656 L1140.5938,60.8438 L1143.0625,60.8438 L1143.0625,63 L1135.6719,63 L1135.6719,60.8438 L1138.1406,60.8438 L1138.1406,52.7656 L1135.6719,52.7656 Z " fill="#000000"/><text fill="#000000" font-family="sans-serif" font-size="12" font-style="italic" lengthAdjust="spacing" textLength="76" x="1160.25" y="61.1543">HttpHandler</text><line style="stroke:#A80036;stroke-width:1.5;" x1="1092" x2="1272" y1="73" y2="73"/><line style="stroke:#A80036;stroke-width:1.5;" x1="1092" x2="1272" y1="81" y2="81"/><ellipse cx="1102" cy="92" fill="#84BE84" rx="3" ry="3" style="stroke:#038048;stroke-width:1.0;"/><text fill="#000000" font-family="sans-serif" font-size="11" font-style="italic" lengthAdjust="spacing" textLength="156" x="1111" y="95.2104">handle(HttpExchange): void</text><!--MD5=[4b97f623f60a0d9385c69fbe2fad8261]
reverse link org.example.controler.server.handlers.BaseHandler to org.example.controler.server.handlers.GetAllConnectedUsers--><path codeLine="62" d="M433.64,258.25 C376.25,278.35 305.74,303.05 248.9,322.96 " fill="none" id="org.example.controler.server.handlers.BaseHandler-backto-org.example.controler.server.handlers.GetAllConnectedUsers" style="stroke:#A80036;stroke-width:1.0;"/><polygon fill="none" points="431.37,251.63,452.56,251.63,436,264.84,431.37,251.63" style="stroke:#A80036;stroke-width:1.0;"/><!--MD5=[3715f1ac961d749c66484e3133b17363]
reverse link com.sun.net.httpserver.HttpHandler to org.example.controler.server.handlers.GetAllConnectedUsers--><path codeLine="63" d="M1070.8,76.6 C863,84.88 431.1,105.32 369,134 C278.88,175.63 204.98,270.41 169.23,322.69 " fill="none" id="com.sun.net.httpserver.HttpHandler-backto-org.example.controler.server.handlers.GetAllConnectedUsers" style="stroke:#A80036;stroke-width:1.0;stroke-dasharray:7.0,7.0;"/><polygon fill="none" points="1070.53,69.6,1090.79,75.81,1071.08,83.59,1070.53,69.6" style="stroke:#A80036;stroke-width:1.0;"/><!--MD5=[1e306b3e71dcc25b5cba8f20859b4fef]
reverse link org.example.controler.server.handlers.BaseHandler to org.example.controler.server.handlers.receiveConnectedUsersHandler--><path codeLine="64" d="M500.25,273.24 C487.63,289.83 473.96,307.8 462.4,322.98 " fill="none" id="org.example.controler.server.handlers.BaseHandler-backto-org.example.controler.server.handlers.receiveConnectedUsersHandler" style="stroke:#A80036;stroke-width:1.0;"/><polygon fill="none" points="494.73,268.94,512.41,257.26,505.87,277.41,494.73,268.94" style="stroke:#A80036;stroke-width:1.0;"/><!--MD5=[3a9d13e4adc3ed0134a0ad08d92839bb]
reverse link com.sun.net.httpserver.HttpHandler to org.example.controler.server.handlers.receiveConnectedUsersHandler--><path codeLine="65" d="M1070.86,73.08 C865.78,75.31 444.57,85.79 400,134 C352.5,185.38 387.42,273.27 413.49,322.62 " fill="none" id="com.sun.net.httpserver.HttpHandler-backto-org.example.controler.server.handlers.receiveConnectedUsersHandler" style="stroke:#A80036;stroke-width:1.0;stroke-dasharray:7.0,7.0;"/><polygon fill="none" points="1070.84,66.08,1090.91,72.88,1070.98,80.08,1070.84,66.08" style="stroke:#A80036;stroke-width:1.0;"/><!--MD5=[da06eb074973d9065c2a1b667b1b072b]
reverse link org.example.controler.server.handlers.BaseHandler to org.example.controler.server.handlers.ReceiveMessageHandler--><path codeLine="66" d="M606.25,269.12 C630.62,286.82 657.77,306.54 680.41,322.98 " fill="none" id="org.example.controler.server.handlers.BaseHandler-backto-org.example.controler.server.handlers.ReceiveMessageHandler" style="stroke:#A80036;stroke-width:1.0;"/><polygon fill="none" points="601.99,274.67,589.92,257.26,610.22,263.35,601.99,274.67" style="stroke:#A80036;stroke-width:1.0;"/><!--MD5=[8da3353f1564164470d4c7da12a871a6]
reverse link com.sun.net.httpserver.HttpHandler to org.example.controler.server.handlers.ReceiveMessageHandler--><path codeLine="67" d="M1070.47,73.54 C872.66,76.54 477.12,88.27 435,134 C396.16,176.17 401.31,216.61 435,263 C446.1,278.28 533.58,305.63 610.42,327.24 " fill="none" id="com.sun.net.httpserver.HttpHandler-backto-org.example.controler.server.handlers.ReceiveMessageHandler" style="stroke:#A80036;stroke-width:1.0;stroke-dasharray:7.0,7.0;"/><polygon fill="none" points="1070.61,66.53,1090.7,73.25,1070.81,80.53,1070.61,66.53" style="stroke:#A80036;stroke-width:1.0;"/><!--MD5=[6acdd2f5566323056774ba987fe9528a]
reverse link com.sun.net.httpserver.HttpHandler to org.example.controler.server.handlers.ConnectedUserHandler--><path codeLine="68" d="M1108.7,112.21 C1096.91,119.18 1084.98,126.58 1074,134 C1048.84,151.01 1022.09,172.26 1001.63,189.26 " fill="none" id="com.sun.net.httpserver.HttpHandler-backto-org.example.controler.server.handlers.ConnectedUserHandler" style="stroke:#A80036;stroke-width:1.0;stroke-dasharray:7.0,7.0;"/><polygon fill="none" points="1105.52,105.96,1126.34,102.04,1112.52,118.09,1105.52,105.96" style="stroke:#A80036;stroke-width:1.0;"/><!--MD5=[0cfe0de00a1f1b5c4858514925bc5823]
reverse link org.example.controler.server.handlers.BaseHandler to org.example.controler.server.handlers.UpdatePseudoHandler--><path codeLine="69" d="M646.31,263.46 C744.69,295.75 773.76,297.65 867,323 C872.69,324.55 878.52,326.14 884.4,327.74 " fill="none" id="org.example.controler.server.handlers.BaseHandler-backto-org.example.controler.server.handlers.UpdatePseudoHandler" style="stroke:#A80036;stroke-width:1.0;"/><polygon fill="none" points="643.86,270.03,627.1,257.07,648.29,256.74,643.86,270.03" style="stroke:#A80036;stroke-width:1.0;"/><!--MD5=[1a2fe11fb9d2d188acbe3845dc74de1b]
reverse link com.sun.net.httpserver.HttpHandler to org.example.controler.server.handlers.UpdatePseudoHandler--><path codeLine="70" d="M1293.62,73.48 C1401.55,77.07 1554.16,90.06 1592,134 C1629.41,177.44 1629.85,219.93 1592,263 C1523.51,340.93 1230.71,302.54 1129,323 C1123.33,324.14 1117.55,325.39 1111.73,326.72 " fill="none" id="com.sun.net.httpserver.HttpHandler-backto-org.example.controler.server.handlers.UpdatePseudoHandler" style="stroke:#A80036;stroke-width:1.0;stroke-dasharray:7.0,7.0;"/><polygon fill="none" points="1293.15,80.46,1273.36,72.89,1293.55,66.47,1293.15,80.46" style="stroke:#A80036;stroke-width:1.0;"/><!--MD5=[822c9fe9b35f3d507cc881bf63027e12]
reverse link com.sun.net.httpserver.HttpHandler to org.example.controler.server.handlers.getIPHandler--><path codeLine="71" d="M1070.52,80.39 C1006.34,88.15 925.49,103.53 859,134 C835.92,144.58 813.44,161.16 795.1,176.88 " fill="none" id="com.sun.net.httpserver.HttpHandler-backto-org.example.controler.server.handlers.getIPHandler" style="stroke:#A80036;stroke-width:1.0;stroke-dasharray:7.0,7.0;"/><polygon fill="none" points="1070.07,73.4,1090.73,78.13,1071.63,87.31,1070.07,73.4" style="stroke:#A80036;stroke-width:1.0;"/><!--MD5=[895ff2c3534b21a8e884a145fbdde3c8]
reverse link org.example.controler.server.handlers.BaseHandler to org.example.controler.server.handlers.PingHandler--><path codeLine="72" d="M643.38,262.84 C643.59,262.89 643.79,262.95 644,263 C854.26,317.46 917.15,275.09 1129,323 C1134.88,324.33 1140.89,325.85 1146.92,327.51 " fill="none" id="org.example.controler.server.handlers.BaseHandler-backto-org.example.controler.server.handlers.PingHandler" style="stroke:#A80036;stroke-width:1.0;"/><polygon fill="none" points="641.11,269.47,623.95,257.04,645.12,256.05,641.11,269.47" style="stroke:#A80036;stroke-width:1.0;"/><!--MD5=[7499b6f65220cbb350d45ade51fbefc9]
reverse link com.sun.net.httpserver.HttpHandler to org.example.controler.server.handlers.PingHandler--><path codeLine="73" d="M1293.29,79.38 C1425.3,88.69 1630.54,107.28 1654,134 C1691.83,177.08 1690.47,218.76 1654,263 C1565,370.94 1480.31,287.47 1345,323 C1339.17,324.53 1333.2,326.21 1327.19,327.97 " fill="none" id="com.sun.net.httpserver.HttpHandler-backto-org.example.controler.server.handlers.PingHandler" style="stroke:#A80036;stroke-width:1.0;stroke-dasharray:7.0,7.0;"/><polygon fill="none" points="1292.65,86.35,1273.18,77.99,1293.61,72.38,1292.65,86.35" style="stroke:#A80036;stroke-width:1.0;"/><!--MD5=[41eec599a7553d6d96c6ee70670527af]
reverse link com.sun.net.httpserver.HttpHandler to org.example.controler.server.handlers.getUserHandler--><path codeLine="74" d="M1251.91,112.04 C1290.94,134.12 1339.21,161.42 1377.21,182.92 " fill="none" id="com.sun.net.httpserver.HttpHandler-backto-org.example.controler.server.handlers.getUserHandler" style="stroke:#A80036;stroke-width:1.0;stroke-dasharray:7.0,7.0;"/><polygon fill="none" points="1248.37,118.09,1234.41,102.15,1255.27,105.9,1248.37,118.09" style="stroke:#A80036;stroke-width:1.0;"/><!--MD5=[9b669fa03e656cfda8267330f25edf4d]
reverse link org.example.controler.server.handlers.BaseHandler to org.example.controler.server.handlers.DisconnectHandler--><path codeLine="75" d="M642.38,262.61 C642.92,262.74 643.46,262.87 644,263 C947.69,335.6 1037.15,265.19 1344,323 C1349.97,324.12 1356.06,325.42 1362.18,326.84 " fill="none" id="org.example.controler.server.handlers.BaseHandler-backto-org.example.controler.server.handlers.DisconnectHandler" style="stroke:#A80036;stroke-width:1.0;"/><polygon fill="none" points="640.3,269.29,623.01,257.04,644.17,255.84,640.3,269.29" style="stroke:#A80036;stroke-width:1.0;"/><!--MD5=[6e800ff29917095c958fa183710f26b4]
reverse link com.sun.net.httpserver.HttpHandler to org.example.controler.server.handlers.DisconnectHandler--><path codeLine="76" d="M1293.45,78.15 C1436.05,86.54 1667.88,104.56 1694,134 C1732.05,176.89 1725.71,215.24 1694,263 C1678.88,285.77 1622.46,309.62 1569.53,327.85 " fill="none" id="com.sun.net.httpserver.HttpHandler-backto-org.example.controler.server.handlers.DisconnectHandler" style="stroke:#A80036;stroke-width:1.0;stroke-dasharray:7.0,7.0;"/><polygon fill="none" points="1292.66,85.12,1273.1,76.98,1293.46,71.14,1292.66,85.12" style="stroke:#A80036;stroke-width:1.0;"/><!--MD5=[648742e8e38d89204124689f2a41c901]
reverse link com.sun.net.httpserver.HttpHandler to org.example.controler.server.handlers.GetPseudo--><path codeLine="77" d="M1182,122.24 C1182,144.56 1182,170.15 1182,189.4 " fill="none" id="com.sun.net.httpserver.HttpHandler-backto-org.example.controler.server.handlers.GetPseudo" style="stroke:#A80036;stroke-width:1.0;stroke-dasharray:7.0,7.0;"/><polygon fill="none" points="1175,122.15,1182,102.15,1189,122.15,1175,122.15" style="stroke:#A80036;stroke-width:1.0;"/><!--MD5=[317583e278d14b600cb2f876dfffb3fb]
reverse link org.example.controler.server.handlers.BaseHandler to org.example.controler.server.handlers.EndSessionHandler--><path codeLine="78" d="M641.66,262.45 C642.44,262.64 643.22,262.82 644,263 C1053.5,356.15 1173.31,250.69 1587,323 C1592.85,324.02 1598.82,325.22 1604.82,326.54 " fill="none" id="org.example.controler.server.handlers.BaseHandler-backto-org.example.controler.server.handlers.EndSessionHandler" style="stroke:#A80036;stroke-width:1.0;"/><polygon fill="none" points="639.75,269.19,622.4,257.02,643.55,255.71,639.75,269.19" style="stroke:#A80036;stroke-width:1.0;"/><!--MD5=[a2386b80a6d5acdb3d4d596717509cb7]
reverse link com.sun.net.httpserver.HttpHandler to org.example.controler.server.handlers.EndSessionHandler--><path codeLine="79" d="M1293.4,77.11 C1445.93,84.59 1704.26,101.87 1733,134 C1779.32,185.78 1751.07,273.51 1729.22,322.74 " fill="none" id="com.sun.net.httpserver.HttpHandler-backto-org.example.controler.server.handlers.EndSessionHandler" style="stroke:#A80036;stroke-width:1.0;stroke-dasharray:7.0,7.0;"/><polygon fill="none" points="1292.72,84.09,1273.08,76.14,1293.39,70.11,1292.72,84.09" style="stroke:#A80036;stroke-width:1.0;"/><text fill="#888888" font-family="sans-serif" font-size="10" lengthAdjust="spacing" textLength="192" x="822.5" y="428.2822">UMLDoclet 2.0.15, PlantUML 1.2021.13</text><!--MD5=[3fe159a59016f8e5fdf6ff12d3f7a3be]
@startuml
    namespace org.example.controler.server.handlers {

        class GetAllConnectedUsers [[GetAllConnectedUsers.html]] {
            +GetAllConnectedUsers(HTTPServer)
            +handle(HttpExchange): void
        }

        class receiveConnectedUsersHandler [[receiveConnectedUsersHandler.html]] {
            +receiveConnectedUsersHandler(HTTPServer)
            +handle(HttpExchange): void
        }

        class ReceiveMessageHandler [[ReceiveMessageHandler.html]] {
            +ReceiveMessageHandler(HTTPServer)
            +handle(HttpExchange): void
        }

        class ConnectedUserHandler [[ConnectedUserHandler.html]] {
            +handle(HttpExchange): void
        }

        class UpdatePseudoHandler [[UpdatePseudoHandler.html]] {
            +UpdatePseudoHandler(HTTPServer)
            +handle(HttpExchange): void
        }

        class getIPHandler [[getIPHandler.html]] {
            #httpServer: HTTPServer
            +getIPHandler(HTTPServer)
            +handle(HttpExchange): void
        }

        class PingHandler [[PingHandler.html]] {
            +PingHandler(HTTPServer)
            +handle(HttpExchange): void
        }

        class getUserHandler [[getUserHandler.html]] {
            +handle(HttpExchange): void
            {static} +sendResponse(HttpExchange, String): void
        }

        class DisconnectHandler [[DisconnectHandler.html]] {
            +DisconnectHandler(HTTPServer)
            +handle(HttpExchange): void
        }

        class GetPseudo [[GetPseudo.html]] {
            +handle(HttpExchange): void
        }

        class EndSessionHandler [[EndSessionHandler.html]] {
            +EndSessionHandler(HTTPServer)
            +handle(HttpExchange): void
        }

        class BaseHandler [[BaseHandler.html]] {
            #httpServer: HTTPServer
            +BaseHandler(HTTPServer)
        }

        BaseHandler <|- - GetAllConnectedUsers
        com.sun.net.httpserver.HttpHandler <|.. GetAllConnectedUsers
        BaseHandler <|- - receiveConnectedUsersHandler
        com.sun.net.httpserver.HttpHandler <|.. receiveConnectedUsersHandler
        BaseHandler <|- - ReceiveMessageHandler
        com.sun.net.httpserver.HttpHandler <|.. ReceiveMessageHandler
        com.sun.net.httpserver.HttpHandler <|.. ConnectedUserHandler
        BaseHandler <|- - UpdatePseudoHandler
        com.sun.net.httpserver.HttpHandler <|.. UpdatePseudoHandler
        com.sun.net.httpserver.HttpHandler <|.. getIPHandler
        BaseHandler <|- - PingHandler
        com.sun.net.httpserver.HttpHandler <|.. PingHandler
        com.sun.net.httpserver.HttpHandler <|.. getUserHandler
        BaseHandler <|- - DisconnectHandler
        com.sun.net.httpserver.HttpHandler <|.. DisconnectHandler
        com.sun.net.httpserver.HttpHandler <|.. GetPseudo
        BaseHandler <|- - EndSessionHandler
        com.sun.net.httpserver.HttpHandler <|.. EndSessionHandler
    }

    namespace com.sun.net.httpserver {
        interface HttpHandler {
            {abstract} +handle(HttpExchange): void
        }
    }

    center footer UMLDoclet 2.0.15, PlantUML 1.2021.13
@enduml

PlantUML version 1.2021.13(Mon Nov 01 11:38:45 UTC 2021)
(APACHE source distribution)
Java Runtime: OpenJDK Runtime Environment
JVM: OpenJDK 64-Bit Server VM
Default Encoding: UTF-8
Language: en
Country: null
--></g></svg>