<?xml version="1.0" encoding="UTF-8" standalone="no"?><svg xmlns="http://www.w3.org/2000/svg" xmlns:xlink="http://www.w3.org/1999/xlink" contentScriptType="application/ecmascript" contentStyleType="text/css" height="228px" preserveAspectRatio="none" style="width:455px;height:228px;background:#FFFFFF;" version="1.1" viewBox="0 0 455 228" width="455px" zoomAndPan="magnify"><defs><filter height="300%" id="f630s5rsxtx00" width="300%" x="-1" y="-1"><feGaussianBlur result="blurOut" stdDeviation="2.0"/><feColorMatrix in="blurOut" result="blurOut2" type="matrix" values="0 0 0 0 0 0 0 0 0 0 0 0 0 0 0 0 0 0 .4 0"/><feOffset dx="4.0" dy="4.0" in="blurOut2" result="blurOut3"/><feBlend in="SourceGraphic" in2="blurOut3" mode="normal"/></filter></defs><g><!--MD5=[0e77cd97edd11d68084e09ca7037606c]
class org.example.controler.server.handlers.ReceiveMessageHandler--><a href="ReceiveMessageHandler.html" target="_top" title="ReceiveMessageHandler.html" xlink:actuate="onRequest" xlink:href="ReceiveMessageHandler.html" xlink:show="new" xlink:title="ReceiveMessageHandler.html" xlink:type="simple"><rect codeLine="5" fill="#FEFECE" filter="url(#f630s5rsxtx00)" height="71.5469" id="org.example.controler.server.handlers.ReceiveMessageHandler" style="stroke:#A80036;stroke-width:1.5;" width="239" x="113" y="126"/><ellipse cx="137.9" cy="144.9688" fill="#ADD1B2" rx="11" ry="11" style="stroke:#A80036;stroke-width:1.0;"/><path d="M140.8688,150.6094 Q140.2906,150.9063 139.65,151.0469 Q139.0094,151.2031 138.3063,151.2031 Q135.8063,151.2031 134.4781,149.5625 Q133.1656,147.9063 133.1656,144.7813 Q133.1656,141.6563 134.4781,140 Q135.8063,138.3438 138.3063,138.3438 Q139.0094,138.3438 139.65,138.5 Q140.3063,138.6563 140.8688,138.9531 L140.8688,141.6719 Q140.2438,141.0938 139.65,140.8281 Q139.0563,140.5469 138.4313,140.5469 Q137.0875,140.5469 136.4,141.625 Q135.7125,142.6875 135.7125,144.7813 Q135.7125,146.875 136.4,147.9531 Q137.0875,149.0156 138.4313,149.0156 Q139.0563,149.0156 139.65,148.75 Q140.2438,148.4688 140.8688,147.8906 L140.8688,150.6094 Z " fill="#000000"/><text fill="#000000" font-family="sans-serif" font-size="14" lengthAdjust="spacing" textLength="171" x="161.1" y="143.9951">ReceiveMessageHandler</text><text fill="#000000" font-family="sans-serif" font-size="10" lengthAdjust="spacing" textLength="185" x="154.1" y="156.5791">org.example.controler.server.handlers</text><line style="stroke:#A80036;stroke-width:1.5;" x1="114" x2="351" y1="163.9375" y2="163.9375"/><ellipse cx="124" cy="174.9375" fill="#84BE84" rx="3" ry="3" style="stroke:#038048;stroke-width:1.0;"/><text fill="#000000" font-family="sans-serif" font-size="11" lengthAdjust="spacing" textLength="213" x="133" y="178.1479">ReceiveMessageHandler(HTTPServer)</text><ellipse cx="124" cy="187.7422" fill="#84BE84" rx="3" ry="3" style="stroke:#038048;stroke-width:1.0;"/><text fill="#000000" font-family="sans-serif" font-size="11" lengthAdjust="spacing" textLength="154" x="133" y="190.9526">handle(HttpExchange): void</text></a><!--MD5=[56cd350432d1d1354560fa873fd0079d]
class org.example.controler.server.handlers.BaseHandler--><a href="BaseHandler.html" target="_top" title="BaseHandler.html" xlink:actuate="onRequest" xlink:href="BaseHandler.html" xlink:show="new" xlink:title="BaseHandler.html" xlink:type="simple"><rect codeLine="10" fill="#FEFECE" filter="url(#f630s5rsxtx00)" height="37.9375" id="org.example.controler.server.handlers.BaseHandler" style="stroke:#A80036;stroke-width:1.5;" width="217" x="7" y="17.5"/><ellipse cx="22" cy="36.4688" fill="#ADD1B2" rx="11" ry="11" style="stroke:#A80036;stroke-width:1.0;"/><path d="M24.9688,42.1094 Q24.3906,42.4063 23.75,42.5469 Q23.1094,42.7031 22.4063,42.7031 Q19.9063,42.7031 18.5781,41.0625 Q17.2656,39.4063 17.2656,36.2813 Q17.2656,33.1563 18.5781,31.5 Q19.9063,29.8438 22.4063,29.8438 Q23.1094,29.8438 23.75,30 Q24.4063,30.1563 24.9688,30.4531 L24.9688,33.1719 Q24.3438,32.5938 23.75,32.3281 Q23.1563,32.0469 22.5313,32.0469 Q21.1875,32.0469 20.5,33.125 Q19.8125,34.1875 19.8125,36.2813 Q19.8125,38.375 20.5,39.4531 Q21.1875,40.5156 22.5313,40.5156 Q23.1563,40.5156 23.75,40.25 Q24.3438,39.9688 24.9688,39.3906 L24.9688,42.1094 Z " fill="#000000"/><text fill="#000000" font-family="sans-serif" font-size="14" lengthAdjust="spacing" textLength="88" x="84.5" y="35.4951">BaseHandler</text><text fill="#000000" font-family="sans-serif" font-size="10" lengthAdjust="spacing" textLength="185" x="36" y="48.0791">org.example.controler.server.handlers</text></a><!--MD5=[fed451cbac7203162405352689e89210]
class com.sun.net.httpserver.HttpHandler--><rect codeLine="11" fill="#FEFECE" filter="url(#f630s5rsxtx00)" height="58.7422" id="com.sun.net.httpserver.HttpHandler" style="stroke:#A80036;stroke-width:1.5;" width="182" x="259.5" y="7"/><ellipse cx="290.25" cy="25.9688" fill="#B4A7E5" rx="11" ry="11" style="stroke:#A80036;stroke-width:1.0;"/><path d="M286.1719,21.7344 L286.1719,19.5781 L293.5625,19.5781 L293.5625,21.7344 L291.0938,21.7344 L291.0938,29.8125 L293.5625,29.8125 L293.5625,31.9688 L286.1719,31.9688 L286.1719,29.8125 L288.6406,29.8125 L288.6406,21.7344 L286.1719,21.7344 Z " fill="#000000"/><text fill="#000000" font-family="sans-serif" font-size="14" font-style="italic" lengthAdjust="spacing" textLength="84" x="323.25" y="24.9951">HttpHandler</text><text fill="#000000" font-family="sans-serif" font-size="10" font-style="italic" lengthAdjust="spacing" textLength="115" x="307.75" y="37.5791">com.sun.net.httpserver</text><line style="stroke:#A80036;stroke-width:1.5;" x1="260.5" x2="440.5" y1="44.9375" y2="44.9375"/><ellipse cx="270.5" cy="55.9375" fill="#84BE84" rx="3" ry="3" style="stroke:#038048;stroke-width:1.0;"/><text fill="#000000" font-family="sans-serif" font-size="11" font-style="italic" lengthAdjust="spacing" textLength="156" x="279.5" y="59.1479">handle(HttpExchange): void</text><!--MD5=[da06eb074973d9065c2a1b667b1b072b]
reverse link org.example.controler.server.handlers.BaseHandler to org.example.controler.server.handlers.ReceiveMessageHandler--><path codeLine="15" d="M146.69,70.43 C162.89,87.52 182.68,108.41 199.17,125.82 " fill="none" id="org.example.controler.server.handlers.BaseHandler-backto-org.example.controler.server.handlers.ReceiveMessageHandler" style="stroke:#A80036;stroke-width:1.0;"/><polygon fill="none" points="141.44,75.06,132.76,55.72,151.6,65.43,141.44,75.06" style="stroke:#A80036;stroke-width:1.0;"/><!--MD5=[8da3353f1564164470d4c7da12a871a6]
reverse link com.sun.net.httpserver.HttpHandler to org.example.controler.server.handlers.ReceiveMessageHandler--><path codeLine="16" d="M309.13,80.8 C295.03,95.56 279.45,111.87 266.04,125.9 " fill="none" id="com.sun.net.httpserver.HttpHandler-backto-org.example.controler.server.handlers.ReceiveMessageHandler" style="stroke:#A80036;stroke-width:1.0;stroke-dasharray:7.0,7.0;"/><polygon fill="none" points="304.25,75.77,323.13,66.14,314.38,85.44,304.25,75.77" style="stroke:#A80036;stroke-width:1.0;"/><text fill="#888888" font-family="sans-serif" font-size="10" lengthAdjust="spacing" textLength="192" x="125.25" y="219.8291">UMLDoclet 2.0.15, PlantUML 1.2021.13</text><!--MD5=[3d1983c1d19fa9af480544b18d51aeea]
@startuml
    set namespaceSeparator none
    hide empty fields
    hide empty methods

    class "<size:14>ReceiveMessageHandler\n<size:10>org.example.controler.server.handlers" as org.example.controler.server.handlers.ReceiveMessageHandler [[ReceiveMessageHandler.html]] {
        +ReceiveMessageHandler(HTTPServer)
        +handle(HttpExchange): void
    }

    class "<size:14>BaseHandler\n<size:10>org.example.controler.server.handlers" as org.example.controler.server.handlers.BaseHandler [[BaseHandler.html]]
    interface "<size:14>HttpHandler\n<size:10>com.sun.net.httpserver" as com.sun.net.httpserver.HttpHandler {
        {abstract} +handle(HttpExchange): void
    }

    org.example.controler.server.handlers.BaseHandler <|- - org.example.controler.server.handlers.ReceiveMessageHandler
    com.sun.net.httpserver.HttpHandler <|.. org.example.controler.server.handlers.ReceiveMessageHandler

    center footer UMLDoclet 2.0.15, PlantUML 1.2021.13
@enduml

PlantUML version 1.2021.13(Mon Nov 01 11:38:45 UTC 2021)
(APACHE source distribution)
Java Runtime: OpenJDK Runtime Environment
JVM: OpenJDK 64-Bit Server VM
Default Encoding: UTF-8
Language: en
Country: null
--></g></svg>