<?xml version="1.0" encoding="UTF-8" standalone="no"?><svg xmlns="http://www.w3.org/2000/svg" xmlns:xlink="http://www.w3.org/1999/xlink" contentScriptType="application/ecmascript" contentStyleType="text/css" height="90px" preserveAspectRatio="none" style="width:199px;height:90px;background:#FFFFFF;" version="1.1" viewBox="0 0 199 90" width="199px" zoomAndPan="magnify"><defs><filter height="300%" id="f6xslrp37nzz8" width="300%" x="-1" y="-1"><feGaussianBlur result="blurOut" stdDeviation="2.0"/><feColorMatrix in="blurOut" result="blurOut2" type="matrix" values="0 0 0 0 0 0 0 0 0 0 0 0 0 0 0 0 0 0 .4 0"/><feOffset dx="4.0" dy="4.0" in="blurOut2" result="blurOut3"/><feBlend in="SourceGraphic" in2="blurOut3" mode="normal"/></filter></defs><g><!--MD5=[838278c3b36d5082015d9d79f7dec6ef]
class me.server.Main--><a href="Main.html" target="_top" title="Main.html" xlink:actuate="onRequest" xlink:href="Main.html" xlink:show="new" xlink:title="Main.html" xlink:type="simple"><rect codeLine="5" fill="#FEFECE" filter="url(#f6xslrp37nzz8)" height="58.7422" id="me.server.Main" style="stroke:#A80036;stroke-width:1.5;" width="135" x="28.5" y="7"/><ellipse cx="67.35" cy="25.9688" fill="#ADD1B2" rx="11" ry="11" style="stroke:#A80036;stroke-width:1.0;"/><path d="M70.3188,31.6094 Q69.7406,31.9063 69.1,32.0469 Q68.4594,32.2031 67.7563,32.2031 Q65.2563,32.2031 63.9281,30.5625 Q62.6156,28.9063 62.6156,25.7813 Q62.6156,22.6563 63.9281,21 Q65.2563,19.3438 67.7563,19.3438 Q68.4594,19.3438 69.1,19.5 Q69.7563,19.6563 70.3188,19.9531 L70.3188,22.6719 Q69.6938,22.0938 69.1,21.8281 Q68.5063,21.5469 67.8813,21.5469 Q66.5375,21.5469 65.85,22.625 Q65.1625,23.6875 65.1625,25.7813 Q65.1625,27.875 65.85,28.9531 Q66.5375,30.0156 67.8813,30.0156 Q68.5063,30.0156 69.1,29.75 Q69.6938,29.4688 70.3188,28.8906 L70.3188,31.6094 Z " fill="#000000"/><text fill="#000000" font-family="sans-serif" font-size="14" lengthAdjust="spacing" textLength="32" x="95.65" y="24.9951">Main</text><text fill="#000000" font-family="sans-serif" font-size="10" lengthAdjust="spacing" textLength="50" x="86.65" y="37.5791">me.server</text><line style="stroke:#A80036;stroke-width:1.5;" x1="29.5" x2="162.5" y1="44.9375" y2="44.9375"/><ellipse cx="39.5" cy="55.9375" fill="#84BE84" rx="3" ry="3" style="stroke:#038048;stroke-width:1.0;"/><text fill="#000000" font-family="sans-serif" font-size="11" lengthAdjust="spacing" text-decoration="underline" textLength="109" x="48.5" y="59.1479">main(String[]): void</text></a><text fill="#888888" font-family="sans-serif" font-size="10" lengthAdjust="spacing" textLength="192" x="0" y="82.0244">UMLDoclet 2.0.15, PlantUML 1.2021.13</text><!--MD5=[792dfea5989993600c51586982c2f3d8]
@startuml
    set namespaceSeparator none
    hide empty fields
    hide empty methods

    class "<size:14>Main\n<size:10>me.server" as me.server.Main [[Main.html]] {
        {static} +main(String[]): void
    }

    center footer UMLDoclet 2.0.15, PlantUML 1.2021.13
@enduml

PlantUML version 1.2021.13(Mon Nov 01 11:38:45 UTC 2021)
(APACHE source distribution)
Java Runtime: OpenJDK Runtime Environment
JVM: OpenJDK 64-Bit Server VM
Default Encoding: UTF-8
Language: en
Country: null
--></g></svg>