<?xml version="1.0" encoding="UTF-8" standalone="no"?><svg xmlns="http://www.w3.org/2000/svg" xmlns:xlink="http://www.w3.org/1999/xlink" contentScriptType="application/ecmascript" contentStyleType="text/css" height="154px" preserveAspectRatio="none" style="width:351px;height:154px;background:#FFFFFF;" version="1.1" viewBox="0 0 351 154" width="351px" zoomAndPan="magnify"><defs><filter height="300%" id="f1x1086qvvpac0" width="300%" x="-1" y="-1"><feGaussianBlur result="blurOut" stdDeviation="2.0"/><feColorMatrix in="blurOut" result="blurOut2" type="matrix" values="0 0 0 0 0 0 0 0 0 0 0 0 0 0 0 0 0 0 .4 0"/><feOffset dx="4.0" dy="4.0" in="blurOut2" result="blurOut3"/><feBlend in="SourceGraphic" in2="blurOut3" mode="normal"/></filter></defs><g><!--MD5=[f8de8764b76b68d941fb0392858183e5]
cluster me.server--><polygon fill="#FFFFFF" filter="url(#f1x1086qvvpac0)" points="16,6,103,6,110,28.2969,334,28.2969,334,131,16,131,16,6" style="stroke:#000000;stroke-width:1.5;"/><line style="stroke:#000000;stroke-width:1.5;" x1="16" x2="110" y1="28.2969" y2="28.2969"/><text fill="#000000" font-family="sans-serif" font-size="14" font-weight="bold" lengthAdjust="spacing" textLength="81" x="20" y="20.9951">me.server</text><!--MD5=[838278c3b36d5082015d9d79f7dec6ef]
class me.server.Main--><a href="Main.html" target="_top" title="Main.html" xlink:actuate="onRequest" xlink:href="Main.html" xlink:show="new" xlink:title="Main.html" xlink:type="simple"><rect codeLine="3" fill="#FEFECE" filter="url(#f1x1086qvvpac0)" height="60.8047" id="me.server.Main" style="stroke:#A80036;stroke-width:1.5;" width="135" x="182.5" y="47.5"/><ellipse cx="231.25" cy="63.5" fill="#ADD1B2" rx="11" ry="11" style="stroke:#A80036;stroke-width:1.0;"/><path d="M234.2188,69.1406 Q233.6406,69.4375 233,69.5781 Q232.3594,69.7344 231.6563,69.7344 Q229.1563,69.7344 227.8281,68.0938 Q226.5156,66.4375 226.5156,63.3125 Q226.5156,60.1875 227.8281,58.5313 Q229.1563,56.875 231.6563,56.875 Q232.3594,56.875 233,57.0313 Q233.6563,57.1875 234.2188,57.4844 L234.2188,60.2031 Q233.5938,59.625 233,59.3594 Q232.4063,59.0781 231.7813,59.0781 Q230.4375,59.0781 229.75,60.1563 Q229.0625,61.2188 229.0625,63.3125 Q229.0625,65.4063 229.75,66.4844 Q230.4375,67.5469 231.7813,67.5469 Q232.4063,67.5469 233,67.2813 Q233.5938,67 234.2188,66.4219 L234.2188,69.1406 Z " fill="#000000"/><text fill="#000000" font-family="sans-serif" font-size="12" lengthAdjust="spacing" textLength="29" x="251.75" y="67.6543">Main</text><line style="stroke:#A80036;stroke-width:1.5;" x1="183.5" x2="316.5" y1="79.5" y2="79.5"/><line style="stroke:#A80036;stroke-width:1.5;" x1="183.5" x2="316.5" y1="87.5" y2="87.5"/><ellipse cx="193.5" cy="98.5" fill="#84BE84" rx="3" ry="3" style="stroke:#038048;stroke-width:1.0;"/><text fill="#000000" font-family="sans-serif" font-size="11" lengthAdjust="spacing" text-decoration="underline" textLength="109" x="202.5" y="101.7104">main(String[]): void</text></a><!--MD5=[512869512528d9f52715a06aeaeaf81d]
class me.server.HTTPServer--><a href="HTTPServer.html" target="_top" title="HTTPServer.html" xlink:actuate="onRequest" xlink:href="HTTPServer.html" xlink:show="new" xlink:title="HTTPServer.html" xlink:type="simple"><rect codeLine="7" fill="#FEFECE" filter="url(#f1x1086qvvpac0)" height="73.6094" id="me.server.HTTPServer" style="stroke:#A80036;stroke-width:1.5;" width="115" x="32.5" y="41"/><ellipse cx="52.9" cy="57" fill="#ADD1B2" rx="11" ry="11" style="stroke:#A80036;stroke-width:1.0;"/><path d="M55.8688,62.6406 Q55.2906,62.9375 54.65,63.0781 Q54.0094,63.2344 53.3063,63.2344 Q50.8063,63.2344 49.4781,61.5938 Q48.1656,59.9375 48.1656,56.8125 Q48.1656,53.6875 49.4781,52.0313 Q50.8063,50.375 53.3063,50.375 Q54.0094,50.375 54.65,50.5313 Q55.3063,50.6875 55.8688,50.9844 L55.8688,53.7031 Q55.2438,53.125 54.65,52.8594 Q54.0563,52.5781 53.4313,52.5781 Q52.0875,52.5781 51.4,53.6563 Q50.7125,54.7188 50.7125,56.8125 Q50.7125,58.9063 51.4,59.9844 Q52.0875,61.0469 53.4313,61.0469 Q54.0563,61.0469 54.65,60.7813 Q55.2438,60.5 55.8688,59.9219 L55.8688,62.6406 Z " fill="#000000"/><text fill="#000000" font-family="sans-serif" font-size="12" lengthAdjust="spacing" textLength="71" x="68.1" y="61.1543">HTTPServer</text><line style="stroke:#A80036;stroke-width:1.5;" x1="33.5" x2="146.5" y1="73" y2="73"/><line style="stroke:#A80036;stroke-width:1.5;" x1="33.5" x2="146.5" y1="81" y2="81"/><ellipse cx="43.5" cy="92" fill="#84BE84" rx="3" ry="3" style="stroke:#038048;stroke-width:1.0;"/><text fill="#000000" font-family="sans-serif" font-size="11" lengthAdjust="spacing" textLength="89" x="52.5" y="95.2104">HTTPServer(int)</text><ellipse cx="43.5" cy="104.8047" fill="#84BE84" rx="3" ry="3" style="stroke:#038048;stroke-width:1.0;"/><text fill="#000000" font-family="sans-serif" font-size="11" lengthAdjust="spacing" textLength="71" x="52.5" y="108.0151">getPort(): int</text></a><text fill="#888888" font-family="sans-serif" font-size="10" lengthAdjust="spacing" textLength="192" x="73" y="146.2822">UMLDoclet 2.0.15, PlantUML 1.2021.13</text><!--MD5=[594f5bb768259eaa22eccac9027b377b]
@startuml
    namespace me.server {

        class Main [[Main.html]] {
            {static} +main(String[]): void
        }

        class HTTPServer [[HTTPServer.html]] {
            +HTTPServer(int)
            +getPort(): int
        }

    }

    center footer UMLDoclet 2.0.15, PlantUML 1.2021.13
@enduml

PlantUML version 1.2021.13(Mon Nov 01 11:38:45 UTC 2021)
(APACHE source distribution)
Java Runtime: OpenJDK Runtime Environment
JVM: OpenJDK 64-Bit Server VM
Default Encoding: UTF-8
Language: en
Country: null
--></g></svg>