<?xml version="1.0" encoding="UTF-8" standalone="no"?><svg xmlns="http://www.w3.org/2000/svg" xmlns:xlink="http://www.w3.org/1999/xlink" contentScriptType="application/ecmascript" contentStyleType="text/css" height="228px" preserveAspectRatio="none" style="width:302px;height:228px;background:#FFFFFF;" version="1.1" viewBox="0 0 302 228" width="302px" zoomAndPan="magnify"><defs><filter height="300%" id="f43qg69yy13ee" width="300%" x="-1" y="-1"><feGaussianBlur result="blurOut" stdDeviation="2.0"/><feColorMatrix in="blurOut" result="blurOut2" type="matrix" values="0 0 0 0 0 0 0 0 0 0 0 0 0 0 0 0 0 0 .4 0"/><feOffset dx="4.0" dy="4.0" in="blurOut2" result="blurOut3"/><feBlend in="SourceGraphic" in2="blurOut3" mode="normal"/></filter></defs><g><!--MD5=[f8d67d51d89cf9bb9a3f146796686015]
class org.example.model.communication.server.handlers.getUserHandler--><a href="getUserHandler.html" target="_top" title="getUserHandler.html" xlink:actuate="onRequest" xlink:href="getUserHandler.html" xlink:show="new" xlink:title="getUserHandler.html" xlink:type="simple"><rect codeLine="5" fill="#FEFECE" filter="url(#f43qg69yy13ee)" height="71.5469" id="org.example.model.communication.server.handlers.getUserHandler" style="stroke:#A80036;stroke-width:1.5;" width="281" x="7" y="126"/><ellipse cx="22" cy="144.9688" fill="#ADD1B2" rx="11" ry="11" style="stroke:#A80036;stroke-width:1.0;"/><path d="M24.9688,150.6094 Q24.3906,150.9063 23.75,151.0469 Q23.1094,151.2031 22.4063,151.2031 Q19.9063,151.2031 18.5781,149.5625 Q17.2656,147.9063 17.2656,144.7813 Q17.2656,141.6563 18.5781,140 Q19.9063,138.3438 22.4063,138.3438 Q23.1094,138.3438 23.75,138.5 Q24.4063,138.6563 24.9688,138.9531 L24.9688,141.6719 Q24.3438,141.0938 23.75,140.8281 Q23.1563,140.5469 22.5313,140.5469 Q21.1875,140.5469 20.5,141.625 Q19.8125,142.6875 19.8125,144.7813 Q19.8125,146.875 20.5,147.9531 Q21.1875,149.0156 22.5313,149.0156 Q23.1563,149.0156 23.75,148.75 Q24.3438,148.4688 24.9688,147.8906 L24.9688,150.6094 Z " fill="#000000"/><text fill="#000000" font-family="sans-serif" font-size="14" lengthAdjust="spacing" textLength="108" x="106.5" y="143.9951">getUserHandler</text><text fill="#000000" font-family="sans-serif" font-size="10" lengthAdjust="spacing" textLength="249" x="36" y="156.5791">org.example.model.communication.server.handlers</text><line style="stroke:#A80036;stroke-width:1.5;" x1="8" x2="287" y1="163.9375" y2="163.9375"/><ellipse cx="18" cy="174.9375" fill="#84BE84" rx="3" ry="3" style="stroke:#038048;stroke-width:1.0;"/><text fill="#000000" font-family="sans-serif" font-size="11" lengthAdjust="spacing" textLength="154" x="27" y="178.1479">handle(HttpExchange): void</text><ellipse cx="18" cy="187.7422" fill="#84BE84" rx="3" ry="3" style="stroke:#038048;stroke-width:1.0;"/><text fill="#000000" font-family="sans-serif" font-size="11" lengthAdjust="spacing" text-decoration="underline" textLength="242" x="27" y="190.9526">sendResponse(HttpExchange, String): void</text></a><!--MD5=[fed451cbac7203162405352689e89210]
class com.sun.net.httpserver.HttpHandler--><rect codeLine="10" fill="#FEFECE" filter="url(#f43qg69yy13ee)" height="58.7422" id="com.sun.net.httpserver.HttpHandler" style="stroke:#A80036;stroke-width:1.5;" width="182" x="56.5" y="7"/><ellipse cx="87.25" cy="25.9688" fill="#B4A7E5" rx="11" ry="11" style="stroke:#A80036;stroke-width:1.0;"/><path d="M83.1719,21.7344 L83.1719,19.5781 L90.5625,19.5781 L90.5625,21.7344 L88.0938,21.7344 L88.0938,29.8125 L90.5625,29.8125 L90.5625,31.9688 L83.1719,31.9688 L83.1719,29.8125 L85.6406,29.8125 L85.6406,21.7344 L83.1719,21.7344 Z " fill="#000000"/><text fill="#000000" font-family="sans-serif" font-size="14" font-style="italic" lengthAdjust="spacing" textLength="84" x="120.25" y="24.9951">HttpHandler</text><text fill="#000000" font-family="sans-serif" font-size="10" font-style="italic" lengthAdjust="spacing" textLength="115" x="104.75" y="37.5791">com.sun.net.httpserver</text><line style="stroke:#A80036;stroke-width:1.5;" x1="57.5" x2="237.5" y1="44.9375" y2="44.9375"/><ellipse cx="67.5" cy="55.9375" fill="#84BE84" rx="3" ry="3" style="stroke:#038048;stroke-width:1.0;"/><text fill="#000000" font-family="sans-serif" font-size="11" font-style="italic" lengthAdjust="spacing" textLength="156" x="76.5" y="59.1479">handle(HttpExchange): void</text><!--MD5=[476da344f578484372b716064cbafd9c]
reverse link com.sun.net.httpserver.HttpHandler to org.example.model.communication.server.handlers.getUserHandler--><path codeLine="14" d="M147.5,86.46 C147.5,99.64 147.5,113.64 147.5,125.9 " fill="none" id="com.sun.net.httpserver.HttpHandler-backto-org.example.model.communication.server.handlers.getUserHandler" style="stroke:#A80036;stroke-width:1.0;stroke-dasharray:7.0,7.0;"/><polygon fill="none" points="140.5,86.14,147.5,66.14,154.5,86.14,140.5,86.14" style="stroke:#A80036;stroke-width:1.0;"/><text fill="#888888" font-family="sans-serif" font-size="10" lengthAdjust="spacing" textLength="192" x="48.5" y="219.8291">UMLDoclet 2.0.15, PlantUML 1.2021.13</text><!--MD5=[d176144b2aa6a5ac130d6990f501a08b]
@startuml
    set namespaceSeparator none
    hide empty fields
    hide empty methods

    class "<size:14>getUserHandler\n<size:10>org.example.model.communication.server.handlers" as org.example.model.communication.server.handlers.getUserHandler [[getUserHandler.html]] {
        +handle(HttpExchange): void
        {static} +sendResponse(HttpExchange, String): void
    }

    interface "<size:14>HttpHandler\n<size:10>com.sun.net.httpserver" as com.sun.net.httpserver.HttpHandler {
        {abstract} +handle(HttpExchange): void
    }

    com.sun.net.httpserver.HttpHandler <|.. org.example.model.communication.server.handlers.getUserHandler

    center footer UMLDoclet 2.0.15, PlantUML 1.2021.13
@enduml

PlantUML version 1.2021.13(Mon Nov 01 11:38:45 UTC 2021)
(APACHE source distribution)
Java Runtime: OpenJDK Runtime Environment
JVM: OpenJDK 64-Bit Server VM
Default Encoding: UTF-8
Language: en
Country: null
--></g></svg>