<?xml version="1.0" encoding="UTF-8" standalone="no"?><svg xmlns="http://www.w3.org/2000/svg" xmlns:xlink="http://www.w3.org/1999/xlink" contentScriptType="application/ecmascript" contentStyleType="text/css" height="436px" preserveAspectRatio="none" style="width:1670px;height:436px;background:#FFFFFF;" version="1.1" viewBox="0 0 1670 436" width="1670px" zoomAndPan="magnify"><defs><filter height="300%" id="ffp6qlq008k3i" width="300%" x="-1" y="-1"><feGaussianBlur result="blurOut" stdDeviation="2.0"/><feColorMatrix in="blurOut" result="blurOut2" type="matrix" values="0 0 0 0 0 0 0 0 0 0 0 0 0 0 0 0 0 0 .4 0"/><feOffset dx="4.0" dy="4.0" in="blurOut2" result="blurOut3"/><feBlend in="SourceGraphic" in2="blurOut3" mode="normal"/></filter></defs><g><!--MD5=[86f69d1872f2ad0e3d5bbcd6522652f5]
cluster org.example.model.communication.server.handlers--><polygon fill="#FFFFFF" filter="url(#ffp6qlq008k3i)" points="16,142,428,142,435,164.2969,1571,164.2969,1571,413,16,413,16,142" style="stroke:#000000;stroke-width:1.5;"/><line style="stroke:#000000;stroke-width:1.5;" x1="16" x2="435" y1="164.2969" y2="164.2969"/><text fill="#000000" font-family="sans-serif" font-size="14" font-weight="bold" lengthAdjust="spacing" textLength="406" x="20" y="156.9951">org.example.model.communication.server.handlers</text><!--MD5=[165affddb8a431bc6b1435bff43cfb6b]
cluster com.sun.net.httpserver--><polygon fill="#FFFFFF" filter="url(#ffp6qlq008k3i)" points="986,6,1179,6,1186,28.2969,1200,28.2969,1200,118,986,118,986,6" style="stroke:#000000;stroke-width:1.5;"/><line style="stroke:#000000;stroke-width:1.5;" x1="986" x2="1186" y1="28.2969" y2="28.2969"/><text fill="#000000" font-family="sans-serif" font-size="14" font-weight="bold" lengthAdjust="spacing" textLength="187" x="990" y="20.9951">com.sun.net.httpserver</text><!--MD5=[a877950f39a311f792bb53ef634e401f]
class org.example.model.communication.server.handlers.GetAllConnectedUsers--><a href="GetAllConnectedUsers.html" target="_top" title="GetAllConnectedUsers.html" xlink:actuate="onRequest" xlink:href="GetAllConnectedUsers.html" xlink:show="new" xlink:title="GetAllConnectedUsers.html" xlink:type="simple"><rect codeLine="3" fill="#FEFECE" filter="url(#ffp6qlq008k3i)" height="73.6094" id="org.example.model.communication.server.handlers.GetAllConnectedUsers" style="stroke:#A80036;stroke-width:1.5;" width="228" x="622" y="323"/><ellipse cx="662.2" cy="339" fill="#ADD1B2" rx="11" ry="11" style="stroke:#A80036;stroke-width:1.0;"/><path d="M665.1688,344.6406 Q664.5906,344.9375 663.95,345.0781 Q663.3094,345.2344 662.6063,345.2344 Q660.1063,345.2344 658.7781,343.5938 Q657.4656,341.9375 657.4656,338.8125 Q657.4656,335.6875 658.7781,334.0313 Q660.1063,332.375 662.6063,332.375 Q663.3094,332.375 663.95,332.5313 Q664.6063,332.6875 665.1688,332.9844 L665.1688,335.7031 Q664.5438,335.125 663.95,334.8594 Q663.3563,334.5781 662.7313,334.5781 Q661.3875,334.5781 660.7,335.6563 Q660.0125,336.7188 660.0125,338.8125 Q660.0125,340.9063 660.7,341.9844 Q661.3875,343.0469 662.7313,343.0469 Q663.3563,343.0469 663.95,342.7813 Q664.5438,342.5 665.1688,341.9219 L665.1688,344.6406 Z " fill="#000000"/><text fill="#000000" font-family="sans-serif" font-size="12" lengthAdjust="spacing" textLength="140" x="681.8" y="343.1543">GetAllConnectedUsers</text><line style="stroke:#A80036;stroke-width:1.5;" x1="623" x2="849" y1="355" y2="355"/><line style="stroke:#A80036;stroke-width:1.5;" x1="623" x2="849" y1="363" y2="363"/><ellipse cx="633" cy="374" fill="#84BE84" rx="3" ry="3" style="stroke:#038048;stroke-width:1.0;"/><text fill="#000000" font-family="sans-serif" font-size="11" lengthAdjust="spacing" textLength="202" x="642" y="377.2104">GetAllConnectedUsers(HTTPServer)</text><ellipse cx="633" cy="386.8047" fill="#84BE84" rx="3" ry="3" style="stroke:#038048;stroke-width:1.0;"/><text fill="#000000" font-family="sans-serif" font-size="11" lengthAdjust="spacing" textLength="154" x="642" y="390.0151">handle(HttpExchange): void</text></a><!--MD5=[18f0c456dd0ff005e26b68a14bd426c2]
class org.example.model.communication.server.handlers.receiveConnectedUsersHandler--><a href="receiveConnectedUsersHandler.html" target="_top" title="receiveConnectedUsersHandler.html" xlink:actuate="onRequest" xlink:href="receiveConnectedUsersHandler.html" xlink:show="new" xlink:title="receiveConnectedUsersHandler.html" xlink:type="simple"><rect codeLine="8" fill="#FEFECE" filter="url(#ffp6qlq008k3i)" height="73.6094" id="org.example.model.communication.server.handlers.receiveConnectedUsersHandler" style="stroke:#A80036;stroke-width:1.5;" width="280" x="32" y="323"/><ellipse cx="69.5" cy="339" fill="#ADD1B2" rx="11" ry="11" style="stroke:#A80036;stroke-width:1.0;"/><path d="M72.4688,344.6406 Q71.8906,344.9375 71.25,345.0781 Q70.6094,345.2344 69.9063,345.2344 Q67.4063,345.2344 66.0781,343.5938 Q64.7656,341.9375 64.7656,338.8125 Q64.7656,335.6875 66.0781,334.0313 Q67.4063,332.375 69.9063,332.375 Q70.6094,332.375 71.25,332.5313 Q71.9063,332.6875 72.4688,332.9844 L72.4688,335.7031 Q71.8438,335.125 71.25,334.8594 Q70.6563,334.5781 70.0313,334.5781 Q68.6875,334.5781 68,335.6563 Q67.3125,336.7188 67.3125,338.8125 Q67.3125,340.9063 68,341.9844 Q68.6875,343.0469 70.0313,343.0469 Q70.6563,343.0469 71.25,342.7813 Q71.8438,342.5 72.4688,341.9219 L72.4688,344.6406 Z " fill="#000000"/><text fill="#000000" font-family="sans-serif" font-size="12" lengthAdjust="spacing" textLength="198" x="88.5" y="343.1543">receiveConnectedUsersHandler</text><line style="stroke:#A80036;stroke-width:1.5;" x1="33" x2="311" y1="355" y2="355"/><line style="stroke:#A80036;stroke-width:1.5;" x1="33" x2="311" y1="363" y2="363"/><ellipse cx="43" cy="374" fill="#84BE84" rx="3" ry="3" style="stroke:#038048;stroke-width:1.0;"/><text fill="#000000" font-family="sans-serif" font-size="11" lengthAdjust="spacing" textLength="254" x="52" y="377.2104">receiveConnectedUsersHandler(HTTPServer)</text><ellipse cx="43" cy="386.8047" fill="#84BE84" rx="3" ry="3" style="stroke:#038048;stroke-width:1.0;"/><text fill="#000000" font-family="sans-serif" font-size="11" lengthAdjust="spacing" textLength="154" x="52" y="390.0151">handle(HttpExchange): void</text></a><!--MD5=[f7ac45c73b1de53a24c5a57245c127b7]
class org.example.model.communication.server.handlers.ReceiveMessageHandler--><a href="ReceiveMessageHandler.html" target="_top" title="ReceiveMessageHandler.html" xlink:actuate="onRequest" xlink:href="ReceiveMessageHandler.html" xlink:show="new" xlink:title="ReceiveMessageHandler.html" xlink:type="simple"><rect codeLine="13" fill="#FEFECE" filter="url(#ffp6qlq008k3i)" height="73.6094" id="org.example.model.communication.server.handlers.ReceiveMessageHandler" style="stroke:#A80036;stroke-width:1.5;" width="239" x="347.5" y="323"/><ellipse cx="386.8" cy="339" fill="#ADD1B2" rx="11" ry="11" style="stroke:#A80036;stroke-width:1.0;"/><path d="M389.7688,344.6406 Q389.1906,344.9375 388.55,345.0781 Q387.9094,345.2344 387.2063,345.2344 Q384.7063,345.2344 383.3781,343.5938 Q382.0656,341.9375 382.0656,338.8125 Q382.0656,335.6875 383.3781,334.0313 Q384.7063,332.375 387.2063,332.375 Q387.9094,332.375 388.55,332.5313 Q389.2063,332.6875 389.7688,332.9844 L389.7688,335.7031 Q389.1438,335.125 388.55,334.8594 Q387.9563,334.5781 387.3313,334.5781 Q385.9875,334.5781 385.3,335.6563 Q384.6125,336.7188 384.6125,338.8125 Q384.6125,340.9063 385.3,341.9844 Q385.9875,343.0469 387.3313,343.0469 Q387.9563,343.0469 388.55,342.7813 Q389.1438,342.5 389.7688,341.9219 L389.7688,344.6406 Z " fill="#000000"/><text fill="#000000" font-family="sans-serif" font-size="12" lengthAdjust="spacing" textLength="153" x="406.2" y="343.1543">ReceiveMessageHandler</text><line style="stroke:#A80036;stroke-width:1.5;" x1="348.5" x2="585.5" y1="355" y2="355"/><line style="stroke:#A80036;stroke-width:1.5;" x1="348.5" x2="585.5" y1="363" y2="363"/><ellipse cx="358.5" cy="374" fill="#84BE84" rx="3" ry="3" style="stroke:#038048;stroke-width:1.0;"/><text fill="#000000" font-family="sans-serif" font-size="11" lengthAdjust="spacing" textLength="213" x="367.5" y="377.2104">ReceiveMessageHandler(HTTPServer)</text><ellipse cx="358.5" cy="386.8047" fill="#84BE84" rx="3" ry="3" style="stroke:#038048;stroke-width:1.0;"/><text fill="#000000" font-family="sans-serif" font-size="11" lengthAdjust="spacing" textLength="154" x="367.5" y="390.0151">handle(HttpExchange): void</text></a><!--MD5=[23c037cff7daf1dd643bb8b2abf36b6f]
class org.example.model.communication.server.handlers.ConnectedUserHandler--><a href="ConnectedUserHandler.html" target="_top" title="ConnectedUserHandler.html" xlink:actuate="onRequest" xlink:href="ConnectedUserHandler.html" xlink:show="new" xlink:title="ConnectedUserHandler.html" xlink:type="simple"><rect codeLine="18" fill="#FEFECE" filter="url(#ffp6qlq008k3i)" height="60.8047" id="org.example.model.communication.server.handlers.ConnectedUserHandler" style="stroke:#A80036;stroke-width:1.5;" width="180" x="1348" y="189.5"/><ellipse cx="1363.9" cy="205.5" fill="#ADD1B2" rx="11" ry="11" style="stroke:#A80036;stroke-width:1.0;"/><path d="M1366.8688,211.1406 Q1366.2906,211.4375 1365.65,211.5781 Q1365.0094,211.7344 1364.3063,211.7344 Q1361.8063,211.7344 1360.4781,210.0938 Q1359.1656,208.4375 1359.1656,205.3125 Q1359.1656,202.1875 1360.4781,200.5313 Q1361.8063,198.875 1364.3063,198.875 Q1365.0094,198.875 1365.65,199.0313 Q1366.3063,199.1875 1366.8688,199.4844 L1366.8688,202.2031 Q1366.2438,201.625 1365.65,201.3594 Q1365.0563,201.0781 1364.4313,201.0781 Q1363.0875,201.0781 1362.4,202.1563 Q1361.7125,203.2188 1361.7125,205.3125 Q1361.7125,207.4063 1362.4,208.4844 Q1363.0875,209.5469 1364.4313,209.5469 Q1365.0563,209.5469 1365.65,209.2813 Q1366.2438,209 1366.8688,208.4219 L1366.8688,211.1406 Z " fill="#000000"/><text fill="#000000" font-family="sans-serif" font-size="12" lengthAdjust="spacing" textLength="146" x="1378.1" y="209.6543">ConnectedUserHandler</text><line style="stroke:#A80036;stroke-width:1.5;" x1="1349" x2="1527" y1="221.5" y2="221.5"/><line style="stroke:#A80036;stroke-width:1.5;" x1="1349" x2="1527" y1="229.5" y2="229.5"/><ellipse cx="1359" cy="240.5" fill="#84BE84" rx="3" ry="3" style="stroke:#038048;stroke-width:1.0;"/><text fill="#000000" font-family="sans-serif" font-size="11" lengthAdjust="spacing" textLength="154" x="1368" y="243.7104">handle(HttpExchange): void</text></a><!--MD5=[d9dd8f2ed24db0a82417d997a31f0b76]
class org.example.model.communication.server.handlers.getIPHandler--><a href="getIPHandler.html" target="_top" title="getIPHandler.html" xlink:actuate="onRequest" xlink:href="getIPHandler.html" xlink:show="new" xlink:title="getIPHandler.html" xlink:type="simple"><rect codeLine="22" fill="#FEFECE" filter="url(#ffp6qlq008k3i)" height="86.4141" id="org.example.model.communication.server.handlers.getIPHandler" style="stroke:#A80036;stroke-width:1.5;" width="180" x="1133" y="177"/><ellipse cx="1178.25" cy="193" fill="#ADD1B2" rx="11" ry="11" style="stroke:#A80036;stroke-width:1.0;"/><path d="M1181.2188,198.6406 Q1180.6406,198.9375 1180,199.0781 Q1179.3594,199.2344 1178.6563,199.2344 Q1176.1563,199.2344 1174.8281,197.5938 Q1173.5156,195.9375 1173.5156,192.8125 Q1173.5156,189.6875 1174.8281,188.0313 Q1176.1563,186.375 1178.6563,186.375 Q1179.3594,186.375 1180,186.5313 Q1180.6563,186.6875 1181.2188,186.9844 L1181.2188,189.7031 Q1180.5938,189.125 1180,188.8594 Q1179.4063,188.5781 1178.7813,188.5781 Q1177.4375,188.5781 1176.75,189.6563 Q1176.0625,190.7188 1176.0625,192.8125 Q1176.0625,194.9063 1176.75,195.9844 Q1177.4375,197.0469 1178.7813,197.0469 Q1179.4063,197.0469 1180,196.7813 Q1180.5938,196.5 1181.2188,195.9219 L1181.2188,198.6406 Z " fill="#000000"/><text fill="#000000" font-family="sans-serif" font-size="12" lengthAdjust="spacing" textLength="81" x="1198.75" y="197.1543">getIPHandler</text><line style="stroke:#A80036;stroke-width:1.5;" x1="1134" x2="1312" y1="209" y2="209"/><polygon fill="none" points="1144,215,1148,219,1144,223,1140,219" style="stroke:#B38D22;stroke-width:1.0;"/><text fill="#000000" font-family="sans-serif" font-size="11" lengthAdjust="spacing" textLength="135" x="1153" y="223.2104">httpServer: HTTPServer</text><line style="stroke:#A80036;stroke-width:1.5;" x1="1134" x2="1312" y1="229.8047" y2="229.8047"/><ellipse cx="1144" cy="240.8047" fill="#84BE84" rx="3" ry="3" style="stroke:#038048;stroke-width:1.0;"/><text fill="#000000" font-family="sans-serif" font-size="11" lengthAdjust="spacing" textLength="147" x="1153" y="244.0151">getIPHandler(HTTPServer)</text><ellipse cx="1144" cy="253.6094" fill="#84BE84" rx="3" ry="3" style="stroke:#038048;stroke-width:1.0;"/><text fill="#000000" font-family="sans-serif" font-size="11" lengthAdjust="spacing" textLength="154" x="1153" y="256.8198">handle(HttpExchange): void</text></a><!--MD5=[af02780ee76fa67b7af90729e0a806f9]
class org.example.model.communication.server.handlers.PingHandler--><a href="PingHandler.html" target="_top" title="PingHandler.html" xlink:actuate="onRequest" xlink:href="PingHandler.html" xlink:show="new" xlink:title="PingHandler.html" xlink:type="simple"><rect codeLine="28" fill="#FEFECE" filter="url(#ffp6qlq008k3i)" height="73.6094" id="org.example.model.communication.server.handlers.PingHandler" style="stroke:#A80036;stroke-width:1.5;" width="180" x="1375" y="323"/><ellipse cx="1422.75" cy="339" fill="#ADD1B2" rx="11" ry="11" style="stroke:#A80036;stroke-width:1.0;"/><path d="M1425.7188,344.6406 Q1425.1406,344.9375 1424.5,345.0781 Q1423.8594,345.2344 1423.1563,345.2344 Q1420.6563,345.2344 1419.3281,343.5938 Q1418.0156,341.9375 1418.0156,338.8125 Q1418.0156,335.6875 1419.3281,334.0313 Q1420.6563,332.375 1423.1563,332.375 Q1423.8594,332.375 1424.5,332.5313 Q1425.1563,332.6875 1425.7188,332.9844 L1425.7188,335.7031 Q1425.0938,335.125 1424.5,334.8594 Q1423.9063,334.5781 1423.2813,334.5781 Q1421.9375,334.5781 1421.25,335.6563 Q1420.5625,336.7188 1420.5625,338.8125 Q1420.5625,340.9063 1421.25,341.9844 Q1421.9375,343.0469 1423.2813,343.0469 Q1423.9063,343.0469 1424.5,342.7813 Q1425.0938,342.5 1425.7188,341.9219 L1425.7188,344.6406 Z " fill="#000000"/><text fill="#000000" font-family="sans-serif" font-size="12" lengthAdjust="spacing" textLength="76" x="1443.25" y="343.1543">PingHandler</text><line style="stroke:#A80036;stroke-width:1.5;" x1="1376" x2="1554" y1="355" y2="355"/><line style="stroke:#A80036;stroke-width:1.5;" x1="1376" x2="1554" y1="363" y2="363"/><ellipse cx="1386" cy="374" fill="#84BE84" rx="3" ry="3" style="stroke:#038048;stroke-width:1.0;"/><text fill="#000000" font-family="sans-serif" font-size="11" lengthAdjust="spacing" textLength="143" x="1395" y="377.2104">PingHandler(HTTPServer)</text><ellipse cx="1386" cy="386.8047" fill="#84BE84" rx="3" ry="3" style="stroke:#038048;stroke-width:1.0;"/><text fill="#000000" font-family="sans-serif" font-size="11" lengthAdjust="spacing" textLength="154" x="1395" y="390.0151">handle(HttpExchange): void</text></a><!--MD5=[f8d67d51d89cf9bb9a3f146796686015]
class org.example.model.communication.server.handlers.getUserHandler--><a href="getUserHandler.html" target="_top" title="getUserHandler.html" xlink:actuate="onRequest" xlink:href="getUserHandler.html" xlink:show="new" xlink:title="getUserHandler.html" xlink:type="simple"><rect codeLine="33" fill="#FEFECE" filter="url(#ffp6qlq008k3i)" height="73.6094" id="org.example.model.communication.server.handlers.getUserHandler" style="stroke:#A80036;stroke-width:1.5;" width="268" x="830" y="183"/><ellipse cx="910.25" cy="199" fill="#ADD1B2" rx="11" ry="11" style="stroke:#A80036;stroke-width:1.0;"/><path d="M913.2188,204.6406 Q912.6406,204.9375 912,205.0781 Q911.3594,205.2344 910.6563,205.2344 Q908.1563,205.2344 906.8281,203.5938 Q905.5156,201.9375 905.5156,198.8125 Q905.5156,195.6875 906.8281,194.0313 Q908.1563,192.375 910.6563,192.375 Q911.3594,192.375 912,192.5313 Q912.6563,192.6875 913.2188,192.9844 L913.2188,195.7031 Q912.5938,195.125 912,194.8594 Q911.4063,194.5781 910.7813,194.5781 Q909.4375,194.5781 908.75,195.6563 Q908.0625,196.7188 908.0625,198.8125 Q908.0625,200.9063 908.75,201.9844 Q909.4375,203.0469 910.7813,203.0469 Q911.4063,203.0469 912,202.7813 Q912.5938,202.5 913.2188,201.9219 L913.2188,204.6406 Z " fill="#000000"/><text fill="#000000" font-family="sans-serif" font-size="12" lengthAdjust="spacing" textLength="99" x="930.75" y="203.1543">getUserHandler</text><line style="stroke:#A80036;stroke-width:1.5;" x1="831" x2="1097" y1="215" y2="215"/><line style="stroke:#A80036;stroke-width:1.5;" x1="831" x2="1097" y1="223" y2="223"/><ellipse cx="841" cy="234" fill="#84BE84" rx="3" ry="3" style="stroke:#038048;stroke-width:1.0;"/><text fill="#000000" font-family="sans-serif" font-size="11" lengthAdjust="spacing" textLength="154" x="850" y="237.2104">handle(HttpExchange): void</text><ellipse cx="841" cy="246.8047" fill="#84BE84" rx="3" ry="3" style="stroke:#038048;stroke-width:1.0;"/><text fill="#000000" font-family="sans-serif" font-size="11" lengthAdjust="spacing" text-decoration="underline" textLength="242" x="850" y="250.0151">sendResponse(HttpExchange, String): void</text></a><!--MD5=[cd3d19797f01963b6e35db7c24015ea3]
class org.example.model.communication.server.handlers.DisconnectHandler--><a href="DisconnectHandler.html" target="_top" title="DisconnectHandler.html" xlink:actuate="onRequest" xlink:href="DisconnectHandler.html" xlink:show="new" xlink:title="DisconnectHandler.html" xlink:type="simple"><rect codeLine="38" fill="#FEFECE" filter="url(#ffp6qlq008k3i)" height="73.6094" id="org.example.model.communication.server.handlers.DisconnectHandler" style="stroke:#A80036;stroke-width:1.5;" width="207" x="885.5" y="323"/><ellipse cx="925.7" cy="339" fill="#ADD1B2" rx="11" ry="11" style="stroke:#A80036;stroke-width:1.0;"/><path d="M928.6688,344.6406 Q928.0906,344.9375 927.45,345.0781 Q926.8094,345.2344 926.1063,345.2344 Q923.6063,345.2344 922.2781,343.5938 Q920.9656,341.9375 920.9656,338.8125 Q920.9656,335.6875 922.2781,334.0313 Q923.6063,332.375 926.1063,332.375 Q926.8094,332.375 927.45,332.5313 Q928.1063,332.6875 928.6688,332.9844 L928.6688,335.7031 Q928.0438,335.125 927.45,334.8594 Q926.8563,334.5781 926.2313,334.5781 Q924.8875,334.5781 924.2,335.6563 Q923.5125,336.7188 923.5125,338.8125 Q923.5125,340.9063 924.2,341.9844 Q924.8875,343.0469 926.2313,343.0469 Q926.8563,343.0469 927.45,342.7813 Q928.0438,342.5 928.6688,341.9219 L928.6688,344.6406 Z " fill="#000000"/><text fill="#000000" font-family="sans-serif" font-size="12" lengthAdjust="spacing" textLength="119" x="945.3" y="343.1543">DisconnectHandler</text><line style="stroke:#A80036;stroke-width:1.5;" x1="886.5" x2="1091.5" y1="355" y2="355"/><line style="stroke:#A80036;stroke-width:1.5;" x1="886.5" x2="1091.5" y1="363" y2="363"/><ellipse cx="896.5" cy="374" fill="#84BE84" rx="3" ry="3" style="stroke:#038048;stroke-width:1.0;"/><text fill="#000000" font-family="sans-serif" font-size="11" lengthAdjust="spacing" textLength="181" x="905.5" y="377.2104">DisconnectHandler(HTTPServer)</text><ellipse cx="896.5" cy="386.8047" fill="#84BE84" rx="3" ry="3" style="stroke:#038048;stroke-width:1.0;"/><text fill="#000000" font-family="sans-serif" font-size="11" lengthAdjust="spacing" textLength="154" x="905.5" y="390.0151">handle(HttpExchange): void</text></a><!--MD5=[5d8d951e10f33b86c1cca3164939c924]
class org.example.model.communication.server.handlers.GetPseudo--><a href="GetPseudo.html" target="_top" title="GetPseudo.html" xlink:actuate="onRequest" xlink:href="GetPseudo.html" xlink:show="new" xlink:title="GetPseudo.html" xlink:type="simple"><rect codeLine="43" fill="#FEFECE" filter="url(#ffp6qlq008k3i)" height="60.8047" id="org.example.model.communication.server.handlers.GetPseudo" style="stroke:#A80036;stroke-width:1.5;" width="180" x="615" y="189.5"/><ellipse cx="666.25" cy="205.5" fill="#ADD1B2" rx="11" ry="11" style="stroke:#A80036;stroke-width:1.0;"/><path d="M669.2188,211.1406 Q668.6406,211.4375 668,211.5781 Q667.3594,211.7344 666.6563,211.7344 Q664.1563,211.7344 662.8281,210.0938 Q661.5156,208.4375 661.5156,205.3125 Q661.5156,202.1875 662.8281,200.5313 Q664.1563,198.875 666.6563,198.875 Q667.3594,198.875 668,199.0313 Q668.6563,199.1875 669.2188,199.4844 L669.2188,202.2031 Q668.5938,201.625 668,201.3594 Q667.4063,201.0781 666.7813,201.0781 Q665.4375,201.0781 664.75,202.1563 Q664.0625,203.2188 664.0625,205.3125 Q664.0625,207.4063 664.75,208.4844 Q665.4375,209.5469 666.7813,209.5469 Q667.4063,209.5469 668,209.2813 Q668.5938,209 669.2188,208.4219 L669.2188,211.1406 Z " fill="#000000"/><text fill="#000000" font-family="sans-serif" font-size="12" lengthAdjust="spacing" textLength="69" x="686.75" y="209.6543">GetPseudo</text><line style="stroke:#A80036;stroke-width:1.5;" x1="616" x2="794" y1="221.5" y2="221.5"/><line style="stroke:#A80036;stroke-width:1.5;" x1="616" x2="794" y1="229.5" y2="229.5"/><ellipse cx="626" cy="240.5" fill="#84BE84" rx="3" ry="3" style="stroke:#038048;stroke-width:1.0;"/><text fill="#000000" font-family="sans-serif" font-size="11" lengthAdjust="spacing" textLength="154" x="635" y="243.7104">handle(HttpExchange): void</text></a><!--MD5=[018fe74bd3d4884bf324bbcffa1f96dd]
class org.example.model.communication.server.handlers.EndSessionHandler--><a href="EndSessionHandler.html" target="_top" title="EndSessionHandler.html" xlink:actuate="onRequest" xlink:href="EndSessionHandler.html" xlink:show="new" xlink:title="EndSessionHandler.html" xlink:type="simple"><rect codeLine="47" fill="#FEFECE" filter="url(#ffp6qlq008k3i)" height="73.6094" id="org.example.model.communication.server.handlers.EndSessionHandler" style="stroke:#A80036;stroke-width:1.5;" width="212" x="1128" y="323"/><ellipse cx="1169.1" cy="339" fill="#ADD1B2" rx="11" ry="11" style="stroke:#A80036;stroke-width:1.0;"/><path d="M1172.0688,344.6406 Q1171.4906,344.9375 1170.85,345.0781 Q1170.2094,345.2344 1169.5063,345.2344 Q1167.0063,345.2344 1165.6781,343.5938 Q1164.3656,341.9375 1164.3656,338.8125 Q1164.3656,335.6875 1165.6781,334.0313 Q1167.0063,332.375 1169.5063,332.375 Q1170.2094,332.375 1170.85,332.5313 Q1171.5063,332.6875 1172.0688,332.9844 L1172.0688,335.7031 Q1171.4438,335.125 1170.85,334.8594 Q1170.2563,334.5781 1169.6313,334.5781 Q1168.2875,334.5781 1167.6,335.6563 Q1166.9125,336.7188 1166.9125,338.8125 Q1166.9125,340.9063 1167.6,341.9844 Q1168.2875,343.0469 1169.6313,343.0469 Q1170.2563,343.0469 1170.85,342.7813 Q1171.4438,342.5 1172.0688,341.9219 L1172.0688,344.6406 Z " fill="#000000"/><text fill="#000000" font-family="sans-serif" font-size="12" lengthAdjust="spacing" textLength="122" x="1188.9" y="343.1543">EndSessionHandler</text><line style="stroke:#A80036;stroke-width:1.5;" x1="1129" x2="1339" y1="355" y2="355"/><line style="stroke:#A80036;stroke-width:1.5;" x1="1129" x2="1339" y1="363" y2="363"/><ellipse cx="1139" cy="374" fill="#84BE84" rx="3" ry="3" style="stroke:#038048;stroke-width:1.0;"/><text fill="#000000" font-family="sans-serif" font-size="11" lengthAdjust="spacing" textLength="186" x="1148" y="377.2104">EndSessionHandler(HTTPServer)</text><ellipse cx="1139" cy="386.8047" fill="#84BE84" rx="3" ry="3" style="stroke:#038048;stroke-width:1.0;"/><text fill="#000000" font-family="sans-serif" font-size="11" lengthAdjust="spacing" textLength="154" x="1148" y="390.0151">handle(HttpExchange): void</text></a><!--MD5=[14bb71297a170e565721856b113ad512]
class org.example.model.communication.server.handlers.BaseHandler--><a href="BaseHandler.html" target="_top" title="BaseHandler.html" xlink:actuate="onRequest" xlink:href="BaseHandler.html" xlink:show="new" xlink:title="BaseHandler.html" xlink:type="simple"><rect codeLine="52" fill="#FEFECE" filter="url(#ffp6qlq008k3i)" height="73.6094" id="org.example.model.communication.server.handlers.BaseHandler" style="stroke:#A80036;stroke-width:1.5;" width="174" x="406" y="183"/><ellipse cx="448.9" cy="199" fill="#ADD1B2" rx="11" ry="11" style="stroke:#A80036;stroke-width:1.0;"/><path d="M451.8688,204.6406 Q451.2906,204.9375 450.65,205.0781 Q450.0094,205.2344 449.3063,205.2344 Q446.8063,205.2344 445.4781,203.5938 Q444.1656,201.9375 444.1656,198.8125 Q444.1656,195.6875 445.4781,194.0313 Q446.8063,192.375 449.3063,192.375 Q450.0094,192.375 450.65,192.5313 Q451.3063,192.6875 451.8688,192.9844 L451.8688,195.7031 Q451.2438,195.125 450.65,194.8594 Q450.0563,194.5781 449.4313,194.5781 Q448.0875,194.5781 447.4,195.6563 Q446.7125,196.7188 446.7125,198.8125 Q446.7125,200.9063 447.4,201.9844 Q448.0875,203.0469 449.4313,203.0469 Q450.0563,203.0469 450.65,202.7813 Q451.2438,202.5 451.8688,201.9219 L451.8688,204.6406 Z " fill="#000000"/><text fill="#000000" font-family="sans-serif" font-size="12" lengthAdjust="spacing" textLength="80" x="469.1" y="203.1543">BaseHandler</text><line style="stroke:#A80036;stroke-width:1.5;" x1="407" x2="579" y1="215" y2="215"/><polygon fill="none" points="417,221,421,225,417,229,413,225" style="stroke:#B38D22;stroke-width:1.0;"/><text fill="#000000" font-family="sans-serif" font-size="11" lengthAdjust="spacing" textLength="135" x="426" y="229.2104">httpServer: HTTPServer</text><line style="stroke:#A80036;stroke-width:1.5;" x1="407" x2="579" y1="235.8047" y2="235.8047"/><ellipse cx="417" cy="246.8047" fill="#84BE84" rx="3" ry="3" style="stroke:#038048;stroke-width:1.0;"/><text fill="#000000" font-family="sans-serif" font-size="11" lengthAdjust="spacing" textLength="148" x="426" y="250.0151">BaseHandler(HTTPServer)</text></a><!--MD5=[fed451cbac7203162405352689e89210]
class com.sun.net.httpserver.HttpHandler--><rect codeLine="76" fill="#FEFECE" filter="url(#ffp6qlq008k3i)" height="60.8047" id="com.sun.net.httpserver.HttpHandler" style="stroke:#A80036;stroke-width:1.5;" width="182" x="1002" y="41"/><ellipse cx="1050.75" cy="57" fill="#B4A7E5" rx="11" ry="11" style="stroke:#A80036;stroke-width:1.0;"/><path d="M1046.6719,52.7656 L1046.6719,50.6094 L1054.0625,50.6094 L1054.0625,52.7656 L1051.5938,52.7656 L1051.5938,60.8438 L1054.0625,60.8438 L1054.0625,63 L1046.6719,63 L1046.6719,60.8438 L1049.1406,60.8438 L1049.1406,52.7656 L1046.6719,52.7656 Z " fill="#000000"/><text fill="#000000" font-family="sans-serif" font-size="12" font-style="italic" lengthAdjust="spacing" textLength="76" x="1071.25" y="61.1543">HttpHandler</text><line style="stroke:#A80036;stroke-width:1.5;" x1="1003" x2="1183" y1="73" y2="73"/><line style="stroke:#A80036;stroke-width:1.5;" x1="1003" x2="1183" y1="81" y2="81"/><ellipse cx="1013" cy="92" fill="#84BE84" rx="3" ry="3" style="stroke:#038048;stroke-width:1.0;"/><text fill="#000000" font-family="sans-serif" font-size="11" font-style="italic" lengthAdjust="spacing" textLength="156" x="1022" y="95.2104">handle(HttpExchange): void</text><!--MD5=[ce36e69a7e72b791fda23ca23d70e3c0]
reverse link org.example.model.communication.server.handlers.BaseHandler to org.example.model.communication.server.handlers.GetAllConnectedUsers--><path codeLine="57" d="M574.29,267.16 C606.26,285.32 642.42,305.85 672.42,322.89 " fill="none" id="org.example.model.communication.server.handlers.BaseHandler-backto-org.example.model.communication.server.handlers.GetAllConnectedUsers" style="stroke:#A80036;stroke-width:1.0;"/><polygon fill="none" points="570.46,273.04,556.53,257.08,577.38,260.87,570.46,273.04" style="stroke:#A80036;stroke-width:1.0;"/><!--MD5=[a3b24dd450f4e44f69529081444372dc]
reverse link com.sun.net.httpserver.HttpHandler to org.example.model.communication.server.handlers.GetAllConnectedUsers--><path codeLine="58" d="M981.51,74.14 C792.85,78.08 427.23,91.2 388,134 C349.26,176.27 353.27,217.39 388,263 C388.47,263.61 520.5,299.92 621.78,327.7 " fill="none" id="com.sun.net.httpserver.HttpHandler-backto-org.example.model.communication.server.handlers.GetAllConnectedUsers" style="stroke:#A80036;stroke-width:1.0;stroke-dasharray:7.0,7.0;"/><polygon fill="none" points="981.54,67.14,1001.68,73.74,981.82,81.13,981.54,67.14" style="stroke:#A80036;stroke-width:1.0;"/><!--MD5=[bd10467b6d3deb82f8de85c904d7df0f]
reverse link org.example.model.communication.server.handlers.BaseHandler to org.example.model.communication.server.handlers.receiveConnectedUsersHandler--><path codeLine="59" d="M390.6,265.02 C347.17,283.69 297.19,305.18 255.99,322.89 " fill="none" id="org.example.model.communication.server.handlers.BaseHandler-backto-org.example.model.communication.server.handlers.receiveConnectedUsersHandler" style="stroke:#A80036;stroke-width:1.0;"/><polygon fill="none" points="387.94,258.55,409.08,257.08,393.47,271.41,387.94,258.55" style="stroke:#A80036;stroke-width:1.0;"/><!--MD5=[f15ff3cc79616b90f26134ad43f4467f]
reverse link com.sun.net.httpserver.HttpHandler to org.example.model.communication.server.handlers.receiveConnectedUsersHandler--><path codeLine="60" d="M981.61,76.04 C781.66,83.16 377.45,101.42 322,134 C249.14,176.81 204.58,270.65 184.55,322.6 " fill="none" id="com.sun.net.httpserver.HttpHandler-backto-org.example.model.communication.server.handlers.receiveConnectedUsersHandler" style="stroke:#A80036;stroke-width:1.0;stroke-dasharray:7.0,7.0;"/><polygon fill="none" points="981.52,69.03,1001.76,75.33,982.01,83.03,981.52,69.03" style="stroke:#A80036;stroke-width:1.0;"/><!--MD5=[5e3aae784b78e8bc675861cc41835eea]
reverse link org.example.model.communication.server.handlers.BaseHandler to org.example.model.communication.server.handlers.ReceiveMessageHandler--><path codeLine="61" d="M482.42,277.15 C479.51,292.62 476.42,308.99 473.79,322.98 " fill="none" id="org.example.model.communication.server.handlers.BaseHandler-backto-org.example.model.communication.server.handlers.ReceiveMessageHandler" style="stroke:#A80036;stroke-width:1.0;"/><polygon fill="none" points="475.59,275.62,486.17,257.26,489.34,278.21,475.59,275.62" style="stroke:#A80036;stroke-width:1.0;"/><!--MD5=[504475afc0db8068abc01867ae66837b]
reverse link com.sun.net.httpserver.HttpHandler to org.example.model.communication.server.handlers.ReceiveMessageHandler--><path codeLine="62" d="M981.77,73.63 C785.56,76.78 394.66,88.74 353,134 C314.17,176.19 328.82,211.02 353,263 C364.19,287.05 384.69,307.23 405.26,322.78 " fill="none" id="com.sun.net.httpserver.HttpHandler-backto-org.example.model.communication.server.handlers.ReceiveMessageHandler" style="stroke:#A80036;stroke-width:1.0;stroke-dasharray:7.0,7.0;"/><polygon fill="none" points="981.74,66.63,1001.84,73.32,981.95,80.63,981.74,66.63" style="stroke:#A80036;stroke-width:1.0;"/><!--MD5=[94f7f0032f4e273060b499a82284210a]
reverse link com.sun.net.httpserver.HttpHandler to org.example.model.communication.server.handlers.ConnectedUserHandler--><path codeLine="63" d="M1203.85,91.05 C1245.14,100.53 1291.52,114.34 1331,134 C1359.46,148.17 1387.44,170.8 1407.65,189.14 " fill="none" id="com.sun.net.httpserver.HttpHandler-backto-org.example.model.communication.server.handlers.ConnectedUserHandler" style="stroke:#A80036;stroke-width:1.0;stroke-dasharray:7.0,7.0;"/><polygon fill="none" points="1202.1,97.83,1184.04,86.74,1205.08,84.15,1202.1,97.83" style="stroke:#A80036;stroke-width:1.0;"/><!--MD5=[e9f5903881c641219edf7b41d24c67fe]
reverse link com.sun.net.httpserver.HttpHandler to org.example.model.communication.server.handlers.getIPHandler--><path codeLine="64" d="M1132.7,117.24 C1149.54,136.22 1169.07,158.22 1185.65,176.91 " fill="none" id="com.sun.net.httpserver.HttpHandler-backto-org.example.model.communication.server.handlers.getIPHandler" style="stroke:#A80036;stroke-width:1.0;stroke-dasharray:7.0,7.0;"/><polygon fill="none" points="1127.35,121.75,1119.31,102.15,1137.82,112.46,1127.35,121.75" style="stroke:#A80036;stroke-width:1.0;"/><!--MD5=[f2080e5273bd87ff34ae83a6a377e90e]
reverse link org.example.model.communication.server.handlers.BaseHandler to org.example.model.communication.server.handlers.PingHandler--><path codeLine="65" d="M595.38,262.61 C595.92,262.74 596.46,262.87 597,263 C926.81,340.67 1024.94,255.6 1357,323 C1362.91,324.2 1368.94,325.62 1374.99,327.2 " fill="none" id="org.example.model.communication.server.handlers.BaseHandler-backto-org.example.model.communication.server.handlers.PingHandler" style="stroke:#A80036;stroke-width:1.0;"/><polygon fill="none" points="593.32,269.3,576,257.09,597.16,255.84,593.32,269.3" style="stroke:#A80036;stroke-width:1.0;"/><!--MD5=[84507805387f8e5d71921a6040f6f2db]
reverse link com.sun.net.httpserver.HttpHandler to org.example.model.communication.server.handlers.PingHandler--><path codeLine="66" d="M1204.29,77.59 C1352.01,85.51 1597.53,103.17 1625,134 C1663.14,176.81 1653.25,213.11 1625,263 C1609.44,290.48 1582.52,310.96 1555.16,325.78 " fill="none" id="com.sun.net.httpserver.HttpHandler-backto-org.example.model.communication.server.handlers.PingHandler" style="stroke:#A80036;stroke-width:1.0;stroke-dasharray:7.0,7.0;"/><polygon fill="none" points="1203.73,84.57,1184.13,76.54,1204.46,70.59,1203.73,84.57" style="stroke:#A80036;stroke-width:1.0;"/><!--MD5=[476da344f578484372b716064cbafd9c]
reverse link com.sun.net.httpserver.HttpHandler to org.example.model.communication.server.handlers.getUserHandler--><path codeLine="67" d="M1053.49,117.37 C1034.97,138.4 1013.2,163.12 995.77,182.92 " fill="none" id="com.sun.net.httpserver.HttpHandler-backto-org.example.model.communication.server.handlers.getUserHandler" style="stroke:#A80036;stroke-width:1.0;stroke-dasharray:7.0,7.0;"/><polygon fill="none" points="1048.42,112.53,1066.89,102.15,1058.93,121.78,1048.42,112.53" style="stroke:#A80036;stroke-width:1.0;"/><!--MD5=[432d3cd0ec5ac68d92b1532a1082283e]
reverse link org.example.model.communication.server.handlers.BaseHandler to org.example.model.communication.server.handlers.DisconnectHandler--><path codeLine="68" d="M598.62,263.03 C717.95,298.85 753.91,293.78 867,323 C872.99,324.55 879.12,326.19 885.31,327.88 " fill="none" id="org.example.model.communication.server.handlers.BaseHandler-backto-org.example.model.communication.server.handlers.DisconnectHandler" style="stroke:#A80036;stroke-width:1.0;"/><polygon fill="none" points="596.21,269.61,579.15,257.05,600.32,256.23,596.21,269.61" style="stroke:#A80036;stroke-width:1.0;"/><!--MD5=[f304e6a2ae24367f4131e6a9c8518688]
reverse link com.sun.net.httpserver.HttpHandler to org.example.model.communication.server.handlers.DisconnectHandler--><path codeLine="69" d="M1204.3,80.04 C1331.12,89.79 1523.8,108.58 1546,134 C1583.72,177.18 1583.67,219.78 1546,263 C1481.89,336.56 1206.4,302.47 1111,323 C1104.96,324.3 1098.77,325.75 1092.56,327.29 " fill="none" id="com.sun.net.httpserver.HttpHandler-backto-org.example.model.communication.server.handlers.DisconnectHandler" style="stroke:#A80036;stroke-width:1.0;stroke-dasharray:7.0,7.0;"/><polygon fill="none" points="1203.58,87.01,1184.17,78.53,1204.63,73.05,1203.58,87.01" style="stroke:#A80036;stroke-width:1.0;"/><!--MD5=[547e7aa40a1149d4aa1f654046885252]
reverse link com.sun.net.httpserver.HttpHandler to org.example.model.communication.server.handlers.GetPseudo--><path codeLine="70" d="M982.08,84.87 C928.78,93.75 865.1,108.78 812,134 C783.07,147.74 754.9,170.63 734.73,189.19 " fill="none" id="com.sun.net.httpserver.HttpHandler-backto-org.example.model.communication.server.handlers.GetPseudo" style="stroke:#A80036;stroke-width:1.0;stroke-dasharray:7.0,7.0;"/><polygon fill="none" points="981.12,77.94,1001.96,81.76,983.28,91.77,981.12,77.94" style="stroke:#A80036;stroke-width:1.0;"/><!--MD5=[d42790cd1bcb6bae30c231cd090f53f2]
reverse link org.example.model.communication.server.handlers.BaseHandler to org.example.model.communication.server.handlers.EndSessionHandler--><path codeLine="71" d="M596.38,262.84 C596.59,262.89 596.79,262.95 597,263 C819.41,319.82 885,277.51 1110,323 C1115.82,324.18 1121.77,325.5 1127.75,326.92 " fill="none" id="org.example.model.communication.server.handlers.BaseHandler-backto-org.example.model.communication.server.handlers.EndSessionHandler" style="stroke:#A80036;stroke-width:1.0;"/><polygon fill="none" points="594.13,269.47,576.94,257.09,598.1,256.05,594.13,269.47" style="stroke:#A80036;stroke-width:1.0;"/><!--MD5=[5f72e437d59abd623318c7b61457f4a3]
reverse link com.sun.net.httpserver.HttpHandler to org.example.model.communication.server.handlers.EndSessionHandler--><path codeLine="72" d="M1204.12,78.69 C1341.72,87.52 1561.13,105.84 1586,134 C1623.95,176.98 1621,217.59 1586,263 C1522.03,345.99 1458.99,295.06 1358,323 C1352.17,324.61 1346.18,326.29 1340.15,327.99 " fill="none" id="com.sun.net.httpserver.HttpHandler-backto-org.example.model.communication.server.handlers.EndSessionHandler" style="stroke:#A80036;stroke-width:1.0;stroke-dasharray:7.0,7.0;"/><polygon fill="none" points="1203.55,85.67,1184.03,77.43,1204.43,71.7,1203.55,85.67" style="stroke:#A80036;stroke-width:1.0;"/><text fill="#888888" font-family="sans-serif" font-size="10" lengthAdjust="spacing" textLength="192" x="732.57" y="428.2822">UMLDoclet 2.0.15, PlantUML 1.2021.13</text><!--MD5=[6514a83f2141fa77e71e25b42e75badb]
@startuml
    namespace org.example.model.communication.server.handlers {

        class GetAllConnectedUsers [[GetAllConnectedUsers.html]] {
            +GetAllConnectedUsers(HTTPServer)
            +handle(HttpExchange): void
        }

        class receiveConnectedUsersHandler [[receiveConnectedUsersHandler.html]] {
            +receiveConnectedUsersHandler(HTTPServer)
            +handle(HttpExchange): void
        }

        class ReceiveMessageHandler [[ReceiveMessageHandler.html]] {
            +ReceiveMessageHandler(HTTPServer)
            +handle(HttpExchange): void
        }

        class ConnectedUserHandler [[ConnectedUserHandler.html]] {
            +handle(HttpExchange): void
        }

        class getIPHandler [[getIPHandler.html]] {
            #httpServer: HTTPServer
            +getIPHandler(HTTPServer)
            +handle(HttpExchange): void
        }

        class PingHandler [[PingHandler.html]] {
            +PingHandler(HTTPServer)
            +handle(HttpExchange): void
        }

        class getUserHandler [[getUserHandler.html]] {
            +handle(HttpExchange): void
            {static} +sendResponse(HttpExchange, String): void
        }

        class DisconnectHandler [[DisconnectHandler.html]] {
            +DisconnectHandler(HTTPServer)
            +handle(HttpExchange): void
        }

        class GetPseudo [[GetPseudo.html]] {
            +handle(HttpExchange): void
        }

        class EndSessionHandler [[EndSessionHandler.html]] {
            +EndSessionHandler(HTTPServer)
            +handle(HttpExchange): void
        }

        class BaseHandler [[BaseHandler.html]] {
            #httpServer: HTTPServer
            +BaseHandler(HTTPServer)
        }

        BaseHandler <|- - GetAllConnectedUsers
        com.sun.net.httpserver.HttpHandler <|.. GetAllConnectedUsers
        BaseHandler <|- - receiveConnectedUsersHandler
        com.sun.net.httpserver.HttpHandler <|.. receiveConnectedUsersHandler
        BaseHandler <|- - ReceiveMessageHandler
        com.sun.net.httpserver.HttpHandler <|.. ReceiveMessageHandler
        com.sun.net.httpserver.HttpHandler <|.. ConnectedUserHandler
        com.sun.net.httpserver.HttpHandler <|.. getIPHandler
        BaseHandler <|- - PingHandler
        com.sun.net.httpserver.HttpHandler <|.. PingHandler
        com.sun.net.httpserver.HttpHandler <|.. getUserHandler
        BaseHandler <|- - DisconnectHandler
        com.sun.net.httpserver.HttpHandler <|.. DisconnectHandler
        com.sun.net.httpserver.HttpHandler <|.. GetPseudo
        BaseHandler <|- - EndSessionHandler
        com.sun.net.httpserver.HttpHandler <|.. EndSessionHandler
    }

    namespace com.sun.net.httpserver {
        interface HttpHandler {
            {abstract} +handle(HttpExchange): void
        }
    }

    center footer UMLDoclet 2.0.15, PlantUML 1.2021.13
@enduml

PlantUML version 1.2021.13(Mon Nov 01 11:38:45 UTC 2021)
(APACHE source distribution)
Java Runtime: OpenJDK Runtime Environment
JVM: OpenJDK 64-Bit Server VM
Default Encoding: UTF-8
Language: en
Country: null
--></g></svg>