<?xml version="1.0" encoding="UTF-8" standalone="no"?><svg xmlns="http://www.w3.org/2000/svg" xmlns:xlink="http://www.w3.org/1999/xlink" contentScriptType="application/ecmascript" contentStyleType="text/css" height="228px" preserveAspectRatio="none" style="width:519px;height:228px;background:#FFFFFF;" version="1.1" viewBox="0 0 519 228" width="519px" zoomAndPan="magnify"><defs><filter height="300%" id="f2jp930v56rvb" width="300%" x="-1" y="-1"><feGaussianBlur result="blurOut" stdDeviation="2.0"/><feColorMatrix in="blurOut" result="blurOut2" type="matrix" values="0 0 0 0 0 0 0 0 0 0 0 0 0 0 0 0 0 0 .4 0"/><feOffset dx="4.0" dy="4.0" in="blurOut2" result="blurOut3"/><feBlend in="SourceGraphic" in2="blurOut3" mode="normal"/></filter></defs><g><!--MD5=[af02780ee76fa67b7af90729e0a806f9]
class org.example.model.communication.server.handlers.PingHandler--><a href="PingHandler.html" target="_top" title="PingHandler.html" xlink:actuate="onRequest" xlink:href="PingHandler.html" xlink:show="new" xlink:title="PingHandler.html" xlink:type="simple"><rect codeLine="5" fill="#FEFECE" filter="url(#f2jp930v56rvb)" height="71.5469" id="org.example.model.communication.server.handlers.PingHandler" style="stroke:#A80036;stroke-width:1.5;" width="281" x="140" y="126"/><ellipse cx="155" cy="144.9688" fill="#ADD1B2" rx="11" ry="11" style="stroke:#A80036;stroke-width:1.0;"/><path d="M157.9688,150.6094 Q157.3906,150.9063 156.75,151.0469 Q156.1094,151.2031 155.4063,151.2031 Q152.9063,151.2031 151.5781,149.5625 Q150.2656,147.9063 150.2656,144.7813 Q150.2656,141.6563 151.5781,140 Q152.9063,138.3438 155.4063,138.3438 Q156.1094,138.3438 156.75,138.5 Q157.4063,138.6563 157.9688,138.9531 L157.9688,141.6719 Q157.3438,141.0938 156.75,140.8281 Q156.1563,140.5469 155.5313,140.5469 Q154.1875,140.5469 153.5,141.625 Q152.8125,142.6875 152.8125,144.7813 Q152.8125,146.875 153.5,147.9531 Q154.1875,149.0156 155.5313,149.0156 Q156.1563,149.0156 156.75,148.75 Q157.3438,148.4688 157.9688,147.8906 L157.9688,150.6094 Z " fill="#000000"/><text fill="#000000" font-family="sans-serif" font-size="14" lengthAdjust="spacing" textLength="83" x="252" y="143.9951">PingHandler</text><text fill="#000000" font-family="sans-serif" font-size="10" lengthAdjust="spacing" textLength="249" x="169" y="156.5791">org.example.model.communication.server.handlers</text><line style="stroke:#A80036;stroke-width:1.5;" x1="141" x2="420" y1="163.9375" y2="163.9375"/><ellipse cx="151" cy="174.9375" fill="#84BE84" rx="3" ry="3" style="stroke:#038048;stroke-width:1.0;"/><text fill="#000000" font-family="sans-serif" font-size="11" lengthAdjust="spacing" textLength="143" x="160" y="178.1479">PingHandler(HTTPServer)</text><ellipse cx="151" cy="187.7422" fill="#84BE84" rx="3" ry="3" style="stroke:#038048;stroke-width:1.0;"/><text fill="#000000" font-family="sans-serif" font-size="11" lengthAdjust="spacing" textLength="154" x="160" y="190.9526">handle(HttpExchange): void</text></a><!--MD5=[14bb71297a170e565721856b113ad512]
class org.example.model.communication.server.handlers.BaseHandler--><a href="BaseHandler.html" target="_top" title="BaseHandler.html" xlink:actuate="onRequest" xlink:href="BaseHandler.html" xlink:show="new" xlink:title="BaseHandler.html" xlink:type="simple"><rect codeLine="10" fill="#FEFECE" filter="url(#f2jp930v56rvb)" height="37.9375" id="org.example.model.communication.server.handlers.BaseHandler" style="stroke:#A80036;stroke-width:1.5;" width="281" x="7" y="17.5"/><ellipse cx="22" cy="36.4688" fill="#ADD1B2" rx="11" ry="11" style="stroke:#A80036;stroke-width:1.0;"/><path d="M24.9688,42.1094 Q24.3906,42.4063 23.75,42.5469 Q23.1094,42.7031 22.4063,42.7031 Q19.9063,42.7031 18.5781,41.0625 Q17.2656,39.4063 17.2656,36.2813 Q17.2656,33.1563 18.5781,31.5 Q19.9063,29.8438 22.4063,29.8438 Q23.1094,29.8438 23.75,30 Q24.4063,30.1563 24.9688,30.4531 L24.9688,33.1719 Q24.3438,32.5938 23.75,32.3281 Q23.1563,32.0469 22.5313,32.0469 Q21.1875,32.0469 20.5,33.125 Q19.8125,34.1875 19.8125,36.2813 Q19.8125,38.375 20.5,39.4531 Q21.1875,40.5156 22.5313,40.5156 Q23.1563,40.5156 23.75,40.25 Q24.3438,39.9688 24.9688,39.3906 L24.9688,42.1094 Z " fill="#000000"/><text fill="#000000" font-family="sans-serif" font-size="14" lengthAdjust="spacing" textLength="88" x="116.5" y="35.4951">BaseHandler</text><text fill="#000000" font-family="sans-serif" font-size="10" lengthAdjust="spacing" textLength="249" x="36" y="48.0791">org.example.model.communication.server.handlers</text></a><!--MD5=[fed451cbac7203162405352689e89210]
class com.sun.net.httpserver.HttpHandler--><rect codeLine="11" fill="#FEFECE" filter="url(#f2jp930v56rvb)" height="58.7422" id="com.sun.net.httpserver.HttpHandler" style="stroke:#A80036;stroke-width:1.5;" width="182" x="323.5" y="7"/><ellipse cx="354.25" cy="25.9688" fill="#B4A7E5" rx="11" ry="11" style="stroke:#A80036;stroke-width:1.0;"/><path d="M350.1719,21.7344 L350.1719,19.5781 L357.5625,19.5781 L357.5625,21.7344 L355.0938,21.7344 L355.0938,29.8125 L357.5625,29.8125 L357.5625,31.9688 L350.1719,31.9688 L350.1719,29.8125 L352.6406,29.8125 L352.6406,21.7344 L350.1719,21.7344 Z " fill="#000000"/><text fill="#000000" font-family="sans-serif" font-size="14" font-style="italic" lengthAdjust="spacing" textLength="84" x="387.25" y="24.9951">HttpHandler</text><text fill="#000000" font-family="sans-serif" font-size="10" font-style="italic" lengthAdjust="spacing" textLength="115" x="371.75" y="37.5791">com.sun.net.httpserver</text><line style="stroke:#A80036;stroke-width:1.5;" x1="324.5" x2="504.5" y1="44.9375" y2="44.9375"/><ellipse cx="334.5" cy="55.9375" fill="#84BE84" rx="3" ry="3" style="stroke:#038048;stroke-width:1.0;"/><text fill="#000000" font-family="sans-serif" font-size="11" font-style="italic" lengthAdjust="spacing" textLength="156" x="343.5" y="59.1479">handle(HttpExchange): void</text><!--MD5=[f2080e5273bd87ff34ae83a6a377e90e]
reverse link org.example.model.communication.server.handlers.BaseHandler to org.example.model.communication.server.handlers.PingHandler--><path codeLine="15" d="M181.83,69.38 C200.44,86.66 223.48,108.05 242.62,125.82 " fill="none" id="org.example.model.communication.server.handlers.BaseHandler-backto-org.example.model.communication.server.handlers.PingHandler" style="stroke:#A80036;stroke-width:1.0;"/><polygon fill="none" points="177.02,74.46,167.12,55.72,186.54,64.2,177.02,74.46" style="stroke:#A80036;stroke-width:1.0;"/><!--MD5=[84507805387f8e5d71921a6040f6f2db]
reverse link com.sun.net.httpserver.HttpHandler to org.example.model.communication.server.handlers.PingHandler--><path codeLine="16" d="M368.53,79.87 C352.25,94.87 334.13,111.57 318.59,125.9 " fill="none" id="com.sun.net.httpserver.HttpHandler-backto-org.example.model.communication.server.handlers.PingHandler" style="stroke:#A80036;stroke-width:1.0;stroke-dasharray:7.0,7.0;"/><polygon fill="none" points="363.97,74.55,383.42,66.14,373.46,84.85,363.97,74.55" style="stroke:#A80036;stroke-width:1.0;"/><text fill="#888888" font-family="sans-serif" font-size="10" lengthAdjust="spacing" textLength="192" x="157.25" y="219.8291">UMLDoclet 2.0.15, PlantUML 1.2021.13</text><!--MD5=[c66b8d66ee3ea298e2c03b03ae6b6b97]
@startuml
    set namespaceSeparator none
    hide empty fields
    hide empty methods

    class "<size:14>PingHandler\n<size:10>org.example.model.communication.server.handlers" as org.example.model.communication.server.handlers.PingHandler [[PingHandler.html]] {
        +PingHandler(HTTPServer)
        +handle(HttpExchange): void
    }

    class "<size:14>BaseHandler\n<size:10>org.example.model.communication.server.handlers" as org.example.model.communication.server.handlers.BaseHandler [[BaseHandler.html]]
    interface "<size:14>HttpHandler\n<size:10>com.sun.net.httpserver" as com.sun.net.httpserver.HttpHandler {
        {abstract} +handle(HttpExchange): void
    }

    org.example.model.communication.server.handlers.BaseHandler <|- - org.example.model.communication.server.handlers.PingHandler
    com.sun.net.httpserver.HttpHandler <|.. org.example.model.communication.server.handlers.PingHandler

    center footer UMLDoclet 2.0.15, PlantUML 1.2021.13
@enduml

PlantUML version 1.2021.13(Mon Nov 01 11:38:45 UTC 2021)
(APACHE source distribution)
Java Runtime: OpenJDK Runtime Environment
JVM: OpenJDK 64-Bit Server VM
Default Encoding: UTF-8
Language: en
Country: null
--></g></svg>