<?xml version="1.0" encoding="UTF-8" standalone="no"?><svg xmlns="http://www.w3.org/2000/svg" xmlns:xlink="http://www.w3.org/1999/xlink" contentScriptType="application/ecmascript" contentStyleType="text/css" height="215px" preserveAspectRatio="none" style="width:344px;height:215px;background:#FFFFFF;" version="1.1" viewBox="0 0 344 215" width="344px" zoomAndPan="magnify"><defs><filter height="300%" id="f19dh64djz3ldc" width="300%" x="-1" y="-1"><feGaussianBlur result="blurOut" stdDeviation="2.0"/><feColorMatrix in="blurOut" result="blurOut2" type="matrix" values="0 0 0 0 0 0 0 0 0 0 0 0 0 0 0 0 0 0 .4 0"/><feOffset dx="4.0" dy="4.0" in="blurOut2" result="blurOut3"/><feBlend in="SourceGraphic" in2="blurOut3" mode="normal"/></filter></defs><g><!--MD5=[5c8e8ee251b60016bf119eef8d1117a1]
class org.example.model.communication.httpEvents.ConnectedUsersListReceived--><a href="ConnectedUsersListReceived.html" target="_top" title="ConnectedUsersListReceived.html" xlink:actuate="onRequest" xlink:href="ConnectedUsersListReceived.html" xlink:show="new" xlink:title="ConnectedUsersListReceived.html" xlink:type="simple"><rect codeLine="5" fill="#FEFECE" filter="url(#f19dh64djz3ldc)" height="79.5469" id="org.example.model.communication.httpEvents.ConnectedUsersListReceived" style="stroke:#A80036;stroke-width:1.5;" width="323" x="7" y="105"/><ellipse cx="50.35" cy="123.9688" fill="#ADD1B2" rx="11" ry="11" style="stroke:#A80036;stroke-width:1.0;"/><path d="M53.3188,129.6094 Q52.7406,129.9063 52.1,130.0469 Q51.4594,130.2031 50.7563,130.2031 Q48.2563,130.2031 46.9281,128.5625 Q45.6156,126.9063 45.6156,123.7813 Q45.6156,120.6563 46.9281,119 Q48.2563,117.3438 50.7563,117.3438 Q51.4594,117.3438 52.1,117.5 Q52.7563,117.6563 53.3188,117.9531 L53.3188,120.6719 Q52.6938,120.0938 52.1,119.8281 Q51.5063,119.5469 50.8813,119.5469 Q49.5375,119.5469 48.85,120.625 Q48.1625,121.6875 48.1625,123.7813 Q48.1625,125.875 48.85,126.9531 Q49.5375,128.0156 50.8813,128.0156 Q51.5063,128.0156 52.1,127.75 Q52.6938,127.4688 53.3188,126.8906 L53.3188,129.6094 Z " fill="#000000"/><text fill="#000000" font-family="sans-serif" font-size="14" lengthAdjust="spacing" textLength="204" x="82.65" y="122.9951">ConnectedUsersListReceived</text><text fill="#000000" font-family="sans-serif" font-size="10" lengthAdjust="spacing" textLength="228" x="70.65" y="135.5791">org.example.model.communication.httpEvents</text><line style="stroke:#A80036;stroke-width:1.5;" x1="8" x2="329" y1="142.9375" y2="142.9375"/><ellipse cx="18" cy="153.9375" rx="3" ry="3" style="stroke:#038048;stroke-width:1.0;fill:none;"/><text fill="#000000" font-family="sans-serif" font-size="11" lengthAdjust="spacing" textLength="225" x="27" y="157.1479">connectedUsers: List&lt;ConnectedUser&gt;</text><line style="stroke:#A80036;stroke-width:1.5;" x1="8" x2="329" y1="163.7422" y2="163.7422"/><ellipse cx="18" cy="174.7422" fill="#84BE84" rx="3" ry="3" style="stroke:#038048;stroke-width:1.0;"/><text fill="#000000" font-family="sans-serif" font-size="11" lengthAdjust="spacing" textLength="297" x="27" y="177.9526">ConnectedUsersListReceived(List&lt;ConnectedUser&gt;)</text></a><!--MD5=[ab54c515f82567e6469e4788e5ebef35]
class org.example.model.communication.httpEvents.HTTPEvent--><a href="HTTPEvent.html" target="_top" title="HTTPEvent.html" xlink:actuate="onRequest" xlink:href="HTTPEvent.html" xlink:show="new" xlink:title="HTTPEvent.html" xlink:type="simple"><rect codeLine="10" fill="#FEFECE" filter="url(#f19dh64djz3ldc)" height="37.9375" id="org.example.model.communication.httpEvents.HTTPEvent" style="stroke:#A80036;stroke-width:1.5;" width="265" x="36" y="7"/><ellipse cx="51" cy="25.9688" fill="#B4A7E5" rx="11" ry="11" style="stroke:#A80036;stroke-width:1.0;"/><path d="M46.9219,21.7344 L46.9219,19.5781 L54.3125,19.5781 L54.3125,21.7344 L51.8438,21.7344 L51.8438,29.8125 L54.3125,29.8125 L54.3125,31.9688 L46.9219,31.9688 L46.9219,29.8125 L49.3906,29.8125 L49.3906,21.7344 L46.9219,21.7344 Z " fill="#000000"/><text fill="#000000" font-family="sans-serif" font-size="14" font-style="italic" lengthAdjust="spacing" textLength="77" x="143" y="24.9951">HTTPEvent</text><text fill="#000000" font-family="sans-serif" font-size="10" font-style="italic" lengthAdjust="spacing" textLength="233" x="65" y="37.5791">org.example.model.communication.httpEvents</text></a><!--MD5=[77e30bd7c199046023fe637754bc2a6e]
reverse link org.example.model.communication.httpEvents.HTTPEvent to org.example.model.communication.httpEvents.ConnectedUsersListReceived--><path codeLine="12" d="M168.5,65.14 C168.5,77.87 168.5,92.07 168.5,104.87 " fill="none" id="org.example.model.communication.httpEvents.HTTPEvent-backto-org.example.model.communication.httpEvents.ConnectedUsersListReceived" style="stroke:#A80036;stroke-width:1.0;stroke-dasharray:7.0,7.0;"/><polygon fill="none" points="161.5,65.02,168.5,45.02,175.5,65.02,161.5,65.02" style="stroke:#A80036;stroke-width:1.0;"/><text fill="#888888" font-family="sans-serif" font-size="10" lengthAdjust="spacing" textLength="192" x="69.5" y="206.8291">UMLDoclet 2.0.15, PlantUML 1.2021.13</text><!--MD5=[2c6c16f8cb8a2b092cd1f356f30600a7]
@startuml
    set namespaceSeparator none
    hide empty fields
    hide empty methods

    class "<size:14>ConnectedUsersListReceived\n<size:10>org.example.model.communication.httpEvents" as org.example.model.communication.httpEvents.ConnectedUsersListReceived [[ConnectedUsersListReceived.html]] {
        +connectedUsers: List<ConnectedUser>
        +ConnectedUsersListReceived(List<ConnectedUser>)
    }

    interface "<size:14>HTTPEvent\n<size:10>org.example.model.communication.httpEvents" as org.example.model.communication.httpEvents.HTTPEvent [[HTTPEvent.html]]

    org.example.model.communication.httpEvents.HTTPEvent <|.. org.example.model.communication.httpEvents.ConnectedUsersListReceived

    center footer UMLDoclet 2.0.15, PlantUML 1.2021.13
@enduml

PlantUML version 1.2021.13(Mon Nov 01 11:38:45 UTC 2021)
(APACHE source distribution)
Java Runtime: OpenJDK Runtime Environment
JVM: OpenJDK 64-Bit Server VM
Default Encoding: UTF-8
Language: en
Country: null
--></g></svg>