<?xml version="1.0" encoding="UTF-8" standalone="no"?><svg xmlns="http://www.w3.org/2000/svg" xmlns:xlink="http://www.w3.org/1999/xlink" contentScriptType="application/ecmascript" contentStyleType="text/css" height="207px" preserveAspectRatio="none" style="width:286px;height:207px;background:#FFFFFF;" version="1.1" viewBox="0 0 286 207" width="286px" zoomAndPan="magnify"><defs><filter height="300%" id="f1cbt0sv3mp8ra" width="300%" x="-1" y="-1"><feGaussianBlur result="blurOut" stdDeviation="2.0"/><feColorMatrix in="blurOut" result="blurOut2" type="matrix" values="0 0 0 0 0 0 0 0 0 0 0 0 0 0 0 0 0 0 .4 0"/><feOffset dx="4.0" dy="4.0" in="blurOut2" result="blurOut3"/><feBlend in="SourceGraphic" in2="blurOut3" mode="normal"/></filter></defs><g><!--MD5=[f978d3d90b677a049fecde98a216c238]
class org.example.model.communication.httpEvents.NewMessageEvent--><a href="NewMessageEvent.html" target="_top" title="NewMessageEvent.html" xlink:actuate="onRequest" xlink:href="NewMessageEvent.html" xlink:show="new" xlink:title="NewMessageEvent.html" xlink:type="simple"><rect codeLine="5" fill="#FEFECE" filter="url(#f1cbt0sv3mp8ra)" height="71.5469" id="org.example.model.communication.httpEvents.NewMessageEvent" style="stroke:#A80036;stroke-width:1.5;" width="260" x="9.5" y="105"/><ellipse cx="24.5" cy="123.9688" fill="#ADD1B2" rx="11" ry="11" style="stroke:#A80036;stroke-width:1.0;"/><path d="M27.4688,129.6094 Q26.8906,129.9063 26.25,130.0469 Q25.6094,130.2031 24.9063,130.2031 Q22.4063,130.2031 21.0781,128.5625 Q19.7656,126.9063 19.7656,123.7813 Q19.7656,120.6563 21.0781,119 Q22.4063,117.3438 24.9063,117.3438 Q25.6094,117.3438 26.25,117.5 Q26.9063,117.6563 27.4688,117.9531 L27.4688,120.6719 Q26.8438,120.0938 26.25,119.8281 Q25.6563,119.5469 25.0313,119.5469 Q23.6875,119.5469 23,120.625 Q22.3125,121.6875 22.3125,123.7813 Q22.3125,125.875 23,126.9531 Q23.6875,128.0156 25.0313,128.0156 Q25.6563,128.0156 26.25,127.75 Q26.8438,127.4688 27.4688,126.8906 L27.4688,129.6094 Z " fill="#000000"/><text fill="#000000" font-family="sans-serif" font-size="14" lengthAdjust="spacing" textLength="132" x="86.5" y="122.9951">NewMessageEvent</text><text fill="#000000" font-family="sans-serif" font-size="10" lengthAdjust="spacing" textLength="228" x="38.5" y="135.5791">org.example.model.communication.httpEvents</text><line style="stroke:#A80036;stroke-width:1.5;" x1="10.5" x2="268.5" y1="142.9375" y2="142.9375"/><ellipse cx="20.5" cy="153.9375" fill="#84BE84" rx="3" ry="3" style="stroke:#038048;stroke-width:1.0;"/><text fill="#000000" font-family="sans-serif" font-size="11" lengthAdjust="spacing" textLength="165" x="29.5" y="157.1479">NewMessageEvent(Message)</text><ellipse cx="20.5" cy="166.7422" fill="#84BE84" rx="3" ry="3" style="stroke:#038048;stroke-width:1.0;"/><text fill="#000000" font-family="sans-serif" font-size="11" lengthAdjust="spacing" textLength="94" x="29.5" y="169.9526">getM(): Message</text></a><!--MD5=[ab54c515f82567e6469e4788e5ebef35]
class org.example.model.communication.httpEvents.HTTPEvent--><a href="HTTPEvent.html" target="_top" title="HTTPEvent.html" xlink:actuate="onRequest" xlink:href="HTTPEvent.html" xlink:show="new" xlink:title="HTTPEvent.html" xlink:type="simple"><rect codeLine="10" fill="#FEFECE" filter="url(#f1cbt0sv3mp8ra)" height="37.9375" id="org.example.model.communication.httpEvents.HTTPEvent" style="stroke:#A80036;stroke-width:1.5;" width="265" x="7" y="7"/><ellipse cx="22" cy="25.9688" fill="#B4A7E5" rx="11" ry="11" style="stroke:#A80036;stroke-width:1.0;"/><path d="M17.9219,21.7344 L17.9219,19.5781 L25.3125,19.5781 L25.3125,21.7344 L22.8438,21.7344 L22.8438,29.8125 L25.3125,29.8125 L25.3125,31.9688 L17.9219,31.9688 L17.9219,29.8125 L20.3906,29.8125 L20.3906,21.7344 L17.9219,21.7344 Z " fill="#000000"/><text fill="#000000" font-family="sans-serif" font-size="14" font-style="italic" lengthAdjust="spacing" textLength="77" x="114" y="24.9951">HTTPEvent</text><text fill="#000000" font-family="sans-serif" font-size="10" font-style="italic" lengthAdjust="spacing" textLength="233" x="36" y="37.5791">org.example.model.communication.httpEvents</text></a><!--MD5=[1687a5d5a1b320c4467eedf697819395]
reverse link org.example.model.communication.httpEvents.HTTPEvent to org.example.model.communication.httpEvents.NewMessageEvent--><path codeLine="12" d="M139.5,65.3 C139.5,78 139.5,92.08 139.5,104.56 " fill="none" id="org.example.model.communication.httpEvents.HTTPEvent-backto-org.example.model.communication.httpEvents.NewMessageEvent" style="stroke:#A80036;stroke-width:1.0;stroke-dasharray:7.0,7.0;"/><polygon fill="none" points="132.5,65.16,139.5,45.16,146.5,65.16,132.5,65.16" style="stroke:#A80036;stroke-width:1.0;"/><text fill="#888888" font-family="sans-serif" font-size="10" lengthAdjust="spacing" textLength="192" x="40.5" y="198.8291">UMLDoclet 2.0.15, PlantUML 1.2021.13</text><!--MD5=[38bb1d3c3e0f08b509a0fed419af8cde]
@startuml
    set namespaceSeparator none
    hide empty fields
    hide empty methods

    class "<size:14>NewMessageEvent\n<size:10>org.example.model.communication.httpEvents" as org.example.model.communication.httpEvents.NewMessageEvent [[NewMessageEvent.html]] {
        +NewMessageEvent(Message)
        +getM(): Message
    }

    interface "<size:14>HTTPEvent\n<size:10>org.example.model.communication.httpEvents" as org.example.model.communication.httpEvents.HTTPEvent [[HTTPEvent.html]]

    org.example.model.communication.httpEvents.HTTPEvent <|.. org.example.model.communication.httpEvents.NewMessageEvent

    center footer UMLDoclet 2.0.15, PlantUML 1.2021.13
@enduml

PlantUML version 1.2021.13(Mon Nov 01 11:38:45 UTC 2021)
(APACHE source distribution)
Java Runtime: OpenJDK Runtime Environment
JVM: OpenJDK 64-Bit Server VM
Default Encoding: UTF-8
Language: en
Country: null
--></g></svg>