<?xml version="1.0" encoding="UTF-8" standalone="no"?><svg xmlns="http://www.w3.org/2000/svg" xmlns:xlink="http://www.w3.org/1999/xlink" contentScriptType="application/ecmascript" contentStyleType="text/css" height="175px" preserveAspectRatio="none" style="width:250px;height:175px;background:#FFFFFF;" version="1.1" viewBox="0 0 250 175" width="250px" zoomAndPan="magnify"><defs><filter height="300%" id="f8npm3ilf24c0" width="300%" x="-1" y="-1"><feGaussianBlur result="blurOut" stdDeviation="2.0"/><feColorMatrix in="blurOut" result="blurOut2" type="matrix" values="0 0 0 0 0 0 0 0 0 0 0 0 0 0 0 0 0 0 .4 0"/><feOffset dx="4.0" dy="4.0" in="blurOut2" result="blurOut3"/><feBlend in="SourceGraphic" in2="blurOut3" mode="normal"/></filter></defs><g><!--MD5=[4ec5769ec027dc92bf2cefde2bb23360]
class org.example.view.ChangeUsernameController--><a href="ChangeUsernameController.html" target="_top" title="ChangeUsernameController.html" xlink:actuate="onRequest" xlink:href="ChangeUsernameController.html" xlink:show="new" xlink:title="ChangeUsernameController.html" xlink:type="simple"><rect codeLine="5" fill="#FEFECE" filter="url(#f8npm3ilf24c0)" height="143.5703" id="org.example.view.ChangeUsernameController" style="stroke:#A80036;stroke-width:1.5;" width="229" x="7" y="7"/><ellipse cx="24.25" cy="25.9688" fill="#ADD1B2" rx="11" ry="11" style="stroke:#A80036;stroke-width:1.0;"/><path d="M27.2188,31.6094 Q26.6406,31.9063 26,32.0469 Q25.3594,32.2031 24.6563,32.2031 Q22.1563,32.2031 20.8281,30.5625 Q19.5156,28.9063 19.5156,25.7813 Q19.5156,22.6563 20.8281,21 Q22.1563,19.3438 24.6563,19.3438 Q25.3594,19.3438 26,19.5 Q26.6563,19.6563 27.2188,19.9531 L27.2188,22.6719 Q26.5938,22.0938 26,21.8281 Q25.4063,21.5469 24.7813,21.5469 Q23.4375,21.5469 22.75,22.625 Q22.0625,23.6875 22.0625,25.7813 Q22.0625,27.875 22.75,28.9531 Q23.4375,30.0156 24.7813,30.0156 Q25.4063,30.0156 26,29.75 Q26.5938,29.4688 27.2188,28.8906 L27.2188,31.6094 Z " fill="#000000"/><text fill="#000000" font-family="sans-serif" font-size="14" lengthAdjust="spacing" textLength="192" x="38.75" y="24.9951">ChangeUsernameController</text><text fill="#000000" font-family="sans-serif" font-size="10" lengthAdjust="spacing" textLength="86" x="91.75" y="37.5791">org.example.view</text><line style="stroke:#A80036;stroke-width:1.5;" x1="8" x2="235" y1="44.9375" y2="44.9375"/><ellipse cx="18" cy="55.9375" rx="3" ry="3" style="stroke:#038048;stroke-width:1.0;fill:none;"/><text fill="#000000" font-family="sans-serif" font-size="11" lengthAdjust="spacing" textLength="91" x="27" y="59.1479">myStage: Stage</text><ellipse cx="18" cy="68.7422" rx="3" ry="3" style="stroke:#038048;stroke-width:1.0;fill:none;"/><text fill="#000000" font-family="sans-serif" font-size="11" lengthAdjust="spacing" textLength="111" x="27" y="71.9526">parentStage: Stage</text><ellipse cx="18" cy="81.5469" rx="3" ry="3" style="stroke:#038048;stroke-width:1.0;fill:none;"/><text fill="#000000" font-family="sans-serif" font-size="11" lengthAdjust="spacing" textLength="159" x="27" y="84.7573">usernameChange: TextField</text><line style="stroke:#A80036;stroke-width:1.5;" x1="8" x2="235" y1="91.3516" y2="91.3516"/><ellipse cx="18" cy="102.3516" fill="#84BE84" rx="3" ry="3" style="stroke:#038048;stroke-width:1.0;"/><text fill="#000000" font-family="sans-serif" font-size="11" lengthAdjust="spacing" textLength="164" x="27" y="105.562">setStage(Stage, Stage): void</text><ellipse cx="18" cy="115.1563" fill="#84BE84" rx="3" ry="3" style="stroke:#038048;stroke-width:1.0;"/><text fill="#000000" font-family="sans-serif" font-size="11" lengthAdjust="spacing" textLength="167" x="27" y="118.3667">validateOK(MouseEvent): void</text><ellipse cx="18" cy="127.9609" fill="#84BE84" rx="3" ry="3" style="stroke:#038048;stroke-width:1.0;"/><text fill="#000000" font-family="sans-serif" font-size="11" lengthAdjust="spacing" textLength="189" x="27" y="131.1714">validateCancel(MouseEvent): void</text><ellipse cx="18" cy="140.7656" fill="#84BE84" rx="3" ry="3" style="stroke:#038048;stroke-width:1.0;"/><text fill="#000000" font-family="sans-serif" font-size="11" lengthAdjust="spacing" textLength="203" x="27" y="143.9761">changePseudoEnter(KeyEvent): void</text></a><text fill="#888888" font-family="sans-serif" font-size="10" lengthAdjust="spacing" textLength="192" x="25.5" y="166.8525">UMLDoclet 2.0.15, PlantUML 1.2021.13</text><!--MD5=[cab24951b7e4e34bd1e1530f95d4bd10]
@startuml
    set namespaceSeparator none
    hide empty fields
    hide empty methods

    class "<size:14>ChangeUsernameController\n<size:10>org.example.view" as org.example.view.ChangeUsernameController [[ChangeUsernameController.html]] {
        +myStage: Stage
        +parentStage: Stage
        +usernameChange: TextField
        +setStage(Stage, Stage): void
        +validateOK(MouseEvent): void
        +validateCancel(MouseEvent): void
        +changePseudoEnter(KeyEvent): void
    }

    center footer UMLDoclet 2.0.15, PlantUML 1.2021.13
@enduml

PlantUML version 1.2021.13(Mon Nov 01 11:38:45 UTC 2021)
(APACHE source distribution)
Java Runtime: OpenJDK Runtime Environment
JVM: OpenJDK 64-Bit Server VM
Default Encoding: UTF-8
Language: en
Country: null
--></g></svg>