<?xml version="1.0" encoding="UTF-8" standalone="no"?><svg xmlns="http://www.w3.org/2000/svg" xmlns:xlink="http://www.w3.org/1999/xlink" contentScriptType="application/ecmascript" contentStyleType="text/css" height="228px" preserveAspectRatio="none" style="width:248px;height:228px;background:#FFFFFF;" version="1.1" viewBox="0 0 248 228" width="248px" zoomAndPan="magnify"><defs><filter height="300%" id="f1wv1gcb67p6sz" width="300%" x="-1" y="-1"><feGaussianBlur result="blurOut" stdDeviation="2.0"/><feColorMatrix in="blurOut" result="blurOut2" type="matrix" values="0 0 0 0 0 0 0 0 0 0 0 0 0 0 0 0 0 0 .4 0"/><feOffset dx="4.0" dy="4.0" in="blurOut2" result="blurOut3"/><feBlend in="SourceGraphic" in2="blurOut3" mode="normal"/></filter></defs><g><!--MD5=[859b2feec5ad1fca4e75755e5ed538c6]
class org.example.view.ChangeUsenameApplication--><a href="ChangeUsenameApplication.html" target="_top" title="ChangeUsenameApplication.html" xlink:actuate="onRequest" xlink:href="ChangeUsenameApplication.html" xlink:show="new" xlink:title="ChangeUsenameApplication.html" xlink:type="simple"><rect codeLine="5" fill="#FEFECE" filter="url(#f1wv1gcb67p6sz)" height="71.5469" id="org.example.view.ChangeUsenameApplication" style="stroke:#A80036;stroke-width:1.5;" width="227" x="7" y="126"/><ellipse cx="22" cy="144.9688" fill="#ADD1B2" rx="11" ry="11" style="stroke:#A80036;stroke-width:1.0;"/><path d="M24.9688,150.6094 Q24.3906,150.9063 23.75,151.0469 Q23.1094,151.2031 22.4063,151.2031 Q19.9063,151.2031 18.5781,149.5625 Q17.2656,147.9063 17.2656,144.7813 Q17.2656,141.6563 18.5781,140 Q19.9063,138.3438 22.4063,138.3438 Q23.1094,138.3438 23.75,138.5 Q24.4063,138.6563 24.9688,138.9531 L24.9688,141.6719 Q24.3438,141.0938 23.75,140.8281 Q23.1563,140.5469 22.5313,140.5469 Q21.1875,140.5469 20.5,141.625 Q19.8125,142.6875 19.8125,144.7813 Q19.8125,146.875 20.5,147.9531 Q21.1875,149.0156 22.5313,149.0156 Q23.1563,149.0156 23.75,148.75 Q24.3438,148.4688 24.9688,147.8906 L24.9688,150.6094 Z " fill="#000000"/><text fill="#000000" font-family="sans-serif" font-size="14" lengthAdjust="spacing" textLength="195" x="36" y="143.9951">ChangeUsenameApplication</text><text fill="#000000" font-family="sans-serif" font-size="10" lengthAdjust="spacing" textLength="86" x="90.5" y="156.5791">org.example.view</text><line style="stroke:#A80036;stroke-width:1.5;" x1="8" x2="233" y1="163.9375" y2="163.9375"/><ellipse cx="18" cy="174.9375" fill="#84BE84" rx="3" ry="3" style="stroke:#038048;stroke-width:1.0;"/><text fill="#000000" font-family="sans-serif" font-size="11" lengthAdjust="spacing" textLength="199" x="27" y="178.1479">ChangeUsenameApplication(Stage)</text><ellipse cx="18" cy="187.7422" fill="#84BE84" rx="3" ry="3" style="stroke:#038048;stroke-width:1.0;"/><text fill="#000000" font-family="sans-serif" font-size="11" lengthAdjust="spacing" textLength="99" x="27" y="190.9526">start(Stage): void</text></a><!--MD5=[e3612552781b2b3849880f2b7cc3064d]
class javafx.application.Application--><rect codeLine="10" fill="#FEFECE" filter="url(#f1wv1gcb67p6sz)" height="58.7422" id="javafx.application.Application" style="stroke:#A80036;stroke-width:1.5;" width="124" x="58.5" y="7"/><ellipse cx="74.85" cy="25.9688" fill="#A9DCDF" rx="11" ry="11" style="stroke:#A80036;stroke-width:1.0;"/><path d="M74.9594,21.3125 L73.8031,26.3906 L76.1313,26.3906 L74.9594,21.3125 Z M73.475,19.0781 L76.4594,19.0781 L79.8188,31.4688 L77.3656,31.4688 L76.6,28.4063 L73.3188,28.4063 L72.5688,31.4688 L70.1313,31.4688 L73.475,19.0781 Z " fill="#000000"/><text fill="#000000" font-family="sans-serif" font-size="14" font-style="italic" lengthAdjust="spacing" textLength="76" x="95.65" y="24.9951">Application</text><text fill="#000000" font-family="sans-serif" font-size="10" font-style="italic" lengthAdjust="spacing" textLength="89" x="89.15" y="37.5791">javafx.application</text><line style="stroke:#A80036;stroke-width:1.5;" x1="59.5" x2="181.5" y1="44.9375" y2="44.9375"/><ellipse cx="69.5" cy="55.9375" fill="#84BE84" rx="3" ry="3" style="stroke:#038048;stroke-width:1.0;"/><text fill="#000000" font-family="sans-serif" font-size="11" font-style="italic" lengthAdjust="spacing" textLength="98" x="78.5" y="59.1479">start(Stage): void</text><!--MD5=[1a41e32ba88dd1fb833a2ad7d5726c9c]
reverse link javafx.application.Application to org.example.view.ChangeUsenameApplication--><path codeLine="14" d="M120.5,86.46 C120.5,99.64 120.5,113.64 120.5,125.9 " fill="none" id="javafx.application.Application-backto-org.example.view.ChangeUsenameApplication" style="stroke:#A80036;stroke-width:1.0;"/><polygon fill="none" points="113.5,86.14,120.5,66.14,127.5,86.14,113.5,86.14" style="stroke:#A80036;stroke-width:1.0;"/><text fill="#888888" font-family="sans-serif" font-size="10" lengthAdjust="spacing" textLength="192" x="21.5" y="219.8291">UMLDoclet 2.0.15, PlantUML 1.2021.13</text><!--MD5=[c9bc572e701228b13c1f8a435cb8fa14]
@startuml
    set namespaceSeparator none
    hide empty fields
    hide empty methods

    class "<size:14>ChangeUsenameApplication\n<size:10>org.example.view" as org.example.view.ChangeUsenameApplication [[ChangeUsenameApplication.html]] {
        +ChangeUsenameApplication(Stage)
        +start(Stage): void
    }

    abstract class "<size:14>Application\n<size:10>javafx.application" as javafx.application.Application {
        {abstract} +start(Stage): void
    }

    javafx.application.Application <|- - org.example.view.ChangeUsenameApplication

    center footer UMLDoclet 2.0.15, PlantUML 1.2021.13
@enduml

PlantUML version 1.2021.13(Mon Nov 01 11:38:45 UTC 2021)
(APACHE source distribution)
Java Runtime: OpenJDK Runtime Environment
JVM: OpenJDK 64-Bit Server VM
Default Encoding: UTF-8
Language: en
Country: null
--></g></svg>