<?xml version="1.0" encoding="UTF-8" standalone="no"?><svg xmlns="http://www.w3.org/2000/svg" xmlns:xlink="http://www.w3.org/1999/xlink" contentScriptType="application/ecmascript" contentStyleType="text/css" height="261px" preserveAspectRatio="none" style="width:199px;height:261px;background:#FFFFFF;" version="1.1" viewBox="0 0 199 261" width="199px" zoomAndPan="magnify"><defs><filter height="300%" id="f5gfae5arjek6" width="300%" x="-1" y="-1"><feGaussianBlur result="blurOut" stdDeviation="2.0"/><feColorMatrix in="blurOut" result="blurOut2" type="matrix" values="0 0 0 0 0 0 0 0 0 0 0 0 0 0 0 0 0 0 .4 0"/><feOffset dx="4.0" dy="4.0" in="blurOut2" result="blurOut3"/><feBlend in="SourceGraphic" in2="blurOut3" mode="normal"/></filter></defs><g><!--MD5=[307df60095353f45f3b2a1044e4647ef]
class org.example.view.HelloApplication--><a href="HelloApplication.html" target="_top" title="HelloApplication.html" xlink:actuate="onRequest" xlink:href="HelloApplication.html" xlink:show="new" xlink:title="HelloApplication.html" xlink:type="simple"><rect codeLine="5" fill="#FEFECE" filter="url(#f5gfae5arjek6)" height="105.1563" id="org.example.view.HelloApplication" style="stroke:#A80036;stroke-width:1.5;" width="157" x="20.5" y="126"/><ellipse cx="42.7" cy="144.9688" fill="#ADD1B2" rx="11" ry="11" style="stroke:#A80036;stroke-width:1.0;"/><path d="M45.6688,150.6094 Q45.0906,150.9063 44.45,151.0469 Q43.8094,151.2031 43.1063,151.2031 Q40.6063,151.2031 39.2781,149.5625 Q37.9656,147.9063 37.9656,144.7813 Q37.9656,141.6563 39.2781,140 Q40.6063,138.3438 43.1063,138.3438 Q43.8094,138.3438 44.45,138.5 Q45.1063,138.6563 45.6688,138.9531 L45.6688,141.6719 Q45.0438,141.0938 44.45,140.8281 Q43.8563,140.5469 43.2313,140.5469 Q41.8875,140.5469 41.2,141.625 Q40.5125,142.6875 40.5125,144.7813 Q40.5125,146.875 41.2,147.9531 Q41.8875,149.0156 43.2313,149.0156 Q43.8563,149.0156 44.45,148.75 Q45.0438,148.4688 45.6688,147.8906 L45.6688,150.6094 Z " fill="#000000"/><text fill="#000000" font-family="sans-serif" font-size="14" lengthAdjust="spacing" textLength="109" x="58.3" y="143.9951">HelloApplication</text><text fill="#000000" font-family="sans-serif" font-size="10" lengthAdjust="spacing" textLength="86" x="69.8" y="156.5791">org.example.view</text><line style="stroke:#A80036;stroke-width:1.5;" x1="21.5" x2="176.5" y1="163.9375" y2="163.9375"/><ellipse cx="31.5" cy="174.9375" rx="3" ry="3" style="stroke:#038048;stroke-width:1.0;fill:none;"/><text fill="#000000" font-family="sans-serif" font-size="11" lengthAdjust="spacing" text-decoration="underline" textLength="105" x="40.5" y="178.1479">hc: HelloController</text><line style="stroke:#A80036;stroke-width:1.5;" x1="21.5" x2="176.5" y1="184.7422" y2="184.7422"/><ellipse cx="31.5" cy="195.7422" fill="#84BE84" rx="3" ry="3" style="stroke:#038048;stroke-width:1.0;"/><text fill="#000000" font-family="sans-serif" font-size="11" lengthAdjust="spacing" textLength="131" x="40.5" y="198.9526">HelloApplication(String)</text><ellipse cx="31.5" cy="208.5469" fill="#84BE84" rx="3" ry="3" style="stroke:#038048;stroke-width:1.0;"/><text fill="#000000" font-family="sans-serif" font-size="11" lengthAdjust="spacing" textLength="99" x="40.5" y="211.7573">start(Stage): void</text><ellipse cx="31.5" cy="221.3516" fill="#84BE84" rx="3" ry="3" style="stroke:#038048;stroke-width:1.0;"/><text fill="#000000" font-family="sans-serif" font-size="11" lengthAdjust="spacing" text-decoration="underline" textLength="109" x="40.5" y="224.562">main(String[]): void</text></a><!--MD5=[e3612552781b2b3849880f2b7cc3064d]
class javafx.application.Application--><rect codeLine="12" fill="#FEFECE" filter="url(#f5gfae5arjek6)" height="58.7422" id="javafx.application.Application" style="stroke:#A80036;stroke-width:1.5;" width="124" x="37" y="7"/><ellipse cx="53.35" cy="25.9688" fill="#A9DCDF" rx="11" ry="11" style="stroke:#A80036;stroke-width:1.0;"/><path d="M53.4594,21.3125 L52.3031,26.3906 L54.6313,26.3906 L53.4594,21.3125 Z M51.975,19.0781 L54.9594,19.0781 L58.3188,31.4688 L55.8656,31.4688 L55.1,28.4063 L51.8188,28.4063 L51.0688,31.4688 L48.6313,31.4688 L51.975,19.0781 Z " fill="#000000"/><text fill="#000000" font-family="sans-serif" font-size="14" font-style="italic" lengthAdjust="spacing" textLength="76" x="74.15" y="24.9951">Application</text><text fill="#000000" font-family="sans-serif" font-size="10" font-style="italic" lengthAdjust="spacing" textLength="89" x="67.65" y="37.5791">javafx.application</text><line style="stroke:#A80036;stroke-width:1.5;" x1="38" x2="160" y1="44.9375" y2="44.9375"/><ellipse cx="48" cy="55.9375" fill="#84BE84" rx="3" ry="3" style="stroke:#038048;stroke-width:1.0;"/><text fill="#000000" font-family="sans-serif" font-size="11" font-style="italic" lengthAdjust="spacing" textLength="98" x="57" y="59.1479">start(Stage): void</text><!--MD5=[cda3e58f4a982f2a0a7713d7113baf93]
reverse link javafx.application.Application to org.example.view.HelloApplication--><path codeLine="16" d="M99,86.38 C99,99.17 99,113.01 99,125.94 " fill="none" id="javafx.application.Application-backto-org.example.view.HelloApplication" style="stroke:#A80036;stroke-width:1.0;"/><polygon fill="none" points="92,86.17,99,66.17,106,86.17,92,86.17" style="stroke:#A80036;stroke-width:1.0;"/><text fill="#888888" font-family="sans-serif" font-size="10" lengthAdjust="spacing" textLength="192" x="0" y="253.4385">UMLDoclet 2.0.15, PlantUML 1.2021.13</text><!--MD5=[bfa7fbbfcb613cb747e4dab594fff443]
@startuml
    set namespaceSeparator none
    hide empty fields
    hide empty methods

    class "<size:14>HelloApplication\n<size:10>org.example.view" as org.example.view.HelloApplication [[HelloApplication.html]] {
        {static} +hc: HelloController
        +HelloApplication(String)
        +start(Stage): void
        {static} +main(String[]): void
    }

    abstract class "<size:14>Application\n<size:10>javafx.application" as javafx.application.Application {
        {abstract} +start(Stage): void
    }

    javafx.application.Application <|- - org.example.view.HelloApplication

    center footer UMLDoclet 2.0.15, PlantUML 1.2021.13
@enduml

PlantUML version 1.2021.13(Mon Nov 01 11:38:45 UTC 2021)
(APACHE source distribution)
Java Runtime: OpenJDK Runtime Environment
JVM: OpenJDK 64-Bit Server VM
Default Encoding: UTF-8
Language: en
Country: null
--></g></svg>