<?xml version="1.0" encoding="UTF-8" standalone="no"?><svg xmlns="http://www.w3.org/2000/svg" xmlns:xlink="http://www.w3.org/1999/xlink" contentScriptType="application/ecmascript" contentStyleType="text/css" height="228px" preserveAspectRatio="none" style="width:199px;height:228px;background:#FFFFFF;" version="1.1" viewBox="0 0 199 228" width="199px" zoomAndPan="magnify"><defs><filter height="300%" id="f1k4xv059mo8ch" width="300%" x="-1" y="-1"><feGaussianBlur result="blurOut" stdDeviation="2.0"/><feColorMatrix in="blurOut" result="blurOut2" type="matrix" values="0 0 0 0 0 0 0 0 0 0 0 0 0 0 0 0 0 0 .4 0"/><feOffset dx="4.0" dy="4.0" in="blurOut2" result="blurOut3"/><feBlend in="SourceGraphic" in2="blurOut3" mode="normal"/></filter></defs><g><!--MD5=[b8bdf665a99fbd44f9e9193c7c5fc146]
class org.example.view.LoginApplication--><a href="LoginApplication.html" target="_top" title="LoginApplication.html" xlink:actuate="onRequest" xlink:href="LoginApplication.html" xlink:show="new" xlink:title="LoginApplication.html" xlink:type="simple"><rect codeLine="5" fill="#FEFECE" filter="url(#f1k4xv059mo8ch)" height="71.5469" id="org.example.view.LoginApplication" style="stroke:#A80036;stroke-width:1.5;" width="144" x="27" y="126"/><ellipse cx="42" cy="144.9688" fill="#ADD1B2" rx="11" ry="11" style="stroke:#A80036;stroke-width:1.0;"/><path d="M44.9688,150.6094 Q44.3906,150.9063 43.75,151.0469 Q43.1094,151.2031 42.4063,151.2031 Q39.9063,151.2031 38.5781,149.5625 Q37.2656,147.9063 37.2656,144.7813 Q37.2656,141.6563 38.5781,140 Q39.9063,138.3438 42.4063,138.3438 Q43.1094,138.3438 43.75,138.5 Q44.4063,138.6563 44.9688,138.9531 L44.9688,141.6719 Q44.3438,141.0938 43.75,140.8281 Q43.1563,140.5469 42.5313,140.5469 Q41.1875,140.5469 40.5,141.625 Q39.8125,142.6875 39.8125,144.7813 Q39.8125,146.875 40.5,147.9531 Q41.1875,149.0156 42.5313,149.0156 Q43.1563,149.0156 43.75,148.75 Q44.3438,148.4688 44.9688,147.8906 L44.9688,150.6094 Z " fill="#000000"/><text fill="#000000" font-family="sans-serif" font-size="14" lengthAdjust="spacing" textLength="112" x="56" y="143.9951">LoginApplication</text><text fill="#000000" font-family="sans-serif" font-size="10" lengthAdjust="spacing" textLength="86" x="69" y="156.5791">org.example.view</text><line style="stroke:#A80036;stroke-width:1.5;" x1="28" x2="170" y1="163.9375" y2="163.9375"/><ellipse cx="38" cy="174.9375" fill="#84BE84" rx="3" ry="3" style="stroke:#038048;stroke-width:1.0;"/><text fill="#000000" font-family="sans-serif" font-size="11" lengthAdjust="spacing" textLength="99" x="47" y="178.1479">start(Stage): void</text><ellipse cx="38" cy="187.7422" fill="#84BE84" rx="3" ry="3" style="stroke:#038048;stroke-width:1.0;"/><text fill="#000000" font-family="sans-serif" font-size="11" lengthAdjust="spacing" text-decoration="underline" textLength="109" x="47" y="190.9526">main(String[]): void</text></a><!--MD5=[e3612552781b2b3849880f2b7cc3064d]
class javafx.application.Application--><rect codeLine="10" fill="#FEFECE" filter="url(#f1k4xv059mo8ch)" height="58.7422" id="javafx.application.Application" style="stroke:#A80036;stroke-width:1.5;" width="124" x="37" y="7"/><ellipse cx="53.35" cy="25.9688" fill="#A9DCDF" rx="11" ry="11" style="stroke:#A80036;stroke-width:1.0;"/><path d="M53.4594,21.3125 L52.3031,26.3906 L54.6313,26.3906 L53.4594,21.3125 Z M51.975,19.0781 L54.9594,19.0781 L58.3188,31.4688 L55.8656,31.4688 L55.1,28.4063 L51.8188,28.4063 L51.0688,31.4688 L48.6313,31.4688 L51.975,19.0781 Z " fill="#000000"/><text fill="#000000" font-family="sans-serif" font-size="14" font-style="italic" lengthAdjust="spacing" textLength="76" x="74.15" y="24.9951">Application</text><text fill="#000000" font-family="sans-serif" font-size="10" font-style="italic" lengthAdjust="spacing" textLength="89" x="67.65" y="37.5791">javafx.application</text><line style="stroke:#A80036;stroke-width:1.5;" x1="38" x2="160" y1="44.9375" y2="44.9375"/><ellipse cx="48" cy="55.9375" fill="#84BE84" rx="3" ry="3" style="stroke:#038048;stroke-width:1.0;"/><text fill="#000000" font-family="sans-serif" font-size="11" font-style="italic" lengthAdjust="spacing" textLength="98" x="57" y="59.1479">start(Stage): void</text><!--MD5=[b8091e2cb816a7acb1f71bfdcc26d036]
reverse link javafx.application.Application to org.example.view.LoginApplication--><path codeLine="14" d="M99,86.46 C99,99.64 99,113.64 99,125.9 " fill="none" id="javafx.application.Application-backto-org.example.view.LoginApplication" style="stroke:#A80036;stroke-width:1.0;"/><polygon fill="none" points="92,86.14,99,66.14,106,86.14,92,86.14" style="stroke:#A80036;stroke-width:1.0;"/><text fill="#888888" font-family="sans-serif" font-size="10" lengthAdjust="spacing" textLength="192" x="0" y="219.8291">UMLDoclet 2.0.15, PlantUML 1.2021.13</text><!--MD5=[f1b8b7ccb05d505aabcb49ec4a6b6260]
@startuml
    set namespaceSeparator none
    hide empty fields
    hide empty methods

    class "<size:14>LoginApplication\n<size:10>org.example.view" as org.example.view.LoginApplication [[LoginApplication.html]] {
        +start(Stage): void
        {static} +main(String[]): void
    }

    abstract class "<size:14>Application\n<size:10>javafx.application" as javafx.application.Application {
        {abstract} +start(Stage): void
    }

    javafx.application.Application <|- - org.example.view.LoginApplication

    center footer UMLDoclet 2.0.15, PlantUML 1.2021.13
@enduml

PlantUML version 1.2021.13(Mon Nov 01 11:38:45 UTC 2021)
(APACHE source distribution)
Java Runtime: OpenJDK Runtime Environment
JVM: OpenJDK 64-Bit Server VM
Default Encoding: UTF-8
Language: en
Country: null
--></g></svg>