<?xml version="1.0" encoding="UTF-8" standalone="no"?><svg xmlns="http://www.w3.org/2000/svg" xmlns:xlink="http://www.w3.org/1999/xlink" contentScriptType="application/ecmascript" contentStyleType="text/css" height="207px" preserveAspectRatio="none" style="width:229px;height:207px;background:#FFFFFF;" version="1.1" viewBox="0 0 229 207" width="229px" zoomAndPan="magnify"><defs><filter height="300%" id="f19chqv771qzrn" width="300%" x="-1" y="-1"><feGaussianBlur result="blurOut" stdDeviation="2.0"/><feColorMatrix in="blurOut" result="blurOut2" type="matrix" values="0 0 0 0 0 0 0 0 0 0 0 0 0 0 0 0 0 0 .4 0"/><feOffset dx="4.0" dy="4.0" in="blurOut2" result="blurOut3"/><feBlend in="SourceGraphic" in2="blurOut3" mode="normal"/></filter></defs><g><!--MD5=[786e9bd9e4662a8df7ca46e35ce250e0]
class org.example.view.MessageObject--><a href="MessageObject.html" target="_top" title="MessageObject.html" xlink:actuate="onRequest" xlink:href="MessageObject.html" xlink:show="new" xlink:title="MessageObject.html" xlink:type="simple"><rect codeLine="5" fill="#FEFECE" filter="url(#f19chqv771qzrn)" height="71.5469" id="org.example.view.MessageObject" style="stroke:#A80036;stroke-width:1.5;" width="208" x="7" y="105"/><ellipse cx="52.75" cy="123.9688" fill="#ADD1B2" rx="11" ry="11" style="stroke:#A80036;stroke-width:1.0;"/><path d="M55.7188,129.6094 Q55.1406,129.9063 54.5,130.0469 Q53.8594,130.2031 53.1563,130.2031 Q50.6563,130.2031 49.3281,128.5625 Q48.0156,126.9063 48.0156,123.7813 Q48.0156,120.6563 49.3281,119 Q50.6563,117.3438 53.1563,117.3438 Q53.8594,117.3438 54.5,117.5 Q55.1563,117.6563 55.7188,117.9531 L55.7188,120.6719 Q55.0938,120.0938 54.5,119.8281 Q53.9063,119.5469 53.2813,119.5469 Q51.9375,119.5469 51.25,120.625 Q50.5625,121.6875 50.5625,123.7813 Q50.5625,125.875 51.25,126.9531 Q51.9375,128.0156 53.2813,128.0156 Q53.9063,128.0156 54.5,127.75 Q55.0938,127.4688 55.7188,126.8906 L55.7188,129.6094 Z " fill="#000000"/><text fill="#000000" font-family="sans-serif" font-size="14" lengthAdjust="spacing" textLength="108" x="73.25" y="122.9951">MessageObject</text><text fill="#000000" font-family="sans-serif" font-size="10" lengthAdjust="spacing" textLength="86" x="84.25" y="135.5791">org.example.view</text><line style="stroke:#A80036;stroke-width:1.5;" x1="8" x2="214" y1="142.9375" y2="142.9375"/><ellipse cx="18" cy="153.9375" fill="#84BE84" rx="3" ry="3" style="stroke:#038048;stroke-width:1.0;"/><text fill="#000000" font-family="sans-serif" font-size="11" lengthAdjust="spacing" textLength="182" x="27" y="157.1479">MessageObject(String, boolean)</text><ellipse cx="18" cy="166.7422" fill="#84BE84" rx="3" ry="3" style="stroke:#038048;stroke-width:1.0;"/><text fill="#000000" font-family="sans-serif" font-size="11" lengthAdjust="spacing" textLength="152" x="27" y="169.9526">getValue(): MessageObject</text></a><!--MD5=[c40901c3b4f30b6aba80a64e3806452b]
class javafx.scene.layout.BorderPane--><rect codeLine="10" fill="#FEFECE" filter="url(#f19chqv771qzrn)" height="37.9375" id="javafx.scene.layout.BorderPane" style="stroke:#A80036;stroke-width:1.5;" width="126" x="48" y="7"/><ellipse cx="63" cy="25.9688" fill="#ADD1B2" rx="11" ry="11" style="stroke:#A80036;stroke-width:1.0;"/><path d="M65.9688,31.6094 Q65.3906,31.9063 64.75,32.0469 Q64.1094,32.2031 63.4063,32.2031 Q60.9063,32.2031 59.5781,30.5625 Q58.2656,28.9063 58.2656,25.7813 Q58.2656,22.6563 59.5781,21 Q60.9063,19.3438 63.4063,19.3438 Q64.1094,19.3438 64.75,19.5 Q65.4063,19.6563 65.9688,19.9531 L65.9688,22.6719 Q65.3438,22.0938 64.75,21.8281 Q64.1563,21.5469 63.5313,21.5469 Q62.1875,21.5469 61.5,22.625 Q60.8125,23.6875 60.8125,25.7813 Q60.8125,27.875 61.5,28.9531 Q62.1875,30.0156 63.5313,30.0156 Q64.1563,30.0156 64.75,29.75 Q65.3438,29.4688 65.9688,28.8906 L65.9688,31.6094 Z " fill="#000000"/><text fill="#000000" font-family="sans-serif" font-size="14" lengthAdjust="spacing" textLength="82" x="83" y="24.9951">BorderPane</text><text fill="#000000" font-family="sans-serif" font-size="10" lengthAdjust="spacing" textLength="94" x="77" y="37.5791">javafx.scene.layout</text><!--MD5=[fa9c2fa76ac6766fd20e6757bf082914]
reverse link javafx.scene.layout.BorderPane to org.example.view.MessageObject--><path codeLine="12" d="M111,65.3 C111,78 111,92.08 111,104.56 " fill="none" id="javafx.scene.layout.BorderPane-backto-org.example.view.MessageObject" style="stroke:#A80036;stroke-width:1.0;"/><polygon fill="none" points="104,65.16,111,45.16,118,65.16,104,65.16" style="stroke:#A80036;stroke-width:1.0;"/><text fill="#888888" font-family="sans-serif" font-size="10" lengthAdjust="spacing" textLength="192" x="12" y="198.8291">UMLDoclet 2.0.15, PlantUML 1.2021.13</text><!--MD5=[73bec38f695998761199849c8bd5830d]
@startuml
    set namespaceSeparator none
    hide empty fields
    hide empty methods

    class "<size:14>MessageObject\n<size:10>org.example.view" as org.example.view.MessageObject [[MessageObject.html]] {
        +MessageObject(String, boolean)
        +getValue(): MessageObject
    }

    class "<size:14>BorderPane\n<size:10>javafx.scene.layout" as javafx.scene.layout.BorderPane

    javafx.scene.layout.BorderPane <|- - org.example.view.MessageObject

    center footer UMLDoclet 2.0.15, PlantUML 1.2021.13
@enduml

PlantUML version 1.2021.13(Mon Nov 01 11:38:45 UTC 2021)
(APACHE source distribution)
Java Runtime: OpenJDK Runtime Environment
JVM: OpenJDK 64-Bit Server VM
Default Encoding: UTF-8
Language: en
Country: null
--></g></svg>