<?xml version="1.0" encoding="UTF-8" standalone="no"?><svg xmlns="http://www.w3.org/2000/svg" xmlns:xlink="http://www.w3.org/1999/xlink" contentScriptType="application/ecmascript" contentStyleType="text/css" height="679px" preserveAspectRatio="none" style="width:1985px;height:679px;background:#FFFFFF;" version="1.1" viewBox="0 0 1985 679" width="1985px" zoomAndPan="magnify"><defs><filter height="300%" id="f1wkovzj9dbq6e" width="300%" x="-1" y="-1"><feGaussianBlur result="blurOut" stdDeviation="2.0"/><feColorMatrix in="blurOut" result="blurOut2" type="matrix" values="0 0 0 0 0 0 0 0 0 0 0 0 0 0 0 0 0 0 .4 0"/><feOffset dx="4.0" dy="4.0" in="blurOut2" result="blurOut3"/><feBlend in="SourceGraphic" in2="blurOut3" mode="normal"/></filter></defs><g><!--MD5=[38e62b6a54dfcc9d7a07516cbc1369b6]
cluster org.example.view--><polygon fill="#FFFFFF" filter="url(#f1wkovzj9dbq6e)" points="16,176,162,176,169,198.2969,1968,198.2969,1968,656,16,656,16,176" style="stroke:#000000;stroke-width:1.5;"/><line style="stroke:#000000;stroke-width:1.5;" x1="16" x2="169" y1="198.2969" y2="198.2969"/><text fill="#000000" font-family="sans-serif" font-size="14" font-weight="bold" lengthAdjust="spacing" textLength="140" x="20" y="190.9951">org.example.view</text><!--MD5=[b607c642081a2d8f595146bd9f7a12c9]
cluster javafx.scene.layout--><polygon fill="#FFFFFF" filter="url(#f1wkovzj9dbq6e)" points="180,25,338,25,345,47.2969,348,47.2969,348,124,180,124,180,25" style="stroke:#000000;stroke-width:1.5;"/><line style="stroke:#000000;stroke-width:1.5;" x1="180" x2="345" y1="47.2969" y2="47.2969"/><text fill="#000000" font-family="sans-serif" font-size="14" font-weight="bold" lengthAdjust="spacing" textLength="152" x="184" y="39.9951">javafx.scene.layout</text><!--MD5=[315bf7c36bcdbdaee5bb7549ab6e8767]
cluster javafx.application--><polygon fill="#FFFFFF" filter="url(#f1wkovzj9dbq6e)" points="924,6,1066,6,1073,28.2969,1150,28.2969,1150,143,924,143,924,6" style="stroke:#000000;stroke-width:1.5;"/><line style="stroke:#000000;stroke-width:1.5;" x1="924" x2="1073" y1="28.2969" y2="28.2969"/><text fill="#000000" font-family="sans-serif" font-size="14" font-weight="bold" lengthAdjust="spacing" textLength="136" x="928" y="20.9951">javafx.application</text><!--MD5=[786e9bd9e4662a8df7ca46e35ce250e0]
class org.example.view.MessageObject--><a href="MessageObject.html" target="_top" title="MessageObject.html" xlink:actuate="onRequest" xlink:href="MessageObject.html" xlink:show="new" xlink:title="MessageObject.html" xlink:type="simple"><rect codeLine="3" fill="#FEFECE" filter="url(#f1wkovzj9dbq6e)" height="60.8047" id="org.example.view.MessageObject" style="stroke:#A80036;stroke-width:1.5;" width="208" x="32" y="236.5"/><ellipse cx="83.75" cy="252.5" fill="#ADD1B2" rx="11" ry="11" style="stroke:#A80036;stroke-width:1.0;"/><path d="M86.7188,258.1406 Q86.1406,258.4375 85.5,258.5781 Q84.8594,258.7344 84.1563,258.7344 Q81.6563,258.7344 80.3281,257.0938 Q79.0156,255.4375 79.0156,252.3125 Q79.0156,249.1875 80.3281,247.5313 Q81.6563,245.875 84.1563,245.875 Q84.8594,245.875 85.5,246.0313 Q86.1563,246.1875 86.7188,246.4844 L86.7188,249.2031 Q86.0938,248.625 85.5,248.3594 Q84.9063,248.0781 84.2813,248.0781 Q82.9375,248.0781 82.25,249.1563 Q81.5625,250.2188 81.5625,252.3125 Q81.5625,254.4063 82.25,255.4844 Q82.9375,256.5469 84.2813,256.5469 Q84.9063,256.5469 85.5,256.2813 Q86.0938,256 86.7188,255.4219 L86.7188,258.1406 Z " fill="#000000"/><text fill="#000000" font-family="sans-serif" font-size="12" lengthAdjust="spacing" textLength="96" x="104.25" y="256.6543">MessageObject</text><line style="stroke:#A80036;stroke-width:1.5;" x1="33" x2="239" y1="268.5" y2="268.5"/><line style="stroke:#A80036;stroke-width:1.5;" x1="33" x2="239" y1="276.5" y2="276.5"/><ellipse cx="43" cy="287.5" fill="#84BE84" rx="3" ry="3" style="stroke:#038048;stroke-width:1.0;"/><text fill="#000000" font-family="sans-serif" font-size="11" lengthAdjust="spacing" textLength="182" x="52" y="290.7104">MessageObject(String, boolean)</text></a><!--MD5=[12b774eafa08bbdd114c276b44733c67]
class org.example.view.ErrorController--><a href="ErrorController.html" target="_top" title="ErrorController.html" xlink:actuate="onRequest" xlink:href="ErrorController.html" xlink:show="new" xlink:title="ErrorController.html" xlink:type="simple"><rect codeLine="7" fill="#FEFECE" filter="url(#f1wkovzj9dbq6e)" height="86.4141" id="org.example.view.ErrorController" style="stroke:#A80036;stroke-width:1.5;" width="192" x="1519" y="224"/><ellipse cx="1564.75" cy="240" fill="#ADD1B2" rx="11" ry="11" style="stroke:#A80036;stroke-width:1.0;"/><path d="M1567.7188,245.6406 Q1567.1406,245.9375 1566.5,246.0781 Q1565.8594,246.2344 1565.1563,246.2344 Q1562.6563,246.2344 1561.3281,244.5938 Q1560.0156,242.9375 1560.0156,239.8125 Q1560.0156,236.6875 1561.3281,235.0313 Q1562.6563,233.375 1565.1563,233.375 Q1565.8594,233.375 1566.5,233.5313 Q1567.1563,233.6875 1567.7188,233.9844 L1567.7188,236.7031 Q1567.0938,236.125 1566.5,235.8594 Q1565.9063,235.5781 1565.2813,235.5781 Q1563.9375,235.5781 1563.25,236.6563 Q1562.5625,237.7188 1562.5625,239.8125 Q1562.5625,241.9063 1563.25,242.9844 Q1563.9375,244.0469 1565.2813,244.0469 Q1565.9063,244.0469 1566.5,243.7813 Q1567.0938,243.5 1567.7188,242.9219 L1567.7188,245.6406 Z " fill="#000000"/><text fill="#000000" font-family="sans-serif" font-size="12" lengthAdjust="spacing" textLength="92" x="1585.25" y="244.1543">ErrorController</text><line style="stroke:#A80036;stroke-width:1.5;" x1="1520" x2="1710" y1="256" y2="256"/><line style="stroke:#A80036;stroke-width:1.5;" x1="1520" x2="1710" y1="264" y2="264"/><ellipse cx="1530" cy="275" fill="#84BE84" rx="3" ry="3" style="stroke:#038048;stroke-width:1.0;"/><text fill="#000000" font-family="sans-serif" font-size="11" lengthAdjust="spacing" textLength="166" x="1539" y="278.2104">setCurrentStage(Stage): void</text><ellipse cx="1530" cy="287.8047" fill="#84BE84" rx="3" ry="3" style="stroke:#038048;stroke-width:1.0;"/><text fill="#000000" font-family="sans-serif" font-size="11" lengthAdjust="spacing" textLength="160" x="1539" y="291.0151">setParentStage(Stage): void</text><ellipse cx="1530" cy="300.6094" fill="#84BE84" rx="3" ry="3" style="stroke:#038048;stroke-width:1.0;"/><text fill="#000000" font-family="sans-serif" font-size="11" lengthAdjust="spacing" textLength="144" x="1539" y="303.8198">setErrorText(String): void</text></a><!--MD5=[b8bdf665a99fbd44f9e9193c7c5fc146]
class org.example.view.LoginApplication--><a href="LoginApplication.html" target="_top" title="LoginApplication.html" xlink:actuate="onRequest" xlink:href="LoginApplication.html" xlink:show="new" xlink:title="LoginApplication.html" xlink:type="simple"><rect codeLine="13" fill="#FEFECE" filter="url(#f1wkovzj9dbq6e)" height="73.6094" id="org.example.view.LoginApplication" style="stroke:#A80036;stroke-width:1.5;" width="135" x="688.5" y="230"/><ellipse cx="703.95" cy="246" fill="#ADD1B2" rx="11" ry="11" style="stroke:#A80036;stroke-width:1.0;"/><path d="M706.9188,251.6406 Q706.3406,251.9375 705.7,252.0781 Q705.0594,252.2344 704.3563,252.2344 Q701.8563,252.2344 700.5281,250.5938 Q699.2156,248.9375 699.2156,245.8125 Q699.2156,242.6875 700.5281,241.0313 Q701.8563,239.375 704.3563,239.375 Q705.0594,239.375 705.7,239.5313 Q706.3563,239.6875 706.9188,239.9844 L706.9188,242.7031 Q706.2938,242.125 705.7,241.8594 Q705.1063,241.5781 704.4813,241.5781 Q703.1375,241.5781 702.45,242.6563 Q701.7625,243.7188 701.7625,245.8125 Q701.7625,247.9063 702.45,248.9844 Q703.1375,250.0469 704.4813,250.0469 Q705.1063,250.0469 705.7,249.7813 Q706.2938,249.5 706.9188,248.9219 L706.9188,251.6406 Z " fill="#000000"/><text fill="#000000" font-family="sans-serif" font-size="12" lengthAdjust="spacing" textLength="102" x="718.05" y="250.1543">LoginApplication</text><line style="stroke:#A80036;stroke-width:1.5;" x1="689.5" x2="822.5" y1="262" y2="262"/><line style="stroke:#A80036;stroke-width:1.5;" x1="689.5" x2="822.5" y1="270" y2="270"/><ellipse cx="699.5" cy="281" fill="#84BE84" rx="3" ry="3" style="stroke:#038048;stroke-width:1.0;"/><text fill="#000000" font-family="sans-serif" font-size="11" lengthAdjust="spacing" textLength="99" x="708.5" y="284.2104">start(Stage): void</text><ellipse cx="699.5" cy="293.8047" fill="#84BE84" rx="3" ry="3" style="stroke:#038048;stroke-width:1.0;"/><text fill="#000000" font-family="sans-serif" font-size="11" lengthAdjust="spacing" text-decoration="underline" textLength="109" x="708.5" y="297.0151">main(String[]): void</text></a><!--MD5=[3d9fd9cb52d61128024e2a3ee4e2221d]
class org.example.view.LoginController--><a href="LoginController.html" target="_top" title="LoginController.html" xlink:actuate="onRequest" xlink:href="LoginController.html" xlink:show="new" xlink:title="LoginController.html" xlink:type="simple"><rect codeLine="18" fill="#FEFECE" filter="url(#f1wkovzj9dbq6e)" height="112.0234" id="org.example.view.LoginController" style="stroke:#A80036;stroke-width:1.5;" width="206" x="1746" y="211"/><ellipse cx="1797.75" cy="227" fill="#ADD1B2" rx="11" ry="11" style="stroke:#A80036;stroke-width:1.0;"/><path d="M1800.7188,232.6406 Q1800.1406,232.9375 1799.5,233.0781 Q1798.8594,233.2344 1798.1563,233.2344 Q1795.6563,233.2344 1794.3281,231.5938 Q1793.0156,229.9375 1793.0156,226.8125 Q1793.0156,223.6875 1794.3281,222.0313 Q1795.6563,220.375 1798.1563,220.375 Q1798.8594,220.375 1799.5,220.5313 Q1800.1563,220.6875 1800.7188,220.9844 L1800.7188,223.7031 Q1800.0938,223.125 1799.5,222.8594 Q1798.9063,222.5781 1798.2813,222.5781 Q1796.9375,222.5781 1796.25,223.6563 Q1795.5625,224.7188 1795.5625,226.8125 Q1795.5625,228.9063 1796.25,229.9844 Q1796.9375,231.0469 1798.2813,231.0469 Q1798.9063,231.0469 1799.5,230.7813 Q1800.0938,230.5 1800.7188,229.9219 L1800.7188,232.6406 Z " fill="#000000"/><text fill="#000000" font-family="sans-serif" font-size="12" lengthAdjust="spacing" textLength="94" x="1818.25" y="231.1543">LoginController</text><line style="stroke:#A80036;stroke-width:1.5;" x1="1747" x2="1951" y1="243" y2="243"/><ellipse cx="1757" cy="254" rx="3" ry="3" style="stroke:#038048;stroke-width:1.0;fill:none;"/><text fill="#000000" font-family="sans-serif" font-size="11" lengthAdjust="spacing" textLength="109" x="1766" y="257.2104">loginText: TextField</text><line style="stroke:#A80036;stroke-width:1.5;" x1="1747" x2="1951" y1="263.8047" y2="263.8047"/><ellipse cx="1757" cy="274.8047" fill="#84BE84" rx="3" ry="3" style="stroke:#038048;stroke-width:1.0;"/><text fill="#000000" font-family="sans-serif" font-size="11" lengthAdjust="spacing" textLength="123" x="1766" y="278.0151">setStage(Stage): void</text><ellipse cx="1757" cy="287.6094" fill="#84BE84" rx="3" ry="3" style="stroke:#038048;stroke-width:1.0;"/><text fill="#000000" font-family="sans-serif" font-size="11" lengthAdjust="spacing" textLength="180" x="1766" y="290.8198">startSession(MouseEvent): void</text><ellipse cx="1757" cy="300.4141" fill="#84BE84" rx="3" ry="3" style="stroke:#038048;stroke-width:1.0;"/><text fill="#000000" font-family="sans-serif" font-size="11" lengthAdjust="spacing" textLength="167" x="1766" y="303.6245">validateOK(MouseEvent): void</text><ellipse cx="1757" cy="313.2188" fill="#84BE84" rx="3" ry="3" style="stroke:#038048;stroke-width:1.0;"/><text fill="#000000" font-family="sans-serif" font-size="11" lengthAdjust="spacing" textLength="147" x="1766" y="316.4292">loginEnter(KeyEvent): void</text></a><!--MD5=[307df60095353f45f3b2a1044e4647ef]
class org.example.view.HelloApplication--><a href="HelloApplication.html" target="_top" title="HelloApplication.html" xlink:actuate="onRequest" xlink:href="HelloApplication.html" xlink:show="new" xlink:title="HelloApplication.html" xlink:type="simple"><rect codeLine="26" fill="#FEFECE" filter="url(#f1wkovzj9dbq6e)" height="86.4141" id="org.example.view.HelloApplication" style="stroke:#A80036;stroke-width:1.5;" width="157" x="858.5" y="224"/><ellipse cx="884.75" cy="240" fill="#ADD1B2" rx="11" ry="11" style="stroke:#A80036;stroke-width:1.0;"/><path d="M887.7188,245.6406 Q887.1406,245.9375 886.5,246.0781 Q885.8594,246.2344 885.1563,246.2344 Q882.6563,246.2344 881.3281,244.5938 Q880.0156,242.9375 880.0156,239.8125 Q880.0156,236.6875 881.3281,235.0313 Q882.6563,233.375 885.1563,233.375 Q885.8594,233.375 886.5,233.5313 Q887.1563,233.6875 887.7188,233.9844 L887.7188,236.7031 Q887.0938,236.125 886.5,235.8594 Q885.9063,235.5781 885.2813,235.5781 Q883.9375,235.5781 883.25,236.6563 Q882.5625,237.7188 882.5625,239.8125 Q882.5625,241.9063 883.25,242.9844 Q883.9375,244.0469 885.2813,244.0469 Q885.9063,244.0469 886.5,243.7813 Q887.0938,243.5 887.7188,242.9219 L887.7188,245.6406 Z " fill="#000000"/><text fill="#000000" font-family="sans-serif" font-size="12" lengthAdjust="spacing" textLength="100" x="901.25" y="244.1543">HelloApplication</text><line style="stroke:#A80036;stroke-width:1.5;" x1="859.5" x2="1014.5" y1="256" y2="256"/><line style="stroke:#A80036;stroke-width:1.5;" x1="859.5" x2="1014.5" y1="264" y2="264"/><ellipse cx="869.5" cy="275" fill="#84BE84" rx="3" ry="3" style="stroke:#038048;stroke-width:1.0;"/><text fill="#000000" font-family="sans-serif" font-size="11" lengthAdjust="spacing" textLength="131" x="878.5" y="278.2104">HelloApplication(String)</text><ellipse cx="869.5" cy="287.8047" fill="#84BE84" rx="3" ry="3" style="stroke:#038048;stroke-width:1.0;"/><text fill="#000000" font-family="sans-serif" font-size="11" lengthAdjust="spacing" textLength="99" x="878.5" y="291.0151">start(Stage): void</text><ellipse cx="869.5" cy="300.6094" fill="#84BE84" rx="3" ry="3" style="stroke:#038048;stroke-width:1.0;"/><text fill="#000000" font-family="sans-serif" font-size="11" lengthAdjust="spacing" text-decoration="underline" textLength="109" x="878.5" y="303.8198">main(String[]): void</text></a><!--MD5=[4ec5769ec027dc92bf2cefde2bb23360]
class org.example.view.ChangeUsernameController--><a href="ChangeUsernameController.html" target="_top" title="ChangeUsernameController.html" xlink:actuate="onRequest" xlink:href="ChangeUsernameController.html" xlink:show="new" xlink:title="ChangeUsernameController.html" xlink:type="simple"><rect codeLine="32" fill="#FEFECE" filter="url(#f1wkovzj9dbq6e)" height="137.6328" id="org.example.view.ChangeUsernameController" style="stroke:#A80036;stroke-width:1.5;" width="229" x="1500.5" y="451"/><ellipse cx="1526.3" cy="467" fill="#ADD1B2" rx="11" ry="11" style="stroke:#A80036;stroke-width:1.0;"/><path d="M1529.2688,472.6406 Q1528.6906,472.9375 1528.05,473.0781 Q1527.4094,473.2344 1526.7063,473.2344 Q1524.2063,473.2344 1522.8781,471.5938 Q1521.5656,469.9375 1521.5656,466.8125 Q1521.5656,463.6875 1522.8781,462.0313 Q1524.2063,460.375 1526.7063,460.375 Q1527.4094,460.375 1528.05,460.5313 Q1528.7063,460.6875 1529.2688,460.9844 L1529.2688,463.7031 Q1528.6438,463.125 1528.05,462.8594 Q1527.4563,462.5781 1526.8313,462.5781 Q1525.4875,462.5781 1524.8,463.6563 Q1524.1125,464.7188 1524.1125,466.8125 Q1524.1125,468.9063 1524.8,469.9844 Q1525.4875,471.0469 1526.8313,471.0469 Q1527.4563,471.0469 1528.05,470.7813 Q1528.6438,470.5 1529.2688,469.9219 L1529.2688,472.6406 Z " fill="#000000"/><text fill="#000000" font-family="sans-serif" font-size="12" lengthAdjust="spacing" textLength="173" x="1542.7" y="471.1543">ChangeUsernameController</text><line style="stroke:#A80036;stroke-width:1.5;" x1="1501.5" x2="1728.5" y1="483" y2="483"/><ellipse cx="1511.5" cy="494" rx="3" ry="3" style="stroke:#038048;stroke-width:1.0;fill:none;"/><text fill="#000000" font-family="sans-serif" font-size="11" lengthAdjust="spacing" textLength="91" x="1520.5" y="497.2104">myStage: Stage</text><ellipse cx="1511.5" cy="506.8047" rx="3" ry="3" style="stroke:#038048;stroke-width:1.0;fill:none;"/><text fill="#000000" font-family="sans-serif" font-size="11" lengthAdjust="spacing" textLength="111" x="1520.5" y="510.0151">parentStage: Stage</text><ellipse cx="1511.5" cy="519.6094" rx="3" ry="3" style="stroke:#038048;stroke-width:1.0;fill:none;"/><text fill="#000000" font-family="sans-serif" font-size="11" lengthAdjust="spacing" textLength="159" x="1520.5" y="522.8198">usernameChange: TextField</text><line style="stroke:#A80036;stroke-width:1.5;" x1="1501.5" x2="1728.5" y1="529.4141" y2="529.4141"/><ellipse cx="1511.5" cy="540.4141" fill="#84BE84" rx="3" ry="3" style="stroke:#038048;stroke-width:1.0;"/><text fill="#000000" font-family="sans-serif" font-size="11" lengthAdjust="spacing" textLength="164" x="1520.5" y="543.6245">setStage(Stage, Stage): void</text><ellipse cx="1511.5" cy="553.2188" fill="#84BE84" rx="3" ry="3" style="stroke:#038048;stroke-width:1.0;"/><text fill="#000000" font-family="sans-serif" font-size="11" lengthAdjust="spacing" textLength="196" x="1520.5" y="556.4292">tryStartSession(MouseEvent): void</text><ellipse cx="1511.5" cy="566.0234" fill="#84BE84" rx="3" ry="3" style="stroke:#038048;stroke-width:1.0;"/><text fill="#000000" font-family="sans-serif" font-size="11" lengthAdjust="spacing" textLength="189" x="1520.5" y="569.2339">validateCancel(MouseEvent): void</text><ellipse cx="1511.5" cy="578.8281" fill="#84BE84" rx="3" ry="3" style="stroke:#038048;stroke-width:1.0;"/><text fill="#000000" font-family="sans-serif" font-size="11" lengthAdjust="spacing" textLength="203" x="1520.5" y="582.0386">changePseudoEnter(KeyEvent): void</text></a><!--MD5=[e5cdd4fed6b5b752bc096b3544cafd9f]
class org.example.view.ErrorDialog--><a href="ErrorDialog.html" target="_top" title="ErrorDialog.html" xlink:actuate="onRequest" xlink:href="ErrorDialog.html" xlink:show="new" xlink:title="ErrorDialog.html" xlink:type="simple"><rect codeLine="42" fill="#FEFECE" filter="url(#f1wkovzj9dbq6e)" height="73.6094" id="org.example.view.ErrorDialog" style="stroke:#A80036;stroke-width:1.5;" width="173" x="1050.5" y="230"/><ellipse cx="1097.75" cy="246" fill="#ADD1B2" rx="11" ry="11" style="stroke:#A80036;stroke-width:1.0;"/><path d="M1100.7188,251.6406 Q1100.1406,251.9375 1099.5,252.0781 Q1098.8594,252.2344 1098.1563,252.2344 Q1095.6563,252.2344 1094.3281,250.5938 Q1093.0156,248.9375 1093.0156,245.8125 Q1093.0156,242.6875 1094.3281,241.0313 Q1095.6563,239.375 1098.1563,239.375 Q1098.8594,239.375 1099.5,239.5313 Q1100.1563,239.6875 1100.7188,239.9844 L1100.7188,242.7031 Q1100.0938,242.125 1099.5,241.8594 Q1098.9063,241.5781 1098.2813,241.5781 Q1096.9375,241.5781 1096.25,242.6563 Q1095.5625,243.7188 1095.5625,245.8125 Q1095.5625,247.9063 1096.25,248.9844 Q1096.9375,250.0469 1098.2813,250.0469 Q1098.9063,250.0469 1099.5,249.7813 Q1100.0938,249.5 1100.7188,248.9219 L1100.7188,251.6406 Z " fill="#000000"/><text fill="#000000" font-family="sans-serif" font-size="12" lengthAdjust="spacing" textLength="70" x="1118.25" y="250.1543">ErrorDialog</text><line style="stroke:#A80036;stroke-width:1.5;" x1="1051.5" x2="1222.5" y1="262" y2="262"/><line style="stroke:#A80036;stroke-width:1.5;" x1="1051.5" x2="1222.5" y1="270" y2="270"/><ellipse cx="1061.5" cy="281" fill="#84BE84" rx="3" ry="3" style="stroke:#038048;stroke-width:1.0;"/><text fill="#000000" font-family="sans-serif" font-size="11" lengthAdjust="spacing" textLength="147" x="1070.5" y="284.2104">ErrorDialog(String, Stage)</text><ellipse cx="1061.5" cy="293.8047" fill="#84BE84" rx="3" ry="3" style="stroke:#038048;stroke-width:1.0;"/><text fill="#000000" font-family="sans-serif" font-size="11" lengthAdjust="spacing" textLength="99" x="1070.5" y="297.0151">start(Stage): void</text></a><!--MD5=[859b2feec5ad1fca4e75755e5ed538c6]
class org.example.view.ChangeUsenameApplication--><a href="ChangeUsenameApplication.html" target="_top" title="ChangeUsenameApplication.html" xlink:actuate="onRequest" xlink:href="ChangeUsenameApplication.html" xlink:show="new" xlink:title="ChangeUsenameApplication.html" xlink:type="simple"><rect codeLine="47" fill="#FEFECE" filter="url(#f1wkovzj9dbq6e)" height="73.6094" id="org.example.view.ChangeUsenameApplication" style="stroke:#A80036;stroke-width:1.5;" width="225" x="1258.5" y="230"/><ellipse cx="1281.15" cy="246" fill="#ADD1B2" rx="11" ry="11" style="stroke:#A80036;stroke-width:1.0;"/><path d="M1284.1188,251.6406 Q1283.5406,251.9375 1282.9,252.0781 Q1282.2594,252.2344 1281.5563,252.2344 Q1279.0563,252.2344 1277.7281,250.5938 Q1276.4156,248.9375 1276.4156,245.8125 Q1276.4156,242.6875 1277.7281,241.0313 Q1279.0563,239.375 1281.5563,239.375 Q1282.2594,239.375 1282.9,239.5313 Q1283.5563,239.6875 1284.1188,239.9844 L1284.1188,242.7031 Q1283.4938,242.125 1282.9,241.8594 Q1282.3063,241.5781 1281.6813,241.5781 Q1280.3375,241.5781 1279.65,242.6563 Q1278.9625,243.7188 1278.9625,245.8125 Q1278.9625,247.9063 1279.65,248.9844 Q1280.3375,250.0469 1281.6813,250.0469 Q1282.3063,250.0469 1282.9,249.7813 Q1283.4938,249.5 1284.1188,248.9219 L1284.1188,251.6406 Z " fill="#000000"/><text fill="#000000" font-family="sans-serif" font-size="12" lengthAdjust="spacing" textLength="176" x="1296.85" y="250.1543">ChangeUsenameApplication</text><line style="stroke:#A80036;stroke-width:1.5;" x1="1259.5" x2="1482.5" y1="262" y2="262"/><line style="stroke:#A80036;stroke-width:1.5;" x1="1259.5" x2="1482.5" y1="270" y2="270"/><ellipse cx="1269.5" cy="281" fill="#84BE84" rx="3" ry="3" style="stroke:#038048;stroke-width:1.0;"/><text fill="#000000" font-family="sans-serif" font-size="11" lengthAdjust="spacing" textLength="199" x="1278.5" y="284.2104">ChangeUsenameApplication(Stage)</text><ellipse cx="1269.5" cy="293.8047" fill="#84BE84" rx="3" ry="3" style="stroke:#038048;stroke-width:1.0;"/><text fill="#000000" font-family="sans-serif" font-size="11" lengthAdjust="spacing" textLength="99" x="1278.5" y="297.0151">start(Stage): void</text></a><!--MD5=[9d609b6dbec09c0aaf50ef810ba36e4c]
class org.example.view.HelloController--><a href="HelloController.html" target="_top" title="HelloController.html" xlink:actuate="onRequest" xlink:href="HelloController.html" xlink:show="new" xlink:title="HelloController.html" xlink:type="simple"><rect codeLine="52" fill="#FEFECE" filter="url(#f1wkovzj9dbq6e)" height="240.0703" id="org.example.view.HelloController" style="stroke:#A80036;stroke-width:1.5;" width="296" x="789" y="400"/><ellipse cx="886.75" cy="416" fill="#ADD1B2" rx="11" ry="11" style="stroke:#A80036;stroke-width:1.0;"/><path d="M889.7188,421.6406 Q889.1406,421.9375 888.5,422.0781 Q887.8594,422.2344 887.1563,422.2344 Q884.6563,422.2344 883.3281,420.5938 Q882.0156,418.9375 882.0156,415.8125 Q882.0156,412.6875 883.3281,411.0313 Q884.6563,409.375 887.1563,409.375 Q887.8594,409.375 888.5,409.5313 Q889.1563,409.6875 889.7188,409.9844 L889.7188,412.7031 Q889.0938,412.125 888.5,411.8594 Q887.9063,411.5781 887.2813,411.5781 Q885.9375,411.5781 885.25,412.6563 Q884.5625,413.7188 884.5625,415.8125 Q884.5625,417.9063 885.25,418.9844 Q885.9375,420.0469 887.2813,420.0469 Q887.9063,420.0469 888.5,419.7813 Q889.0938,419.5 889.7188,418.9219 L889.7188,421.6406 Z " fill="#000000"/><text fill="#000000" font-family="sans-serif" font-size="12" lengthAdjust="spacing" textLength="92" x="907.25" y="420.1543">HelloController</text><line style="stroke:#A80036;stroke-width:1.5;" x1="790" x2="1084" y1="432" y2="432"/><ellipse cx="800" cy="443" rx="3" ry="3" style="stroke:#038048;stroke-width:1.0;fill:none;"/><text fill="#000000" font-family="sans-serif" font-size="11" lengthAdjust="spacing" textLength="151" x="809" y="446.2104">listPeopleConnected: VBox</text><ellipse cx="800" cy="455.8047" rx="3" ry="3" style="stroke:#038048;stroke-width:1.0;fill:none;"/><text fill="#000000" font-family="sans-serif" font-size="11" lengthAdjust="spacing" textLength="166" x="809" y="459.0151">messageSendField: TextArea</text><line style="stroke:#A80036;stroke-width:1.5;" x1="790" x2="1084" y1="465.6094" y2="465.6094"/><ellipse cx="800" cy="476.6094" fill="#84BE84" rx="3" ry="3" style="stroke:#038048;stroke-width:1.0;"/><text fill="#000000" font-family="sans-serif" font-size="11" lengthAdjust="spacing" textLength="169" x="809" y="479.8198">subscribeToObservers(): void</text><ellipse cx="800" cy="489.4141" fill="#84BE84" rx="3" ry="3" style="stroke:#038048;stroke-width:1.0;"/><text fill="#000000" font-family="sans-serif" font-size="11" lengthAdjust="spacing" textLength="107" x="809" y="492.6245">resubscribe(): void</text><ellipse cx="800" cy="502.2188" fill="#84BE84" rx="3" ry="3" style="stroke:#038048;stroke-width:1.0;"/><text fill="#000000" font-family="sans-serif" font-size="11" lengthAdjust="spacing" textLength="123" x="809" y="505.4292">setStage(Stage): void</text><ellipse cx="800" cy="515.0234" fill="#84BE84" rx="3" ry="3" style="stroke:#038048;stroke-width:1.0;"/><text fill="#000000" font-family="sans-serif" font-size="11" lengthAdjust="spacing" textLength="205" x="809" y="518.2339">addNewMessages(ScrollEvent): void</text><ellipse cx="800" cy="527.8281" fill="#84BE84" rx="3" ry="3" style="stroke:#038048;stroke-width:1.0;"/><text fill="#000000" font-family="sans-serif" font-size="11" lengthAdjust="spacing" textLength="179" x="809" y="531.0386">addMessage(MouseEvent): void</text><ellipse cx="800" cy="540.6328" fill="#84BE84" rx="3" ry="3" style="stroke:#038048;stroke-width:1.0;"/><text fill="#000000" font-family="sans-serif" font-size="11" lengthAdjust="spacing" textLength="192" x="809" y="543.8433">addNewPerson(MouseEvent): void</text><ellipse cx="800" cy="553.4375" fill="#84BE84" rx="3" ry="3" style="stroke:#038048;stroke-width:1.0;"/><text fill="#000000" font-family="sans-serif" font-size="11" lengthAdjust="spacing" textLength="212" x="809" y="556.6479">sendMessageClick(MouseEvent): void</text><ellipse cx="800" cy="566.2422" fill="#84BE84" rx="3" ry="3" style="stroke:#038048;stroke-width:1.0;"/><text fill="#000000" font-family="sans-serif" font-size="11" lengthAdjust="spacing" textLength="199" x="809" y="569.4526">sendMessageEnter(KeyEvent): void</text><ellipse cx="800" cy="579.0469" fill="#84BE84" rx="3" ry="3" style="stroke:#038048;stroke-width:1.0;"/><text fill="#000000" font-family="sans-serif" font-size="11" lengthAdjust="spacing" textLength="270" x="809" y="582.2573">goToChangeUsernameFrame(ActionEvent): void</text><ellipse cx="800" cy="591.8516" fill="#84BE84" rx="3" ry="3" style="stroke:#038048;stroke-width:1.0;"/><text fill="#000000" font-family="sans-serif" font-size="11" lengthAdjust="spacing" textLength="167" x="809" y="595.062">validateOK(MouseEvent): void</text><ellipse cx="800" cy="604.6563" fill="#84BE84" rx="3" ry="3" style="stroke:#038048;stroke-width:1.0;"/><text fill="#000000" font-family="sans-serif" font-size="11" lengthAdjust="spacing" textLength="147" x="809" y="607.8667">changeName(String): void</text><ellipse cx="800" cy="617.4609" fill="#84BE84" rx="3" ry="3" style="stroke:#038048;stroke-width:1.0;"/><text fill="#000000" font-family="sans-serif" font-size="11" lengthAdjust="spacing" textLength="128" x="809" y="620.6714">deleteUser(User): void</text><ellipse cx="800" cy="630.2656" fill="#84BE84" rx="3" ry="3" style="stroke:#038048;stroke-width:1.0;"/><text fill="#000000" font-family="sans-serif" font-size="11" lengthAdjust="spacing" textLength="176" x="809" y="633.4761">addAllDisconnectedUser(): void</text></a><!--MD5=[9a48167893d86b64cfda6e67fd4a9381]
class org.example.view.PersonObject--><a href="PersonObject.html" target="_top" title="PersonObject.html" xlink:actuate="onRequest" xlink:href="PersonObject.html" xlink:show="new" xlink:title="PersonObject.html" xlink:type="simple"><rect codeLine="70" fill="#FEFECE" filter="url(#f1wkovzj9dbq6e)" height="99.2188" id="org.example.view.PersonObject" style="stroke:#A80036;stroke-width:1.5;" width="250" x="339" y="217.5"/><ellipse cx="417.75" cy="233.5" fill="#ADD1B2" rx="11" ry="11" style="stroke:#A80036;stroke-width:1.0;"/><path d="M420.7188,239.1406 Q420.1406,239.4375 419.5,239.5781 Q418.8594,239.7344 418.1563,239.7344 Q415.6563,239.7344 414.3281,238.0938 Q413.0156,236.4375 413.0156,233.3125 Q413.0156,230.1875 414.3281,228.5313 Q415.6563,226.875 418.1563,226.875 Q418.8594,226.875 419.5,227.0313 Q420.1563,227.1875 420.7188,227.4844 L420.7188,230.2031 Q420.0938,229.625 419.5,229.3594 Q418.9063,229.0781 418.2813,229.0781 Q416.9375,229.0781 416.25,230.1563 Q415.5625,231.2188 415.5625,233.3125 Q415.5625,235.4063 416.25,236.4844 Q416.9375,237.5469 418.2813,237.5469 Q418.9063,237.5469 419.5,237.2813 Q420.0938,237 420.7188,236.4219 L420.7188,239.1406 Z " fill="#000000"/><text fill="#000000" font-family="sans-serif" font-size="12" lengthAdjust="spacing" textLength="84" x="438.25" y="237.6543">PersonObject</text><line style="stroke:#A80036;stroke-width:1.5;" x1="340" x2="588" y1="249.5" y2="249.5"/><line style="stroke:#A80036;stroke-width:1.5;" x1="340" x2="588" y1="257.5" y2="257.5"/><ellipse cx="350" cy="268.5" fill="#84BE84" rx="3" ry="3" style="stroke:#038048;stroke-width:1.0;"/><text fill="#000000" font-family="sans-serif" font-size="11" lengthAdjust="spacing" textLength="224" x="359" y="271.7104">PersonObject(ConnectedUser, boolean)</text><ellipse cx="350" cy="281.3047" fill="#84BE84" rx="3" ry="3" style="stroke:#038048;stroke-width:1.0;"/><text fill="#000000" font-family="sans-serif" font-size="11" lengthAdjust="spacing" textLength="127" x="359" y="284.5151">getUsername(): String</text><ellipse cx="350" cy="294.1094" fill="#84BE84" rx="3" ry="3" style="stroke:#038048;stroke-width:1.0;"/><text fill="#000000" font-family="sans-serif" font-size="11" lengthAdjust="spacing" textLength="88" x="359" y="297.3198">getUUID(): UUID</text><ellipse cx="350" cy="306.9141" fill="#84BE84" rx="3" ry="3" style="stroke:#038048;stroke-width:1.0;"/><text fill="#000000" font-family="sans-serif" font-size="11" lengthAdjust="spacing" textLength="208" x="359" y="310.1245">getConnectedUser(): ConnectedUser</text></a><!--MD5=[c40901c3b4f30b6aba80a64e3806452b]
class javafx.scene.layout.BorderPane--><rect codeLine="89" fill="#FEFECE" filter="url(#f1wkovzj9dbq6e)" height="48" id="javafx.scene.layout.BorderPane" style="stroke:#A80036;stroke-width:1.5;" width="106" x="211" y="60"/><ellipse cx="226" cy="76" fill="#ADD1B2" rx="11" ry="11" style="stroke:#A80036;stroke-width:1.0;"/><path d="M228.9688,81.6406 Q228.3906,81.9375 227.75,82.0781 Q227.1094,82.2344 226.4063,82.2344 Q223.9063,82.2344 222.5781,80.5938 Q221.2656,78.9375 221.2656,75.8125 Q221.2656,72.6875 222.5781,71.0313 Q223.9063,69.375 226.4063,69.375 Q227.1094,69.375 227.75,69.5313 Q228.4063,69.6875 228.9688,69.9844 L228.9688,72.7031 Q228.3438,72.125 227.75,71.8594 Q227.1563,71.5781 226.5313,71.5781 Q225.1875,71.5781 224.5,72.6563 Q223.8125,73.7188 223.8125,75.8125 Q223.8125,77.9063 224.5,78.9844 Q225.1875,80.0469 226.5313,80.0469 Q227.1563,80.0469 227.75,79.7813 Q228.3438,79.5 228.9688,78.9219 L228.9688,81.6406 Z " fill="#000000"/><text fill="#000000" font-family="sans-serif" font-size="12" lengthAdjust="spacing" textLength="74" x="240" y="80.1543">BorderPane</text><line style="stroke:#A80036;stroke-width:1.5;" x1="212" x2="316" y1="92" y2="92"/><line style="stroke:#A80036;stroke-width:1.5;" x1="212" x2="316" y1="100" y2="100"/><!--MD5=[e3612552781b2b3849880f2b7cc3064d]
class javafx.application.Application--><rect codeLine="94" fill="#FEFECE" filter="url(#f1wkovzj9dbq6e)" height="86.4141" id="javafx.application.Application" style="stroke:#A80036;stroke-width:1.5;" width="194" x="940" y="41"/><ellipse cx="998.25" cy="57" fill="#A9DCDF" rx="11" ry="11" style="stroke:#A80036;stroke-width:1.0;"/><path d="M998.3594,52.3438 L997.2031,57.4219 L999.5313,57.4219 L998.3594,52.3438 Z M996.875,50.1094 L999.8594,50.1094 L1003.2188,62.5 L1000.7656,62.5 L1000,59.4375 L996.7188,59.4375 L995.9688,62.5 L993.5313,62.5 L996.875,50.1094 Z " fill="#000000"/><text fill="#000000" font-family="sans-serif" font-size="12" font-style="italic" lengthAdjust="spacing" textLength="69" x="1018.75" y="61.1543">Application</text><line style="stroke:#A80036;stroke-width:1.5;" x1="941" x2="1133" y1="73" y2="73"/><ellipse cx="951" cy="84" rx="3" ry="3" style="stroke:#038048;stroke-width:1.0;fill:none;"/><text fill="#000000" font-family="sans-serif" font-size="11" lengthAdjust="spacing" text-decoration="underline" textLength="168" x="960" y="87.2104">STYLESHEET_CASPIAN: String</text><ellipse cx="951" cy="96.8047" rx="3" ry="3" style="stroke:#038048;stroke-width:1.0;fill:none;"/><text fill="#000000" font-family="sans-serif" font-size="11" lengthAdjust="spacing" text-decoration="underline" textLength="168" x="960" y="100.0151">STYLESHEET_MODENA: String</text><line style="stroke:#A80036;stroke-width:1.5;" x1="941" x2="1133" y1="106.6094" y2="106.6094"/><ellipse cx="951" cy="117.6094" fill="#84BE84" rx="3" ry="3" style="stroke:#038048;stroke-width:1.0;"/><text fill="#000000" font-family="sans-serif" font-size="11" font-style="italic" lengthAdjust="spacing" textLength="98" x="960" y="120.8198">start(Stage): void</text><!--MD5=[fa9c2fa76ac6766fd20e6757bf082914]
reverse link javafx.scene.layout.BorderPane to org.example.view.MessageObject--><path codeLine="77" d="M235.75,124.95 C211.91,158.66 178.33,206.15 156.86,236.5 " fill="none" id="javafx.scene.layout.BorderPane-backto-org.example.view.MessageObject" style="stroke:#A80036;stroke-width:1.0;"/><polygon fill="none" points="230.27,120.58,247.53,108.29,241.7,128.66,230.27,120.58" style="stroke:#A80036;stroke-width:1.0;"/><!--MD5=[1073afa82ea3b86dc342e988e065681e]
link org.example.view.MessageObject to org.example.view.MessageObject--><path codeLine="78" d="M240.26,250.16 C260.58,252.11 275,257.73 275,267 C275,275.47 262.95,280.89 245.36,283.26 " fill="none" id="org.example.view.MessageObject-to-org.example.view.MessageObject" style="stroke:#A80036;stroke-width:1.0;"/><polygon fill="#A80036" points="240.26,283.84,249.6579,286.7861,245.2273,283.269,248.7444,278.8384,240.26,283.84" style="stroke:#A80036;stroke-width:1.0;"/><text fill="#000000" font-family="sans-serif" font-size="13" lengthAdjust="spacing" textLength="34" x="281" y="271.5669">value</text><!--MD5=[b8091e2cb816a7acb1f71bfdcc26d036]
reverse link javafx.application.Application to org.example.view.LoginApplication--><path codeLine="79" d="M921.42,123.65 C893.75,135.62 865.22,150.4 841,168 C817.68,184.95 796.43,209.45 781.01,229.71 " fill="none" id="javafx.application.Application-backto-org.example.view.LoginApplication" style="stroke:#A80036;stroke-width:1.0;"/><polygon fill="none" points="918.75,117.18,939.91,116,924.11,130.11,918.75,117.18" style="stroke:#A80036;stroke-width:1.0;"/><!--MD5=[cda3e58f4a982f2a0a7713d7113baf93]
reverse link javafx.application.Application to org.example.view.HelloApplication--><path codeLine="80" d="M1003.85,145.01 C989.58,170.82 973.25,200.39 960.3,223.83 " fill="none" id="javafx.application.Application-backto-org.example.view.HelloApplication" style="stroke:#A80036;stroke-width:1.0;"/><polygon fill="none" points="997.76,141.56,1013.55,127.44,1010.01,148.33,997.76,141.56" style="stroke:#A80036;stroke-width:1.0;"/><!--MD5=[d0b07760fed2111661b28a7b2daa6f0f]
link org.example.view.HelloApplication to org.example.view.HelloController--><path codeLine="81" d="M937,310.01 C937,333.49 937,364.11 937,394.64 " fill="none" id="org.example.view.HelloApplication-to-org.example.view.HelloController" style="stroke:#A80036;stroke-width:1.0;"/><polygon fill="#A80036" points="937,399.94,941,390.94,937,394.94,933,390.94,937,399.94" style="stroke:#A80036;stroke-width:1.0;"/><text fill="#000000" font-family="sans-serif" font-size="13" lengthAdjust="spacing" textLength="15" x="938" y="366.0669">hc</text><!--MD5=[a7af937408225b37b4466bda0660d97c]
reverse link javafx.application.Application to org.example.view.ErrorDialog--><path codeLine="82" d="M1070.22,145.12 C1085.73,173.21 1103.69,205.71 1117.07,229.93 " fill="none" id="javafx.application.Application-backto-org.example.view.ErrorDialog" style="stroke:#A80036;stroke-width:1.0;"/><polygon fill="none" points="1063.99,148.33,1060.45,127.44,1076.24,141.56,1063.99,148.33" style="stroke:#A80036;stroke-width:1.0;"/><!--MD5=[1a41e32ba88dd1fb833a2ad7d5726c9c]
reverse link javafx.application.Application to org.example.view.ChangeUsenameApplication--><path codeLine="83" d="M1152.72,126.01 C1182.22,138.09 1213.39,152.33 1241,168 C1272.22,185.72 1304.46,209.97 1329.02,229.92 " fill="none" id="javafx.application.Application-backto-org.example.view.ChangeUsenameApplication" style="stroke:#A80036;stroke-width:1.0;"/><polygon fill="none" points="1150.09,132.49,1134.11,118.57,1155.28,119.49,1150.09,132.49" style="stroke:#A80036;stroke-width:1.0;"/><!--MD5=[343b892edd8eedd4b8f9319aa977256d]
reverse link javafx.scene.layout.BorderPane to org.example.view.PersonObject--><path codeLine="84" d="M304.91,122.02 C335.3,149.53 377.05,187.31 410.16,217.27 " fill="none" id="javafx.scene.layout.BorderPane-backto-org.example.view.PersonObject" style="stroke:#A80036;stroke-width:1.0;"/><polygon fill="none" points="299.87,126.9,289.74,108.29,309.26,116.52,299.87,126.9" style="stroke:#A80036;stroke-width:1.0;"/><!--MD5=[b1cd6a078a7d7301758735da9a744244]
link org.example.view.PersonObject to org.example.view.PersonObject--><path codeLine="85" d="M589.11,250.66 C609.77,252.97 624,258.42 624,267 C624,274.85 612.11,280.07 594.29,282.68 " fill="none" id="org.example.view.PersonObject-to-org.example.view.PersonObject" style="stroke:#A80036;stroke-width:1.0;"/><polygon fill="#A80036" points="589.11,283.34,598.5497,286.1493,594.0685,282.697,597.5208,278.2158,589.11,283.34" style="stroke:#A80036;stroke-width:1.0;"/><text fill="#000000" font-family="sans-serif" font-size="13" lengthAdjust="spacing" textLength="34" x="630" y="271.5669">value</text><!--MD5=[da4fff3d64150a8e43b76e7e14519abf]
link org.example.view.ErrorController to org.example.view.LoginController--><!--MD5=[8da6731004655ac61290f04850675ce7]
link org.example.view.ErrorController to org.example.view.ChangeUsernameController--><text fill="#888888" font-family="sans-serif" font-size="10" lengthAdjust="spacing" textLength="192" x="890" y="671.2822">UMLDoclet 2.0.15, PlantUML 1.2021.13</text><!--MD5=[bc485e46ad5c416f933fd6d49d490a19]
@startuml
    namespace org.example.view {

        class MessageObject [[MessageObject.html]] {
            +MessageObject(String, boolean)
        }

        class ErrorController [[ErrorController.html]] {
            +setCurrentStage(Stage): void
            +setParentStage(Stage): void
            +setErrorText(String): void
        }

        class LoginApplication [[LoginApplication.html]] {
            +start(Stage): void
            {static} +main(String[]): void
        }

        class LoginController [[LoginController.html]] {
            +loginText: TextField
            +setStage(Stage): void
            +startSession(MouseEvent): void
            +validateOK(MouseEvent): void
            +loginEnter(KeyEvent): void
        }

        class HelloApplication [[HelloApplication.html]] {
            +HelloApplication(String)
            +start(Stage): void
            {static} +main(String[]): void
        }

        class ChangeUsernameController [[ChangeUsernameController.html]] {
            +myStage: Stage
            +parentStage: Stage
            +usernameChange: TextField
            +setStage(Stage, Stage): void
            +tryStartSession(MouseEvent): void
            +validateCancel(MouseEvent): void
            +changePseudoEnter(KeyEvent): void
        }

        class ErrorDialog [[ErrorDialog.html]] {
            +ErrorDialog(String, Stage)
            +start(Stage): void
        }

        class ChangeUsenameApplication [[ChangeUsenameApplication.html]] {
            +ChangeUsenameApplication(Stage)
            +start(Stage): void
        }

        class HelloController [[HelloController.html]] {
            +listPeopleConnected: VBox
            +messageSendField: TextArea
            +subscribeToObservers(): void
            +resubscribe(): void
            +setStage(Stage): void
            +addNewMessages(ScrollEvent): void
            +addMessage(MouseEvent): void
            +addNewPerson(MouseEvent): void
            +sendMessageClick(MouseEvent): void
            +sendMessageEnter(KeyEvent): void
            +goToChangeUsernameFrame(ActionEvent): void
            +validateOK(MouseEvent): void
            +changeName(String): void
            +deleteUser(User): void
            +addAllDisconnectedUser(): void
        }

        class PersonObject [[PersonObject.html]] {
            +PersonObject(ConnectedUser, boolean)
            +getUsername(): String
            +getUUID(): UUID
            +getConnectedUser(): ConnectedUser
        }

        javafx.scene.layout.BorderPane <|- - MessageObject
        MessageObject - -> MessageObject: value
        javafx.application.Application <|- - LoginApplication
        javafx.application.Application <|- - HelloApplication
        HelloApplication - -> HelloController: hc
        javafx.application.Application <|- - ErrorDialog
        javafx.application.Application <|- - ChangeUsenameApplication
        javafx.scene.layout.BorderPane <|- - PersonObject
        PersonObject - -> PersonObject: value
    }

    namespace javafx.scene.layout {
        class BorderPane {
        }
    }

    namespace javafx.application {
        abstract class Application {
            {static} +STYLESHEET_CASPIAN: String
            {static} +STYLESHEET_MODENA: String
            {abstract} +start(Stage): void
        }
    }

    center footer UMLDoclet 2.0.15, PlantUML 1.2021.13
@enduml

PlantUML version 1.2021.13(Mon Nov 01 11:38:45 UTC 2021)
(APACHE source distribution)
Java Runtime: OpenJDK Runtime Environment
JVM: OpenJDK 64-Bit Server VM
Default Encoding: UTF-8
Language: en
Country: null
--></g></svg>