<?xml version="1.0" encoding="UTF-8" standalone="no"?><svg xmlns="http://www.w3.org/2000/svg" xmlns:xlink="http://www.w3.org/1999/xlink" contentScriptType="application/ecmascript" contentStyleType="text/css" height="637px" preserveAspectRatio="none" style="width:1969px;height:637px;background:#FFFFFF;" version="1.1" viewBox="0 0 1969 637" width="1969px" zoomAndPan="magnify"><defs><filter height="300%" id="f1od318eoh032t" width="300%" x="-1" y="-1"><feGaussianBlur result="blurOut" stdDeviation="2.0"/><feColorMatrix in="blurOut" result="blurOut2" type="matrix" values="0 0 0 0 0 0 0 0 0 0 0 0 0 0 0 0 0 0 .4 0"/><feOffset dx="4.0" dy="4.0" in="blurOut2" result="blurOut3"/><feBlend in="SourceGraphic" in2="blurOut3" mode="normal"/></filter></defs><g><!--MD5=[38e62b6a54dfcc9d7a07516cbc1369b6]
cluster org.example.view--><polygon fill="#FFFFFF" filter="url(#f1od318eoh032t)" points="16,176,162,176,169,198.2969,1952,198.2969,1952,614,16,614,16,176" style="stroke:#000000;stroke-width:1.5;"/><line style="stroke:#000000;stroke-width:1.5;" x1="16" x2="169" y1="198.2969" y2="198.2969"/><text fill="#000000" font-family="sans-serif" font-size="14" font-weight="bold" lengthAdjust="spacing" textLength="140" x="20" y="190.9951">org.example.view</text><!--MD5=[b607c642081a2d8f595146bd9f7a12c9]
cluster javafx.scene.layout--><polygon fill="#FFFFFF" filter="url(#f1od318eoh032t)" points="177,25,335,25,342,47.2969,345,47.2969,345,124,177,124,177,25" style="stroke:#000000;stroke-width:1.5;"/><line style="stroke:#000000;stroke-width:1.5;" x1="177" x2="342" y1="47.2969" y2="47.2969"/><text fill="#000000" font-family="sans-serif" font-size="14" font-weight="bold" lengthAdjust="spacing" textLength="152" x="181" y="39.9951">javafx.scene.layout</text><!--MD5=[315bf7c36bcdbdaee5bb7549ab6e8767]
cluster javafx.application--><polygon fill="#FFFFFF" filter="url(#f1od318eoh032t)" points="908,6,1050,6,1057,28.2969,1134,28.2969,1134,143,908,143,908,6" style="stroke:#000000;stroke-width:1.5;"/><line style="stroke:#000000;stroke-width:1.5;" x1="908" x2="1057" y1="28.2969" y2="28.2969"/><text fill="#000000" font-family="sans-serif" font-size="14" font-weight="bold" lengthAdjust="spacing" textLength="136" x="912" y="20.9951">javafx.application</text><!--MD5=[786e9bd9e4662a8df7ca46e35ce250e0]
class org.example.view.MessageObject--><a href="MessageObject.html" target="_top" title="MessageObject.html" xlink:actuate="onRequest" xlink:href="MessageObject.html" xlink:show="new" xlink:title="MessageObject.html" xlink:type="simple"><rect codeLine="3" fill="#FEFECE" filter="url(#f1od318eoh032t)" height="60.8047" id="org.example.view.MessageObject" style="stroke:#A80036;stroke-width:1.5;" width="208" x="32" y="236.5"/><ellipse cx="83.75" cy="252.5" fill="#ADD1B2" rx="11" ry="11" style="stroke:#A80036;stroke-width:1.0;"/><path d="M86.7188,258.1406 Q86.1406,258.4375 85.5,258.5781 Q84.8594,258.7344 84.1563,258.7344 Q81.6563,258.7344 80.3281,257.0938 Q79.0156,255.4375 79.0156,252.3125 Q79.0156,249.1875 80.3281,247.5313 Q81.6563,245.875 84.1563,245.875 Q84.8594,245.875 85.5,246.0313 Q86.1563,246.1875 86.7188,246.4844 L86.7188,249.2031 Q86.0938,248.625 85.5,248.3594 Q84.9063,248.0781 84.2813,248.0781 Q82.9375,248.0781 82.25,249.1563 Q81.5625,250.2188 81.5625,252.3125 Q81.5625,254.4063 82.25,255.4844 Q82.9375,256.5469 84.2813,256.5469 Q84.9063,256.5469 85.5,256.2813 Q86.0938,256 86.7188,255.4219 L86.7188,258.1406 Z " fill="#000000"/><text fill="#000000" font-family="sans-serif" font-size="12" lengthAdjust="spacing" textLength="96" x="104.25" y="256.6543">MessageObject</text><line style="stroke:#A80036;stroke-width:1.5;" x1="33" x2="239" y1="268.5" y2="268.5"/><line style="stroke:#A80036;stroke-width:1.5;" x1="33" x2="239" y1="276.5" y2="276.5"/><ellipse cx="43" cy="287.5" fill="#84BE84" rx="3" ry="3" style="stroke:#038048;stroke-width:1.0;"/><text fill="#000000" font-family="sans-serif" font-size="11" lengthAdjust="spacing" textLength="182" x="52" y="290.7104">MessageObject(String, boolean)</text></a><!--MD5=[12b774eafa08bbdd114c276b44733c67]
class org.example.view.ErrorController--><a href="ErrorController.html" target="_top" title="ErrorController.html" xlink:actuate="onRequest" xlink:href="ErrorController.html" xlink:show="new" xlink:title="ErrorController.html" xlink:type="simple"><rect codeLine="7" fill="#FEFECE" filter="url(#f1od318eoh032t)" height="86.4141" id="org.example.view.ErrorController" style="stroke:#A80036;stroke-width:1.5;" width="192" x="1503" y="224"/><ellipse cx="1548.75" cy="240" fill="#ADD1B2" rx="11" ry="11" style="stroke:#A80036;stroke-width:1.0;"/><path d="M1551.7188,245.6406 Q1551.1406,245.9375 1550.5,246.0781 Q1549.8594,246.2344 1549.1563,246.2344 Q1546.6563,246.2344 1545.3281,244.5938 Q1544.0156,242.9375 1544.0156,239.8125 Q1544.0156,236.6875 1545.3281,235.0313 Q1546.6563,233.375 1549.1563,233.375 Q1549.8594,233.375 1550.5,233.5313 Q1551.1563,233.6875 1551.7188,233.9844 L1551.7188,236.7031 Q1551.0938,236.125 1550.5,235.8594 Q1549.9063,235.5781 1549.2813,235.5781 Q1547.9375,235.5781 1547.25,236.6563 Q1546.5625,237.7188 1546.5625,239.8125 Q1546.5625,241.9063 1547.25,242.9844 Q1547.9375,244.0469 1549.2813,244.0469 Q1549.9063,244.0469 1550.5,243.7813 Q1551.0938,243.5 1551.7188,242.9219 L1551.7188,245.6406 Z " fill="#000000"/><text fill="#000000" font-family="sans-serif" font-size="12" lengthAdjust="spacing" textLength="92" x="1569.25" y="244.1543">ErrorController</text><line style="stroke:#A80036;stroke-width:1.5;" x1="1504" x2="1694" y1="256" y2="256"/><line style="stroke:#A80036;stroke-width:1.5;" x1="1504" x2="1694" y1="264" y2="264"/><ellipse cx="1514" cy="275" fill="#84BE84" rx="3" ry="3" style="stroke:#038048;stroke-width:1.0;"/><text fill="#000000" font-family="sans-serif" font-size="11" lengthAdjust="spacing" textLength="166" x="1523" y="278.2104">setCurrentStage(Stage): void</text><ellipse cx="1514" cy="287.8047" fill="#84BE84" rx="3" ry="3" style="stroke:#038048;stroke-width:1.0;"/><text fill="#000000" font-family="sans-serif" font-size="11" lengthAdjust="spacing" textLength="160" x="1523" y="291.0151">setParentStage(Stage): void</text><ellipse cx="1514" cy="300.6094" fill="#84BE84" rx="3" ry="3" style="stroke:#038048;stroke-width:1.0;"/><text fill="#000000" font-family="sans-serif" font-size="11" lengthAdjust="spacing" textLength="144" x="1523" y="303.8198">setErrorText(String): void</text></a><!--MD5=[b8bdf665a99fbd44f9e9193c7c5fc146]
class org.example.view.LoginApplication--><a href="LoginApplication.html" target="_top" title="LoginApplication.html" xlink:actuate="onRequest" xlink:href="LoginApplication.html" xlink:show="new" xlink:title="LoginApplication.html" xlink:type="simple"><rect codeLine="13" fill="#FEFECE" filter="url(#f1od318eoh032t)" height="73.6094" id="org.example.view.LoginApplication" style="stroke:#A80036;stroke-width:1.5;" width="135" x="672.5" y="230"/><ellipse cx="687.95" cy="246" fill="#ADD1B2" rx="11" ry="11" style="stroke:#A80036;stroke-width:1.0;"/><path d="M690.9188,251.6406 Q690.3406,251.9375 689.7,252.0781 Q689.0594,252.2344 688.3563,252.2344 Q685.8563,252.2344 684.5281,250.5938 Q683.2156,248.9375 683.2156,245.8125 Q683.2156,242.6875 684.5281,241.0313 Q685.8563,239.375 688.3563,239.375 Q689.0594,239.375 689.7,239.5313 Q690.3563,239.6875 690.9188,239.9844 L690.9188,242.7031 Q690.2938,242.125 689.7,241.8594 Q689.1063,241.5781 688.4813,241.5781 Q687.1375,241.5781 686.45,242.6563 Q685.7625,243.7188 685.7625,245.8125 Q685.7625,247.9063 686.45,248.9844 Q687.1375,250.0469 688.4813,250.0469 Q689.1063,250.0469 689.7,249.7813 Q690.2938,249.5 690.9188,248.9219 L690.9188,251.6406 Z " fill="#000000"/><text fill="#000000" font-family="sans-serif" font-size="12" lengthAdjust="spacing" textLength="102" x="702.05" y="250.1543">LoginApplication</text><line style="stroke:#A80036;stroke-width:1.5;" x1="673.5" x2="806.5" y1="262" y2="262"/><line style="stroke:#A80036;stroke-width:1.5;" x1="673.5" x2="806.5" y1="270" y2="270"/><ellipse cx="683.5" cy="281" fill="#84BE84" rx="3" ry="3" style="stroke:#038048;stroke-width:1.0;"/><text fill="#000000" font-family="sans-serif" font-size="11" lengthAdjust="spacing" textLength="99" x="692.5" y="284.2104">start(Stage): void</text><ellipse cx="683.5" cy="293.8047" fill="#84BE84" rx="3" ry="3" style="stroke:#038048;stroke-width:1.0;"/><text fill="#000000" font-family="sans-serif" font-size="11" lengthAdjust="spacing" text-decoration="underline" textLength="109" x="692.5" y="297.0151">main(String[]): void</text></a><!--MD5=[3d9fd9cb52d61128024e2a3ee4e2221d]
class org.example.view.LoginController--><a href="LoginController.html" target="_top" title="LoginController.html" xlink:actuate="onRequest" xlink:href="LoginController.html" xlink:show="new" xlink:title="LoginController.html" xlink:type="simple"><rect codeLine="18" fill="#FEFECE" filter="url(#f1od318eoh032t)" height="112.0234" id="org.example.view.LoginController" style="stroke:#A80036;stroke-width:1.5;" width="206" x="1730" y="211"/><ellipse cx="1781.75" cy="227" fill="#ADD1B2" rx="11" ry="11" style="stroke:#A80036;stroke-width:1.0;"/><path d="M1784.7188,232.6406 Q1784.1406,232.9375 1783.5,233.0781 Q1782.8594,233.2344 1782.1563,233.2344 Q1779.6563,233.2344 1778.3281,231.5938 Q1777.0156,229.9375 1777.0156,226.8125 Q1777.0156,223.6875 1778.3281,222.0313 Q1779.6563,220.375 1782.1563,220.375 Q1782.8594,220.375 1783.5,220.5313 Q1784.1563,220.6875 1784.7188,220.9844 L1784.7188,223.7031 Q1784.0938,223.125 1783.5,222.8594 Q1782.9063,222.5781 1782.2813,222.5781 Q1780.9375,222.5781 1780.25,223.6563 Q1779.5625,224.7188 1779.5625,226.8125 Q1779.5625,228.9063 1780.25,229.9844 Q1780.9375,231.0469 1782.2813,231.0469 Q1782.9063,231.0469 1783.5,230.7813 Q1784.0938,230.5 1784.7188,229.9219 L1784.7188,232.6406 Z " fill="#000000"/><text fill="#000000" font-family="sans-serif" font-size="12" lengthAdjust="spacing" textLength="94" x="1802.25" y="231.1543">LoginController</text><line style="stroke:#A80036;stroke-width:1.5;" x1="1731" x2="1935" y1="243" y2="243"/><ellipse cx="1741" cy="254" rx="3" ry="3" style="stroke:#038048;stroke-width:1.0;fill:none;"/><text fill="#000000" font-family="sans-serif" font-size="11" lengthAdjust="spacing" textLength="109" x="1750" y="257.2104">loginText: TextField</text><line style="stroke:#A80036;stroke-width:1.5;" x1="1731" x2="1935" y1="263.8047" y2="263.8047"/><ellipse cx="1741" cy="274.8047" fill="#84BE84" rx="3" ry="3" style="stroke:#038048;stroke-width:1.0;"/><text fill="#000000" font-family="sans-serif" font-size="11" lengthAdjust="spacing" textLength="123" x="1750" y="278.0151">setStage(Stage): void</text><ellipse cx="1741" cy="287.6094" fill="#84BE84" rx="3" ry="3" style="stroke:#038048;stroke-width:1.0;"/><text fill="#000000" font-family="sans-serif" font-size="11" lengthAdjust="spacing" textLength="180" x="1750" y="290.8198">startSession(MouseEvent): void</text><ellipse cx="1741" cy="300.4141" fill="#84BE84" rx="3" ry="3" style="stroke:#038048;stroke-width:1.0;"/><text fill="#000000" font-family="sans-serif" font-size="11" lengthAdjust="spacing" textLength="167" x="1750" y="303.6245">validateOK(MouseEvent): void</text><ellipse cx="1741" cy="313.2188" fill="#84BE84" rx="3" ry="3" style="stroke:#038048;stroke-width:1.0;"/><text fill="#000000" font-family="sans-serif" font-size="11" lengthAdjust="spacing" textLength="147" x="1750" y="316.4292">loginEnter(KeyEvent): void</text></a><!--MD5=[307df60095353f45f3b2a1044e4647ef]
class org.example.view.HelloApplication--><a href="HelloApplication.html" target="_top" title="HelloApplication.html" xlink:actuate="onRequest" xlink:href="HelloApplication.html" xlink:show="new" xlink:title="HelloApplication.html" xlink:type="simple"><rect codeLine="26" fill="#FEFECE" filter="url(#f1od318eoh032t)" height="99.2188" id="org.example.view.HelloApplication" style="stroke:#A80036;stroke-width:1.5;" width="157" x="842.5" y="217.5"/><ellipse cx="868.75" cy="233.5" fill="#ADD1B2" rx="11" ry="11" style="stroke:#A80036;stroke-width:1.0;"/><path d="M871.7188,239.1406 Q871.1406,239.4375 870.5,239.5781 Q869.8594,239.7344 869.1563,239.7344 Q866.6563,239.7344 865.3281,238.0938 Q864.0156,236.4375 864.0156,233.3125 Q864.0156,230.1875 865.3281,228.5313 Q866.6563,226.875 869.1563,226.875 Q869.8594,226.875 870.5,227.0313 Q871.1563,227.1875 871.7188,227.4844 L871.7188,230.2031 Q871.0938,229.625 870.5,229.3594 Q869.9063,229.0781 869.2813,229.0781 Q867.9375,229.0781 867.25,230.1563 Q866.5625,231.2188 866.5625,233.3125 Q866.5625,235.4063 867.25,236.4844 Q867.9375,237.5469 869.2813,237.5469 Q869.9063,237.5469 870.5,237.2813 Q871.0938,237 871.7188,236.4219 L871.7188,239.1406 Z " fill="#000000"/><text fill="#000000" font-family="sans-serif" font-size="12" lengthAdjust="spacing" textLength="100" x="885.25" y="237.6543">HelloApplication</text><line style="stroke:#A80036;stroke-width:1.5;" x1="843.5" x2="998.5" y1="249.5" y2="249.5"/><line style="stroke:#A80036;stroke-width:1.5;" x1="843.5" x2="998.5" y1="257.5" y2="257.5"/><ellipse cx="853.5" cy="268.5" fill="#84BE84" rx="3" ry="3" style="stroke:#038048;stroke-width:1.0;"/><text fill="#000000" font-family="sans-serif" font-size="11" lengthAdjust="spacing" textLength="131" x="862.5" y="271.7104">HelloApplication(String)</text><ellipse cx="853.5" cy="281.3047" fill="#84BE84" rx="3" ry="3" style="stroke:#038048;stroke-width:1.0;"/><text fill="#000000" font-family="sans-serif" font-size="11" lengthAdjust="spacing" textLength="99" x="862.5" y="284.5151">start(Stage): void</text><ellipse cx="853.5" cy="294.1094" fill="#84BE84" rx="3" ry="3" style="stroke:#038048;stroke-width:1.0;"/><text fill="#000000" font-family="sans-serif" font-size="11" lengthAdjust="spacing" textLength="64" x="862.5" y="297.3198">stop(): void</text><ellipse cx="853.5" cy="306.9141" fill="#84BE84" rx="3" ry="3" style="stroke:#038048;stroke-width:1.0;"/><text fill="#000000" font-family="sans-serif" font-size="11" lengthAdjust="spacing" text-decoration="underline" textLength="109" x="862.5" y="310.1245">main(String[]): void</text></a><!--MD5=[4ec5769ec027dc92bf2cefde2bb23360]
class org.example.view.ChangeUsernameController--><a href="ChangeUsernameController.html" target="_top" title="ChangeUsernameController.html" xlink:actuate="onRequest" xlink:href="ChangeUsernameController.html" xlink:show="new" xlink:title="ChangeUsernameController.html" xlink:type="simple"><rect codeLine="33" fill="#FEFECE" filter="url(#f1od318eoh032t)" height="137.6328" id="org.example.view.ChangeUsernameController" style="stroke:#A80036;stroke-width:1.5;" width="229" x="1375.5" y="422"/><ellipse cx="1401.3" cy="438" fill="#ADD1B2" rx="11" ry="11" style="stroke:#A80036;stroke-width:1.0;"/><path d="M1404.2688,443.6406 Q1403.6906,443.9375 1403.05,444.0781 Q1402.4094,444.2344 1401.7063,444.2344 Q1399.2063,444.2344 1397.8781,442.5938 Q1396.5656,440.9375 1396.5656,437.8125 Q1396.5656,434.6875 1397.8781,433.0313 Q1399.2063,431.375 1401.7063,431.375 Q1402.4094,431.375 1403.05,431.5313 Q1403.7063,431.6875 1404.2688,431.9844 L1404.2688,434.7031 Q1403.6438,434.125 1403.05,433.8594 Q1402.4563,433.5781 1401.8313,433.5781 Q1400.4875,433.5781 1399.8,434.6563 Q1399.1125,435.7188 1399.1125,437.8125 Q1399.1125,439.9063 1399.8,440.9844 Q1400.4875,442.0469 1401.8313,442.0469 Q1402.4563,442.0469 1403.05,441.7813 Q1403.6438,441.5 1404.2688,440.9219 L1404.2688,443.6406 Z " fill="#000000"/><text fill="#000000" font-family="sans-serif" font-size="12" lengthAdjust="spacing" textLength="173" x="1417.7" y="442.1543">ChangeUsernameController</text><line style="stroke:#A80036;stroke-width:1.5;" x1="1376.5" x2="1603.5" y1="454" y2="454"/><ellipse cx="1386.5" cy="465" rx="3" ry="3" style="stroke:#038048;stroke-width:1.0;fill:none;"/><text fill="#000000" font-family="sans-serif" font-size="11" lengthAdjust="spacing" textLength="91" x="1395.5" y="468.2104">myStage: Stage</text><ellipse cx="1386.5" cy="477.8047" rx="3" ry="3" style="stroke:#038048;stroke-width:1.0;fill:none;"/><text fill="#000000" font-family="sans-serif" font-size="11" lengthAdjust="spacing" textLength="111" x="1395.5" y="481.0151">parentStage: Stage</text><ellipse cx="1386.5" cy="490.6094" rx="3" ry="3" style="stroke:#038048;stroke-width:1.0;fill:none;"/><text fill="#000000" font-family="sans-serif" font-size="11" lengthAdjust="spacing" textLength="159" x="1395.5" y="493.8198">usernameChange: TextField</text><line style="stroke:#A80036;stroke-width:1.5;" x1="1376.5" x2="1603.5" y1="500.4141" y2="500.4141"/><ellipse cx="1386.5" cy="511.4141" fill="#84BE84" rx="3" ry="3" style="stroke:#038048;stroke-width:1.0;"/><text fill="#000000" font-family="sans-serif" font-size="11" lengthAdjust="spacing" textLength="164" x="1395.5" y="514.6245">setStage(Stage, Stage): void</text><ellipse cx="1386.5" cy="524.2188" fill="#84BE84" rx="3" ry="3" style="stroke:#038048;stroke-width:1.0;"/><text fill="#000000" font-family="sans-serif" font-size="11" lengthAdjust="spacing" textLength="167" x="1395.5" y="527.4292">validateOK(MouseEvent): void</text><ellipse cx="1386.5" cy="537.0234" fill="#84BE84" rx="3" ry="3" style="stroke:#038048;stroke-width:1.0;"/><text fill="#000000" font-family="sans-serif" font-size="11" lengthAdjust="spacing" textLength="189" x="1395.5" y="540.2339">validateCancel(MouseEvent): void</text><ellipse cx="1386.5" cy="549.8281" fill="#84BE84" rx="3" ry="3" style="stroke:#038048;stroke-width:1.0;"/><text fill="#000000" font-family="sans-serif" font-size="11" lengthAdjust="spacing" textLength="203" x="1395.5" y="553.0386">changePseudoEnter(KeyEvent): void</text></a><!--MD5=[e5cdd4fed6b5b752bc096b3544cafd9f]
class org.example.view.ErrorDialog--><a href="ErrorDialog.html" target="_top" title="ErrorDialog.html" xlink:actuate="onRequest" xlink:href="ErrorDialog.html" xlink:show="new" xlink:title="ErrorDialog.html" xlink:type="simple"><rect codeLine="43" fill="#FEFECE" filter="url(#f1od318eoh032t)" height="73.6094" id="org.example.view.ErrorDialog" style="stroke:#A80036;stroke-width:1.5;" width="173" x="1034.5" y="230"/><ellipse cx="1081.75" cy="246" fill="#ADD1B2" rx="11" ry="11" style="stroke:#A80036;stroke-width:1.0;"/><path d="M1084.7188,251.6406 Q1084.1406,251.9375 1083.5,252.0781 Q1082.8594,252.2344 1082.1563,252.2344 Q1079.6563,252.2344 1078.3281,250.5938 Q1077.0156,248.9375 1077.0156,245.8125 Q1077.0156,242.6875 1078.3281,241.0313 Q1079.6563,239.375 1082.1563,239.375 Q1082.8594,239.375 1083.5,239.5313 Q1084.1563,239.6875 1084.7188,239.9844 L1084.7188,242.7031 Q1084.0938,242.125 1083.5,241.8594 Q1082.9063,241.5781 1082.2813,241.5781 Q1080.9375,241.5781 1080.25,242.6563 Q1079.5625,243.7188 1079.5625,245.8125 Q1079.5625,247.9063 1080.25,248.9844 Q1080.9375,250.0469 1082.2813,250.0469 Q1082.9063,250.0469 1083.5,249.7813 Q1084.0938,249.5 1084.7188,248.9219 L1084.7188,251.6406 Z " fill="#000000"/><text fill="#000000" font-family="sans-serif" font-size="12" lengthAdjust="spacing" textLength="70" x="1102.25" y="250.1543">ErrorDialog</text><line style="stroke:#A80036;stroke-width:1.5;" x1="1035.5" x2="1206.5" y1="262" y2="262"/><line style="stroke:#A80036;stroke-width:1.5;" x1="1035.5" x2="1206.5" y1="270" y2="270"/><ellipse cx="1045.5" cy="281" fill="#84BE84" rx="3" ry="3" style="stroke:#038048;stroke-width:1.0;"/><text fill="#000000" font-family="sans-serif" font-size="11" lengthAdjust="spacing" textLength="147" x="1054.5" y="284.2104">ErrorDialog(String, Stage)</text><ellipse cx="1045.5" cy="293.8047" fill="#84BE84" rx="3" ry="3" style="stroke:#038048;stroke-width:1.0;"/><text fill="#000000" font-family="sans-serif" font-size="11" lengthAdjust="spacing" textLength="99" x="1054.5" y="297.0151">start(Stage): void</text></a><!--MD5=[859b2feec5ad1fca4e75755e5ed538c6]
class org.example.view.ChangeUsenameApplication--><a href="ChangeUsenameApplication.html" target="_top" title="ChangeUsenameApplication.html" xlink:actuate="onRequest" xlink:href="ChangeUsenameApplication.html" xlink:show="new" xlink:title="ChangeUsenameApplication.html" xlink:type="simple"><rect codeLine="48" fill="#FEFECE" filter="url(#f1od318eoh032t)" height="73.6094" id="org.example.view.ChangeUsenameApplication" style="stroke:#A80036;stroke-width:1.5;" width="225" x="1242.5" y="230"/><ellipse cx="1265.15" cy="246" fill="#ADD1B2" rx="11" ry="11" style="stroke:#A80036;stroke-width:1.0;"/><path d="M1268.1188,251.6406 Q1267.5406,251.9375 1266.9,252.0781 Q1266.2594,252.2344 1265.5563,252.2344 Q1263.0563,252.2344 1261.7281,250.5938 Q1260.4156,248.9375 1260.4156,245.8125 Q1260.4156,242.6875 1261.7281,241.0313 Q1263.0563,239.375 1265.5563,239.375 Q1266.2594,239.375 1266.9,239.5313 Q1267.5563,239.6875 1268.1188,239.9844 L1268.1188,242.7031 Q1267.4938,242.125 1266.9,241.8594 Q1266.3063,241.5781 1265.6813,241.5781 Q1264.3375,241.5781 1263.65,242.6563 Q1262.9625,243.7188 1262.9625,245.8125 Q1262.9625,247.9063 1263.65,248.9844 Q1264.3375,250.0469 1265.6813,250.0469 Q1266.3063,250.0469 1266.9,249.7813 Q1267.4938,249.5 1268.1188,248.9219 L1268.1188,251.6406 Z " fill="#000000"/><text fill="#000000" font-family="sans-serif" font-size="12" lengthAdjust="spacing" textLength="176" x="1280.85" y="250.1543">ChangeUsenameApplication</text><line style="stroke:#A80036;stroke-width:1.5;" x1="1243.5" x2="1466.5" y1="262" y2="262"/><line style="stroke:#A80036;stroke-width:1.5;" x1="1243.5" x2="1466.5" y1="270" y2="270"/><ellipse cx="1253.5" cy="281" fill="#84BE84" rx="3" ry="3" style="stroke:#038048;stroke-width:1.0;"/><text fill="#000000" font-family="sans-serif" font-size="11" lengthAdjust="spacing" textLength="199" x="1262.5" y="284.2104">ChangeUsenameApplication(Stage)</text><ellipse cx="1253.5" cy="293.8047" fill="#84BE84" rx="3" ry="3" style="stroke:#038048;stroke-width:1.0;"/><text fill="#000000" font-family="sans-serif" font-size="11" lengthAdjust="spacing" textLength="99" x="1262.5" y="297.0151">start(Stage): void</text></a><!--MD5=[9d609b6dbec09c0aaf50ef810ba36e4c]
class org.example.view.HelloController--><a href="HelloController.html" target="_top" title="HelloController.html" xlink:actuate="onRequest" xlink:href="HelloController.html" xlink:show="new" xlink:title="HelloController.html" xlink:type="simple"><rect codeLine="53" fill="#FEFECE" filter="url(#f1od318eoh032t)" height="214.4609" id="org.example.view.HelloController" style="stroke:#A80036;stroke-width:1.5;" width="296" x="1640" y="384"/><ellipse cx="1737.75" cy="400" fill="#ADD1B2" rx="11" ry="11" style="stroke:#A80036;stroke-width:1.0;"/><path d="M1740.7188,405.6406 Q1740.1406,405.9375 1739.5,406.0781 Q1738.8594,406.2344 1738.1563,406.2344 Q1735.6563,406.2344 1734.3281,404.5938 Q1733.0156,402.9375 1733.0156,399.8125 Q1733.0156,396.6875 1734.3281,395.0313 Q1735.6563,393.375 1738.1563,393.375 Q1738.8594,393.375 1739.5,393.5313 Q1740.1563,393.6875 1740.7188,393.9844 L1740.7188,396.7031 Q1740.0938,396.125 1739.5,395.8594 Q1738.9063,395.5781 1738.2813,395.5781 Q1736.9375,395.5781 1736.25,396.6563 Q1735.5625,397.7188 1735.5625,399.8125 Q1735.5625,401.9063 1736.25,402.9844 Q1736.9375,404.0469 1738.2813,404.0469 Q1738.9063,404.0469 1739.5,403.7813 Q1740.0938,403.5 1740.7188,402.9219 L1740.7188,405.6406 Z " fill="#000000"/><text fill="#000000" font-family="sans-serif" font-size="12" lengthAdjust="spacing" textLength="92" x="1758.25" y="404.1543">HelloController</text><line style="stroke:#A80036;stroke-width:1.5;" x1="1641" x2="1935" y1="416" y2="416"/><ellipse cx="1651" cy="427" rx="3" ry="3" style="stroke:#038048;stroke-width:1.0;fill:none;"/><text fill="#000000" font-family="sans-serif" font-size="11" lengthAdjust="spacing" textLength="151" x="1660" y="430.2104">listPeopleConnected: VBox</text><ellipse cx="1651" cy="439.8047" rx="3" ry="3" style="stroke:#038048;stroke-width:1.0;fill:none;"/><text fill="#000000" font-family="sans-serif" font-size="11" lengthAdjust="spacing" textLength="166" x="1660" y="443.0151">messageSendField: TextArea</text><line style="stroke:#A80036;stroke-width:1.5;" x1="1641" x2="1935" y1="449.6094" y2="449.6094"/><ellipse cx="1651" cy="460.6094" fill="#84BE84" rx="3" ry="3" style="stroke:#038048;stroke-width:1.0;"/><text fill="#000000" font-family="sans-serif" font-size="11" lengthAdjust="spacing" textLength="169" x="1660" y="463.8198">subscribeToObservers(): void</text><ellipse cx="1651" cy="473.4141" fill="#84BE84" rx="3" ry="3" style="stroke:#038048;stroke-width:1.0;"/><text fill="#000000" font-family="sans-serif" font-size="11" lengthAdjust="spacing" textLength="107" x="1660" y="476.6245">resubscribe(): void</text><ellipse cx="1651" cy="486.2188" fill="#84BE84" rx="3" ry="3" style="stroke:#038048;stroke-width:1.0;"/><text fill="#000000" font-family="sans-serif" font-size="11" lengthAdjust="spacing" textLength="123" x="1660" y="489.4292">setStage(Stage): void</text><ellipse cx="1651" cy="499.0234" fill="#84BE84" rx="3" ry="3" style="stroke:#038048;stroke-width:1.0;"/><text fill="#000000" font-family="sans-serif" font-size="11" lengthAdjust="spacing" textLength="205" x="1660" y="502.2339">addNewMessages(ScrollEvent): void</text><ellipse cx="1651" cy="511.8281" fill="#84BE84" rx="3" ry="3" style="stroke:#038048;stroke-width:1.0;"/><text fill="#000000" font-family="sans-serif" font-size="11" lengthAdjust="spacing" textLength="179" x="1660" y="515.0386">addMessage(MouseEvent): void</text><ellipse cx="1651" cy="524.6328" fill="#84BE84" rx="3" ry="3" style="stroke:#038048;stroke-width:1.0;"/><text fill="#000000" font-family="sans-serif" font-size="11" lengthAdjust="spacing" textLength="192" x="1660" y="527.8433">addNewPerson(MouseEvent): void</text><ellipse cx="1651" cy="537.4375" fill="#84BE84" rx="3" ry="3" style="stroke:#038048;stroke-width:1.0;"/><text fill="#000000" font-family="sans-serif" font-size="11" lengthAdjust="spacing" textLength="212" x="1660" y="540.6479">sendMessageClick(MouseEvent): void</text><ellipse cx="1651" cy="550.2422" fill="#84BE84" rx="3" ry="3" style="stroke:#038048;stroke-width:1.0;"/><text fill="#000000" font-family="sans-serif" font-size="11" lengthAdjust="spacing" textLength="199" x="1660" y="553.4526">sendMessageEnter(KeyEvent): void</text><ellipse cx="1651" cy="563.0469" fill="#84BE84" rx="3" ry="3" style="stroke:#038048;stroke-width:1.0;"/><text fill="#000000" font-family="sans-serif" font-size="11" lengthAdjust="spacing" textLength="270" x="1660" y="566.2573">goToChangeUsernameFrame(ActionEvent): void</text><ellipse cx="1651" cy="575.8516" fill="#84BE84" rx="3" ry="3" style="stroke:#038048;stroke-width:1.0;"/><text fill="#000000" font-family="sans-serif" font-size="11" lengthAdjust="spacing" textLength="167" x="1660" y="579.062">validateOK(MouseEvent): void</text><ellipse cx="1651" cy="588.6563" fill="#84BE84" rx="3" ry="3" style="stroke:#038048;stroke-width:1.0;"/><text fill="#000000" font-family="sans-serif" font-size="11" lengthAdjust="spacing" textLength="147" x="1660" y="591.8667">changeName(String): void</text></a><!--MD5=[9a48167893d86b64cfda6e67fd4a9381]
class org.example.view.PersonObject--><a href="PersonObject.html" target="_top" title="PersonObject.html" xlink:actuate="onRequest" xlink:href="PersonObject.html" xlink:show="new" xlink:title="PersonObject.html" xlink:type="simple"><rect codeLine="69" fill="#FEFECE" filter="url(#f1od318eoh032t)" height="99.2188" id="org.example.view.PersonObject" style="stroke:#A80036;stroke-width:1.5;" width="234" x="339" y="217.5"/><ellipse cx="409.75" cy="233.5" fill="#ADD1B2" rx="11" ry="11" style="stroke:#A80036;stroke-width:1.0;"/><path d="M412.7188,239.1406 Q412.1406,239.4375 411.5,239.5781 Q410.8594,239.7344 410.1563,239.7344 Q407.6563,239.7344 406.3281,238.0938 Q405.0156,236.4375 405.0156,233.3125 Q405.0156,230.1875 406.3281,228.5313 Q407.6563,226.875 410.1563,226.875 Q410.8594,226.875 411.5,227.0313 Q412.1563,227.1875 412.7188,227.4844 L412.7188,230.2031 Q412.0938,229.625 411.5,229.3594 Q410.9063,229.0781 410.2813,229.0781 Q408.9375,229.0781 408.25,230.1563 Q407.5625,231.2188 407.5625,233.3125 Q407.5625,235.4063 408.25,236.4844 Q408.9375,237.5469 410.2813,237.5469 Q410.9063,237.5469 411.5,237.2813 Q412.0938,237 412.7188,236.4219 L412.7188,239.1406 Z " fill="#000000"/><text fill="#000000" font-family="sans-serif" font-size="12" lengthAdjust="spacing" textLength="84" x="430.25" y="237.6543">PersonObject</text><line style="stroke:#A80036;stroke-width:1.5;" x1="340" x2="572" y1="249.5" y2="249.5"/><line style="stroke:#A80036;stroke-width:1.5;" x1="340" x2="572" y1="257.5" y2="257.5"/><ellipse cx="350" cy="268.5" fill="#84BE84" rx="3" ry="3" style="stroke:#038048;stroke-width:1.0;"/><text fill="#000000" font-family="sans-serif" font-size="11" lengthAdjust="spacing" textLength="171" x="359" y="271.7104">PersonObject(ConnectedUser)</text><ellipse cx="350" cy="281.3047" fill="#84BE84" rx="3" ry="3" style="stroke:#038048;stroke-width:1.0;"/><text fill="#000000" font-family="sans-serif" font-size="11" lengthAdjust="spacing" textLength="127" x="359" y="284.5151">getUsername(): String</text><ellipse cx="350" cy="294.1094" fill="#84BE84" rx="3" ry="3" style="stroke:#038048;stroke-width:1.0;"/><text fill="#000000" font-family="sans-serif" font-size="11" lengthAdjust="spacing" textLength="88" x="359" y="297.3198">getUUID(): UUID</text><ellipse cx="350" cy="306.9141" fill="#84BE84" rx="3" ry="3" style="stroke:#038048;stroke-width:1.0;"/><text fill="#000000" font-family="sans-serif" font-size="11" lengthAdjust="spacing" textLength="208" x="359" y="310.1245">getConnectedUser(): ConnectedUser</text></a><!--MD5=[c40901c3b4f30b6aba80a64e3806452b]
class javafx.scene.layout.BorderPane--><rect codeLine="87" fill="#FEFECE" filter="url(#f1od318eoh032t)" height="48" id="javafx.scene.layout.BorderPane" style="stroke:#A80036;stroke-width:1.5;" width="106" x="208" y="60"/><ellipse cx="223" cy="76" fill="#ADD1B2" rx="11" ry="11" style="stroke:#A80036;stroke-width:1.0;"/><path d="M225.9688,81.6406 Q225.3906,81.9375 224.75,82.0781 Q224.1094,82.2344 223.4063,82.2344 Q220.9063,82.2344 219.5781,80.5938 Q218.2656,78.9375 218.2656,75.8125 Q218.2656,72.6875 219.5781,71.0313 Q220.9063,69.375 223.4063,69.375 Q224.1094,69.375 224.75,69.5313 Q225.4063,69.6875 225.9688,69.9844 L225.9688,72.7031 Q225.3438,72.125 224.75,71.8594 Q224.1563,71.5781 223.5313,71.5781 Q222.1875,71.5781 221.5,72.6563 Q220.8125,73.7188 220.8125,75.8125 Q220.8125,77.9063 221.5,78.9844 Q222.1875,80.0469 223.5313,80.0469 Q224.1563,80.0469 224.75,79.7813 Q225.3438,79.5 225.9688,78.9219 L225.9688,81.6406 Z " fill="#000000"/><text fill="#000000" font-family="sans-serif" font-size="12" lengthAdjust="spacing" textLength="74" x="237" y="80.1543">BorderPane</text><line style="stroke:#A80036;stroke-width:1.5;" x1="209" x2="313" y1="92" y2="92"/><line style="stroke:#A80036;stroke-width:1.5;" x1="209" x2="313" y1="100" y2="100"/><!--MD5=[e3612552781b2b3849880f2b7cc3064d]
class javafx.application.Application--><rect codeLine="92" fill="#FEFECE" filter="url(#f1od318eoh032t)" height="86.4141" id="javafx.application.Application" style="stroke:#A80036;stroke-width:1.5;" width="194" x="924" y="41"/><ellipse cx="982.25" cy="57" fill="#A9DCDF" rx="11" ry="11" style="stroke:#A80036;stroke-width:1.0;"/><path d="M982.3594,52.3438 L981.2031,57.4219 L983.5313,57.4219 L982.3594,52.3438 Z M980.875,50.1094 L983.8594,50.1094 L987.2188,62.5 L984.7656,62.5 L984,59.4375 L980.7188,59.4375 L979.9688,62.5 L977.5313,62.5 L980.875,50.1094 Z " fill="#000000"/><text fill="#000000" font-family="sans-serif" font-size="12" font-style="italic" lengthAdjust="spacing" textLength="69" x="1002.75" y="61.1543">Application</text><line style="stroke:#A80036;stroke-width:1.5;" x1="925" x2="1117" y1="73" y2="73"/><ellipse cx="935" cy="84" rx="3" ry="3" style="stroke:#038048;stroke-width:1.0;fill:none;"/><text fill="#000000" font-family="sans-serif" font-size="11" lengthAdjust="spacing" text-decoration="underline" textLength="168" x="944" y="87.2104">STYLESHEET_CASPIAN: String</text><ellipse cx="935" cy="96.8047" rx="3" ry="3" style="stroke:#038048;stroke-width:1.0;fill:none;"/><text fill="#000000" font-family="sans-serif" font-size="11" lengthAdjust="spacing" text-decoration="underline" textLength="168" x="944" y="100.0151">STYLESHEET_MODENA: String</text><line style="stroke:#A80036;stroke-width:1.5;" x1="925" x2="1117" y1="106.6094" y2="106.6094"/><ellipse cx="935" cy="117.6094" fill="#84BE84" rx="3" ry="3" style="stroke:#038048;stroke-width:1.0;"/><text fill="#000000" font-family="sans-serif" font-size="11" font-style="italic" lengthAdjust="spacing" textLength="98" x="944" y="120.8198">start(Stage): void</text><!--MD5=[fa9c2fa76ac6766fd20e6757bf082914]
reverse link javafx.scene.layout.BorderPane to org.example.view.MessageObject--><path codeLine="76" d="M233.41,124.95 C210.13,158.66 177.34,206.15 156.37,236.5 " fill="none" id="javafx.scene.layout.BorderPane-backto-org.example.view.MessageObject" style="stroke:#A80036;stroke-width:1.0;"/><polygon fill="none" points="227.79,120.77,244.91,108.29,239.31,128.73,227.79,120.77" style="stroke:#A80036;stroke-width:1.0;"/><!--MD5=[1073afa82ea3b86dc342e988e065681e]
link org.example.view.MessageObject to org.example.view.MessageObject--><path codeLine="77" d="M240.26,251.59 C260.58,253.38 275,258.52 275,267 C275,274.75 262.95,279.71 245.36,281.87 " fill="none" id="org.example.view.MessageObject-to-org.example.view.MessageObject" style="stroke:#A80036;stroke-width:1.0;"/><polygon fill="#A80036" points="240.26,282.41,249.6325,285.436,245.232,281.8814,248.7867,277.4809,240.26,282.41" style="stroke:#A80036;stroke-width:1.0;"/><text fill="#000000" font-family="sans-serif" font-size="13" lengthAdjust="spacing" textLength="34" x="281" y="271.5669">value</text><!--MD5=[b8091e2cb816a7acb1f71bfdcc26d036]
reverse link javafx.application.Application to org.example.view.LoginApplication--><path codeLine="78" d="M905.42,123.65 C877.75,135.62 849.22,150.4 825,168 C801.68,184.95 780.43,209.45 765.01,229.71 " fill="none" id="javafx.application.Application-backto-org.example.view.LoginApplication" style="stroke:#A80036;stroke-width:1.0;"/><polygon fill="none" points="902.75,117.18,923.91,116,908.11,130.11,902.75,117.18" style="stroke:#A80036;stroke-width:1.0;"/><!--MD5=[cda3e58f4a982f2a0a7713d7113baf93]
reverse link javafx.application.Application to org.example.view.HelloApplication--><path codeLine="79" d="M987.81,145.08 C974.82,168.58 960.13,195.18 947.83,217.43 " fill="none" id="javafx.application.Application-backto-org.example.view.HelloApplication" style="stroke:#A80036;stroke-width:1.0;"/><polygon fill="none" points="981.76,141.56,997.55,127.44,994.01,148.33,981.76,141.56" style="stroke:#A80036;stroke-width:1.0;"/><!--MD5=[a7af937408225b37b4466bda0660d97c]
reverse link javafx.application.Application to org.example.view.ErrorDialog--><path codeLine="80" d="M1054.22,145.12 C1069.73,173.21 1087.69,205.71 1101.07,229.93 " fill="none" id="javafx.application.Application-backto-org.example.view.ErrorDialog" style="stroke:#A80036;stroke-width:1.0;"/><polygon fill="none" points="1047.99,148.33,1044.45,127.44,1060.24,141.56,1047.99,148.33" style="stroke:#A80036;stroke-width:1.0;"/><!--MD5=[1a41e32ba88dd1fb833a2ad7d5726c9c]
reverse link javafx.application.Application to org.example.view.ChangeUsenameApplication--><path codeLine="81" d="M1136.72,126.01 C1166.22,138.09 1197.39,152.33 1225,168 C1256.22,185.72 1288.46,209.97 1313.02,229.92 " fill="none" id="javafx.application.Application-backto-org.example.view.ChangeUsenameApplication" style="stroke:#A80036;stroke-width:1.0;"/><polygon fill="none" points="1134.09,132.49,1118.11,118.57,1139.28,119.49,1134.09,132.49" style="stroke:#A80036;stroke-width:1.0;"/><!--MD5=[343b892edd8eedd4b8f9319aa977256d]
reverse link javafx.scene.layout.BorderPane to org.example.view.PersonObject--><path codeLine="82" d="M300.89,122.02 C330.52,149.53 371.23,187.31 403.51,217.27 " fill="none" id="javafx.scene.layout.BorderPane-backto-org.example.view.PersonObject" style="stroke:#A80036;stroke-width:1.0;"/><polygon fill="none" points="295.99,127.03,286.09,108.29,305.51,116.77,295.99,127.03" style="stroke:#A80036;stroke-width:1.0;"/><!--MD5=[b1cd6a078a7d7301758735da9a744244]
link org.example.view.PersonObject to org.example.view.PersonObject--><path codeLine="83" d="M573.27,251.88 C593.75,253.9 608,258.94 608,267 C608,274.37 596.09,279.21 578.4,281.53 " fill="none" id="org.example.view.PersonObject-to-org.example.view.PersonObject" style="stroke:#A80036;stroke-width:1.0;"/><polygon fill="#A80036" points="573.27,282.12,582.6679,285.0661,578.2373,281.549,581.7544,277.1184,573.27,282.12" style="stroke:#A80036;stroke-width:1.0;"/><text fill="#000000" font-family="sans-serif" font-size="13" lengthAdjust="spacing" textLength="34" x="614" y="271.5669">value</text><!--MD5=[da4fff3d64150a8e43b76e7e14519abf]
link org.example.view.ErrorController to org.example.view.LoginController--><!--MD5=[8da6731004655ac61290f04850675ce7]
link org.example.view.ErrorController to org.example.view.ChangeUsernameController--><!--MD5=[807d9d469dcd1312341970c45f23c368]
link org.example.view.ChangeUsernameController to org.example.view.HelloController--><text fill="#888888" font-family="sans-serif" font-size="10" lengthAdjust="spacing" textLength="192" x="882" y="629.2822">UMLDoclet 2.0.15, PlantUML 1.2021.13</text><!--MD5=[20c752fbe958ec41023e1cc40623bc32]
@startuml
    namespace org.example.view {

        class MessageObject [[MessageObject.html]] {
            +MessageObject(String, boolean)
        }

        class ErrorController [[ErrorController.html]] {
            +setCurrentStage(Stage): void
            +setParentStage(Stage): void
            +setErrorText(String): void
        }

        class LoginApplication [[LoginApplication.html]] {
            +start(Stage): void
            {static} +main(String[]): void
        }

        class LoginController [[LoginController.html]] {
            +loginText: TextField
            +setStage(Stage): void
            +startSession(MouseEvent): void
            +validateOK(MouseEvent): void
            +loginEnter(KeyEvent): void
        }

        class HelloApplication [[HelloApplication.html]] {
            +HelloApplication(String)
            +start(Stage): void
            +stop(): void
            {static} +main(String[]): void
        }

        class ChangeUsernameController [[ChangeUsernameController.html]] {
            +myStage: Stage
            +parentStage: Stage
            +usernameChange: TextField
            +setStage(Stage, Stage): void
            +validateOK(MouseEvent): void
            +validateCancel(MouseEvent): void
            +changePseudoEnter(KeyEvent): void
        }

        class ErrorDialog [[ErrorDialog.html]] {
            +ErrorDialog(String, Stage)
            +start(Stage): void
        }

        class ChangeUsenameApplication [[ChangeUsenameApplication.html]] {
            +ChangeUsenameApplication(Stage)
            +start(Stage): void
        }

        class HelloController [[HelloController.html]] {
            +listPeopleConnected: VBox
            +messageSendField: TextArea
            +subscribeToObservers(): void
            +resubscribe(): void
            +setStage(Stage): void
            +addNewMessages(ScrollEvent): void
            +addMessage(MouseEvent): void
            +addNewPerson(MouseEvent): void
            +sendMessageClick(MouseEvent): void
            +sendMessageEnter(KeyEvent): void
            +goToChangeUsernameFrame(ActionEvent): void
            +validateOK(MouseEvent): void
            +changeName(String): void
        }

        class PersonObject [[PersonObject.html]] {
            +PersonObject(ConnectedUser)
            +getUsername(): String
            +getUUID(): UUID
            +getConnectedUser(): ConnectedUser
        }

        javafx.scene.layout.BorderPane <|- - MessageObject
        MessageObject - -> MessageObject: value
        javafx.application.Application <|- - LoginApplication
        javafx.application.Application <|- - HelloApplication
        javafx.application.Application <|- - ErrorDialog
        javafx.application.Application <|- - ChangeUsenameApplication
        javafx.scene.layout.BorderPane <|- - PersonObject
        PersonObject - -> PersonObject: value
    }

    namespace javafx.scene.layout {
        class BorderPane {
        }
    }

    namespace javafx.application {
        abstract class Application {
            {static} +STYLESHEET_CASPIAN: String
            {static} +STYLESHEET_MODENA: String
            {abstract} +start(Stage): void
        }
    }

    center footer UMLDoclet 2.0.15, PlantUML 1.2021.13
@enduml

PlantUML version 1.2021.13(Mon Nov 01 11:38:45 UTC 2021)
(APACHE source distribution)
Java Runtime: OpenJDK Runtime Environment
JVM: OpenJDK 64-Bit Server VM
Default Encoding: UTF-8
Language: en
Country: null
--></g></svg>