<?xml version="1.0" encoding="UTF-8" standalone="no"?><svg xmlns="http://www.w3.org/2000/svg" xmlns:xlink="http://www.w3.org/1999/xlink" contentScriptType="application/ecmascript" contentStyleType="text/css" height="258px" preserveAspectRatio="none" style="width:271px;height:258px;background:#FFFFFF;" version="1.1" viewBox="0 0 271 258" width="271px" zoomAndPan="magnify"><defs><filter height="300%" id="f1275oktwjgti2" width="300%" x="-1" y="-1"><feGaussianBlur result="blurOut" stdDeviation="2.0"/><feColorMatrix in="blurOut" result="blurOut2" type="matrix" values="0 0 0 0 0 0 0 0 0 0 0 0 0 0 0 0 0 0 .4 0"/><feOffset dx="4.0" dy="4.0" in="blurOut2" result="blurOut3"/><feBlend in="SourceGraphic" in2="blurOut3" mode="normal"/></filter></defs><g><!--MD5=[9a48167893d86b64cfda6e67fd4a9381]
class org.example.view.PersonObject--><a href="PersonObject.html" target="_top" title="PersonObject.html" xlink:actuate="onRequest" xlink:href="PersonObject.html" xlink:show="new" xlink:title="PersonObject.html" xlink:type="simple"><rect codeLine="5" fill="#FEFECE" filter="url(#f1275oktwjgti2)" height="122.7656" id="org.example.view.PersonObject" style="stroke:#A80036;stroke-width:1.5;" width="250" x="7" y="105"/><ellipse cx="80.75" cy="123.9688" fill="#ADD1B2" rx="11" ry="11" style="stroke:#A80036;stroke-width:1.0;"/><path d="M83.7188,129.6094 Q83.1406,129.9063 82.5,130.0469 Q81.8594,130.2031 81.1563,130.2031 Q78.6563,130.2031 77.3281,128.5625 Q76.0156,126.9063 76.0156,123.7813 Q76.0156,120.6563 77.3281,119 Q78.6563,117.3438 81.1563,117.3438 Q81.8594,117.3438 82.5,117.5 Q83.1563,117.6563 83.7188,117.9531 L83.7188,120.6719 Q83.0938,120.0938 82.5,119.8281 Q81.9063,119.5469 81.2813,119.5469 Q79.9375,119.5469 79.25,120.625 Q78.5625,121.6875 78.5625,123.7813 Q78.5625,125.875 79.25,126.9531 Q79.9375,128.0156 81.2813,128.0156 Q81.9063,128.0156 82.5,127.75 Q83.0938,127.4688 83.7188,126.8906 L83.7188,129.6094 Z " fill="#000000"/><text fill="#000000" font-family="sans-serif" font-size="14" lengthAdjust="spacing" textLength="94" x="101.25" y="122.9951">PersonObject</text><text fill="#000000" font-family="sans-serif" font-size="10" lengthAdjust="spacing" textLength="86" x="105.25" y="135.5791">org.example.view</text><line style="stroke:#A80036;stroke-width:1.5;" x1="8" x2="256" y1="142.9375" y2="142.9375"/><ellipse cx="18" cy="153.9375" fill="#84BE84" rx="3" ry="3" style="stroke:#038048;stroke-width:1.0;"/><text fill="#000000" font-family="sans-serif" font-size="11" lengthAdjust="spacing" textLength="224" x="27" y="157.1479">PersonObject(ConnectedUser, boolean)</text><ellipse cx="18" cy="166.7422" fill="#84BE84" rx="3" ry="3" style="stroke:#038048;stroke-width:1.0;"/><text fill="#000000" font-family="sans-serif" font-size="11" lengthAdjust="spacing" textLength="141" x="27" y="169.9526">getValue(): PersonObject</text><ellipse cx="18" cy="179.5469" fill="#84BE84" rx="3" ry="3" style="stroke:#038048;stroke-width:1.0;"/><text fill="#000000" font-family="sans-serif" font-size="11" lengthAdjust="spacing" textLength="127" x="27" y="182.7573">getUsername(): String</text><ellipse cx="18" cy="192.3516" fill="#84BE84" rx="3" ry="3" style="stroke:#038048;stroke-width:1.0;"/><text fill="#000000" font-family="sans-serif" font-size="11" lengthAdjust="spacing" textLength="174" x="27" y="195.562">setNewUsername(String): void</text><ellipse cx="18" cy="205.1563" fill="#84BE84" rx="3" ry="3" style="stroke:#038048;stroke-width:1.0;"/><text fill="#000000" font-family="sans-serif" font-size="11" lengthAdjust="spacing" textLength="88" x="27" y="208.3667">getUUID(): UUID</text><ellipse cx="18" cy="217.9609" fill="#84BE84" rx="3" ry="3" style="stroke:#038048;stroke-width:1.0;"/><text fill="#000000" font-family="sans-serif" font-size="11" lengthAdjust="spacing" textLength="208" x="27" y="221.1714">getConnectedUser(): ConnectedUser</text></a><!--MD5=[c40901c3b4f30b6aba80a64e3806452b]
class javafx.scene.layout.BorderPane--><rect codeLine="14" fill="#FEFECE" filter="url(#f1275oktwjgti2)" height="37.9375" id="javafx.scene.layout.BorderPane" style="stroke:#A80036;stroke-width:1.5;" width="126" x="69" y="7"/><ellipse cx="84" cy="25.9688" fill="#ADD1B2" rx="11" ry="11" style="stroke:#A80036;stroke-width:1.0;"/><path d="M86.9688,31.6094 Q86.3906,31.9063 85.75,32.0469 Q85.1094,32.2031 84.4063,32.2031 Q81.9063,32.2031 80.5781,30.5625 Q79.2656,28.9063 79.2656,25.7813 Q79.2656,22.6563 80.5781,21 Q81.9063,19.3438 84.4063,19.3438 Q85.1094,19.3438 85.75,19.5 Q86.4063,19.6563 86.9688,19.9531 L86.9688,22.6719 Q86.3438,22.0938 85.75,21.8281 Q85.1563,21.5469 84.5313,21.5469 Q83.1875,21.5469 82.5,22.625 Q81.8125,23.6875 81.8125,25.7813 Q81.8125,27.875 82.5,28.9531 Q83.1875,30.0156 84.5313,30.0156 Q85.1563,30.0156 85.75,29.75 Q86.3438,29.4688 86.9688,28.8906 L86.9688,31.6094 Z " fill="#000000"/><text fill="#000000" font-family="sans-serif" font-size="14" lengthAdjust="spacing" textLength="82" x="104" y="24.9951">BorderPane</text><text fill="#000000" font-family="sans-serif" font-size="10" lengthAdjust="spacing" textLength="94" x="98" y="37.5791">javafx.scene.layout</text><!--MD5=[343b892edd8eedd4b8f9319aa977256d]
reverse link javafx.scene.layout.BorderPane to org.example.view.PersonObject--><path codeLine="16" d="M132,65.43 C132,77.6 132,91.36 132,104.7 " fill="none" id="javafx.scene.layout.BorderPane-backto-org.example.view.PersonObject" style="stroke:#A80036;stroke-width:1.0;"/><polygon fill="none" points="125,65.11,132,45.11,139,65.11,125,65.11" style="stroke:#A80036;stroke-width:1.0;"/><text fill="#888888" font-family="sans-serif" font-size="10" lengthAdjust="spacing" textLength="192" x="33" y="250.0479">UMLDoclet 2.0.15, PlantUML 1.2021.13</text><!--MD5=[f4d7cf86bdf13fce1c3abd3fc48d22f6]
@startuml
    set namespaceSeparator none
    hide empty fields
    hide empty methods

    class "<size:14>PersonObject\n<size:10>org.example.view" as org.example.view.PersonObject [[PersonObject.html]] {
        +PersonObject(ConnectedUser, boolean)
        +getValue(): PersonObject
        +getUsername(): String
        +setNewUsername(String): void
        +getUUID(): UUID
        +getConnectedUser(): ConnectedUser
    }

    class "<size:14>BorderPane\n<size:10>javafx.scene.layout" as javafx.scene.layout.BorderPane

    javafx.scene.layout.BorderPane <|- - org.example.view.PersonObject

    center footer UMLDoclet 2.0.15, PlantUML 1.2021.13
@enduml

PlantUML version 1.2021.13(Mon Nov 01 11:38:45 UTC 2021)
(APACHE source distribution)
Java Runtime: OpenJDK Runtime Environment
JVM: OpenJDK 64-Bit Server VM
Default Encoding: UTF-8
Language: en
Country: null
--></g></svg>