<?xml version="1.0" encoding="UTF-8" standalone="no"?><svg xmlns="http://www.w3.org/2000/svg" xmlns:xlink="http://www.w3.org/1999/xlink" contentScriptType="application/ecmascript" contentStyleType="text/css" height="245px" preserveAspectRatio="none" style="width:255px;height:245px;background:#FFFFFF;" version="1.1" viewBox="0 0 255 245" width="255px" zoomAndPan="magnify"><defs><filter height="300%" id="fsivx4wftmv3k" width="300%" x="-1" y="-1"><feGaussianBlur result="blurOut" stdDeviation="2.0"/><feColorMatrix in="blurOut" result="blurOut2" type="matrix" values="0 0 0 0 0 0 0 0 0 0 0 0 0 0 0 0 0 0 .4 0"/><feOffset dx="4.0" dy="4.0" in="blurOut2" result="blurOut3"/><feBlend in="SourceGraphic" in2="blurOut3" mode="normal"/></filter></defs><g><!--MD5=[9a48167893d86b64cfda6e67fd4a9381]
class org.example.view.PersonObject--><a href="PersonObject.html" target="_top" title="PersonObject.html" xlink:actuate="onRequest" xlink:href="PersonObject.html" xlink:show="new" xlink:title="PersonObject.html" xlink:type="simple"><rect codeLine="5" fill="#FEFECE" filter="url(#fsivx4wftmv3k)" height="109.9609" id="org.example.view.PersonObject" style="stroke:#A80036;stroke-width:1.5;" width="234" x="7" y="105"/><ellipse cx="72.75" cy="123.9688" fill="#ADD1B2" rx="11" ry="11" style="stroke:#A80036;stroke-width:1.0;"/><path d="M75.7188,129.6094 Q75.1406,129.9063 74.5,130.0469 Q73.8594,130.2031 73.1563,130.2031 Q70.6563,130.2031 69.3281,128.5625 Q68.0156,126.9063 68.0156,123.7813 Q68.0156,120.6563 69.3281,119 Q70.6563,117.3438 73.1563,117.3438 Q73.8594,117.3438 74.5,117.5 Q75.1563,117.6563 75.7188,117.9531 L75.7188,120.6719 Q75.0938,120.0938 74.5,119.8281 Q73.9063,119.5469 73.2813,119.5469 Q71.9375,119.5469 71.25,120.625 Q70.5625,121.6875 70.5625,123.7813 Q70.5625,125.875 71.25,126.9531 Q71.9375,128.0156 73.2813,128.0156 Q73.9063,128.0156 74.5,127.75 Q75.0938,127.4688 75.7188,126.8906 L75.7188,129.6094 Z " fill="#000000"/><text fill="#000000" font-family="sans-serif" font-size="14" lengthAdjust="spacing" textLength="94" x="93.25" y="122.9951">PersonObject</text><text fill="#000000" font-family="sans-serif" font-size="10" lengthAdjust="spacing" textLength="86" x="97.25" y="135.5791">org.example.view</text><line style="stroke:#A80036;stroke-width:1.5;" x1="8" x2="240" y1="142.9375" y2="142.9375"/><ellipse cx="18" cy="153.9375" fill="#84BE84" rx="3" ry="3" style="stroke:#038048;stroke-width:1.0;"/><text fill="#000000" font-family="sans-serif" font-size="11" lengthAdjust="spacing" textLength="171" x="27" y="157.1479">PersonObject(ConnectedUser)</text><ellipse cx="18" cy="166.7422" fill="#84BE84" rx="3" ry="3" style="stroke:#038048;stroke-width:1.0;"/><text fill="#000000" font-family="sans-serif" font-size="11" lengthAdjust="spacing" textLength="141" x="27" y="169.9526">getValue(): PersonObject</text><ellipse cx="18" cy="179.5469" fill="#84BE84" rx="3" ry="3" style="stroke:#038048;stroke-width:1.0;"/><text fill="#000000" font-family="sans-serif" font-size="11" lengthAdjust="spacing" textLength="127" x="27" y="182.7573">getUsername(): String</text><ellipse cx="18" cy="192.3516" fill="#84BE84" rx="3" ry="3" style="stroke:#038048;stroke-width:1.0;"/><text fill="#000000" font-family="sans-serif" font-size="11" lengthAdjust="spacing" textLength="88" x="27" y="195.562">getUUID(): UUID</text><ellipse cx="18" cy="205.1563" fill="#84BE84" rx="3" ry="3" style="stroke:#038048;stroke-width:1.0;"/><text fill="#000000" font-family="sans-serif" font-size="11" lengthAdjust="spacing" textLength="208" x="27" y="208.3667">getConnectedUser(): ConnectedUser</text></a><!--MD5=[c40901c3b4f30b6aba80a64e3806452b]
class javafx.scene.layout.BorderPane--><rect codeLine="13" fill="#FEFECE" filter="url(#fsivx4wftmv3k)" height="37.9375" id="javafx.scene.layout.BorderPane" style="stroke:#A80036;stroke-width:1.5;" width="126" x="61" y="7"/><ellipse cx="76" cy="25.9688" fill="#ADD1B2" rx="11" ry="11" style="stroke:#A80036;stroke-width:1.0;"/><path d="M78.9688,31.6094 Q78.3906,31.9063 77.75,32.0469 Q77.1094,32.2031 76.4063,32.2031 Q73.9063,32.2031 72.5781,30.5625 Q71.2656,28.9063 71.2656,25.7813 Q71.2656,22.6563 72.5781,21 Q73.9063,19.3438 76.4063,19.3438 Q77.1094,19.3438 77.75,19.5 Q78.4063,19.6563 78.9688,19.9531 L78.9688,22.6719 Q78.3438,22.0938 77.75,21.8281 Q77.1563,21.5469 76.5313,21.5469 Q75.1875,21.5469 74.5,22.625 Q73.8125,23.6875 73.8125,25.7813 Q73.8125,27.875 74.5,28.9531 Q75.1875,30.0156 76.5313,30.0156 Q77.1563,30.0156 77.75,29.75 Q78.3438,29.4688 78.9688,28.8906 L78.9688,31.6094 Z " fill="#000000"/><text fill="#000000" font-family="sans-serif" font-size="14" lengthAdjust="spacing" textLength="82" x="96" y="24.9951">BorderPane</text><text fill="#000000" font-family="sans-serif" font-size="10" lengthAdjust="spacing" textLength="94" x="90" y="37.5791">javafx.scene.layout</text><!--MD5=[343b892edd8eedd4b8f9319aa977256d]
reverse link javafx.scene.layout.BorderPane to org.example.view.PersonObject--><path codeLine="15" d="M124,65.19 C124,77.61 124,91.62 124,104.97 " fill="none" id="javafx.scene.layout.BorderPane-backto-org.example.view.PersonObject" style="stroke:#A80036;stroke-width:1.0;"/><polygon fill="none" points="117,65.08,124,45.08,131,65.08,117,65.08" style="stroke:#A80036;stroke-width:1.0;"/><text fill="#888888" font-family="sans-serif" font-size="10" lengthAdjust="spacing" textLength="192" x="25" y="237.2432">UMLDoclet 2.0.15, PlantUML 1.2021.13</text><!--MD5=[8ff520ead957cf41109db4ad4e3de267]
@startuml
    set namespaceSeparator none
    hide empty fields
    hide empty methods

    class "<size:14>PersonObject\n<size:10>org.example.view" as org.example.view.PersonObject [[PersonObject.html]] {
        +PersonObject(ConnectedUser)
        +getValue(): PersonObject
        +getUsername(): String
        +getUUID(): UUID
        +getConnectedUser(): ConnectedUser
    }

    class "<size:14>BorderPane\n<size:10>javafx.scene.layout" as javafx.scene.layout.BorderPane

    javafx.scene.layout.BorderPane <|- - org.example.view.PersonObject

    center footer UMLDoclet 2.0.15, PlantUML 1.2021.13
@enduml

PlantUML version 1.2021.13(Mon Nov 01 11:38:45 UTC 2021)
(APACHE source distribution)
Java Runtime: OpenJDK Runtime Environment
JVM: OpenJDK 64-Bit Server VM
Default Encoding: UTF-8
Language: en
Country: null
--></g></svg>