<?xml version="1.0" encoding="UTF-8" standalone="no"?><svg xmlns="http://www.w3.org/2000/svg" xmlns:xlink="http://www.w3.org/1999/xlink" contentScriptType="application/ecmascript" contentStyleType="text/css" height="116px" preserveAspectRatio="none" style="width:199px;height:116px;background:#FFFFFF;" version="1.1" viewBox="0 0 199 116" width="199px" zoomAndPan="magnify"><defs><filter height="300%" id="f17si0y0mc73v2" width="300%" x="-1" y="-1"><feGaussianBlur result="blurOut" stdDeviation="2.0"/><feColorMatrix in="blurOut" result="blurOut2" type="matrix" values="0 0 0 0 0 0 0 0 0 0 0 0 0 0 0 0 0 0 .4 0"/><feOffset dx="4.0" dy="4.0" in="blurOut2" result="blurOut3"/><feBlend in="SourceGraphic" in2="blurOut3" mode="normal"/></filter></defs><g><!--MD5=[b4aedda931cd0abbad1bda1ed5713d51]
class me.server.model.Log--><a href="Log.html" target="_top" title="Log.html" xlink:actuate="onRequest" xlink:href="Log.html" xlink:show="new" xlink:title="Log.html" xlink:type="simple"><rect codeLine="5" fill="#FEFECE" filter="url(#f17si0y0mc73v2)" height="84.3516" id="me.server.model.Log" style="stroke:#A80036;stroke-width:1.5;" width="123" x="34.5" y="7"/><ellipse cx="53.1" cy="25.9688" fill="#ADD1B2" rx="11" ry="11" style="stroke:#A80036;stroke-width:1.0;"/><path d="M56.0688,31.6094 Q55.4906,31.9063 54.85,32.0469 Q54.2094,32.2031 53.5063,32.2031 Q51.0063,32.2031 49.6781,30.5625 Q48.3656,28.9063 48.3656,25.7813 Q48.3656,22.6563 49.6781,21 Q51.0063,19.3438 53.5063,19.3438 Q54.2094,19.3438 54.85,19.5 Q55.5063,19.6563 56.0688,19.9531 L56.0688,22.6719 Q55.4438,22.0938 54.85,21.8281 Q54.2563,21.5469 53.6313,21.5469 Q52.2875,21.5469 51.6,22.625 Q50.9125,23.6875 50.9125,25.7813 Q50.9125,27.875 51.6,28.9531 Q52.2875,30.0156 53.6313,30.0156 Q54.2563,30.0156 54.85,29.75 Q55.4438,29.4688 56.0688,28.8906 L56.0688,31.6094 Z " fill="#000000"/><text fill="#000000" font-family="sans-serif" font-size="14" lengthAdjust="spacing" textLength="25" x="96.9" y="24.9951">Log</text><text fill="#000000" font-family="sans-serif" font-size="10" lengthAdjust="spacing" textLength="83" x="67.9" y="37.5791">me.server.model</text><line style="stroke:#A80036;stroke-width:1.5;" x1="35.5" x2="156.5" y1="44.9375" y2="44.9375"/><ellipse cx="45.5" cy="55.9375" fill="#84BE84" rx="3" ry="3" style="stroke:#038048;stroke-width:1.0;"/><text fill="#000000" font-family="sans-serif" font-size="11" lengthAdjust="spacing" textLength="97" x="54.5" y="59.1479">Log(UUID, String)</text><ellipse cx="45.5" cy="68.7422" fill="#84BE84" rx="3" ry="3" style="stroke:#038048;stroke-width:1.0;"/><text fill="#000000" font-family="sans-serif" font-size="11" lengthAdjust="spacing" textLength="86" x="54.5" y="71.9526">getUuid(): UUID</text><ellipse cx="45.5" cy="81.5469" fill="#84BE84" rx="3" ry="3" style="stroke:#038048;stroke-width:1.0;"/><text fill="#000000" font-family="sans-serif" font-size="11" lengthAdjust="spacing" textLength="88" x="54.5" y="84.7573">getLog(): String</text></a><text fill="#888888" font-family="sans-serif" font-size="10" lengthAdjust="spacing" textLength="192" x="0" y="107.6338">UMLDoclet 2.0.15, PlantUML 1.2021.13</text><!--MD5=[f0bfbd9471c7134a39675f72f4d8cdef]
@startuml
    set namespaceSeparator none
    hide empty fields
    hide empty methods

    class "<size:14>Log\n<size:10>me.server.model" as me.server.model.Log [[Log.html]] {
        +Log(UUID, String)
        +getUuid(): UUID
        +getLog(): String
    }

    center footer UMLDoclet 2.0.15, PlantUML 1.2021.13
@enduml

PlantUML version 1.2021.13(Mon Nov 01 11:38:45 UTC 2021)
(APACHE source distribution)
Java Runtime: OpenJDK Runtime Environment
JVM: OpenJDK 64-Bit Server VM
Default Encoding: UTF-8
Language: en
Country: null
--></g></svg>