<?xml version="1.0" encoding="UTF-8" standalone="no"?><svg xmlns="http://www.w3.org/2000/svg" xmlns:xlink="http://www.w3.org/1999/xlink" contentScriptType="application/ecmascript" contentStyleType="text/css" height="312px" preserveAspectRatio="none" style="width:370px;height:312px;background:#FFFFFF;" version="1.1" viewBox="0 0 370 312" width="370px" zoomAndPan="magnify"><defs><filter height="300%" id="fev9q4bkh4c93" width="300%" x="-1" y="-1"><feGaussianBlur result="blurOut" stdDeviation="2.0"/><feColorMatrix in="blurOut" result="blurOut2" type="matrix" values="0 0 0 0 0 0 0 0 0 0 0 0 0 0 0 0 0 0 .4 0"/><feOffset dx="4.0" dy="4.0" in="blurOut2" result="blurOut3"/><feBlend in="SourceGraphic" in2="blurOut3" mode="normal"/></filter></defs><g><!--MD5=[de0d15a6ced9e4eb79ab70f91da3e32d]
cluster me.server.model--><polygon fill="#FFFFFF" filter="url(#fev9q4bkh4c93)" points="16,6,156,6,163,28.2969,353,28.2969,353,289,16,289,16,6" style="stroke:#000000;stroke-width:1.5;"/><line style="stroke:#000000;stroke-width:1.5;" x1="16" x2="163" y1="28.2969" y2="28.2969"/><text fill="#000000" font-family="sans-serif" font-size="14" font-weight="bold" lengthAdjust="spacing" textLength="134" x="20" y="20.9951">me.server.model</text><!--MD5=[aa5bcf5277ce3936db73ced20a258ce5]
class me.server.model.LogLine--><a href="LogLine.html" target="_top" title="LogLine.html" xlink:actuate="onRequest" xlink:href="LogLine.html" xlink:show="new" xlink:title="LogLine.html" xlink:type="simple"><rect codeLine="3" fill="#FEFECE" filter="url(#fev9q4bkh4c93)" height="86.4141" id="me.server.model.LogLine" style="stroke:#A80036;stroke-width:1.5;" width="146" x="32" y="41"/><ellipse cx="77.25" cy="57" fill="#ADD1B2" rx="11" ry="11" style="stroke:#A80036;stroke-width:1.0;"/><path d="M80.2188,62.6406 Q79.6406,62.9375 79,63.0781 Q78.3594,63.2344 77.6563,63.2344 Q75.1563,63.2344 73.8281,61.5938 Q72.5156,59.9375 72.5156,56.8125 Q72.5156,53.6875 73.8281,52.0313 Q75.1563,50.375 77.6563,50.375 Q78.3594,50.375 79,50.5313 Q79.6563,50.6875 80.2188,50.9844 L80.2188,53.7031 Q79.5938,53.125 79,52.8594 Q78.4063,52.5781 77.7813,52.5781 Q76.4375,52.5781 75.75,53.6563 Q75.0625,54.7188 75.0625,56.8125 Q75.0625,58.9063 75.75,59.9844 Q76.4375,61.0469 77.7813,61.0469 Q78.4063,61.0469 79,60.7813 Q79.5938,60.5 80.2188,59.9219 L80.2188,62.6406 Z " fill="#000000"/><text fill="#000000" font-family="sans-serif" font-size="12" lengthAdjust="spacing" textLength="47" x="97.75" y="61.1543">LogLine</text><line style="stroke:#A80036;stroke-width:1.5;" x1="33" x2="177" y1="73" y2="73"/><line style="stroke:#A80036;stroke-width:1.5;" x1="33" x2="177" y1="81" y2="81"/><ellipse cx="43" cy="92" fill="#84BE84" rx="3" ry="3" style="stroke:#038048;stroke-width:1.0;"/><text fill="#000000" font-family="sans-serif" font-size="11" lengthAdjust="spacing" textLength="120" x="52" y="95.2104">LogLine(UUID, String)</text><ellipse cx="43" cy="104.8047" fill="#84BE84" rx="3" ry="3" style="stroke:#038048;stroke-width:1.0;"/><text fill="#000000" font-family="sans-serif" font-size="11" lengthAdjust="spacing" textLength="86" x="52" y="108.0151">getUuid(): UUID</text><ellipse cx="43" cy="117.6094" fill="#84BE84" rx="3" ry="3" style="stroke:#038048;stroke-width:1.0;"/><text fill="#000000" font-family="sans-serif" font-size="11" lengthAdjust="spacing" textLength="111" x="52" y="120.8198">getLogLine(): String</text></a><!--MD5=[b4aedda931cd0abbad1bda1ed5713d51]
class me.server.model.Log--><a href="Log.html" target="_top" title="Log.html" xlink:actuate="onRequest" xlink:href="Log.html" xlink:show="new" xlink:title="Log.html" xlink:type="simple"><rect codeLine="9" fill="#FEFECE" filter="url(#fev9q4bkh4c93)" height="86.4141" id="me.server.model.Log" style="stroke:#A80036;stroke-width:1.5;" width="123" x="213.5" y="41"/><ellipse cx="259.75" cy="57" fill="#ADD1B2" rx="11" ry="11" style="stroke:#A80036;stroke-width:1.0;"/><path d="M262.7188,62.6406 Q262.1406,62.9375 261.5,63.0781 Q260.8594,63.2344 260.1563,63.2344 Q257.6563,63.2344 256.3281,61.5938 Q255.0156,59.9375 255.0156,56.8125 Q255.0156,53.6875 256.3281,52.0313 Q257.6563,50.375 260.1563,50.375 Q260.8594,50.375 261.5,50.5313 Q262.1563,50.6875 262.7188,50.9844 L262.7188,53.7031 Q262.0938,53.125 261.5,52.8594 Q260.9063,52.5781 260.2813,52.5781 Q258.9375,52.5781 258.25,53.6563 Q257.5625,54.7188 257.5625,56.8125 Q257.5625,58.9063 258.25,59.9844 Q258.9375,61.0469 260.2813,61.0469 Q260.9063,61.0469 261.5,60.7813 Q262.0938,60.5 262.7188,59.9219 L262.7188,62.6406 Z " fill="#000000"/><text fill="#000000" font-family="sans-serif" font-size="12" lengthAdjust="spacing" textLength="22" x="280.25" y="61.1543">Log</text><line style="stroke:#A80036;stroke-width:1.5;" x1="214.5" x2="335.5" y1="73" y2="73"/><line style="stroke:#A80036;stroke-width:1.5;" x1="214.5" x2="335.5" y1="81" y2="81"/><ellipse cx="224.5" cy="92" fill="#84BE84" rx="3" ry="3" style="stroke:#038048;stroke-width:1.0;"/><text fill="#000000" font-family="sans-serif" font-size="11" lengthAdjust="spacing" textLength="97" x="233.5" y="95.2104">Log(UUID, String)</text><ellipse cx="224.5" cy="104.8047" fill="#84BE84" rx="3" ry="3" style="stroke:#038048;stroke-width:1.0;"/><text fill="#000000" font-family="sans-serif" font-size="11" lengthAdjust="spacing" textLength="86" x="233.5" y="108.0151">getUuid(): UUID</text><ellipse cx="224.5" cy="117.6094" fill="#84BE84" rx="3" ry="3" style="stroke:#038048;stroke-width:1.0;"/><text fill="#000000" font-family="sans-serif" font-size="11" lengthAdjust="spacing" textLength="88" x="233.5" y="120.8198">getLog(): String</text></a><!--MD5=[1d73c58c4947b2b770a2ee1a420b030b]
class me.server.model.LogFile--><a href="LogFile.html" target="_top" title="LogFile.html" xlink:actuate="onRequest" xlink:href="LogFile.html" xlink:show="new" xlink:title="LogFile.html" xlink:type="simple"><rect codeLine="15" fill="#FEFECE" filter="url(#fev9q4bkh4c93)" height="86.4141" id="me.server.model.LogFile" style="stroke:#A80036;stroke-width:1.5;" width="157" x="32.5" y="187"/><ellipse cx="85.25" cy="203" fill="#ADD1B2" rx="11" ry="11" style="stroke:#A80036;stroke-width:1.0;"/><path d="M88.2188,208.6406 Q87.6406,208.9375 87,209.0781 Q86.3594,209.2344 85.6563,209.2344 Q83.1563,209.2344 81.8281,207.5938 Q80.5156,205.9375 80.5156,202.8125 Q80.5156,199.6875 81.8281,198.0313 Q83.1563,196.375 85.6563,196.375 Q86.3594,196.375 87,196.5313 Q87.6563,196.6875 88.2188,196.9844 L88.2188,199.7031 Q87.5938,199.125 87,198.8594 Q86.4063,198.5781 85.7813,198.5781 Q84.4375,198.5781 83.75,199.6563 Q83.0625,200.7188 83.0625,202.8125 Q83.0625,204.9063 83.75,205.9844 Q84.4375,207.0469 85.7813,207.0469 Q86.4063,207.0469 87,206.7813 Q87.5938,206.5 88.2188,205.9219 L88.2188,208.6406 Z " fill="#000000"/><text fill="#000000" font-family="sans-serif" font-size="12" lengthAdjust="spacing" textLength="43" x="105.75" y="207.1543">LogFile</text><line style="stroke:#A80036;stroke-width:1.5;" x1="33.5" x2="188.5" y1="219" y2="219"/><line style="stroke:#A80036;stroke-width:1.5;" x1="33.5" x2="188.5" y1="227" y2="227"/><ellipse cx="43.5" cy="238" fill="#84BE84" rx="3" ry="3" style="stroke:#038048;stroke-width:1.0;"/><text fill="#000000" font-family="sans-serif" font-size="11" lengthAdjust="spacing" textLength="113" x="52.5" y="241.2104">LogFile(String, long)</text><ellipse cx="43.5" cy="250.8047" fill="#84BE84" rx="3" ry="3" style="stroke:#038048;stroke-width:1.0;"/><text fill="#000000" font-family="sans-serif" font-size="11" lengthAdjust="spacing" textLength="131" x="52.5" y="254.0151">getLastModified(): Date</text><ellipse cx="43.5" cy="263.6094" fill="#84BE84" rx="3" ry="3" style="stroke:#038048;stroke-width:1.0;"/><text fill="#000000" font-family="sans-serif" font-size="11" lengthAdjust="spacing" textLength="120" x="52.5" y="266.8198">getFileName(): String</text></a><!--MD5=[50bd991c7b41d748cfccca46b3854d5b]
link me.server.model.LogLine to me.server.model.Log--><!--MD5=[50a59c896b226ba153c26bf94df65105]
link me.server.model.LogLine to me.server.model.LogFile--><text fill="#888888" font-family="sans-serif" font-size="10" lengthAdjust="spacing" textLength="192" x="82.5" y="304.2822">UMLDoclet 2.0.15, PlantUML 1.2021.13</text><!--MD5=[d801d793ad6763d17cbc741db49be29b]
@startuml
    namespace me.server.model {

        class LogLine [[LogLine.html]] {
            +LogLine(UUID, String)
            +getUuid(): UUID
            +getLogLine(): String
        }

        class Log [[Log.html]] {
            +Log(UUID, String)
            +getUuid(): UUID
            +getLog(): String
        }

        class LogFile [[LogFile.html]] {
            +LogFile(String, long)
            +getLastModified(): Date
            +getFileName(): String
        }

    }

    center footer UMLDoclet 2.0.15, PlantUML 1.2021.13
@enduml

PlantUML version 1.2021.13(Mon Nov 01 11:38:45 UTC 2021)
(APACHE source distribution)
Java Runtime: OpenJDK Runtime Environment
JVM: OpenJDK 64-Bit Server VM
Default Encoding: UTF-8
Language: en
Country: null
--></g></svg>