<?xml version="1.0" encoding="UTF-8" standalone="no"?><svg xmlns="http://www.w3.org/2000/svg" xmlns:xlink="http://www.w3.org/1999/xlink" contentScriptType="application/ecmascript" contentStyleType="text/css" height="90px" preserveAspectRatio="none" style="width:199px;height:90px;background:#FFFFFF;" version="1.1" viewBox="0 0 199 90" width="199px" zoomAndPan="magnify"><defs><filter height="300%" id="fnk4ew1ak5zc" width="300%" x="-1" y="-1"><feGaussianBlur result="blurOut" stdDeviation="2.0"/><feColorMatrix in="blurOut" result="blurOut2" type="matrix" values="0 0 0 0 0 0 0 0 0 0 0 0 0 0 0 0 0 0 .4 0"/><feOffset dx="4.0" dy="4.0" in="blurOut2" result="blurOut3"/><feBlend in="SourceGraphic" in2="blurOut3" mode="normal"/></filter></defs><g><!--MD5=[4c6b4f0602e3cfed650703f03cebd0cc]
class org.example.HTTPRequest--><a href="HTTPRequest.html" target="_top" title="HTTPRequest.html" xlink:actuate="onRequest" xlink:href="HTTPRequest.html" xlink:show="new" xlink:title="HTTPRequest.html" xlink:type="simple"><rect codeLine="5" fill="#FEFECE" filter="url(#fnk4ew1ak5zc)" height="58.7422" id="org.example.HTTPRequest" style="stroke:#A80036;stroke-width:1.5;" width="135" x="28.5" y="7"/><ellipse cx="46.65" cy="25.9688" fill="#ADD1B2" rx="11" ry="11" style="stroke:#A80036;stroke-width:1.0;"/><path d="M49.6188,31.6094 Q49.0406,31.9063 48.4,32.0469 Q47.7594,32.2031 47.0563,32.2031 Q44.5563,32.2031 43.2281,30.5625 Q41.9156,28.9063 41.9156,25.7813 Q41.9156,22.6563 43.2281,21 Q44.5563,19.3438 47.0563,19.3438 Q47.7594,19.3438 48.4,19.5 Q49.0563,19.6563 49.6188,19.9531 L49.6188,22.6719 Q48.9938,22.0938 48.4,21.8281 Q47.8063,21.5469 47.1813,21.5469 Q45.8375,21.5469 45.15,22.625 Q44.4625,23.6875 44.4625,25.7813 Q44.4625,27.875 45.15,28.9531 Q45.8375,30.0156 47.1813,30.0156 Q47.8063,30.0156 48.4,29.75 Q48.9938,29.4688 49.6188,28.8906 L49.6188,31.6094 Z " fill="#000000"/><text fill="#000000" font-family="sans-serif" font-size="14" lengthAdjust="spacing" textLength="96" x="61.35" y="24.9951">HTTPRequest</text><text fill="#000000" font-family="sans-serif" font-size="10" lengthAdjust="spacing" textLength="61" x="78.85" y="37.5791">org.example</text><line style="stroke:#A80036;stroke-width:1.5;" x1="29.5" x2="162.5" y1="44.9375" y2="44.9375"/><ellipse cx="39.5" cy="55.9375" fill="#84BE84" rx="3" ry="3" style="stroke:#038048;stroke-width:1.0;"/><text fill="#000000" font-family="sans-serif" font-size="11" lengthAdjust="spacing" text-decoration="underline" textLength="109" x="48.5" y="59.1479">main(String[]): void</text></a><text fill="#888888" font-family="sans-serif" font-size="10" lengthAdjust="spacing" textLength="192" x="0" y="82.0244">UMLDoclet 2.0.15, PlantUML 1.2021.13</text><!--MD5=[3904c40ffe4e09cc20f7390b5ae5b612]
@startuml
    set namespaceSeparator none
    hide empty fields
    hide empty methods

    class "<size:14>HTTPRequest\n<size:10>org.example" as org.example.HTTPRequest [[HTTPRequest.html]] {
        {static} +main(String[]): void
    }

    center footer UMLDoclet 2.0.15, PlantUML 1.2021.13
@enduml

PlantUML version 1.2021.13(Mon Nov 01 11:38:45 UTC 2021)
(APACHE source distribution)
Java Runtime: OpenJDK Runtime Environment
JVM: OpenJDK 64-Bit Server VM
Default Encoding: UTF-8
Language: en
Country: null
--></g></svg>