<?xml version="1.0" encoding="UTF-8" standalone="no"?><svg xmlns="http://www.w3.org/2000/svg" xmlns:xlink="http://www.w3.org/1999/xlink" contentScriptType="application/ecmascript" contentStyleType="text/css" height="277px" preserveAspectRatio="none" style="width:587px;height:277px;background:#FFFFFF;" version="1.1" viewBox="0 0 587 277" width="587px" zoomAndPan="magnify"><defs><filter height="300%" id="fwtr4bgh1gwk" width="300%" x="-1" y="-1"><feGaussianBlur result="blurOut" stdDeviation="2.0"/><feColorMatrix in="blurOut" result="blurOut2" type="matrix" values="0 0 0 0 0 0 0 0 0 0 0 0 0 0 0 0 0 0 .4 0"/><feOffset dx="4.0" dy="4.0" in="blurOut2" result="blurOut3"/><feBlend in="SourceGraphic" in2="blurOut3" mode="normal"/></filter></defs><g><!--MD5=[09b19aec31abc274afb3529e87590b6d]
cluster org.example--><polygon fill="#FFFFFF" filter="url(#fwtr4bgh1gwk)" points="16,142,120,142,127,164.2969,570,164.2969,570,254,16,254,16,142" style="stroke:#000000;stroke-width:1.5;"/><line style="stroke:#000000;stroke-width:1.5;" x1="16" x2="127" y1="164.2969" y2="164.2969"/><text fill="#000000" font-family="sans-serif" font-size="14" font-weight="bold" lengthAdjust="spacing" textLength="98" x="20" y="156.9951">org.example</text><!--MD5=[165affddb8a431bc6b1435bff43cfb6b]
cluster com.sun.net.httpserver--><polygon fill="#FFFFFF" filter="url(#fwtr4bgh1gwk)" points="186,6,379,6,386,28.2969,400,28.2969,400,118,186,118,186,6" style="stroke:#000000;stroke-width:1.5;"/><line style="stroke:#000000;stroke-width:1.5;" x1="186" x2="386" y1="28.2969" y2="28.2969"/><text fill="#000000" font-family="sans-serif" font-size="14" font-weight="bold" lengthAdjust="spacing" textLength="187" x="190" y="20.9951">com.sun.net.httpserver</text><!--MD5=[4c6b4f0602e3cfed650703f03cebd0cc]
class org.example.HTTPRequest--><a href="HTTPRequest.html" target="_top" title="HTTPRequest.html" xlink:actuate="onRequest" xlink:href="HTTPRequest.html" xlink:show="new" xlink:title="HTTPRequest.html" xlink:type="simple"><rect codeLine="3" fill="#FEFECE" filter="url(#fwtr4bgh1gwk)" height="60.8047" id="org.example.HTTPRequest" style="stroke:#A80036;stroke-width:1.5;" width="135" x="418.5" y="177"/><ellipse cx="442.5" cy="193" fill="#ADD1B2" rx="11" ry="11" style="stroke:#A80036;stroke-width:1.0;"/><path d="M445.4688,198.6406 Q444.8906,198.9375 444.25,199.0781 Q443.6094,199.2344 442.9063,199.2344 Q440.4063,199.2344 439.0781,197.5938 Q437.7656,195.9375 437.7656,192.8125 Q437.7656,189.6875 439.0781,188.0313 Q440.4063,186.375 442.9063,186.375 Q443.6094,186.375 444.25,186.5313 Q444.9063,186.6875 445.4688,186.9844 L445.4688,189.7031 Q444.8438,189.125 444.25,188.8594 Q443.6563,188.5781 443.0313,188.5781 Q441.6875,188.5781 441,189.6563 Q440.3125,190.7188 440.3125,192.8125 Q440.3125,194.9063 441,195.9844 Q441.6875,197.0469 443.0313,197.0469 Q443.6563,197.0469 444.25,196.7813 Q444.8438,196.5 445.4688,195.9219 L445.4688,198.6406 Z " fill="#000000"/><text fill="#000000" font-family="sans-serif" font-size="12" lengthAdjust="spacing" textLength="83" x="458.5" y="197.1543">HTTPRequest</text><line style="stroke:#A80036;stroke-width:1.5;" x1="419.5" x2="552.5" y1="209" y2="209"/><line style="stroke:#A80036;stroke-width:1.5;" x1="419.5" x2="552.5" y1="217" y2="217"/><ellipse cx="429.5" cy="228" fill="#84BE84" rx="3" ry="3" style="stroke:#038048;stroke-width:1.0;"/><text fill="#000000" font-family="sans-serif" font-size="11" lengthAdjust="spacing" text-decoration="underline" textLength="109" x="438.5" y="231.2104">main(String[]): void</text></a><!--MD5=[7308829f1e128c5462049b32b2ec2bc0]
class org.example.MyHttpHandler--><a href="MyHttpHandler.html" target="_top" title="MyHttpHandler.html" xlink:actuate="onRequest" xlink:href="MyHttpHandler.html" xlink:show="new" xlink:title="MyHttpHandler.html" xlink:type="simple"><rect codeLine="7" fill="#FEFECE" filter="url(#fwtr4bgh1gwk)" height="60.8047" id="org.example.MyHttpHandler" style="stroke:#A80036;stroke-width:1.5;" width="180" x="203" y="177"/><ellipse cx="243.2" cy="193" fill="#ADD1B2" rx="11" ry="11" style="stroke:#A80036;stroke-width:1.0;"/><path d="M246.1688,198.6406 Q245.5906,198.9375 244.95,199.0781 Q244.3094,199.2344 243.6063,199.2344 Q241.1063,199.2344 239.7781,197.5938 Q238.4656,195.9375 238.4656,192.8125 Q238.4656,189.6875 239.7781,188.0313 Q241.1063,186.375 243.6063,186.375 Q244.3094,186.375 244.95,186.5313 Q245.6063,186.6875 246.1688,186.9844 L246.1688,189.7031 Q245.5438,189.125 244.95,188.8594 Q244.3563,188.5781 243.7313,188.5781 Q242.3875,188.5781 241.7,189.6563 Q241.0125,190.7188 241.0125,192.8125 Q241.0125,194.9063 241.7,195.9844 Q242.3875,197.0469 243.7313,197.0469 Q244.3563,197.0469 244.95,196.7813 Q245.5438,196.5 246.1688,195.9219 L246.1688,198.6406 Z " fill="#000000"/><text fill="#000000" font-family="sans-serif" font-size="12" lengthAdjust="spacing" textLength="92" x="262.8" y="197.1543">MyHttpHandler</text><line style="stroke:#A80036;stroke-width:1.5;" x1="204" x2="382" y1="209" y2="209"/><line style="stroke:#A80036;stroke-width:1.5;" x1="204" x2="382" y1="217" y2="217"/><ellipse cx="214" cy="228" fill="#84BE84" rx="3" ry="3" style="stroke:#038048;stroke-width:1.0;"/><text fill="#000000" font-family="sans-serif" font-size="11" lengthAdjust="spacing" textLength="154" x="223" y="231.2104">handle(HttpExchange): void</text></a><!--MD5=[90dec37c97f90c4b009592a04b2fe450]
class org.example.Main--><a href="Main.html" target="_top" title="Main.html" xlink:actuate="onRequest" xlink:href="Main.html" xlink:show="new" xlink:title="Main.html" xlink:type="simple"><rect codeLine="11" fill="#FEFECE" filter="url(#fwtr4bgh1gwk)" height="60.8047" id="org.example.Main" style="stroke:#A80036;stroke-width:1.5;" width="135" x="32.5" y="177"/><ellipse cx="81.25" cy="193" fill="#ADD1B2" rx="11" ry="11" style="stroke:#A80036;stroke-width:1.0;"/><path d="M84.2188,198.6406 Q83.6406,198.9375 83,199.0781 Q82.3594,199.2344 81.6563,199.2344 Q79.1563,199.2344 77.8281,197.5938 Q76.5156,195.9375 76.5156,192.8125 Q76.5156,189.6875 77.8281,188.0313 Q79.1563,186.375 81.6563,186.375 Q82.3594,186.375 83,186.5313 Q83.6563,186.6875 84.2188,186.9844 L84.2188,189.7031 Q83.5938,189.125 83,188.8594 Q82.4063,188.5781 81.7813,188.5781 Q80.4375,188.5781 79.75,189.6563 Q79.0625,190.7188 79.0625,192.8125 Q79.0625,194.9063 79.75,195.9844 Q80.4375,197.0469 81.7813,197.0469 Q82.4063,197.0469 83,196.7813 Q83.5938,196.5 84.2188,195.9219 L84.2188,198.6406 Z " fill="#000000"/><text fill="#000000" font-family="sans-serif" font-size="12" lengthAdjust="spacing" textLength="29" x="101.75" y="197.1543">Main</text><line style="stroke:#A80036;stroke-width:1.5;" x1="33.5" x2="166.5" y1="209" y2="209"/><line style="stroke:#A80036;stroke-width:1.5;" x1="33.5" x2="166.5" y1="217" y2="217"/><ellipse cx="43.5" cy="228" fill="#84BE84" rx="3" ry="3" style="stroke:#038048;stroke-width:1.0;"/><text fill="#000000" font-family="sans-serif" font-size="11" lengthAdjust="spacing" text-decoration="underline" textLength="109" x="52.5" y="231.2104">main(String[]): void</text></a><!--MD5=[fed451cbac7203162405352689e89210]
class com.sun.net.httpserver.HttpHandler--><rect codeLine="19" fill="#FEFECE" filter="url(#fwtr4bgh1gwk)" height="60.8047" id="com.sun.net.httpserver.HttpHandler" style="stroke:#A80036;stroke-width:1.5;" width="182" x="202" y="41"/><ellipse cx="250.75" cy="57" fill="#B4A7E5" rx="11" ry="11" style="stroke:#A80036;stroke-width:1.0;"/><path d="M246.6719,52.7656 L246.6719,50.6094 L254.0625,50.6094 L254.0625,52.7656 L251.5938,52.7656 L251.5938,60.8438 L254.0625,60.8438 L254.0625,63 L246.6719,63 L246.6719,60.8438 L249.1406,60.8438 L249.1406,52.7656 L246.6719,52.7656 Z " fill="#000000"/><text fill="#000000" font-family="sans-serif" font-size="12" font-style="italic" lengthAdjust="spacing" textLength="76" x="271.25" y="61.1543">HttpHandler</text><line style="stroke:#A80036;stroke-width:1.5;" x1="203" x2="383" y1="73" y2="73"/><line style="stroke:#A80036;stroke-width:1.5;" x1="203" x2="383" y1="81" y2="81"/><ellipse cx="213" cy="92" fill="#84BE84" rx="3" ry="3" style="stroke:#038048;stroke-width:1.0;"/><text fill="#000000" font-family="sans-serif" font-size="11" font-style="italic" lengthAdjust="spacing" textLength="156" x="222" y="95.2104">handle(HttpExchange): void</text><!--MD5=[207d81f89a6d25faed4c9a7694e80692]
reverse link com.sun.net.httpserver.HttpHandler to org.example.MyHttpHandler--><path codeLine="15" d="M293,122.52 C293,140.8 293,160.9 293,176.84 " fill="none" id="com.sun.net.httpserver.HttpHandler-backto-org.example.MyHttpHandler" style="stroke:#A80036;stroke-width:1.0;stroke-dasharray:7.0,7.0;"/><polygon fill="none" points="286,122.24,293,102.24,300,122.24,286,122.24" style="stroke:#A80036;stroke-width:1.0;"/><text fill="#888888" font-family="sans-serif" font-size="10" lengthAdjust="spacing" textLength="192" x="191" y="269.2822">UMLDoclet 2.0.15, PlantUML 1.2021.13</text><!--MD5=[942b963620bc58b36841deaa8a85d7c4]
@startuml
    namespace org.example {

        class HTTPRequest [[HTTPRequest.html]] {
            {static} +main(String[]): void
        }

        class MyHttpHandler [[MyHttpHandler.html]] {
            +handle(HttpExchange): void
        }

        class Main [[Main.html]] {
            {static} +main(String[]): void
        }

        com.sun.net.httpserver.HttpHandler <|.. MyHttpHandler
    }

    namespace com.sun.net.httpserver {
        interface HttpHandler {
            {abstract} +handle(HttpExchange): void
        }
    }

    center footer UMLDoclet 2.0.15, PlantUML 1.2021.13
@enduml

PlantUML version 1.2021.13(Mon Nov 01 11:38:45 UTC 2021)
(APACHE source distribution)
Java Runtime: OpenJDK Runtime Environment
JVM: OpenJDK 64-Bit Server VM
Default Encoding: UTF-8
Language: en
Country: null
--></g></svg>