<?xml version="1.0" encoding="UTF-8" standalone="no"?><svg xmlns="http://www.w3.org/2000/svg" xmlns:xlink="http://www.w3.org/1999/xlink" contentScriptType="application/ecmascript" contentStyleType="text/css" height="228px" preserveAspectRatio="none" style="width:229px;height:228px;background:#FFFFFF;" version="1.1" viewBox="0 0 229 228" width="229px" zoomAndPan="magnify"><defs><filter height="300%" id="f1shrsbfryqjcg" width="300%" x="-1" y="-1"><feGaussianBlur result="blurOut" stdDeviation="2.0"/><feColorMatrix in="blurOut" result="blurOut2" type="matrix" values="0 0 0 0 0 0 0 0 0 0 0 0 0 0 0 0 0 0 .4 0"/><feOffset dx="4.0" dy="4.0" in="blurOut2" result="blurOut3"/><feBlend in="SourceGraphic" in2="blurOut3" mode="normal"/></filter></defs><g><!--MD5=[ae6e9fdb1360d1280dcdf6459d3589fd]
class org.example.controler.ConnectedUserController--><a href="ConnectedUserController.html" target="_top" title="ConnectedUserController.html" xlink:actuate="onRequest" xlink:href="ConnectedUserController.html" xlink:show="new" xlink:title="ConnectedUserController.html" xlink:type="simple"><rect codeLine="5" fill="#FEFECE" filter="url(#f1shrsbfryqjcg)" height="71.5469" id="org.example.controler.ConnectedUserController" style="stroke:#A80036;stroke-width:1.5;" width="208" x="7" y="126"/><ellipse cx="22" cy="144.9688" fill="#ADD1B2" rx="11" ry="11" style="stroke:#A80036;stroke-width:1.0;"/><path d="M24.9688,150.6094 Q24.3906,150.9063 23.75,151.0469 Q23.1094,151.2031 22.4063,151.2031 Q19.9063,151.2031 18.5781,149.5625 Q17.2656,147.9063 17.2656,144.7813 Q17.2656,141.6563 18.5781,140 Q19.9063,138.3438 22.4063,138.3438 Q23.1094,138.3438 23.75,138.5 Q24.4063,138.6563 24.9688,138.9531 L24.9688,141.6719 Q24.3438,141.0938 23.75,140.8281 Q23.1563,140.5469 22.5313,140.5469 Q21.1875,140.5469 20.5,141.625 Q19.8125,142.6875 19.8125,144.7813 Q19.8125,146.875 20.5,147.9531 Q21.1875,149.0156 22.5313,149.0156 Q23.1563,149.0156 23.75,148.75 Q24.3438,148.4688 24.9688,147.8906 L24.9688,150.6094 Z " fill="#000000"/><text fill="#000000" font-family="sans-serif" font-size="14" lengthAdjust="spacing" textLength="176" x="36" y="143.9951">ConnectedUserController</text><text fill="#000000" font-family="sans-serif" font-size="10" lengthAdjust="spacing" textLength="107" x="70.5" y="156.5791">org.example.controler</text><line style="stroke:#A80036;stroke-width:1.5;" x1="8" x2="214" y1="163.9375" y2="163.9375"/><ellipse cx="18" cy="174.9375" fill="#84BE84" rx="3" ry="3" style="stroke:#038048;stroke-width:1.0;"/><text fill="#000000" font-family="sans-serif" font-size="11" lengthAdjust="spacing" textLength="91" x="27" y="178.1479">sendPing(): void</text><ellipse cx="18" cy="187.7422" fill="#84BE84" rx="3" ry="3" style="stroke:#038048;stroke-width:1.0;"/><text fill="#000000" font-family="sans-serif" font-size="11" lengthAdjust="spacing" textLength="58" x="27" y="190.9526">run(): void</text></a><!--MD5=[8dac795f9edbf65a524ac462449c98fb]
class java.lang.Runnable--><rect codeLine="10" fill="#FEFECE" filter="url(#f1shrsbfryqjcg)" height="58.7422" id="java.lang.Runnable" style="stroke:#A80036;stroke-width:1.5;" width="98" x="62" y="7"/><ellipse cx="77" cy="25.9688" fill="#B4A7E5" rx="11" ry="11" style="stroke:#A80036;stroke-width:1.0;"/><path d="M72.9219,21.7344 L72.9219,19.5781 L80.3125,19.5781 L80.3125,21.7344 L77.8438,21.7344 L77.8438,29.8125 L80.3125,29.8125 L80.3125,31.9688 L72.9219,31.9688 L72.9219,29.8125 L75.3906,29.8125 L75.3906,21.7344 L72.9219,21.7344 Z " fill="#000000"/><text fill="#000000" font-family="sans-serif" font-size="14" font-style="italic" lengthAdjust="spacing" textLength="66" x="91" y="24.9951">Runnable</text><text fill="#000000" font-family="sans-serif" font-size="10" font-style="italic" lengthAdjust="spacing" textLength="45" x="101.5" y="37.5791">java.lang</text><line style="stroke:#A80036;stroke-width:1.5;" x1="63" x2="159" y1="44.9375" y2="44.9375"/><ellipse cx="73" cy="55.9375" fill="#84BE84" rx="3" ry="3" style="stroke:#038048;stroke-width:1.0;"/><text fill="#000000" font-family="sans-serif" font-size="11" font-style="italic" lengthAdjust="spacing" textLength="59" x="82" y="59.1479">run(): void</text><!--MD5=[d42bb3bd9cc270a45ccc9d43f885f734]
reverse link java.lang.Runnable to org.example.controler.ConnectedUserController--><path codeLine="14" d="M111,86.46 C111,99.64 111,113.64 111,125.9 " fill="none" id="java.lang.Runnable-backto-org.example.controler.ConnectedUserController" style="stroke:#A80036;stroke-width:1.0;stroke-dasharray:7.0,7.0;"/><polygon fill="none" points="104,86.14,111,66.14,118,86.14,104,86.14" style="stroke:#A80036;stroke-width:1.0;"/><text fill="#888888" font-family="sans-serif" font-size="10" lengthAdjust="spacing" textLength="192" x="12" y="219.8291">UMLDoclet 2.0.15, PlantUML 1.2021.13</text><!--MD5=[726eb928004124db4120bcb17b3c5211]
@startuml
    set namespaceSeparator none
    hide empty fields
    hide empty methods

    class "<size:14>ConnectedUserController\n<size:10>org.example.controler" as org.example.controler.ConnectedUserController [[ConnectedUserController.html]] {
        +sendPing(): void
        +run(): void
    }

    interface "<size:14>Runnable\n<size:10>java.lang" as java.lang.Runnable {
        {abstract} +run(): void
    }

    java.lang.Runnable <|.. org.example.controler.ConnectedUserController

    center footer UMLDoclet 2.0.15, PlantUML 1.2021.13
@enduml

PlantUML version 1.2021.13(Mon Nov 01 11:38:45 UTC 2021)
(APACHE source distribution)
Java Runtime: OpenJDK Runtime Environment
JVM: OpenJDK 64-Bit Server VM
Default Encoding: UTF-8
Language: en
Country: null
--></g></svg>