<?xml version="1.0" encoding="UTF-8" standalone="no"?><svg xmlns="http://www.w3.org/2000/svg" xmlns:xlink="http://www.w3.org/1999/xlink" contentScriptType="application/ecmascript" contentStyleType="text/css" height="90px" preserveAspectRatio="none" style="width:199px;height:90px;background:#FFFFFF;" version="1.1" viewBox="0 0 199 90" width="199px" zoomAndPan="magnify"><defs><filter height="300%" id="f1hox0h0xzhm9c" width="300%" x="-1" y="-1"><feGaussianBlur result="blurOut" stdDeviation="2.0"/><feColorMatrix in="blurOut" result="blurOut2" type="matrix" values="0 0 0 0 0 0 0 0 0 0 0 0 0 0 0 0 0 0 .4 0"/><feOffset dx="4.0" dy="4.0" in="blurOut2" result="blurOut3"/><feBlend in="SourceGraphic" in2="blurOut3" mode="normal"/></filter></defs><g><!--MD5=[7eac629e25257764c215e176c4a6a53c]
class org.example.controler.ListenersInit--><a href="ListenersInit.html" target="_top" title="ListenersInit.html" xlink:actuate="onRequest" xlink:href="ListenersInit.html" xlink:show="new" xlink:title="ListenersInit.html" xlink:type="simple"><rect codeLine="5" fill="#FEFECE" filter="url(#f1hox0h0xzhm9c)" height="58.7422" id="org.example.controler.ListenersInit" style="stroke:#A80036;stroke-width:1.5;" width="139" x="26.5" y="7"/><ellipse cx="41.5" cy="25.9688" fill="#ADD1B2" rx="11" ry="11" style="stroke:#A80036;stroke-width:1.0;"/><path d="M44.4688,31.6094 Q43.8906,31.9063 43.25,32.0469 Q42.6094,32.2031 41.9063,32.2031 Q39.4063,32.2031 38.0781,30.5625 Q36.7656,28.9063 36.7656,25.7813 Q36.7656,22.6563 38.0781,21 Q39.4063,19.3438 41.9063,19.3438 Q42.6094,19.3438 43.25,19.5 Q43.9063,19.6563 44.4688,19.9531 L44.4688,22.6719 Q43.8438,22.0938 43.25,21.8281 Q42.6563,21.5469 42.0313,21.5469 Q40.6875,21.5469 40,22.625 Q39.3125,23.6875 39.3125,25.7813 Q39.3125,27.875 40,28.9531 Q40.6875,30.0156 42.0313,30.0156 Q42.6563,30.0156 43.25,29.75 Q43.8438,29.4688 44.4688,28.8906 L44.4688,31.6094 Z " fill="#000000"/><text fill="#000000" font-family="sans-serif" font-size="14" lengthAdjust="spacing" textLength="83" x="67.5" y="24.9951">ListenersInit</text><text fill="#000000" font-family="sans-serif" font-size="10" lengthAdjust="spacing" textLength="107" x="55.5" y="37.5791">org.example.controler</text><line style="stroke:#A80036;stroke-width:1.5;" x1="27.5" x2="164.5" y1="44.9375" y2="44.9375"/><ellipse cx="37.5" cy="55.9375" fill="#84BE84" rx="3" ry="3" style="stroke:#038048;stroke-width:1.0;"/><text fill="#000000" font-family="sans-serif" font-size="11" lengthAdjust="spacing" text-decoration="underline" textLength="111" x="46.5" y="59.1479">startServers(): void</text></a><text fill="#888888" font-family="sans-serif" font-size="10" lengthAdjust="spacing" textLength="192" x="0" y="82.0244">UMLDoclet 2.0.15, PlantUML 1.2021.13</text><!--MD5=[0b576c60af7851fa07f247407c651d63]
@startuml
    set namespaceSeparator none
    hide empty fields
    hide empty methods

    class "<size:14>ListenersInit\n<size:10>org.example.controler" as org.example.controler.ListenersInit [[ListenersInit.html]] {
        {static} +startServers(): void
    }

    center footer UMLDoclet 2.0.15, PlantUML 1.2021.13
@enduml

PlantUML version 1.2021.13(Mon Nov 01 11:38:45 UTC 2021)
(APACHE source distribution)
Java Runtime: OpenJDK Runtime Environment
JVM: OpenJDK 64-Bit Server VM
Default Encoding: UTF-8
Language: en
Country: null
--></g></svg>