<?xml version="1.0" encoding="UTF-8" standalone="no"?><svg xmlns="http://www.w3.org/2000/svg" xmlns:xlink="http://www.w3.org/1999/xlink" contentScriptType="application/ecmascript" contentStyleType="text/css" height="290px" preserveAspectRatio="none" style="width:636px;height:290px;background:#FFFFFF;" version="1.1" viewBox="0 0 636 290" width="636px" zoomAndPan="magnify"><defs><filter height="300%" id="fpmducag252x9" width="300%" x="-1" y="-1"><feGaussianBlur result="blurOut" stdDeviation="2.0"/><feColorMatrix in="blurOut" result="blurOut2" type="matrix" values="0 0 0 0 0 0 0 0 0 0 0 0 0 0 0 0 0 0 .4 0"/><feOffset dx="4.0" dy="4.0" in="blurOut2" result="blurOut3"/><feBlend in="SourceGraphic" in2="blurOut3" mode="normal"/></filter></defs><g><!--MD5=[cd67313d6af2a5c253446c8620d3c220]
cluster org.example.controler--><polygon fill="#FFFFFF" filter="url(#fpmducag252x9)" points="16,142,198,142,205,164.2969,619,164.2969,619,267,16,267,16,142" style="stroke:#000000;stroke-width:1.5;"/><line style="stroke:#000000;stroke-width:1.5;" x1="16" x2="205" y1="164.2969" y2="164.2969"/><text fill="#000000" font-family="sans-serif" font-size="14" font-weight="bold" lengthAdjust="spacing" textLength="176" x="20" y="156.9951">org.example.controler</text><!--MD5=[aa8f7b917213fcc1c2766e2d59b49067]
cluster java.lang--><polygon fill="#FFFFFF" filter="url(#fpmducag252x9)" points="65,6,140,6,147,28.2969,189,28.2969,189,118,65,118,65,6" style="stroke:#000000;stroke-width:1.5;"/><line style="stroke:#000000;stroke-width:1.5;" x1="65" x2="147" y1="28.2969" y2="28.2969"/><text fill="#000000" font-family="sans-serif" font-size="14" font-weight="bold" lengthAdjust="spacing" textLength="69" x="69" y="20.9951">java.lang</text><!--MD5=[7eac629e25257764c215e176c4a6a53c]
class org.example.controler.ListenersInit--><a href="ListenersInit.html" target="_top" title="ListenersInit.html" xlink:actuate="onRequest" xlink:href="ListenersInit.html" xlink:show="new" xlink:title="ListenersInit.html" xlink:type="simple"><rect codeLine="3" fill="#FEFECE" filter="url(#fpmducag252x9)" height="60.8047" id="org.example.controler.ListenersInit" style="stroke:#A80036;stroke-width:1.5;" width="137" x="465.5" y="183.5"/><ellipse cx="493.55" cy="199.5" fill="#ADD1B2" rx="11" ry="11" style="stroke:#A80036;stroke-width:1.0;"/><path d="M496.5188,205.1406 Q495.9406,205.4375 495.3,205.5781 Q494.6594,205.7344 493.9563,205.7344 Q491.4563,205.7344 490.1281,204.0938 Q488.8156,202.4375 488.8156,199.3125 Q488.8156,196.1875 490.1281,194.5313 Q491.4563,192.875 493.9563,192.875 Q494.6594,192.875 495.3,193.0313 Q495.9563,193.1875 496.5188,193.4844 L496.5188,196.2031 Q495.8938,195.625 495.3,195.3594 Q494.7063,195.0781 494.0813,195.0781 Q492.7375,195.0781 492.05,196.1563 Q491.3625,197.2188 491.3625,199.3125 Q491.3625,201.4063 492.05,202.4844 Q492.7375,203.5469 494.0813,203.5469 Q494.7063,203.5469 495.3,203.2813 Q495.8938,203 496.5188,202.4219 L496.5188,205.1406 Z " fill="#000000"/><text fill="#000000" font-family="sans-serif" font-size="12" lengthAdjust="spacing" textLength="76" x="510.45" y="203.6543">ListenersInit</text><line style="stroke:#A80036;stroke-width:1.5;" x1="466.5" x2="601.5" y1="215.5" y2="215.5"/><line style="stroke:#A80036;stroke-width:1.5;" x1="466.5" x2="601.5" y1="223.5" y2="223.5"/><ellipse cx="476.5" cy="234.5" fill="#84BE84" rx="3" ry="3" style="stroke:#038048;stroke-width:1.0;"/><text fill="#000000" font-family="sans-serif" font-size="11" lengthAdjust="spacing" text-decoration="underline" textLength="111" x="485.5" y="237.7104">startServers(): void</text></a><!--MD5=[093ea3a757ca2ecdf8d7d54f35108850]
class org.example.controler.StartSessionController--><a href="StartSessionController.html" target="_top" title="StartSessionController.html" xlink:actuate="onRequest" xlink:href="StartSessionController.html" xlink:show="new" xlink:title="StartSessionController.html" xlink:type="simple"><rect codeLine="7" fill="#FEFECE" filter="url(#fpmducag252x9)" height="73.6094" id="org.example.controler.StartSessionController" style="stroke:#A80036;stroke-width:1.5;" width="173" x="257.5" y="177"/><ellipse cx="272.5" cy="193" fill="#ADD1B2" rx="11" ry="11" style="stroke:#A80036;stroke-width:1.0;"/><path d="M275.4688,198.6406 Q274.8906,198.9375 274.25,199.0781 Q273.6094,199.2344 272.9063,199.2344 Q270.4063,199.2344 269.0781,197.5938 Q267.7656,195.9375 267.7656,192.8125 Q267.7656,189.6875 269.0781,188.0313 Q270.4063,186.375 272.9063,186.375 Q273.6094,186.375 274.25,186.5313 Q274.9063,186.6875 275.4688,186.9844 L275.4688,189.7031 Q274.8438,189.125 274.25,188.8594 Q273.6563,188.5781 273.0313,188.5781 Q271.6875,188.5781 271,189.6563 Q270.3125,190.7188 270.3125,192.8125 Q270.3125,194.9063 271,195.9844 Q271.6875,197.0469 273.0313,197.0469 Q273.6563,197.0469 274.25,196.7813 Q274.8438,196.5 275.4688,195.9219 L275.4688,198.6406 Z " fill="#000000"/><text fill="#000000" font-family="sans-serif" font-size="12" lengthAdjust="spacing" textLength="141" x="286.5" y="197.1543">StartSessionController</text><line style="stroke:#A80036;stroke-width:1.5;" x1="258.5" x2="429.5" y1="209" y2="209"/><line style="stroke:#A80036;stroke-width:1.5;" x1="258.5" x2="429.5" y1="217" y2="217"/><ellipse cx="268.5" cy="228" fill="#84BE84" rx="3" ry="3" style="stroke:#038048;stroke-width:1.0;"/><text fill="#000000" font-family="sans-serif" font-size="11" lengthAdjust="spacing" textLength="146" x="277.5" y="231.2104">startSession(String): void</text><ellipse cx="268.5" cy="240.8047" fill="#84BE84" rx="3" ry="3" style="stroke:#038048;stroke-width:1.0;"/><text fill="#000000" font-family="sans-serif" font-size="11" lengthAdjust="spacing" textLength="144" x="277.5" y="244.0151">isUnique(String): boolean</text></a><!--MD5=[ae6e9fdb1360d1280dcdf6459d3589fd]
class org.example.controler.ConnectedUserController--><a href="ConnectedUserController.html" target="_top" title="ConnectedUserController.html" xlink:actuate="onRequest" xlink:href="ConnectedUserController.html" xlink:show="new" xlink:title="ConnectedUserController.html" xlink:type="simple"><rect codeLine="12" fill="#FEFECE" filter="url(#fpmducag252x9)" height="73.6094" id="org.example.controler.ConnectedUserController" style="stroke:#A80036;stroke-width:1.5;" width="190" x="32" y="177"/><ellipse cx="47" cy="193" fill="#ADD1B2" rx="11" ry="11" style="stroke:#A80036;stroke-width:1.0;"/><path d="M49.9688,198.6406 Q49.3906,198.9375 48.75,199.0781 Q48.1094,199.2344 47.4063,199.2344 Q44.9063,199.2344 43.5781,197.5938 Q42.2656,195.9375 42.2656,192.8125 Q42.2656,189.6875 43.5781,188.0313 Q44.9063,186.375 47.4063,186.375 Q48.1094,186.375 48.75,186.5313 Q49.4063,186.6875 49.9688,186.9844 L49.9688,189.7031 Q49.3438,189.125 48.75,188.8594 Q48.1563,188.5781 47.5313,188.5781 Q46.1875,188.5781 45.5,189.6563 Q44.8125,190.7188 44.8125,192.8125 Q44.8125,194.9063 45.5,195.9844 Q46.1875,197.0469 47.5313,197.0469 Q48.1563,197.0469 48.75,196.7813 Q49.3438,196.5 49.9688,195.9219 L49.9688,198.6406 Z " fill="#000000"/><text fill="#000000" font-family="sans-serif" font-size="12" lengthAdjust="spacing" textLength="158" x="61" y="197.1543">ConnectedUserController</text><line style="stroke:#A80036;stroke-width:1.5;" x1="33" x2="221" y1="209" y2="209"/><line style="stroke:#A80036;stroke-width:1.5;" x1="33" x2="221" y1="217" y2="217"/><ellipse cx="43" cy="228" fill="#84BE84" rx="3" ry="3" style="stroke:#038048;stroke-width:1.0;"/><text fill="#000000" font-family="sans-serif" font-size="11" lengthAdjust="spacing" textLength="91" x="52" y="231.2104">sendPing(): void</text><ellipse cx="43" cy="240.8047" fill="#84BE84" rx="3" ry="3" style="stroke:#038048;stroke-width:1.0;"/><text fill="#000000" font-family="sans-serif" font-size="11" lengthAdjust="spacing" textLength="58" x="52" y="244.0151">run(): void</text></a><!--MD5=[8dac795f9edbf65a524ac462449c98fb]
class java.lang.Runnable--><rect codeLine="21" fill="#FEFECE" filter="url(#fpmducag252x9)" height="60.8047" id="java.lang.Runnable" style="stroke:#A80036;stroke-width:1.5;" width="91" x="81.5" y="41"/><ellipse cx="96.5" cy="57" fill="#B4A7E5" rx="11" ry="11" style="stroke:#A80036;stroke-width:1.0;"/><path d="M92.4219,52.7656 L92.4219,50.6094 L99.8125,50.6094 L99.8125,52.7656 L97.3438,52.7656 L97.3438,60.8438 L99.8125,60.8438 L99.8125,63 L92.4219,63 L92.4219,60.8438 L94.8906,60.8438 L94.8906,52.7656 L92.4219,52.7656 Z " fill="#000000"/><text fill="#000000" font-family="sans-serif" font-size="12" font-style="italic" lengthAdjust="spacing" textLength="59" x="110.5" y="61.1543">Runnable</text><line style="stroke:#A80036;stroke-width:1.5;" x1="82.5" x2="171.5" y1="73" y2="73"/><line style="stroke:#A80036;stroke-width:1.5;" x1="82.5" x2="171.5" y1="81" y2="81"/><ellipse cx="92.5" cy="92" fill="#84BE84" rx="3" ry="3" style="stroke:#038048;stroke-width:1.0;"/><text fill="#000000" font-family="sans-serif" font-size="11" font-style="italic" lengthAdjust="spacing" textLength="59" x="101.5" y="95.2104">run(): void</text><!--MD5=[d42bb3bd9cc270a45ccc9d43f885f734]
reverse link java.lang.Runnable to org.example.controler.ConnectedUserController--><path codeLine="17" d="M127,122.48 C127,140.4 127,160.23 127,176.76 " fill="none" id="java.lang.Runnable-backto-org.example.controler.ConnectedUserController" style="stroke:#A80036;stroke-width:1.0;stroke-dasharray:7.0,7.0;"/><polygon fill="none" points="120,122.3,127,102.3,134,122.3,120,122.3" style="stroke:#A80036;stroke-width:1.0;"/><text fill="#888888" font-family="sans-serif" font-size="10" lengthAdjust="spacing" textLength="192" x="215.5" y="282.2822">UMLDoclet 2.0.15, PlantUML 1.2021.13</text><!--MD5=[698afe33062ee3433455fbf1d477ffe0]
@startuml
    namespace org.example.controler {

        class ListenersInit [[ListenersInit.html]] {
            {static} +startServers(): void
        }

        class StartSessionController [[StartSessionController.html]] {
            +startSession(String): void
            +isUnique(String): boolean
        }

        class ConnectedUserController [[ConnectedUserController.html]] {
            +sendPing(): void
            +run(): void
        }

        java.lang.Runnable <|.. ConnectedUserController
    }

    namespace java.lang {
        interface Runnable {
            {abstract} +run(): void
        }
    }

    center footer UMLDoclet 2.0.15, PlantUML 1.2021.13
@enduml

PlantUML version 1.2021.13(Mon Nov 01 11:38:45 UTC 2021)
(APACHE source distribution)
Java Runtime: OpenJDK Runtime Environment
JVM: OpenJDK 64-Bit Server VM
Default Encoding: UTF-8
Language: en
Country: null
--></g></svg>