<?xml version="1.0" encoding="UTF-8" standalone="no"?><svg xmlns="http://www.w3.org/2000/svg" xmlns:xlink="http://www.w3.org/1999/xlink" contentScriptType="application/ecmascript" contentStyleType="text/css" height="215px" preserveAspectRatio="none" style="width:344px;height:215px;background:#FFFFFF;" version="1.1" viewBox="0 0 344 215" width="344px" zoomAndPan="magnify"><defs><filter height="300%" id="f1qki6ap11dexc" width="300%" x="-1" y="-1"><feGaussianBlur result="blurOut" stdDeviation="2.0"/><feColorMatrix in="blurOut" result="blurOut2" type="matrix" values="0 0 0 0 0 0 0 0 0 0 0 0 0 0 0 0 0 0 .4 0"/><feOffset dx="4.0" dy="4.0" in="blurOut2" result="blurOut3"/><feBlend in="SourceGraphic" in2="blurOut3" mode="normal"/></filter></defs><g><!--MD5=[b8b2662c3863ca10dc45b8399c2b0864]
class org.example.model.communication.server.httpEvents.ConnectedUsersListReceived--><a href="ConnectedUsersListReceived.html" target="_top" title="ConnectedUsersListReceived.html" xlink:actuate="onRequest" xlink:href="ConnectedUsersListReceived.html" xlink:show="new" xlink:title="ConnectedUsersListReceived.html" xlink:type="simple"><rect codeLine="5" fill="#FEFECE" filter="url(#f1qki6ap11dexc)" height="79.5469" id="org.example.model.communication.server.httpEvents.ConnectedUsersListReceived" style="stroke:#A80036;stroke-width:1.5;" width="323" x="7" y="105"/><ellipse cx="35.05" cy="123.9688" fill="#ADD1B2" rx="11" ry="11" style="stroke:#A80036;stroke-width:1.0;"/><path d="M38.0188,129.6094 Q37.4406,129.9063 36.8,130.0469 Q36.1594,130.2031 35.4563,130.2031 Q32.9563,130.2031 31.6281,128.5625 Q30.3156,126.9063 30.3156,123.7813 Q30.3156,120.6563 31.6281,119 Q32.9563,117.3438 35.4563,117.3438 Q36.1594,117.3438 36.8,117.5 Q37.4563,117.6563 38.0188,117.9531 L38.0188,120.6719 Q37.3938,120.0938 36.8,119.8281 Q36.2063,119.5469 35.5813,119.5469 Q34.2375,119.5469 33.55,120.625 Q32.8625,121.6875 32.8625,123.7813 Q32.8625,125.875 33.55,126.9531 Q34.2375,128.0156 35.5813,128.0156 Q36.2063,128.0156 36.8,127.75 Q37.3938,127.4688 38.0188,126.8906 L38.0188,129.6094 Z " fill="#000000"/><text fill="#000000" font-family="sans-serif" font-size="14" lengthAdjust="spacing" textLength="204" x="80.95" y="122.9951">ConnectedUsersListReceived</text><text fill="#000000" font-family="sans-serif" font-size="10" lengthAdjust="spacing" textLength="262" x="51.95" y="135.5791">org.example.model.communication.server.httpEvents</text><line style="stroke:#A80036;stroke-width:1.5;" x1="8" x2="329" y1="142.9375" y2="142.9375"/><ellipse cx="18" cy="153.9375" rx="3" ry="3" style="stroke:#038048;stroke-width:1.0;fill:none;"/><text fill="#000000" font-family="sans-serif" font-size="11" lengthAdjust="spacing" textLength="225" x="27" y="157.1479">connectedUsers: List&lt;ConnectedUser&gt;</text><line style="stroke:#A80036;stroke-width:1.5;" x1="8" x2="329" y1="163.7422" y2="163.7422"/><ellipse cx="18" cy="174.7422" fill="#84BE84" rx="3" ry="3" style="stroke:#038048;stroke-width:1.0;"/><text fill="#000000" font-family="sans-serif" font-size="11" lengthAdjust="spacing" textLength="297" x="27" y="177.9526">ConnectedUsersListReceived(List&lt;ConnectedUser&gt;)</text></a><!--MD5=[c3032a53907b8b88d806949a76ef6f38]
class org.example.model.communication.server.httpEvents.HTTPEvent--><a href="HTTPEvent.html" target="_top" title="HTTPEvent.html" xlink:actuate="onRequest" xlink:href="HTTPEvent.html" xlink:show="new" xlink:title="HTTPEvent.html" xlink:type="simple"><rect codeLine="10" fill="#FEFECE" filter="url(#f1qki6ap11dexc)" height="37.9375" id="org.example.model.communication.server.httpEvents.HTTPEvent" style="stroke:#A80036;stroke-width:1.5;" width="299" x="19" y="7"/><ellipse cx="34" cy="25.9688" fill="#B4A7E5" rx="11" ry="11" style="stroke:#A80036;stroke-width:1.0;"/><path d="M29.9219,21.7344 L29.9219,19.5781 L37.3125,19.5781 L37.3125,21.7344 L34.8438,21.7344 L34.8438,29.8125 L37.3125,29.8125 L37.3125,31.9688 L29.9219,31.9688 L29.9219,29.8125 L32.3906,29.8125 L32.3906,21.7344 L29.9219,21.7344 Z " fill="#000000"/><text fill="#000000" font-family="sans-serif" font-size="14" font-style="italic" lengthAdjust="spacing" textLength="77" x="143" y="24.9951">HTTPEvent</text><text fill="#000000" font-family="sans-serif" font-size="10" font-style="italic" lengthAdjust="spacing" textLength="267" x="48" y="37.5791">org.example.model.communication.server.httpEvents</text></a><!--MD5=[40bf5afcddfe8e7f124a3517d4d710db]
reverse link org.example.model.communication.server.httpEvents.HTTPEvent to org.example.model.communication.server.httpEvents.ConnectedUsersListReceived--><path codeLine="12" d="M168.5,65.14 C168.5,77.87 168.5,92.07 168.5,104.87 " fill="none" id="org.example.model.communication.server.httpEvents.HTTPEvent-backto-org.example.model.communication.server.httpEvents.ConnectedUsersListReceived" style="stroke:#A80036;stroke-width:1.0;stroke-dasharray:7.0,7.0;"/><polygon fill="none" points="161.5,65.02,168.5,45.02,175.5,65.02,161.5,65.02" style="stroke:#A80036;stroke-width:1.0;"/><text fill="#888888" font-family="sans-serif" font-size="10" lengthAdjust="spacing" textLength="192" x="69.5" y="206.8291">UMLDoclet 2.0.15, PlantUML 1.2021.13</text><!--MD5=[e0a9cfef9e6c5affb64ce4923e3c549b]
@startuml
    set namespaceSeparator none
    hide empty fields
    hide empty methods

    class "<size:14>ConnectedUsersListReceived\n<size:10>org.example.model.communication.server.httpEvents" as org.example.model.communication.server.httpEvents.ConnectedUsersListReceived [[ConnectedUsersListReceived.html]] {
        +connectedUsers: List<ConnectedUser>
        +ConnectedUsersListReceived(List<ConnectedUser>)
    }

    interface "<size:14>HTTPEvent\n<size:10>org.example.model.communication.server.httpEvents" as org.example.model.communication.server.httpEvents.HTTPEvent [[HTTPEvent.html]]

    org.example.model.communication.server.httpEvents.HTTPEvent <|.. org.example.model.communication.server.httpEvents.ConnectedUsersListReceived

    center footer UMLDoclet 2.0.15, PlantUML 1.2021.13
@enduml

PlantUML version 1.2021.13(Mon Nov 01 11:38:45 UTC 2021)
(APACHE source distribution)
Java Runtime: OpenJDK Runtime Environment
JVM: OpenJDK 64-Bit Server VM
Default Encoding: UTF-8
Language: en
Country: null
--></g></svg>