<?xml version="1.0" encoding="UTF-8" standalone="no"?><svg xmlns="http://www.w3.org/2000/svg" xmlns:xlink="http://www.w3.org/1999/xlink" contentScriptType="application/ecmascript" contentStyleType="text/css" height="262px" preserveAspectRatio="none" style="width:844px;height:262px;background:#FFFFFF;" version="1.1" viewBox="0 0 844 262" width="844px" zoomAndPan="magnify"><defs><filter height="300%" id="f1xfvv8leg8ro3" width="300%" x="-1" y="-1"><feGaussianBlur result="blurOut" stdDeviation="2.0"/><feColorMatrix in="blurOut" result="blurOut2" type="matrix" values="0 0 0 0 0 0 0 0 0 0 0 0 0 0 0 0 0 0 .4 0"/><feOffset dx="4.0" dy="4.0" in="blurOut2" result="blurOut3"/><feBlend in="SourceGraphic" in2="blurOut3" mode="normal"/></filter></defs><g><!--MD5=[f901187a544fcb1701fcf6869e815086]
cluster org.example.model.communication.server.httpEvents--><polygon fill="#FFFFFF" filter="url(#f1xfvv8leg8ro3)" points="16,6,444,6,451,28.2969,827,28.2969,827,239,16,239,16,6" style="stroke:#000000;stroke-width:1.5;"/><line style="stroke:#000000;stroke-width:1.5;" x1="16" x2="451" y1="28.2969" y2="28.2969"/><text fill="#000000" font-family="sans-serif" font-size="14" font-weight="bold" lengthAdjust="spacing" textLength="422" x="20" y="20.9951">org.example.model.communication.server.httpEvents</text><!--MD5=[c3032a53907b8b88d806949a76ef6f38]
class org.example.model.communication.server.httpEvents.HTTPEvent--><a href="HTTPEvent.html" target="_top" title="HTTPEvent.html" xlink:actuate="onRequest" xlink:href="HTTPEvent.html" xlink:show="new" xlink:title="HTTPEvent.html" xlink:type="simple"><rect codeLine="3" fill="#FEFECE" filter="url(#f1xfvv8leg8ro3)" height="48" id="org.example.model.communication.server.httpEvents.HTTPEvent" style="stroke:#A80036;stroke-width:1.5;" width="97" x="374.5" y="41"/><ellipse cx="389.5" cy="57" fill="#B4A7E5" rx="11" ry="11" style="stroke:#A80036;stroke-width:1.0;"/><path d="M385.4219,52.7656 L385.4219,50.6094 L392.8125,50.6094 L392.8125,52.7656 L390.3438,52.7656 L390.3438,60.8438 L392.8125,60.8438 L392.8125,63 L385.4219,63 L385.4219,60.8438 L387.8906,60.8438 L387.8906,52.7656 L385.4219,52.7656 Z " fill="#000000"/><text fill="#000000" font-family="sans-serif" font-size="12" font-style="italic" lengthAdjust="spacing" textLength="65" x="403.5" y="61.1543">HTTPEvent</text><line style="stroke:#A80036;stroke-width:1.5;" x1="375.5" x2="470.5" y1="73" y2="73"/><line style="stroke:#A80036;stroke-width:1.5;" x1="375.5" x2="470.5" y1="81" y2="81"/></a><!--MD5=[9c614aa4c2d9796ef4be900aa1969246]
class org.example.model.communication.server.httpEvents.UserDisconnectedEvent--><a href="UserDisconnectedEvent.html" target="_top" title="UserDisconnectedEvent.html" xlink:actuate="onRequest" xlink:href="UserDisconnectedEvent.html" xlink:show="new" xlink:title="UserDisconnectedEvent.html" xlink:type="simple"><rect codeLine="5" fill="#FEFECE" filter="url(#f1xfvv8leg8ro3)" height="73.6094" id="org.example.model.communication.server.httpEvents.UserDisconnectedEvent" style="stroke:#A80036;stroke-width:1.5;" width="195" x="31.5" y="149"/><ellipse cx="52.35" cy="165" fill="#ADD1B2" rx="11" ry="11" style="stroke:#A80036;stroke-width:1.0;"/><path d="M55.3188,170.6406 Q54.7406,170.9375 54.1,171.0781 Q53.4594,171.2344 52.7563,171.2344 Q50.2563,171.2344 48.9281,169.5938 Q47.6156,167.9375 47.6156,164.8125 Q47.6156,161.6875 48.9281,160.0313 Q50.2563,158.375 52.7563,158.375 Q53.4594,158.375 54.1,158.5313 Q54.7563,158.6875 55.3188,158.9844 L55.3188,161.7031 Q54.6938,161.125 54.1,160.8594 Q53.5063,160.5781 52.8813,160.5781 Q51.5375,160.5781 50.85,161.6563 Q50.1625,162.7188 50.1625,164.8125 Q50.1625,166.9063 50.85,167.9844 Q51.5375,169.0469 52.8813,169.0469 Q53.5063,169.0469 54.1,168.7813 Q54.6938,168.5 55.3188,167.9219 L55.3188,170.6406 Z " fill="#000000"/><text fill="#000000" font-family="sans-serif" font-size="12" lengthAdjust="spacing" textLength="150" x="67.65" y="169.1543">UserDisconnectedEvent</text><line style="stroke:#A80036;stroke-width:1.5;" x1="32.5" x2="225.5" y1="181" y2="181"/><ellipse cx="42.5" cy="192" rx="3" ry="3" style="stroke:#038048;stroke-width:1.0;fill:none;"/><text fill="#000000" font-family="sans-serif" font-size="11" lengthAdjust="spacing" textLength="42" x="51.5" y="195.2104">u: User</text><line style="stroke:#A80036;stroke-width:1.5;" x1="32.5" x2="225.5" y1="201.8047" y2="201.8047"/><ellipse cx="42.5" cy="212.8047" fill="#84BE84" rx="3" ry="3" style="stroke:#038048;stroke-width:1.0;"/><text fill="#000000" font-family="sans-serif" font-size="11" lengthAdjust="spacing" textLength="169" x="51.5" y="216.0151">UserDisconnectedEvent(User)</text></a><!--MD5=[b8b2662c3863ca10dc45b8399c2b0864]
class org.example.model.communication.server.httpEvents.ConnectedUsersListReceived--><a href="ConnectedUsersListReceived.html" target="_top" title="ConnectedUsersListReceived.html" xlink:actuate="onRequest" xlink:href="ConnectedUsersListReceived.html" xlink:show="new" xlink:title="ConnectedUsersListReceived.html" xlink:type="simple"><rect codeLine="10" fill="#FEFECE" filter="url(#f1xfvv8leg8ro3)" height="73.6094" id="org.example.model.communication.server.httpEvents.ConnectedUsersListReceived" style="stroke:#A80036;stroke-width:1.5;" width="323" x="261.5" y="149"/><ellipse cx="328.25" cy="165" fill="#ADD1B2" rx="11" ry="11" style="stroke:#A80036;stroke-width:1.0;"/><path d="M331.2188,170.6406 Q330.6406,170.9375 330,171.0781 Q329.3594,171.2344 328.6563,171.2344 Q326.1563,171.2344 324.8281,169.5938 Q323.5156,167.9375 323.5156,164.8125 Q323.5156,161.6875 324.8281,160.0313 Q326.1563,158.375 328.6563,158.375 Q329.3594,158.375 330,158.5313 Q330.6563,158.6875 331.2188,158.9844 L331.2188,161.7031 Q330.5938,161.125 330,160.8594 Q329.4063,160.5781 328.7813,160.5781 Q327.4375,160.5781 326.75,161.6563 Q326.0625,162.7188 326.0625,164.8125 Q326.0625,166.9063 326.75,167.9844 Q327.4375,169.0469 328.7813,169.0469 Q329.4063,169.0469 330,168.7813 Q330.5938,168.5 331.2188,167.9219 L331.2188,170.6406 Z " fill="#000000"/><text fill="#000000" font-family="sans-serif" font-size="12" lengthAdjust="spacing" textLength="181" x="348.75" y="169.1543">ConnectedUsersListReceived</text><line style="stroke:#A80036;stroke-width:1.5;" x1="262.5" x2="583.5" y1="181" y2="181"/><ellipse cx="272.5" cy="192" rx="3" ry="3" style="stroke:#038048;stroke-width:1.0;fill:none;"/><text fill="#000000" font-family="sans-serif" font-size="11" lengthAdjust="spacing" textLength="225" x="281.5" y="195.2104">connectedUsers: List&lt;ConnectedUser&gt;</text><line style="stroke:#A80036;stroke-width:1.5;" x1="262.5" x2="583.5" y1="201.8047" y2="201.8047"/><ellipse cx="272.5" cy="212.8047" fill="#84BE84" rx="3" ry="3" style="stroke:#038048;stroke-width:1.0;"/><text fill="#000000" font-family="sans-serif" font-size="11" lengthAdjust="spacing" textLength="297" x="281.5" y="216.0151">ConnectedUsersListReceived(List&lt;ConnectedUser&gt;)</text></a><!--MD5=[128105edce9778bbd56c25b00d807c93]
class org.example.model.communication.server.httpEvents.NewMessageEvent--><a href="NewMessageEvent.html" target="_top" title="NewMessageEvent.html" xlink:actuate="onRequest" xlink:href="NewMessageEvent.html" xlink:show="new" xlink:title="NewMessageEvent.html" xlink:type="simple"><rect codeLine="15" fill="#FEFECE" filter="url(#f1xfvv8leg8ro3)" height="73.6094" id="org.example.model.communication.server.httpEvents.NewMessageEvent" style="stroke:#A80036;stroke-width:1.5;" width="191" x="619.5" y="149"/><ellipse cx="653.4" cy="165" fill="#ADD1B2" rx="11" ry="11" style="stroke:#A80036;stroke-width:1.0;"/><path d="M656.3688,170.6406 Q655.7906,170.9375 655.15,171.0781 Q654.5094,171.2344 653.8063,171.2344 Q651.3063,171.2344 649.9781,169.5938 Q648.6656,167.9375 648.6656,164.8125 Q648.6656,161.6875 649.9781,160.0313 Q651.3063,158.375 653.8063,158.375 Q654.5094,158.375 655.15,158.5313 Q655.8063,158.6875 656.3688,158.9844 L656.3688,161.7031 Q655.7438,161.125 655.15,160.8594 Q654.5563,160.5781 653.9313,160.5781 Q652.5875,160.5781 651.9,161.6563 Q651.2125,162.7188 651.2125,164.8125 Q651.2125,166.9063 651.9,167.9844 Q652.5875,169.0469 653.9313,169.0469 Q654.5563,169.0469 655.15,168.7813 Q655.7438,168.5 656.3688,167.9219 L656.3688,170.6406 Z " fill="#000000"/><text fill="#000000" font-family="sans-serif" font-size="12" lengthAdjust="spacing" textLength="117" x="671.6" y="169.1543">NewMessageEvent</text><line style="stroke:#A80036;stroke-width:1.5;" x1="620.5" x2="809.5" y1="181" y2="181"/><line style="stroke:#A80036;stroke-width:1.5;" x1="620.5" x2="809.5" y1="189" y2="189"/><ellipse cx="630.5" cy="200" fill="#84BE84" rx="3" ry="3" style="stroke:#038048;stroke-width:1.0;"/><text fill="#000000" font-family="sans-serif" font-size="11" lengthAdjust="spacing" textLength="165" x="639.5" y="203.2104">NewMessageEvent(Message)</text><ellipse cx="630.5" cy="212.8047" fill="#84BE84" rx="3" ry="3" style="stroke:#038048;stroke-width:1.0;"/><text fill="#000000" font-family="sans-serif" font-size="11" lengthAdjust="spacing" textLength="94" x="639.5" y="216.0151">getM(): Message</text></a><!--MD5=[eb3d098e44e1676f02909c9f840e37fa]
reverse link org.example.model.communication.server.httpEvents.HTTPEvent to org.example.model.communication.server.httpEvents.UserDisconnectedEvent--><path codeLine="20" d="M355.73,93.23 C314.89,109.76 262.29,131.05 218.03,148.96 " fill="none" id="org.example.model.communication.server.httpEvents.HTTPEvent-backto-org.example.model.communication.server.httpEvents.UserDisconnectedEvent" style="stroke:#A80036;stroke-width:1.0;stroke-dasharray:7.0,7.0;"/><polygon fill="none" points="353.29,86.67,374.45,85.65,358.54,99.64,353.29,86.67" style="stroke:#A80036;stroke-width:1.0;"/><!--MD5=[40bf5afcddfe8e7f124a3517d4d710db]
reverse link org.example.model.communication.server.httpEvents.HTTPEvent to org.example.model.communication.server.httpEvents.ConnectedUsersListReceived--><path codeLine="21" d="M423,109.43 C423,122.33 423,136.32 423,148.71 " fill="none" id="org.example.model.communication.server.httpEvents.HTTPEvent-backto-org.example.model.communication.server.httpEvents.ConnectedUsersListReceived" style="stroke:#A80036;stroke-width:1.0;stroke-dasharray:7.0,7.0;"/><polygon fill="none" points="416,109.23,423,89.23,430,109.23,416,109.23" style="stroke:#A80036;stroke-width:1.0;"/><!--MD5=[2f31f63eb9c7d5ad33af01f1ce88e116]
reverse link org.example.model.communication.server.httpEvents.HTTPEvent to org.example.model.communication.server.httpEvents.NewMessageEvent--><path codeLine="22" d="M490.12,93.35 C530.6,109.85 582.65,131.06 626.47,148.92 " fill="none" id="org.example.model.communication.server.httpEvents.HTTPEvent-backto-org.example.model.communication.server.httpEvents.NewMessageEvent" style="stroke:#A80036;stroke-width:1.0;stroke-dasharray:7.0,7.0;"/><polygon fill="none" points="487.42,99.81,471.55,85.78,492.71,86.85,487.42,99.81" style="stroke:#A80036;stroke-width:1.0;"/><text fill="#888888" font-family="sans-serif" font-size="10" lengthAdjust="spacing" textLength="192" x="319.5" y="254.2822">UMLDoclet 2.0.15, PlantUML 1.2021.13</text><!--MD5=[93bced523d1de5a01bacb886a3670e50]
@startuml
    namespace org.example.model.communication.server.httpEvents {

        interface HTTPEvent [[HTTPEvent.html]]

        class UserDisconnectedEvent [[UserDisconnectedEvent.html]] {
            +u: User
            +UserDisconnectedEvent(User)
        }

        class ConnectedUsersListReceived [[ConnectedUsersListReceived.html]] {
            +connectedUsers: List<ConnectedUser>
            +ConnectedUsersListReceived(List<ConnectedUser>)
        }

        class NewMessageEvent [[NewMessageEvent.html]] {
            +NewMessageEvent(Message)
            +getM(): Message
        }

        HTTPEvent <|.. UserDisconnectedEvent
        HTTPEvent <|.. ConnectedUsersListReceived
        HTTPEvent <|.. NewMessageEvent
    }

    center footer UMLDoclet 2.0.15, PlantUML 1.2021.13
@enduml

PlantUML version 1.2021.13(Mon Nov 01 11:38:45 UTC 2021)
(APACHE source distribution)
Java Runtime: OpenJDK Runtime Environment
JVM: OpenJDK 64-Bit Server VM
Default Encoding: UTF-8
Language: en
Country: null
--></g></svg>