<?xml version="1.0" encoding="UTF-8" standalone="no"?><svg xmlns="http://www.w3.org/2000/svg" xmlns:xlink="http://www.w3.org/1999/xlink" contentScriptType="application/ecmascript" contentStyleType="text/css" height="262px" preserveAspectRatio="none" style="width:1064px;height:262px;background:#FFFFFF;" version="1.1" viewBox="0 0 1064 262" width="1064px" zoomAndPan="magnify"><defs><filter height="300%" id="f1vx7gsjjobm7g" width="300%" x="-1" y="-1"><feGaussianBlur result="blurOut" stdDeviation="2.0"/><feColorMatrix in="blurOut" result="blurOut2" type="matrix" values="0 0 0 0 0 0 0 0 0 0 0 0 0 0 0 0 0 0 .4 0"/><feOffset dx="4.0" dy="4.0" in="blurOut2" result="blurOut3"/><feBlend in="SourceGraphic" in2="blurOut3" mode="normal"/></filter></defs><g><!--MD5=[f901187a544fcb1701fcf6869e815086]
cluster org.example.model.communication.server.httpEvents--><polygon fill="#FFFFFF" filter="url(#f1vx7gsjjobm7g)" points="16,6,444,6,451,28.2969,1047,28.2969,1047,239,16,239,16,6" style="stroke:#000000;stroke-width:1.5;"/><line style="stroke:#000000;stroke-width:1.5;" x1="16" x2="451" y1="28.2969" y2="28.2969"/><text fill="#000000" font-family="sans-serif" font-size="14" font-weight="bold" lengthAdjust="spacing" textLength="422" x="20" y="20.9951">org.example.model.communication.server.httpEvents</text><!--MD5=[c3032a53907b8b88d806949a76ef6f38]
class org.example.model.communication.server.httpEvents.HTTPEvent--><a href="HTTPEvent.html" target="_top" title="HTTPEvent.html" xlink:actuate="onRequest" xlink:href="HTTPEvent.html" xlink:show="new" xlink:title="HTTPEvent.html" xlink:type="simple"><rect codeLine="3" fill="#FEFECE" filter="url(#f1vx7gsjjobm7g)" height="48" id="org.example.model.communication.server.httpEvents.HTTPEvent" style="stroke:#A80036;stroke-width:1.5;" width="97" x="447.5" y="41"/><ellipse cx="462.5" cy="57" fill="#B4A7E5" rx="11" ry="11" style="stroke:#A80036;stroke-width:1.0;"/><path d="M458.4219,52.7656 L458.4219,50.6094 L465.8125,50.6094 L465.8125,52.7656 L463.3438,52.7656 L463.3438,60.8438 L465.8125,60.8438 L465.8125,63 L458.4219,63 L458.4219,60.8438 L460.8906,60.8438 L460.8906,52.7656 L458.4219,52.7656 Z " fill="#000000"/><text fill="#000000" font-family="sans-serif" font-size="12" font-style="italic" lengthAdjust="spacing" textLength="65" x="476.5" y="61.1543">HTTPEvent</text><line style="stroke:#A80036;stroke-width:1.5;" x1="448.5" x2="543.5" y1="73" y2="73"/><line style="stroke:#A80036;stroke-width:1.5;" x1="448.5" x2="543.5" y1="81" y2="81"/></a><!--MD5=[b080dcbe05dfebae3009d48ce2511dc4]
class org.example.model.communication.server.httpEvents.ChangedPseudoEvent--><a href="ChangedPseudoEvent.html" target="_top" title="ChangedPseudoEvent.html" xlink:actuate="onRequest" xlink:href="ChangedPseudoEvent.html" xlink:show="new" xlink:title="ChangedPseudoEvent.html" xlink:type="simple"><rect codeLine="5" fill="#FEFECE" filter="url(#f1vx7gsjjobm7g)" height="60.8047" id="org.example.model.communication.server.httpEvents.ChangedPseudoEvent" style="stroke:#A80036;stroke-width:1.5;" width="184" x="32" y="155.5"/><ellipse cx="53.3" cy="171.5" fill="#ADD1B2" rx="11" ry="11" style="stroke:#A80036;stroke-width:1.0;"/><path d="M56.2688,177.1406 Q55.6906,177.4375 55.05,177.5781 Q54.4094,177.7344 53.7063,177.7344 Q51.2063,177.7344 49.8781,176.0938 Q48.5656,174.4375 48.5656,171.3125 Q48.5656,168.1875 49.8781,166.5313 Q51.2063,164.875 53.7063,164.875 Q54.4094,164.875 55.05,165.0313 Q55.7063,165.1875 56.2688,165.4844 L56.2688,168.2031 Q55.6438,167.625 55.05,167.3594 Q54.4563,167.0781 53.8313,167.0781 Q52.4875,167.0781 51.8,168.1563 Q51.1125,169.2188 51.1125,171.3125 Q51.1125,173.4063 51.8,174.4844 Q52.4875,175.5469 53.8313,175.5469 Q54.4563,175.5469 55.05,175.2813 Q55.6438,175 56.2688,174.4219 L56.2688,177.1406 Z " fill="#000000"/><text fill="#000000" font-family="sans-serif" font-size="12" lengthAdjust="spacing" textLength="138" x="68.7" y="175.6543">ChangedPseudoEvent</text><line style="stroke:#A80036;stroke-width:1.5;" x1="33" x2="215" y1="187.5" y2="187.5"/><line style="stroke:#A80036;stroke-width:1.5;" x1="33" x2="215" y1="195.5" y2="195.5"/><ellipse cx="43" cy="206.5" fill="#84BE84" rx="3" ry="3" style="stroke:#038048;stroke-width:1.0;"/><text fill="#000000" font-family="sans-serif" font-size="11" lengthAdjust="spacing" textLength="158" x="52" y="209.7104">ChangedPseudoEvent(User)</text></a><!--MD5=[9c614aa4c2d9796ef4be900aa1969246]
class org.example.model.communication.server.httpEvents.UserDisconnectedEvent--><a href="UserDisconnectedEvent.html" target="_top" title="UserDisconnectedEvent.html" xlink:actuate="onRequest" xlink:href="UserDisconnectedEvent.html" xlink:show="new" xlink:title="UserDisconnectedEvent.html" xlink:type="simple"><rect codeLine="9" fill="#FEFECE" filter="url(#f1vx7gsjjobm7g)" height="73.6094" id="org.example.model.communication.server.httpEvents.UserDisconnectedEvent" style="stroke:#A80036;stroke-width:1.5;" width="195" x="251.5" y="149"/><ellipse cx="272.35" cy="165" fill="#ADD1B2" rx="11" ry="11" style="stroke:#A80036;stroke-width:1.0;"/><path d="M275.3188,170.6406 Q274.7406,170.9375 274.1,171.0781 Q273.4594,171.2344 272.7563,171.2344 Q270.2563,171.2344 268.9281,169.5938 Q267.6156,167.9375 267.6156,164.8125 Q267.6156,161.6875 268.9281,160.0313 Q270.2563,158.375 272.7563,158.375 Q273.4594,158.375 274.1,158.5313 Q274.7563,158.6875 275.3188,158.9844 L275.3188,161.7031 Q274.6938,161.125 274.1,160.8594 Q273.5063,160.5781 272.8813,160.5781 Q271.5375,160.5781 270.85,161.6563 Q270.1625,162.7188 270.1625,164.8125 Q270.1625,166.9063 270.85,167.9844 Q271.5375,169.0469 272.8813,169.0469 Q273.5063,169.0469 274.1,168.7813 Q274.6938,168.5 275.3188,167.9219 L275.3188,170.6406 Z " fill="#000000"/><text fill="#000000" font-family="sans-serif" font-size="12" lengthAdjust="spacing" textLength="150" x="287.65" y="169.1543">UserDisconnectedEvent</text><line style="stroke:#A80036;stroke-width:1.5;" x1="252.5" x2="445.5" y1="181" y2="181"/><ellipse cx="262.5" cy="192" rx="3" ry="3" style="stroke:#038048;stroke-width:1.0;fill:none;"/><text fill="#000000" font-family="sans-serif" font-size="11" lengthAdjust="spacing" textLength="42" x="271.5" y="195.2104">u: User</text><line style="stroke:#A80036;stroke-width:1.5;" x1="252.5" x2="445.5" y1="201.8047" y2="201.8047"/><ellipse cx="262.5" cy="212.8047" fill="#84BE84" rx="3" ry="3" style="stroke:#038048;stroke-width:1.0;"/><text fill="#000000" font-family="sans-serif" font-size="11" lengthAdjust="spacing" textLength="169" x="271.5" y="216.0151">UserDisconnectedEvent(User)</text></a><!--MD5=[b8b2662c3863ca10dc45b8399c2b0864]
class org.example.model.communication.server.httpEvents.ConnectedUsersListReceived--><a href="ConnectedUsersListReceived.html" target="_top" title="ConnectedUsersListReceived.html" xlink:actuate="onRequest" xlink:href="ConnectedUsersListReceived.html" xlink:show="new" xlink:title="ConnectedUsersListReceived.html" xlink:type="simple"><rect codeLine="14" fill="#FEFECE" filter="url(#f1vx7gsjjobm7g)" height="73.6094" id="org.example.model.communication.server.httpEvents.ConnectedUsersListReceived" style="stroke:#A80036;stroke-width:1.5;" width="323" x="481.5" y="149"/><ellipse cx="548.25" cy="165" fill="#ADD1B2" rx="11" ry="11" style="stroke:#A80036;stroke-width:1.0;"/><path d="M551.2188,170.6406 Q550.6406,170.9375 550,171.0781 Q549.3594,171.2344 548.6563,171.2344 Q546.1563,171.2344 544.8281,169.5938 Q543.5156,167.9375 543.5156,164.8125 Q543.5156,161.6875 544.8281,160.0313 Q546.1563,158.375 548.6563,158.375 Q549.3594,158.375 550,158.5313 Q550.6563,158.6875 551.2188,158.9844 L551.2188,161.7031 Q550.5938,161.125 550,160.8594 Q549.4063,160.5781 548.7813,160.5781 Q547.4375,160.5781 546.75,161.6563 Q546.0625,162.7188 546.0625,164.8125 Q546.0625,166.9063 546.75,167.9844 Q547.4375,169.0469 548.7813,169.0469 Q549.4063,169.0469 550,168.7813 Q550.5938,168.5 551.2188,167.9219 L551.2188,170.6406 Z " fill="#000000"/><text fill="#000000" font-family="sans-serif" font-size="12" lengthAdjust="spacing" textLength="181" x="568.75" y="169.1543">ConnectedUsersListReceived</text><line style="stroke:#A80036;stroke-width:1.5;" x1="482.5" x2="803.5" y1="181" y2="181"/><ellipse cx="492.5" cy="192" rx="3" ry="3" style="stroke:#038048;stroke-width:1.0;fill:none;"/><text fill="#000000" font-family="sans-serif" font-size="11" lengthAdjust="spacing" textLength="225" x="501.5" y="195.2104">connectedUsers: List&lt;ConnectedUser&gt;</text><line style="stroke:#A80036;stroke-width:1.5;" x1="482.5" x2="803.5" y1="201.8047" y2="201.8047"/><ellipse cx="492.5" cy="212.8047" fill="#84BE84" rx="3" ry="3" style="stroke:#038048;stroke-width:1.0;"/><text fill="#000000" font-family="sans-serif" font-size="11" lengthAdjust="spacing" textLength="297" x="501.5" y="216.0151">ConnectedUsersListReceived(List&lt;ConnectedUser&gt;)</text></a><!--MD5=[128105edce9778bbd56c25b00d807c93]
class org.example.model.communication.server.httpEvents.NewMessageEvent--><a href="NewMessageEvent.html" target="_top" title="NewMessageEvent.html" xlink:actuate="onRequest" xlink:href="NewMessageEvent.html" xlink:show="new" xlink:title="NewMessageEvent.html" xlink:type="simple"><rect codeLine="19" fill="#FEFECE" filter="url(#f1vx7gsjjobm7g)" height="73.6094" id="org.example.model.communication.server.httpEvents.NewMessageEvent" style="stroke:#A80036;stroke-width:1.5;" width="191" x="839.5" y="149"/><ellipse cx="873.4" cy="165" fill="#ADD1B2" rx="11" ry="11" style="stroke:#A80036;stroke-width:1.0;"/><path d="M876.3688,170.6406 Q875.7906,170.9375 875.15,171.0781 Q874.5094,171.2344 873.8063,171.2344 Q871.3063,171.2344 869.9781,169.5938 Q868.6656,167.9375 868.6656,164.8125 Q868.6656,161.6875 869.9781,160.0313 Q871.3063,158.375 873.8063,158.375 Q874.5094,158.375 875.15,158.5313 Q875.8063,158.6875 876.3688,158.9844 L876.3688,161.7031 Q875.7438,161.125 875.15,160.8594 Q874.5563,160.5781 873.9313,160.5781 Q872.5875,160.5781 871.9,161.6563 Q871.2125,162.7188 871.2125,164.8125 Q871.2125,166.9063 871.9,167.9844 Q872.5875,169.0469 873.9313,169.0469 Q874.5563,169.0469 875.15,168.7813 Q875.7438,168.5 876.3688,167.9219 L876.3688,170.6406 Z " fill="#000000"/><text fill="#000000" font-family="sans-serif" font-size="12" lengthAdjust="spacing" textLength="117" x="891.6" y="169.1543">NewMessageEvent</text><line style="stroke:#A80036;stroke-width:1.5;" x1="840.5" x2="1029.5" y1="181" y2="181"/><line style="stroke:#A80036;stroke-width:1.5;" x1="840.5" x2="1029.5" y1="189" y2="189"/><ellipse cx="850.5" cy="200" fill="#84BE84" rx="3" ry="3" style="stroke:#038048;stroke-width:1.0;"/><text fill="#000000" font-family="sans-serif" font-size="11" lengthAdjust="spacing" textLength="165" x="859.5" y="203.2104">NewMessageEvent(Message)</text><ellipse cx="850.5" cy="212.8047" fill="#84BE84" rx="3" ry="3" style="stroke:#038048;stroke-width:1.0;"/><text fill="#000000" font-family="sans-serif" font-size="11" lengthAdjust="spacing" textLength="94" x="859.5" y="216.0151">getM(): Message</text></a><!--MD5=[3773ceb0f4186df1b5cafecb61ee9d0e]
reverse link org.example.model.communication.server.httpEvents.HTTPEvent to org.example.model.communication.server.httpEvents.ChangedPseudoEvent--><path codeLine="24" d="M428.06,87.33 C375.14,103.99 299.85,127.8 234,149 C227.5,151.09 220.78,153.27 214.02,155.46 " fill="none" id="org.example.model.communication.server.httpEvents.HTTPEvent-backto-org.example.model.communication.server.httpEvents.ChangedPseudoEvent" style="stroke:#A80036;stroke-width:1.0;stroke-dasharray:7.0,7.0;"/><polygon fill="none" points="426.01,80.64,447.19,81.31,430.21,93.99,426.01,80.64" style="stroke:#A80036;stroke-width:1.0;"/><!--MD5=[eb3d098e44e1676f02909c9f840e37fa]
reverse link org.example.model.communication.server.httpEvents.HTTPEvent to org.example.model.communication.server.httpEvents.UserDisconnectedEvent--><path codeLine="25" d="M451.71,101.85 C433.3,116.76 411.97,134.02 393.54,148.95 " fill="none" id="org.example.model.communication.server.httpEvents.HTTPEvent-backto-org.example.model.communication.server.httpEvents.UserDisconnectedEvent" style="stroke:#A80036;stroke-width:1.0;stroke-dasharray:7.0,7.0;"/><polygon fill="none" points="447.36,96.37,467.31,89.23,456.17,107.25,447.36,96.37" style="stroke:#A80036;stroke-width:1.0;"/><!--MD5=[40bf5afcddfe8e7f124a3517d4d710db]
reverse link org.example.model.communication.server.httpEvents.HTTPEvent to org.example.model.communication.server.httpEvents.ConnectedUsersListReceived--><path codeLine="26" d="M540.29,101.85 C558.7,116.76 580.03,134.02 598.46,148.95 " fill="none" id="org.example.model.communication.server.httpEvents.HTTPEvent-backto-org.example.model.communication.server.httpEvents.ConnectedUsersListReceived" style="stroke:#A80036;stroke-width:1.0;stroke-dasharray:7.0,7.0;"/><polygon fill="none" points="535.83,107.25,524.69,89.23,544.64,96.37,535.83,107.25" style="stroke:#A80036;stroke-width:1.0;"/><!--MD5=[2f31f63eb9c7d5ad33af01f1ce88e116]
reverse link org.example.model.communication.server.httpEvents.HTTPEvent to org.example.model.communication.server.httpEvents.NewMessageEvent--><path codeLine="27" d="M564.28,82.14 C630.46,98.08 733.53,123.67 822,149 C827.64,150.62 833.43,152.32 839.26,154.07 " fill="none" id="org.example.model.communication.server.httpEvents.HTTPEvent-backto-org.example.model.communication.server.httpEvents.NewMessageEvent" style="stroke:#A80036;stroke-width:1.0;stroke-dasharray:7.0,7.0;"/><polygon fill="none" points="562.39,88.88,544.57,77.42,565.65,75.27,562.39,88.88" style="stroke:#A80036;stroke-width:1.0;"/><text fill="#888888" font-family="sans-serif" font-size="10" lengthAdjust="spacing" textLength="192" x="429.5" y="254.2822">UMLDoclet 2.0.15, PlantUML 1.2021.13</text><!--MD5=[ffe314a7aadc67d7a324126df4630030]
@startuml
    namespace org.example.model.communication.server.httpEvents {

        interface HTTPEvent [[HTTPEvent.html]]

        class ChangedPseudoEvent [[ChangedPseudoEvent.html]] {
            +ChangedPseudoEvent(User)
        }

        class UserDisconnectedEvent [[UserDisconnectedEvent.html]] {
            +u: User
            +UserDisconnectedEvent(User)
        }

        class ConnectedUsersListReceived [[ConnectedUsersListReceived.html]] {
            +connectedUsers: List<ConnectedUser>
            +ConnectedUsersListReceived(List<ConnectedUser>)
        }

        class NewMessageEvent [[NewMessageEvent.html]] {
            +NewMessageEvent(Message)
            +getM(): Message
        }

        HTTPEvent <|.. ChangedPseudoEvent
        HTTPEvent <|.. UserDisconnectedEvent
        HTTPEvent <|.. ConnectedUsersListReceived
        HTTPEvent <|.. NewMessageEvent
    }

    center footer UMLDoclet 2.0.15, PlantUML 1.2021.13
@enduml

PlantUML version 1.2021.13(Mon Nov 01 11:38:45 UTC 2021)
(APACHE source distribution)
Java Runtime: OpenJDK Runtime Environment
JVM: OpenJDK 64-Bit Server VM
Default Encoding: UTF-8
Language: en
Country: null
--></g></svg>