<?xml version="1.0" encoding="UTF-8" standalone="no"?><svg xmlns="http://www.w3.org/2000/svg" xmlns:xlink="http://www.w3.org/1999/xlink" contentScriptType="application/ecmascript" contentStyleType="text/css" height="241px" preserveAspectRatio="none" style="width:227px;height:241px;background:#FFFFFF;" version="1.1" viewBox="0 0 227 241" width="227px" zoomAndPan="magnify"><defs><filter height="300%" id="f19kz5f831i44m" width="300%" x="-1" y="-1"><feGaussianBlur result="blurOut" stdDeviation="2.0"/><feColorMatrix in="blurOut" result="blurOut2" type="matrix" values="0 0 0 0 0 0 0 0 0 0 0 0 0 0 0 0 0 0 .4 0"/><feOffset dx="4.0" dy="4.0" in="blurOut2" result="blurOut3"/><feBlend in="SourceGraphic" in2="blurOut3" mode="normal"/></filter></defs><g><!--MD5=[ce78e84ca2d9bdbde83afea5778a436f]
class org.example.services.LogFormatter.HtmlFormatter--><a href="HtmlFormatter.html" target="_top" title="HtmlFormatter.html" xlink:actuate="onRequest" xlink:href="HtmlFormatter.html" xlink:show="new" xlink:title="HtmlFormatter.html" xlink:type="simple"><rect codeLine="5" fill="#FEFECE" filter="url(#f19kz5f831i44m)" height="84.3516" id="org.example.services.LogFormatter.HtmlFormatter" style="stroke:#A80036;stroke-width:1.5;" width="206" x="7" y="126"/><ellipse cx="22" cy="144.9688" fill="#ADD1B2" rx="11" ry="11" style="stroke:#A80036;stroke-width:1.0;"/><path d="M24.9688,150.6094 Q24.3906,150.9063 23.75,151.0469 Q23.1094,151.2031 22.4063,151.2031 Q19.9063,151.2031 18.5781,149.5625 Q17.2656,147.9063 17.2656,144.7813 Q17.2656,141.6563 18.5781,140 Q19.9063,138.3438 22.4063,138.3438 Q23.1094,138.3438 23.75,138.5 Q24.4063,138.6563 24.9688,138.9531 L24.9688,141.6719 Q24.3438,141.0938 23.75,140.8281 Q23.1563,140.5469 22.5313,140.5469 Q21.1875,140.5469 20.5,141.625 Q19.8125,142.6875 19.8125,144.7813 Q19.8125,146.875 20.5,147.9531 Q21.1875,149.0156 22.5313,149.0156 Q23.1563,149.0156 23.75,148.75 Q24.3438,148.4688 24.9688,147.8906 L24.9688,150.6094 Z " fill="#000000"/><text fill="#000000" font-family="sans-serif" font-size="14" lengthAdjust="spacing" textLength="98" x="74" y="143.9951">HtmlFormatter</text><text fill="#000000" font-family="sans-serif" font-size="10" lengthAdjust="spacing" textLength="174" x="36" y="156.5791">org.example.services.LogFormatter</text><line style="stroke:#A80036;stroke-width:1.5;" x1="8" x2="212" y1="163.9375" y2="163.9375"/><ellipse cx="18" cy="174.9375" fill="#84BE84" rx="3" ry="3" style="stroke:#038048;stroke-width:1.0;"/><text fill="#000000" font-family="sans-serif" font-size="11" lengthAdjust="spacing" textLength="147" x="27" y="178.1479">format(LogRecord): String</text><ellipse cx="18" cy="187.7422" fill="#84BE84" rx="3" ry="3" style="stroke:#038048;stroke-width:1.0;"/><text fill="#000000" font-family="sans-serif" font-size="11" lengthAdjust="spacing" textLength="141" x="27" y="190.9526">getHead(Handler): String</text><ellipse cx="18" cy="200.5469" fill="#84BE84" rx="3" ry="3" style="stroke:#038048;stroke-width:1.0;"/><text fill="#000000" font-family="sans-serif" font-size="11" lengthAdjust="spacing" textLength="132" x="27" y="203.7573">getTail(Handler): String</text></a><!--MD5=[675e0b8b543756757eccc83d4e06d1c4]
class java.util.logging.Formatter--><rect codeLine="11" fill="#FEFECE" filter="url(#f19kz5f831i44m)" height="58.7422" id="java.util.logging.Formatter" style="stroke:#A80036;stroke-width:1.5;" width="173" x="23.5" y="7"/><ellipse cx="66.4" cy="25.9688" fill="#A9DCDF" rx="11" ry="11" style="stroke:#A80036;stroke-width:1.0;"/><path d="M66.5094,21.3125 L65.3531,26.3906 L67.6813,26.3906 L66.5094,21.3125 Z M65.025,19.0781 L68.0094,19.0781 L71.3688,31.4688 L68.9156,31.4688 L68.15,28.4063 L64.8688,28.4063 L64.1188,31.4688 L61.6813,31.4688 L65.025,19.0781 Z " fill="#000000"/><text fill="#000000" font-family="sans-serif" font-size="14" font-style="italic" lengthAdjust="spacing" textLength="67" x="92.6" y="24.9951">Formatter</text><text fill="#000000" font-family="sans-serif" font-size="10" font-style="italic" lengthAdjust="spacing" textLength="79" x="86.6" y="37.5791">java.util.logging</text><line style="stroke:#A80036;stroke-width:1.5;" x1="24.5" x2="195.5" y1="44.9375" y2="44.9375"/><ellipse cx="34.5" cy="55.9375" fill="#84BE84" rx="3" ry="3" style="stroke:#038048;stroke-width:1.0;"/><text fill="#000000" font-family="sans-serif" font-size="11" font-style="italic" lengthAdjust="spacing" textLength="147" x="43.5" y="59.1479">format(LogRecord): String</text><!--MD5=[90d73d9675e082e3b6b407efcfb5d44f]
reverse link java.util.logging.Formatter to org.example.services.LogFormatter.HtmlFormatter--><path codeLine="15" d="M110,86.63 C110,99.47 110,113.17 110,125.56 " fill="none" id="java.util.logging.Formatter-backto-org.example.services.LogFormatter.HtmlFormatter" style="stroke:#A80036;stroke-width:1.0;"/><polygon fill="none" points="103,86.24,110,66.24,117,86.24,103,86.24" style="stroke:#A80036;stroke-width:1.0;"/><text fill="#888888" font-family="sans-serif" font-size="10" lengthAdjust="spacing" textLength="192" x="11" y="232.6338">UMLDoclet 2.0.15, PlantUML 1.2021.13</text><!--MD5=[1b0f12fc48f323ac147e067c9addb9ef]
@startuml
    set namespaceSeparator none
    hide empty fields
    hide empty methods

    class "<size:14>HtmlFormatter\n<size:10>org.example.services.LogFormatter" as org.example.services.LogFormatter.HtmlFormatter [[HtmlFormatter.html]] {
        +format(LogRecord): String
        +getHead(Handler): String
        +getTail(Handler): String
    }

    abstract class "<size:14>Formatter\n<size:10>java.util.logging" as java.util.logging.Formatter {
        {abstract} +format(LogRecord): String
    }

    java.util.logging.Formatter <|- - org.example.services.LogFormatter.HtmlFormatter

    center footer UMLDoclet 2.0.15, PlantUML 1.2021.13
@enduml

PlantUML version 1.2021.13(Mon Nov 01 11:38:45 UTC 2021)
(APACHE source distribution)
Java Runtime: OpenJDK Runtime Environment
JVM: OpenJDK 64-Bit Server VM
Default Encoding: UTF-8
Language: en
Country: null
--></g></svg>