<?xml version="1.0" encoding="UTF-8" standalone="no"?><svg xmlns="http://www.w3.org/2000/svg" xmlns:xlink="http://www.w3.org/1999/xlink" contentScriptType="application/ecmascript" contentStyleType="text/css" height="302px" preserveAspectRatio="none" style="width:331px;height:302px;background:#FFFFFF;" version="1.1" viewBox="0 0 331 302" width="331px" zoomAndPan="magnify"><defs><filter height="300%" id="f1t93s0df7oqki" width="300%" x="-1" y="-1"><feGaussianBlur result="blurOut" stdDeviation="2.0"/><feColorMatrix in="blurOut" result="blurOut2" type="matrix" values="0 0 0 0 0 0 0 0 0 0 0 0 0 0 0 0 0 0 .4 0"/><feOffset dx="4.0" dy="4.0" in="blurOut2" result="blurOut3"/><feBlend in="SourceGraphic" in2="blurOut3" mode="normal"/></filter></defs><g><!--MD5=[7a38e258071d5495fc5e1e0403d14760]
cluster org.example.services.LogFormatter--><polygon fill="#FFFFFF" filter="url(#f1t93s0df7oqki)" points="16,142,304,142,311,164.2969,314,164.2969,314,279,16,279,16,142" style="stroke:#000000;stroke-width:1.5;"/><line style="stroke:#000000;stroke-width:1.5;" x1="16" x2="311" y1="164.2969" y2="164.2969"/><text fill="#000000" font-family="sans-serif" font-size="14" font-weight="bold" lengthAdjust="spacing" textLength="282" x="20" y="156.9951">org.example.services.LogFormatter</text><!--MD5=[8db7a6831e1582aab7f84135deae219c]
cluster java.util.logging--><polygon fill="#FFFFFF" filter="url(#f1t93s0df7oqki)" points="16,6,145,6,152,28.2969,222,28.2969,222,118,16,118,16,6" style="stroke:#000000;stroke-width:1.5;"/><line style="stroke:#000000;stroke-width:1.5;" x1="16" x2="152" y1="28.2969" y2="28.2969"/><text fill="#000000" font-family="sans-serif" font-size="14" font-weight="bold" lengthAdjust="spacing" textLength="123" x="20" y="20.9951">java.util.logging</text><!--MD5=[ce78e84ca2d9bdbde83afea5778a436f]
class org.example.services.LogFormatter.HtmlFormatter--><a href="HtmlFormatter.html" target="_top" title="HtmlFormatter.html" xlink:actuate="onRequest" xlink:href="HtmlFormatter.html" xlink:show="new" xlink:title="HtmlFormatter.html" xlink:type="simple"><rect codeLine="3" fill="#FEFECE" filter="url(#f1t93s0df7oqki)" height="86.4141" id="org.example.services.LogFormatter.HtmlFormatter" style="stroke:#A80036;stroke-width:1.5;" width="173" x="32.5" y="177"/><ellipse cx="70.45" cy="193" fill="#ADD1B2" rx="11" ry="11" style="stroke:#A80036;stroke-width:1.0;"/><path d="M73.4188,198.6406 Q72.8406,198.9375 72.2,199.0781 Q71.5594,199.2344 70.8563,199.2344 Q68.3563,199.2344 67.0281,197.5938 Q65.7156,195.9375 65.7156,192.8125 Q65.7156,189.6875 67.0281,188.0313 Q68.3563,186.375 70.8563,186.375 Q71.5594,186.375 72.2,186.5313 Q72.8563,186.6875 73.4188,186.9844 L73.4188,189.7031 Q72.7938,189.125 72.2,188.8594 Q71.6063,188.5781 70.9813,188.5781 Q69.6375,188.5781 68.95,189.6563 Q68.2625,190.7188 68.2625,192.8125 Q68.2625,194.9063 68.95,195.9844 Q69.6375,197.0469 70.9813,197.0469 Q71.6063,197.0469 72.2,196.7813 Q72.7938,196.5 73.4188,195.9219 L73.4188,198.6406 Z " fill="#000000"/><text fill="#000000" font-family="sans-serif" font-size="12" lengthAdjust="spacing" textLength="90" x="89.55" y="197.1543">HtmlFormatter</text><line style="stroke:#A80036;stroke-width:1.5;" x1="33.5" x2="204.5" y1="209" y2="209"/><line style="stroke:#A80036;stroke-width:1.5;" x1="33.5" x2="204.5" y1="217" y2="217"/><ellipse cx="43.5" cy="228" fill="#84BE84" rx="3" ry="3" style="stroke:#038048;stroke-width:1.0;"/><text fill="#000000" font-family="sans-serif" font-size="11" lengthAdjust="spacing" textLength="147" x="52.5" y="231.2104">format(LogRecord): String</text><ellipse cx="43.5" cy="240.8047" fill="#84BE84" rx="3" ry="3" style="stroke:#038048;stroke-width:1.0;"/><text fill="#000000" font-family="sans-serif" font-size="11" lengthAdjust="spacing" textLength="141" x="52.5" y="244.0151">getHead(Handler): String</text><ellipse cx="43.5" cy="253.6094" fill="#84BE84" rx="3" ry="3" style="stroke:#038048;stroke-width:1.0;"/><text fill="#000000" font-family="sans-serif" font-size="11" lengthAdjust="spacing" textLength="132" x="52.5" y="256.8198">getTail(Handler): String</text></a><!--MD5=[675e0b8b543756757eccc83d4e06d1c4]
class java.util.logging.Formatter--><rect codeLine="13" fill="#FEFECE" filter="url(#f1t93s0df7oqki)" height="60.8047" id="java.util.logging.Formatter" style="stroke:#A80036;stroke-width:1.5;" width="173" x="32.5" y="41"/><ellipse cx="83.75" cy="57" fill="#A9DCDF" rx="11" ry="11" style="stroke:#A80036;stroke-width:1.0;"/><path d="M83.8594,52.3438 L82.7031,57.4219 L85.0313,57.4219 L83.8594,52.3438 Z M82.375,50.1094 L85.3594,50.1094 L88.7188,62.5 L86.2656,62.5 L85.5,59.4375 L82.2188,59.4375 L81.4688,62.5 L79.0313,62.5 L82.375,50.1094 Z " fill="#000000"/><text fill="#000000" font-family="sans-serif" font-size="12" font-style="italic" lengthAdjust="spacing" textLength="62" x="104.25" y="61.1543">Formatter</text><line style="stroke:#A80036;stroke-width:1.5;" x1="33.5" x2="204.5" y1="73" y2="73"/><line style="stroke:#A80036;stroke-width:1.5;" x1="33.5" x2="204.5" y1="81" y2="81"/><ellipse cx="43.5" cy="92" fill="#84BE84" rx="3" ry="3" style="stroke:#038048;stroke-width:1.0;"/><text fill="#000000" font-family="sans-serif" font-size="11" font-style="italic" lengthAdjust="spacing" textLength="147" x="52.5" y="95.2104">format(LogRecord): String</text><!--MD5=[90d73d9675e082e3b6b407efcfb5d44f]
reverse link java.util.logging.Formatter to org.example.services.LogFormatter.HtmlFormatter--><path codeLine="9" d="M119,122.43 C119,140.15 119,159.9 119,176.91 " fill="none" id="java.util.logging.Formatter-backto-org.example.services.LogFormatter.HtmlFormatter" style="stroke:#A80036;stroke-width:1.0;"/><polygon fill="none" points="112,122.15,119,102.15,126,122.15,112,122.15" style="stroke:#A80036;stroke-width:1.0;"/><text fill="#888888" font-family="sans-serif" font-size="10" lengthAdjust="spacing" textLength="192" x="63" y="294.2822">UMLDoclet 2.0.15, PlantUML 1.2021.13</text><!--MD5=[120bbe629f32fce205352dd5a3b5af3a]
@startuml
    namespace org.example.services.LogFormatter {

        class HtmlFormatter [[HtmlFormatter.html]] {
            +format(LogRecord): String
            +getHead(Handler): String
            +getTail(Handler): String
        }

        java.util.logging.Formatter <|- - HtmlFormatter
    }

    namespace java.util.logging {
        abstract class Formatter {
            {abstract} +format(LogRecord): String
        }
    }

    center footer UMLDoclet 2.0.15, PlantUML 1.2021.13
@enduml

PlantUML version 1.2021.13(Mon Nov 01 11:38:45 UTC 2021)
(APACHE source distribution)
Java Runtime: OpenJDK Runtime Environment
JVM: OpenJDK 64-Bit Server VM
Default Encoding: UTF-8
Language: en
Country: null
--></g></svg>