<?xml version="1.0" encoding="UTF-8" standalone="no"?><svg xmlns="http://www.w3.org/2000/svg" xmlns:xlink="http://www.w3.org/1999/xlink" contentScriptType="application/ecmascript" contentStyleType="text/css" height="219px" preserveAspectRatio="none" style="width:596px;height:219px;background:#FFFFFF;" version="1.1" viewBox="0 0 596 219" width="596px" zoomAndPan="magnify"><defs><filter height="300%" id="fu1k5z0hxmgm0" width="300%" x="-1" y="-1"><feGaussianBlur result="blurOut" stdDeviation="2.0"/><feColorMatrix in="blurOut" result="blurOut2" type="matrix" values="0 0 0 0 0 0 0 0 0 0 0 0 0 0 0 0 0 0 .4 0"/><feOffset dx="4.0" dy="4.0" in="blurOut2" result="blurOut3"/><feBlend in="SourceGraphic" in2="blurOut3" mode="normal"/></filter></defs><g><!--MD5=[289259a06997c86d750264b3bc83706d]
class org.example.services.HTTPService--><a href="HTTPService.html" target="_top" title="HTTPService.html" xlink:actuate="onRequest" xlink:href="HTTPService.html" xlink:show="new" xlink:title="HTTPService.html" xlink:type="simple"><rect codeLine="5" fill="#FEFECE" filter="url(#fu1k5z0hxmgm0)" height="84.3516" id="org.example.services.HTTPService" style="stroke:#A80036;stroke-width:1.5;" width="575" x="7" y="7"/><ellipse cx="238.75" cy="25.9688" fill="#ADD1B2" rx="11" ry="11" style="stroke:#A80036;stroke-width:1.0;"/><path d="M241.7188,31.6094 Q241.1406,31.9063 240.5,32.0469 Q239.8594,32.2031 239.1563,32.2031 Q236.6563,32.2031 235.3281,30.5625 Q234.0156,28.9063 234.0156,25.7813 Q234.0156,22.6563 235.3281,21 Q236.6563,19.3438 239.1563,19.3438 Q239.8594,19.3438 240.5,19.5 Q241.1563,19.6563 241.7188,19.9531 L241.7188,22.6719 Q241.0938,22.0938 240.5,21.8281 Q239.9063,21.5469 239.2813,21.5469 Q237.9375,21.5469 237.25,22.625 Q236.5625,23.6875 236.5625,25.7813 Q236.5625,27.875 237.25,28.9531 Q237.9375,30.0156 239.2813,30.0156 Q239.9063,30.0156 240.5,29.75 Q241.0938,29.4688 241.7188,28.8906 L241.7188,31.6094 Z " fill="#000000"/><text fill="#000000" font-family="sans-serif" font-size="14" lengthAdjust="spacing" textLength="87" x="267.25" y="24.9951">HTTPService</text><text fill="#000000" font-family="sans-serif" font-size="10" lengthAdjust="spacing" textLength="103" x="259.25" y="37.5791">org.example.services</text><line style="stroke:#A80036;stroke-width:1.5;" x1="8" x2="581" y1="44.9375" y2="44.9375"/><ellipse cx="18" cy="55.9375" fill="#84BE84" rx="3" ry="3" style="stroke:#038048;stroke-width:1.0;"/><text fill="#000000" font-family="sans-serif" font-size="11" lengthAdjust="spacing" text-decoration="underline" textLength="153" x="27" y="59.1479">getInstance(): HTTPService</text><ellipse cx="18" cy="68.7422" fill="#84BE84" rx="3" ry="3" style="stroke:#038048;stroke-width:1.0;"/><text fill="#000000" font-family="sans-serif" font-size="11" lengthAdjust="spacing" textLength="121" x="27" y="71.9526">getClient(): HttpClient</text><ellipse cx="18" cy="81.5469" fill="#84BE84" rx="3" ry="3" style="stroke:#038048;stroke-width:1.0;"/><text fill="#000000" font-family="sans-serif" font-size="11" lengthAdjust="spacing" textLength="549" x="27" y="84.7573">sendRequest(String, String, HTTPMethods, String): CompletableFuture&lt;HttpResponse&lt;String&gt;&gt;</text></a><!--MD5=[1d9e46e83d76de554ed6df2a91bd066b]
class org.example.services.HTTPService.HTTPMethods--><a href="HTTPService.HTTPMethods.html" target="_top" title="HTTPService.HTTPMethods.html" xlink:actuate="onRequest" xlink:href="HTTPService.HTTPMethods.html" xlink:show="new" xlink:title="HTTPService.HTTPMethods.html" xlink:type="simple"><rect codeLine="10" fill="#FEFECE" filter="url(#fu1k5z0hxmgm0)" height="37.9375" id="org.example.services.HTTPService.HTTPMethods" style="stroke:#A80036;stroke-width:1.5;" width="221" x="184" y="151"/><ellipse cx="199" cy="169.9688" fill="#EB937F" rx="11" ry="11" style="stroke:#A80036;stroke-width:1.0;"/><path d="M203.1094,175.9688 L195.3906,175.9688 L195.3906,163.5781 L203.1094,163.5781 L203.1094,165.7344 L197.8438,165.7344 L197.8438,168.4063 L202.6094,168.4063 L202.6094,170.5625 L197.8438,170.5625 L197.8438,173.8125 L203.1094,173.8125 L203.1094,175.9688 Z " fill="#000000"/><text fill="#000000" font-family="sans-serif" font-size="14" lengthAdjust="spacing" textLength="189" x="213" y="168.9951">HTTPService.HTTPMethods</text><text fill="#000000" font-family="sans-serif" font-size="10" lengthAdjust="spacing" textLength="103" x="256" y="181.5791">org.example.services</text></a><!--MD5=[be09b8ed44f8ab31ec6f94ae35f7f5c9]
reverse link org.example.services.HTTPService to org.example.services.HTTPService.HTTPMethods--><path codeLine="12" d="M294.5,106.41 C294.5,122.44 294.5,138.78 294.5,150.74 " fill="none" id="org.example.services.HTTPService-backto-org.example.services.HTTPService.HTTPMethods" style="stroke:#A80036;stroke-width:1.0;"/><ellipse cx="294.5" cy="99.29" fill="#FFFFFF" rx="8" ry="8" style="stroke:#A80036;stroke-width:1.0;"/><line style="stroke:#A80036;stroke-width:1.0;" x1="294.5" x2="294.5" y1="107.29" y2="91.29"/><line style="stroke:#A80036;stroke-width:1.0;" x1="286.5" x2="302.5" y1="99.29" y2="99.29"/><text fill="#888888" font-family="sans-serif" font-size="10" lengthAdjust="spacing" textLength="192" x="195.5" y="211.2197">UMLDoclet 2.0.15, PlantUML 1.2021.13</text><!--MD5=[fcc6dfa513d3fadf1687e21afd21b77d]
@startuml
    set namespaceSeparator none
    hide empty fields
    hide empty methods

    class "<size:14>HTTPService\n<size:10>org.example.services" as org.example.services.HTTPService [[HTTPService.html]] {
        {static} +getInstance(): HTTPService
        +getClient(): HttpClient
        +sendRequest(String, String, HTTPMethods, String): CompletableFuture<HttpResponse<String>>
    }
    enum "<size:14>HTTPService.HTTPMethods\n<size:10>org.example.services" as org.example.services.HTTPService.HTTPMethods [[HTTPService.HTTPMethods.html]]

    org.example.services.HTTPService +- - org.example.services.HTTPService.HTTPMethods

    center footer UMLDoclet 2.0.15, PlantUML 1.2021.13
@enduml

PlantUML version 1.2021.13(Mon Nov 01 11:38:45 UTC 2021)
(APACHE source distribution)
Java Runtime: OpenJDK Runtime Environment
JVM: OpenJDK 64-Bit Server VM
Default Encoding: UTF-8
Language: en
Country: null
--></g></svg>