<?xml version="1.0" encoding="UTF-8" standalone="no"?><svg xmlns="http://www.w3.org/2000/svg" xmlns:xlink="http://www.w3.org/1999/xlink" contentScriptType="application/ecmascript" contentStyleType="text/css" height="232px" preserveAspectRatio="none" style="width:242px;height:232px;background:#FFFFFF;" version="1.1" viewBox="0 0 242 232" width="242px" zoomAndPan="magnify"><defs><filter height="300%" id="f1gdbepg4jsu8l" width="300%" x="-1" y="-1"><feGaussianBlur result="blurOut" stdDeviation="2.0"/><feColorMatrix in="blurOut" result="blurOut2" type="matrix" values="0 0 0 0 0 0 0 0 0 0 0 0 0 0 0 0 0 0 .4 0"/><feOffset dx="4.0" dy="4.0" in="blurOut2" result="blurOut3"/><feBlend in="SourceGraphic" in2="blurOut3" mode="normal"/></filter></defs><g><!--MD5=[1d9e46e83d76de554ed6df2a91bd066b]
class org.example.services.HTTPService.HTTPMethods--><a href="HTTPService.HTTPMethods.html" target="_top" title="HTTPService.HTTPMethods.html" xlink:actuate="onRequest" xlink:href="HTTPService.HTTPMethods.html" xlink:show="new" xlink:title="HTTPService.HTTPMethods.html" xlink:type="simple"><rect codeLine="5" fill="#FEFECE" filter="url(#f1gdbepg4jsu8l)" height="97.1563" id="org.example.services.HTTPService.HTTPMethods" style="stroke:#A80036;stroke-width:1.5;" width="221" x="7" y="105"/><ellipse cx="22" cy="123.9688" fill="#EB937F" rx="11" ry="11" style="stroke:#A80036;stroke-width:1.0;"/><path d="M26.1094,129.9688 L18.3906,129.9688 L18.3906,117.5781 L26.1094,117.5781 L26.1094,119.7344 L20.8438,119.7344 L20.8438,122.4063 L25.6094,122.4063 L25.6094,124.5625 L20.8438,124.5625 L20.8438,127.8125 L26.1094,127.8125 L26.1094,129.9688 Z " fill="#000000"/><text fill="#000000" font-family="sans-serif" font-size="14" lengthAdjust="spacing" textLength="189" x="36" y="122.9951">HTTPService.HTTPMethods</text><text fill="#000000" font-family="sans-serif" font-size="10" lengthAdjust="spacing" textLength="103" x="79" y="135.5791">org.example.services</text><line style="stroke:#A80036;stroke-width:1.5;" x1="8" x2="227" y1="142.9375" y2="142.9375"/><ellipse cx="18" cy="153.9375" rx="3" ry="3" style="stroke:#038048;stroke-width:1.0;fill:none;"/><text fill="#000000" font-family="sans-serif" font-size="11" lengthAdjust="spacing" text-decoration="underline" textLength="23" x="27" y="157.1479">GET</text><ellipse cx="18" cy="166.7422" rx="3" ry="3" style="stroke:#038048;stroke-width:1.0;fill:none;"/><text fill="#000000" font-family="sans-serif" font-size="11" lengthAdjust="spacing" text-decoration="underline" textLength="31" x="27" y="169.9526">POST</text><ellipse cx="18" cy="179.5469" rx="3" ry="3" style="stroke:#038048;stroke-width:1.0;fill:none;"/><text fill="#000000" font-family="sans-serif" font-size="11" lengthAdjust="spacing" text-decoration="underline" textLength="22" x="27" y="182.7573">PUT</text><ellipse cx="18" cy="192.3516" rx="3" ry="3" style="stroke:#038048;stroke-width:1.0;fill:none;"/><text fill="#000000" font-family="sans-serif" font-size="11" lengthAdjust="spacing" text-decoration="underline" textLength="42" x="27" y="195.562">DELETE</text></a><!--MD5=[289259a06997c86d750264b3bc83706d]
class org.example.services.HTTPService--><a href="HTTPService.html" target="_top" title="HTTPService.html" xlink:actuate="onRequest" xlink:href="HTTPService.html" xlink:show="new" xlink:title="HTTPService.html" xlink:type="simple"><rect codeLine="12" fill="#FEFECE" filter="url(#f1gdbepg4jsu8l)" height="37.9375" id="org.example.services.HTTPService" style="stroke:#A80036;stroke-width:1.5;" width="135" x="50" y="7"/><ellipse cx="65" cy="25.9688" fill="#ADD1B2" rx="11" ry="11" style="stroke:#A80036;stroke-width:1.0;"/><path d="M67.9688,31.6094 Q67.3906,31.9063 66.75,32.0469 Q66.1094,32.2031 65.4063,32.2031 Q62.9063,32.2031 61.5781,30.5625 Q60.2656,28.9063 60.2656,25.7813 Q60.2656,22.6563 61.5781,21 Q62.9063,19.3438 65.4063,19.3438 Q66.1094,19.3438 66.75,19.5 Q67.4063,19.6563 67.9688,19.9531 L67.9688,22.6719 Q67.3438,22.0938 66.75,21.8281 Q66.1563,21.5469 65.5313,21.5469 Q64.1875,21.5469 63.5,22.625 Q62.8125,23.6875 62.8125,25.7813 Q62.8125,27.875 63.5,28.9531 Q64.1875,30.0156 65.5313,30.0156 Q66.1563,30.0156 66.75,29.75 Q67.3438,29.4688 67.9688,28.8906 L67.9688,31.6094 Z " fill="#000000"/><text fill="#000000" font-family="sans-serif" font-size="14" lengthAdjust="spacing" textLength="87" x="87" y="24.9951">HTTPService</text><text fill="#000000" font-family="sans-serif" font-size="10" lengthAdjust="spacing" textLength="103" x="79" y="37.5791">org.example.services</text></a><!--MD5=[be09b8ed44f8ab31ec6f94ae35f7f5c9]
reverse link org.example.services.HTTPService to org.example.services.HTTPService.HTTPMethods--><path codeLine="14" d="M117.5,60.47 C117.5,74.12 117.5,90.14 117.5,104.96 " fill="none" id="org.example.services.HTTPService-backto-org.example.services.HTTPService.HTTPMethods" style="stroke:#A80036;stroke-width:1.0;"/><ellipse cx="117.5" cy="53.25" fill="#FFFFFF" rx="8" ry="8" style="stroke:#A80036;stroke-width:1.0;"/><line style="stroke:#A80036;stroke-width:1.0;" x1="117.5" x2="117.5" y1="61.25" y2="45.25"/><line style="stroke:#A80036;stroke-width:1.0;" x1="109.5" x2="125.5" y1="53.25" y2="53.25"/><text fill="#888888" font-family="sans-serif" font-size="10" lengthAdjust="spacing" textLength="192" x="18.5" y="224.4385">UMLDoclet 2.0.15, PlantUML 1.2021.13</text><!--MD5=[5c06ede2fa53d703ca38ed43bc6a70d8]
@startuml
    set namespaceSeparator none
    hide empty fields
    hide empty methods

    enum "<size:14>HTTPService.HTTPMethods\n<size:10>org.example.services" as org.example.services.HTTPService.HTTPMethods [[HTTPService.HTTPMethods.html]] {
        {static} +GET
        {static} +POST
        {static} +PUT
        {static} +DELETE
    }

    class "<size:14>HTTPService\n<size:10>org.example.services" as org.example.services.HTTPService [[HTTPService.html]]

    org.example.services.HTTPService +- - org.example.services.HTTPService.HTTPMethods

    center footer UMLDoclet 2.0.15, PlantUML 1.2021.13
@enduml

PlantUML version 1.2021.13(Mon Nov 01 11:38:45 UTC 2021)
(APACHE source distribution)
Java Runtime: OpenJDK Runtime Environment
JVM: OpenJDK 64-Bit Server VM
Default Encoding: UTF-8
Language: en
Country: null
--></g></svg>