<?xml version="1.0" encoding="UTF-8" standalone="no"?><svg xmlns="http://www.w3.org/2000/svg" xmlns:xlink="http://www.w3.org/1999/xlink" contentScriptType="application/ecmascript" contentStyleType="text/css" height="116px" preserveAspectRatio="none" style="width:210px;height:116px;background:#FFFFFF;" version="1.1" viewBox="0 0 210 116" width="210px" zoomAndPan="magnify"><defs><filter height="300%" id="f18ub3kuwofnri" width="300%" x="-1" y="-1"><feGaussianBlur result="blurOut" stdDeviation="2.0"/><feColorMatrix in="blurOut" result="blurOut2" type="matrix" values="0 0 0 0 0 0 0 0 0 0 0 0 0 0 0 0 0 0 .4 0"/><feOffset dx="4.0" dy="4.0" in="blurOut2" result="blurOut3"/><feBlend in="SourceGraphic" in2="blurOut3" mode="normal"/></filter></defs><g><!--MD5=[024494ffadca19ae8256a36b6440981a]
class org.example.services.LoggerService--><a href="LoggerService.html" target="_top" title="LoggerService.html" xlink:actuate="onRequest" xlink:href="LoggerService.html" xlink:show="new" xlink:title="LoggerService.html" xlink:type="simple"><rect codeLine="5" fill="#FEFECE" filter="url(#f18ub3kuwofnri)" height="84.3516" id="org.example.services.LoggerService" style="stroke:#A80036;stroke-width:1.5;" width="189" x="7" y="7"/><ellipse cx="46.3" cy="25.9688" fill="#ADD1B2" rx="11" ry="11" style="stroke:#A80036;stroke-width:1.0;"/><path d="M49.2688,31.6094 Q48.6906,31.9063 48.05,32.0469 Q47.4094,32.2031 46.7063,32.2031 Q44.2063,32.2031 42.8781,30.5625 Q41.5656,28.9063 41.5656,25.7813 Q41.5656,22.6563 42.8781,21 Q44.2063,19.3438 46.7063,19.3438 Q47.4094,19.3438 48.05,19.5 Q48.7063,19.6563 49.2688,19.9531 L49.2688,22.6719 Q48.6438,22.0938 48.05,21.8281 Q47.4563,21.5469 46.8313,21.5469 Q45.4875,21.5469 44.8,22.625 Q44.1125,23.6875 44.1125,25.7813 Q44.1125,27.875 44.8,28.9531 Q45.4875,30.0156 46.8313,30.0156 Q47.4563,30.0156 48.05,29.75 Q48.6438,29.4688 49.2688,28.8906 L49.2688,31.6094 Z " fill="#000000"/><text fill="#000000" font-family="sans-serif" font-size="14" lengthAdjust="spacing" textLength="98" x="68.2" y="24.9951">LoggerService</text><text fill="#000000" font-family="sans-serif" font-size="10" lengthAdjust="spacing" textLength="103" x="65.7" y="37.5791">org.example.services</text><line style="stroke:#A80036;stroke-width:1.5;" x1="8" x2="195" y1="44.9375" y2="44.9375"/><ellipse cx="18" cy="55.9375" fill="#84BE84" rx="3" ry="3" style="stroke:#038048;stroke-width:1.0;"/><text fill="#000000" font-family="sans-serif" font-size="11" lengthAdjust="spacing" text-decoration="underline" textLength="163" x="27" y="59.1479">getInstance(): LoggerService</text><ellipse cx="18" cy="68.7422" fill="#84BE84" rx="3" ry="3" style="stroke:#038048;stroke-width:1.0;"/><text fill="#000000" font-family="sans-serif" font-size="11" lengthAdjust="spacing" textLength="130" x="27" y="71.9526">setLogger(String): void</text><ellipse cx="18" cy="81.5469" fill="#84BE84" rx="3" ry="3" style="stroke:#038048;stroke-width:1.0;"/><text fill="#000000" font-family="sans-serif" font-size="11" lengthAdjust="spacing" textLength="127" x="27" y="84.7573">log(String, Level): void</text></a><text fill="#888888" font-family="sans-serif" font-size="10" lengthAdjust="spacing" textLength="192" x="5.5" y="107.6338">UMLDoclet 2.0.15, PlantUML 1.2021.13</text><!--MD5=[ca22a0f5837a1bc8e3d348580a21bfd9]
@startuml
    set namespaceSeparator none
    hide empty fields
    hide empty methods

    class "<size:14>LoggerService\n<size:10>org.example.services" as org.example.services.LoggerService [[LoggerService.html]] {
        {static} +getInstance(): LoggerService
        +setLogger(String): void
        +log(String, Level): void
    }

    center footer UMLDoclet 2.0.15, PlantUML 1.2021.13
@enduml

PlantUML version 1.2021.13(Mon Nov 01 11:38:45 UTC 2021)
(APACHE source distribution)
Java Runtime: OpenJDK Runtime Environment
JVM: OpenJDK 64-Bit Server VM
Default Encoding: UTF-8
Language: en
Country: null
--></g></svg>