<?xml version="1.0" encoding="UTF-8" standalone="no"?><svg xmlns="http://www.w3.org/2000/svg" xmlns:xlink="http://www.w3.org/1999/xlink" contentScriptType="application/ecmascript" contentStyleType="text/css" height="607px" preserveAspectRatio="none" style="width:1232px;height:607px;background:#FFFFFF;" version="1.1" viewBox="0 0 1232 607" width="1232px" zoomAndPan="magnify"><defs><filter height="300%" id="ff21q2yo9mvv9" width="300%" x="-1" y="-1"><feGaussianBlur result="blurOut" stdDeviation="2.0"/><feColorMatrix in="blurOut" result="blurOut2" type="matrix" values="0 0 0 0 0 0 0 0 0 0 0 0 0 0 0 0 0 0 .4 0"/><feOffset dx="4.0" dy="4.0" in="blurOut2" result="blurOut3"/><feBlend in="SourceGraphic" in2="blurOut3" mode="normal"/></filter></defs><g><!--MD5=[02ddd93f5be45843374c7adec5db57cf]
cluster org.example.services--><polygon fill="#FFFFFF" filter="url(#ff21q2yo9mvv9)" points="16,6,192,6,199,28.2969,1215,28.2969,1215,584,16,584,16,6" style="stroke:#000000;stroke-width:1.5;"/><line style="stroke:#000000;stroke-width:1.5;" x1="16" x2="199" y1="28.2969" y2="28.2969"/><text fill="#000000" font-family="sans-serif" font-size="14" font-weight="bold" lengthAdjust="spacing" textLength="170" x="20" y="20.9951">org.example.services</text><!--MD5=[024494ffadca19ae8256a36b6440981a]
class org.example.services.LoggerService--><a href="LoggerService.html" target="_top" title="LoggerService.html" xlink:actuate="onRequest" xlink:href="LoggerService.html" xlink:show="new" xlink:title="LoggerService.html" xlink:type="simple"><rect codeLine="3" fill="#FEFECE" filter="url(#ff21q2yo9mvv9)" height="86.4141" id="org.example.services.LoggerService" style="stroke:#A80036;stroke-width:1.5;" width="189" x="642.5" y="137"/><ellipse cx="688.75" cy="153" fill="#ADD1B2" rx="11" ry="11" style="stroke:#A80036;stroke-width:1.0;"/><path d="M691.7188,158.6406 Q691.1406,158.9375 690.5,159.0781 Q689.8594,159.2344 689.1563,159.2344 Q686.6563,159.2344 685.3281,157.5938 Q684.0156,155.9375 684.0156,152.8125 Q684.0156,149.6875 685.3281,148.0313 Q686.6563,146.375 689.1563,146.375 Q689.8594,146.375 690.5,146.5313 Q691.1563,146.6875 691.7188,146.9844 L691.7188,149.7031 Q691.0938,149.125 690.5,148.8594 Q689.9063,148.5781 689.2813,148.5781 Q687.9375,148.5781 687.25,149.6563 Q686.5625,150.7188 686.5625,152.8125 Q686.5625,154.9063 687.25,155.9844 Q687.9375,157.0469 689.2813,157.0469 Q689.9063,157.0469 690.5,156.7813 Q691.0938,156.5 691.7188,155.9219 L691.7188,158.6406 Z " fill="#000000"/><text fill="#000000" font-family="sans-serif" font-size="12" lengthAdjust="spacing" textLength="88" x="709.25" y="157.1543">LoggerService</text><line style="stroke:#A80036;stroke-width:1.5;" x1="643.5" x2="830.5" y1="169" y2="169"/><line style="stroke:#A80036;stroke-width:1.5;" x1="643.5" x2="830.5" y1="177" y2="177"/><ellipse cx="653.5" cy="188" fill="#84BE84" rx="3" ry="3" style="stroke:#038048;stroke-width:1.0;"/><text fill="#000000" font-family="sans-serif" font-size="11" lengthAdjust="spacing" text-decoration="underline" textLength="163" x="662.5" y="191.2104">getInstance(): LoggerService</text><ellipse cx="653.5" cy="200.8047" fill="#84BE84" rx="3" ry="3" style="stroke:#038048;stroke-width:1.0;"/><text fill="#000000" font-family="sans-serif" font-size="11" lengthAdjust="spacing" textLength="130" x="662.5" y="204.0151">setLogger(String): void</text><ellipse cx="653.5" cy="213.6094" fill="#84BE84" rx="3" ry="3" style="stroke:#038048;stroke-width:1.0;"/><text fill="#000000" font-family="sans-serif" font-size="11" lengthAdjust="spacing" textLength="127" x="662.5" y="216.8198">log(String, Level): void</text></a><!--MD5=[f8f3727a20eedc5b4b00bd44cce78134]
class org.example.services.SessionService--><a href="SessionService.html" target="_top" title="SessionService.html" xlink:actuate="onRequest" xlink:href="SessionService.html" xlink:show="new" xlink:title="SessionService.html" xlink:type="simple"><rect codeLine="9" fill="#FEFECE" filter="url(#ff21q2yo9mvv9)" height="278.4844" id="org.example.services.SessionService" style="stroke:#A80036;stroke-width:1.5;" width="332" x="867" y="41"/><ellipse cx="981.75" cy="57" fill="#ADD1B2" rx="11" ry="11" style="stroke:#A80036;stroke-width:1.0;"/><path d="M984.7188,62.6406 Q984.1406,62.9375 983.5,63.0781 Q982.8594,63.2344 982.1563,63.2344 Q979.6563,63.2344 978.3281,61.5938 Q977.0156,59.9375 977.0156,56.8125 Q977.0156,53.6875 978.3281,52.0313 Q979.6563,50.375 982.1563,50.375 Q982.8594,50.375 983.5,50.5313 Q984.1563,50.6875 984.7188,50.9844 L984.7188,53.7031 Q984.0938,53.125 983.5,52.8594 Q982.9063,52.5781 982.2813,52.5781 Q980.9375,52.5781 980.25,53.6563 Q979.5625,54.7188 979.5625,56.8125 Q979.5625,58.9063 980.25,59.9844 Q980.9375,61.0469 982.2813,61.0469 Q982.9063,61.0469 983.5,60.7813 Q984.0938,60.5 984.7188,59.9219 L984.7188,62.6406 Z " fill="#000000"/><text fill="#000000" font-family="sans-serif" font-size="12" lengthAdjust="spacing" textLength="94" x="1002.25" y="61.1543">SessionService</text><line style="stroke:#A80036;stroke-width:1.5;" x1="868" x2="1198" y1="73" y2="73"/><line style="stroke:#A80036;stroke-width:1.5;" x1="868" x2="1198" y1="81" y2="81"/><ellipse cx="878" cy="92" fill="#84BE84" rx="3" ry="3" style="stroke:#038048;stroke-width:1.0;"/><text fill="#000000" font-family="sans-serif" font-size="11" lengthAdjust="spacing" text-decoration="underline" textLength="170" x="887" y="95.2104">getInstance(): SessionService</text><ellipse cx="878" cy="104.8047" fill="#84BE84" rx="3" ry="3" style="stroke:#038048;stroke-width:1.0;"/><text fill="#000000" font-family="sans-serif" font-size="11" lengthAdjust="spacing" textLength="129" x="887" y="108.0151">getM_localUser(): User</text><ellipse cx="878" cy="117.6094" fill="#84BE84" rx="3" ry="3" style="stroke:#038048;stroke-width:1.0;"/><text fill="#000000" font-family="sans-serif" font-size="11" lengthAdjust="spacing" textLength="212" x="887" y="120.8198">setM_localUser(ConnectedUser): void</text><ellipse cx="878" cy="130.4141" fill="#84BE84" rx="3" ry="3" style="stroke:#038048;stroke-width:1.0;"/><text fill="#000000" font-family="sans-serif" font-size="11" lengthAdjust="spacing" textLength="130" x="887" y="133.6245">setLocalIP(String): void</text><ellipse cx="878" cy="143.2188" fill="#84BE84" rx="3" ry="3" style="stroke:#038048;stroke-width:1.0;"/><text fill="#000000" font-family="sans-serif" font-size="11" lengthAdjust="spacing" textLength="177" x="887" y="146.4292">setNb_connectedUser(int): void</text><ellipse cx="878" cy="156.0234" fill="#84BE84" rx="3" ry="3" style="stroke:#038048;stroke-width:1.0;"/><text fill="#000000" font-family="sans-serif" font-size="11" lengthAdjust="spacing" textLength="154" x="887" y="159.2339">getNb_connectedUser(): int</text><ellipse cx="878" cy="168.8281" fill="#84BE84" rx="3" ry="3" style="stroke:#038048;stroke-width:1.0;"/><text fill="#000000" font-family="sans-serif" font-size="11" lengthAdjust="spacing" textLength="185" x="887" y="172.0386">setHttpServer(HTTPServer): void</text><ellipse cx="878" cy="181.6328" fill="#84BE84" rx="3" ry="3" style="stroke:#038048;stroke-width:1.0;"/><text fill="#000000" font-family="sans-serif" font-size="11" lengthAdjust="spacing" textLength="162" x="887" y="184.8433">getHttpServer(): HTTPServer</text><ellipse cx="878" cy="194.4375" fill="#84BE84" rx="3" ry="3" style="stroke:#038048;stroke-width:1.0;"/><text fill="#000000" font-family="sans-serif" font-size="11" lengthAdjust="spacing" textLength="184" x="887" y="197.6479">setUDPServer(UDPReceive): void</text><ellipse cx="878" cy="207.2422" fill="#84BE84" rx="3" ry="3" style="stroke:#038048;stroke-width:1.0;"/><text fill="#000000" font-family="sans-serif" font-size="11" lengthAdjust="spacing" textLength="161" x="887" y="210.4526">getUDPServer(): UDPReceive</text><ellipse cx="878" cy="220.0469" fill="#84BE84" rx="3" ry="3" style="stroke:#038048;stroke-width:1.0;"/><text fill="#000000" font-family="sans-serif" font-size="11" lengthAdjust="spacing" textLength="253" x="887" y="223.2573">getConnectedUsers(): List&lt;ConnectedUser&gt;</text><ellipse cx="878" cy="232.8516" fill="#84BE84" rx="3" ry="3" style="stroke:#038048;stroke-width:1.0;"/><text fill="#000000" font-family="sans-serif" font-size="11" lengthAdjust="spacing" textLength="256" x="887" y="236.062">removeConnectedUser(ConnectedUser): void</text><ellipse cx="878" cy="245.6563" fill="#84BE84" rx="3" ry="3" style="stroke:#038048;stroke-width:1.0;"/><text fill="#000000" font-family="sans-serif" font-size="11" lengthAdjust="spacing" textLength="234" x="887" y="248.8667">addConnectedUser(ConnectedUser): void</text><ellipse cx="878" cy="258.4609" fill="#84BE84" rx="3" ry="3" style="stroke:#038048;stroke-width:1.0;"/><text fill="#000000" font-family="sans-serif" font-size="11" lengthAdjust="spacing" textLength="296" x="887" y="261.6714">getRemoteConnectedUsers(): List&lt;ConnectedUser&gt;</text><ellipse cx="878" cy="271.2656" fill="#84BE84" rx="3" ry="3" style="stroke:#038048;stroke-width:1.0;"/><text fill="#000000" font-family="sans-serif" font-size="11" lengthAdjust="spacing" textLength="189" x="887" y="274.4761">updatePseudo(User, String): void</text><ellipse cx="878" cy="284.0703" fill="#84BE84" rx="3" ry="3" style="stroke:#038048;stroke-width:1.0;"/><text fill="#000000" font-family="sans-serif" font-size="11" lengthAdjust="spacing" textLength="306" x="887" y="287.2808">deleteConnectedUserByName(String): ConnectedUser</text><ellipse cx="878" cy="296.875" fill="#84BE84" rx="3" ry="3" style="stroke:#038048;stroke-width:1.0;"/><text fill="#000000" font-family="sans-serif" font-size="11" lengthAdjust="spacing" textLength="99" x="887" y="300.0854">getUdp_port(): int</text><ellipse cx="878" cy="309.6797" fill="#84BE84" rx="3" ry="3" style="stroke:#038048;stroke-width:1.0;"/><text fill="#000000" font-family="sans-serif" font-size="11" lengthAdjust="spacing" textLength="100" x="887" y="312.8901">getHttp_port(): int</text></a><!--MD5=[e260f8566e9d68d2b3d1b4fbc4b65d47]
class org.example.services.StorageService--><a href="StorageService.html" target="_top" title="StorageService.html" xlink:actuate="onRequest" xlink:href="StorageService.html" xlink:show="new" xlink:title="StorageService.html" xlink:type="simple"><rect codeLine="30" fill="#FEFECE" filter="url(#ff21q2yo9mvv9)" height="188.8516" id="org.example.services.StorageService" style="stroke:#A80036;stroke-width:1.5;" width="272" x="601" y="379"/><ellipse cx="685.25" cy="395" fill="#ADD1B2" rx="11" ry="11" style="stroke:#A80036;stroke-width:1.0;"/><path d="M688.2188,400.6406 Q687.6406,400.9375 687,401.0781 Q686.3594,401.2344 685.6563,401.2344 Q683.1563,401.2344 681.8281,399.5938 Q680.5156,397.9375 680.5156,394.8125 Q680.5156,391.6875 681.8281,390.0313 Q683.1563,388.375 685.6563,388.375 Q686.3594,388.375 687,388.5313 Q687.6563,388.6875 688.2188,388.9844 L688.2188,391.7031 Q687.5938,391.125 687,390.8594 Q686.4063,390.5781 685.7813,390.5781 Q684.4375,390.5781 683.75,391.6563 Q683.0625,392.7188 683.0625,394.8125 Q683.0625,396.9063 683.75,397.9844 Q684.4375,399.0469 685.7813,399.0469 Q686.4063,399.0469 687,398.7813 Q687.5938,398.5 688.2188,397.9219 L688.2188,400.6406 Z " fill="#000000"/><text fill="#000000" font-family="sans-serif" font-size="12" lengthAdjust="spacing" textLength="95" x="705.75" y="399.1543">StorageService</text><line style="stroke:#A80036;stroke-width:1.5;" x1="602" x2="872" y1="411" y2="411"/><line style="stroke:#A80036;stroke-width:1.5;" x1="602" x2="872" y1="419" y2="419"/><ellipse cx="612" cy="430" fill="#84BE84" rx="3" ry="3" style="stroke:#038048;stroke-width:1.0;"/><text fill="#000000" font-family="sans-serif" font-size="11" lengthAdjust="spacing" text-decoration="underline" textLength="169" x="621" y="433.2104">getInstance(): StorageService</text><ellipse cx="612" cy="442.8047" fill="#84BE84" rx="3" ry="3" style="stroke:#038048;stroke-width:1.0;"/><text fill="#000000" font-family="sans-serif" font-size="11" lengthAdjust="spacing" text-decoration="underline" textLength="203" x="621" y="446.0151">getInstance(String): StorageService</text><ellipse cx="612" cy="455.6094" fill="#84BE84" rx="3" ry="3" style="stroke:#038048;stroke-width:1.0;"/><text fill="#000000" font-family="sans-serif" font-size="11" lengthAdjust="spacing" textLength="141" x="621" y="458.8198">save(Conversation): void</text><ellipse cx="612" cy="468.4141" fill="#84BE84" rx="3" ry="3" style="stroke:#038048;stroke-width:1.0;"/><text fill="#000000" font-family="sans-serif" font-size="11" lengthAdjust="spacing" textLength="117" x="621" y="471.6245">save(Message): void</text><ellipse cx="612" cy="481.2188" fill="#84BE84" rx="3" ry="3" style="stroke:#038048;stroke-width:1.0;"/><text fill="#000000" font-family="sans-serif" font-size="11" lengthAdjust="spacing" textLength="93" x="621" y="484.4292">save(User): void</text><ellipse cx="612" cy="494.0234" fill="#84BE84" rx="3" ry="3" style="stroke:#038048;stroke-width:1.0;"/><text fill="#000000" font-family="sans-serif" font-size="11" lengthAdjust="spacing" textLength="220" x="621" y="497.2339">retrieveAllMessages(): List&lt;Message&gt;</text><ellipse cx="612" cy="506.8281" fill="#84BE84" rx="3" ry="3" style="stroke:#038048;stroke-width:1.0;"/><text fill="#000000" font-family="sans-serif" font-size="11" lengthAdjust="spacing" textLength="246" x="621" y="510.0386">getConversation(User, User): Conversation</text><ellipse cx="612" cy="519.6328" fill="#84BE84" rx="3" ry="3" style="stroke:#038048;stroke-width:1.0;"/><text fill="#000000" font-family="sans-serif" font-size="11" lengthAdjust="spacing" textLength="207" x="621" y="522.8433">getAllRegisteredUsers(): List&lt;User&gt;</text><ellipse cx="612" cy="532.4375" fill="#84BE84" rx="3" ry="3" style="stroke:#038048;stroke-width:1.0;"/><text fill="#000000" font-family="sans-serif" font-size="11" lengthAdjust="spacing" textLength="231" x="621" y="535.6479">getUserFromPseudo(String): List&lt;User&gt;</text><ellipse cx="612" cy="545.2422" fill="#84BE84" rx="3" ry="3" style="stroke:#038048;stroke-width:1.0;"/><text fill="#000000" font-family="sans-serif" font-size="11" lengthAdjust="spacing" textLength="93" x="621" y="548.4526">getPath(): String</text><ellipse cx="612" cy="558.0469" fill="#84BE84" rx="3" ry="3" style="stroke:#038048;stroke-width:1.0;"/><text fill="#000000" font-family="sans-serif" font-size="11" lengthAdjust="spacing" textLength="189" x="621" y="561.2573">updatePseudo(User, String): void</text></a><!--MD5=[289259a06997c86d750264b3bc83706d]
class org.example.services.HTTPService--><a href="HTTPService.html" target="_top" title="HTTPService.html" xlink:actuate="onRequest" xlink:href="HTTPService.html" xlink:show="new" xlink:title="HTTPService.html" xlink:type="simple"><rect codeLine="44" fill="#FEFECE" filter="url(#ff21q2yo9mvv9)" height="86.4141" id="org.example.services.HTTPService" style="stroke:#A80036;stroke-width:1.5;" width="575" x="32.5" y="137"/><ellipse cx="277.75" cy="153" fill="#ADD1B2" rx="11" ry="11" style="stroke:#A80036;stroke-width:1.0;"/><path d="M280.7188,158.6406 Q280.1406,158.9375 279.5,159.0781 Q278.8594,159.2344 278.1563,159.2344 Q275.6563,159.2344 274.3281,157.5938 Q273.0156,155.9375 273.0156,152.8125 Q273.0156,149.6875 274.3281,148.0313 Q275.6563,146.375 278.1563,146.375 Q278.8594,146.375 279.5,146.5313 Q280.1563,146.6875 280.7188,146.9844 L280.7188,149.7031 Q280.0938,149.125 279.5,148.8594 Q278.9063,148.5781 278.2813,148.5781 Q276.9375,148.5781 276.25,149.6563 Q275.5625,150.7188 275.5625,152.8125 Q275.5625,154.9063 276.25,155.9844 Q276.9375,157.0469 278.2813,157.0469 Q278.9063,157.0469 279.5,156.7813 Q280.0938,156.5 280.7188,155.9219 L280.7188,158.6406 Z " fill="#000000"/><text fill="#000000" font-family="sans-serif" font-size="12" lengthAdjust="spacing" textLength="76" x="298.25" y="157.1543">HTTPService</text><line style="stroke:#A80036;stroke-width:1.5;" x1="33.5" x2="606.5" y1="169" y2="169"/><line style="stroke:#A80036;stroke-width:1.5;" x1="33.5" x2="606.5" y1="177" y2="177"/><ellipse cx="43.5" cy="188" fill="#84BE84" rx="3" ry="3" style="stroke:#038048;stroke-width:1.0;"/><text fill="#000000" font-family="sans-serif" font-size="11" lengthAdjust="spacing" text-decoration="underline" textLength="153" x="52.5" y="191.2104">getInstance(): HTTPService</text><ellipse cx="43.5" cy="200.8047" fill="#84BE84" rx="3" ry="3" style="stroke:#038048;stroke-width:1.0;"/><text fill="#000000" font-family="sans-serif" font-size="11" lengthAdjust="spacing" textLength="121" x="52.5" y="204.0151">getClient(): HttpClient</text><ellipse cx="43.5" cy="213.6094" fill="#84BE84" rx="3" ry="3" style="stroke:#038048;stroke-width:1.0;"/><text fill="#000000" font-family="sans-serif" font-size="11" lengthAdjust="spacing" textLength="549" x="52.5" y="216.8198">sendRequest(String, String, HTTPMethods, String): CompletableFuture&lt;HttpResponse&lt;String&gt;&gt;</text></a><!--MD5=[1d9e46e83d76de554ed6df2a91bd066b]
class org.example.services.HTTPService.HTTPMethods--><a href="HTTPService.HTTPMethods.html" target="_top" title="HTTPService.HTTPMethods.html" xlink:actuate="onRequest" xlink:href="HTTPService.HTTPMethods.html" xlink:show="new" xlink:title="HTTPService.HTTPMethods.html" xlink:type="simple"><rect codeLine="50" fill="#FEFECE" filter="url(#ff21q2yo9mvv9)" height="99.2188" id="org.example.services.HTTPService.HTTPMethods" style="stroke:#A80036;stroke-width:1.5;" width="197" x="221.5" y="424"/><ellipse cx="236.5" cy="440" fill="#EB937F" rx="11" ry="11" style="stroke:#A80036;stroke-width:1.0;"/><path d="M240.6094,446 L232.8906,446 L232.8906,433.6094 L240.6094,433.6094 L240.6094,435.7656 L235.3438,435.7656 L235.3438,438.4375 L240.1094,438.4375 L240.1094,440.5938 L235.3438,440.5938 L235.3438,443.8438 L240.6094,443.8438 L240.6094,446 Z " fill="#000000"/><text fill="#000000" font-family="sans-serif" font-size="12" lengthAdjust="spacing" textLength="165" x="250.5" y="444.1543">HTTPService.HTTPMethods</text><line style="stroke:#A80036;stroke-width:1.5;" x1="222.5" x2="417.5" y1="456" y2="456"/><ellipse cx="232.5" cy="467" rx="3" ry="3" style="stroke:#038048;stroke-width:1.0;fill:none;"/><text fill="#000000" font-family="sans-serif" font-size="11" lengthAdjust="spacing" text-decoration="underline" textLength="23" x="241.5" y="470.2104">GET</text><ellipse cx="232.5" cy="479.8047" rx="3" ry="3" style="stroke:#038048;stroke-width:1.0;fill:none;"/><text fill="#000000" font-family="sans-serif" font-size="11" lengthAdjust="spacing" text-decoration="underline" textLength="31" x="241.5" y="483.0151">POST</text><ellipse cx="232.5" cy="492.6094" rx="3" ry="3" style="stroke:#038048;stroke-width:1.0;fill:none;"/><text fill="#000000" font-family="sans-serif" font-size="11" lengthAdjust="spacing" text-decoration="underline" textLength="22" x="241.5" y="495.8198">PUT</text><ellipse cx="232.5" cy="505.4141" rx="3" ry="3" style="stroke:#038048;stroke-width:1.0;fill:none;"/><text fill="#000000" font-family="sans-serif" font-size="11" lengthAdjust="spacing" text-decoration="underline" textLength="42" x="241.5" y="508.6245">DELETE</text><line style="stroke:#A80036;stroke-width:1.5;" x1="222.5" x2="417.5" y1="515.2188" y2="515.2188"/></a><!--MD5=[be09b8ed44f8ab31ec6f94ae35f7f5c9]
reverse link org.example.services.HTTPService to org.example.services.HTTPService.HTTPMethods--><path codeLine="57" d="M320,238.27 C320,292.32 320,372.5 320,423.62 " fill="none" id="org.example.services.HTTPService-backto-org.example.services.HTTPService.HTTPMethods" style="stroke:#A80036;stroke-width:1.0;"/><ellipse cx="320" cy="231.08" fill="#FFFFFF" rx="8" ry="8" style="stroke:#A80036;stroke-width:1.0;"/><line style="stroke:#A80036;stroke-width:1.0;" x1="320" x2="320" y1="239.08" y2="223.08"/><line style="stroke:#A80036;stroke-width:1.0;" x1="312" x2="328" y1="231.08" y2="231.08"/><!--MD5=[6bc2633b74d93a904e75e09f8ed83c8b]
link org.example.services.LoggerService to org.example.services.SessionService--><!--MD5=[866d9510b7e9903e1aba2b0733fdf588]
link org.example.services.LoggerService to org.example.services.StorageService--><text fill="#888888" font-family="sans-serif" font-size="10" lengthAdjust="spacing" textLength="192" x="513.5" y="599.2822">UMLDoclet 2.0.15, PlantUML 1.2021.13</text><!--MD5=[53ba507a63cb3cda2ed1a757934377d1]
@startuml
    namespace org.example.services {

        class LoggerService [[LoggerService.html]] {
            {static} +getInstance(): LoggerService
            +setLogger(String): void
            +log(String, Level): void
        }

        class SessionService [[SessionService.html]] {
            {static} +getInstance(): SessionService
            +getM_localUser(): User
            +setM_localUser(ConnectedUser): void
            +setLocalIP(String): void
            +setNb_connectedUser(int): void
            +getNb_connectedUser(): int
            +setHttpServer(HTTPServer): void
            +getHttpServer(): HTTPServer
            +setUDPServer(UDPReceive): void
            +getUDPServer(): UDPReceive
            +getConnectedUsers(): List<ConnectedUser>
            +removeConnectedUser(ConnectedUser): void
            +addConnectedUser(ConnectedUser): void
            +getRemoteConnectedUsers(): List<ConnectedUser>
            +updatePseudo(User, String): void
            +deleteConnectedUserByName(String): ConnectedUser
            +getUdp_port(): int
            +getHttp_port(): int
        }

        class StorageService [[StorageService.html]] {
            {static} +getInstance(): StorageService
            {static} +getInstance(String): StorageService
            +save(Conversation): void
            +save(Message): void
            +save(User): void
            +retrieveAllMessages(): List<Message>
            +getConversation(User, User): Conversation
            +getAllRegisteredUsers(): List<User>
            +getUserFromPseudo(String): List<User>
            +getPath(): String
            +updatePseudo(User, String): void
        }

        class HTTPService [[HTTPService.html]] {
            {static} +getInstance(): HTTPService
            +getClient(): HttpClient
            +sendRequest(String, String, HTTPMethods, String): CompletableFuture<HttpResponse<String>>
        }

        enum org.example.services.HTTPService.HTTPMethods [[HTTPService.HTTPMethods.html]] {
            {static} +GET
            {static} +POST
            {static} +PUT
            {static} +DELETE
        }

        HTTPService +- - org.example.services.HTTPService.HTTPMethods
    }

    center footer UMLDoclet 2.0.15, PlantUML 1.2021.13
@enduml

PlantUML version 1.2021.13(Mon Nov 01 11:38:45 UTC 2021)
(APACHE source distribution)
Java Runtime: OpenJDK Runtime Environment
JVM: OpenJDK 64-Bit Server VM
Default Encoding: UTF-8
Language: en
Country: null
--></g></svg>