<?xml version="1.0" encoding="UTF-8" standalone="no"?><svg xmlns="http://www.w3.org/2000/svg" xmlns:xlink="http://www.w3.org/1999/xlink" contentScriptType="application/ecmascript" contentStyleType="text/css" height="128px" preserveAspectRatio="none" style="width:289px;height:128px;background:#FFFFFF;" version="1.1" viewBox="0 0 289 128" width="289px" zoomAndPan="magnify"><defs><filter height="300%" id="f1x9p3236pesrp" width="300%" x="-1" y="-1"><feGaussianBlur result="blurOut" stdDeviation="2.0"/><feColorMatrix in="blurOut" result="blurOut2" type="matrix" values="0 0 0 0 0 0 0 0 0 0 0 0 0 0 0 0 0 0 .4 0"/><feOffset dx="4.0" dy="4.0" in="blurOut2" result="blurOut3"/><feBlend in="SourceGraphic" in2="blurOut3" mode="normal"/></filter></defs><g><!--MD5=[8a1265195291ff92c2636284e182dc5a]
class org.example.controler.server.HTTPServer--><a href="HTTPServer.html" target="_top" title="HTTPServer.html" xlink:actuate="onRequest" xlink:href="HTTPServer.html" xlink:show="new" xlink:title="HTTPServer.html" xlink:type="simple"><rect codeLine="5" fill="#FEFECE" filter="url(#f1x9p3236pesrp)" height="97.1563" id="org.example.controler.server.HTTPServer" style="stroke:#A80036;stroke-width:1.5;" width="268" x="7" y="7"/><ellipse cx="66.25" cy="25.9688" fill="#ADD1B2" rx="11" ry="11" style="stroke:#A80036;stroke-width:1.0;"/><path d="M69.2188,31.6094 Q68.6406,31.9063 68,32.0469 Q67.3594,32.2031 66.6563,32.2031 Q64.1563,32.2031 62.8281,30.5625 Q61.5156,28.9063 61.5156,25.7813 Q61.5156,22.6563 62.8281,21 Q64.1563,19.3438 66.6563,19.3438 Q67.3594,19.3438 68,19.5 Q68.6563,19.6563 69.2188,19.9531 L69.2188,22.6719 Q68.5938,22.0938 68,21.8281 Q67.4063,21.5469 66.7813,21.5469 Q65.4375,21.5469 64.75,22.625 Q64.0625,23.6875 64.0625,25.7813 Q64.0625,27.875 64.75,28.9531 Q65.4375,30.0156 66.7813,30.0156 Q67.4063,30.0156 68,29.75 Q68.5938,29.4688 69.2188,28.8906 L69.2188,31.6094 Z " fill="#000000"/><text fill="#000000" font-family="sans-serif" font-size="14" lengthAdjust="spacing" textLength="81" x="116.75" y="24.9951">HTTPServer</text><text fill="#000000" font-family="sans-serif" font-size="10" lengthAdjust="spacing" textLength="141" x="86.75" y="37.5791">org.example.controler.server</text><line style="stroke:#A80036;stroke-width:1.5;" x1="8" x2="274" y1="44.9375" y2="44.9375"/><ellipse cx="18" cy="55.9375" fill="#84BE84" rx="3" ry="3" style="stroke:#038048;stroke-width:1.0;"/><text fill="#000000" font-family="sans-serif" font-size="11" lengthAdjust="spacing" textLength="89" x="27" y="59.1479">HTTPServer(int)</text><ellipse cx="18" cy="68.7422" fill="#84BE84" rx="3" ry="3" style="stroke:#038048;stroke-width:1.0;"/><text fill="#000000" font-family="sans-serif" font-size="11" lengthAdjust="spacing" text-decoration="underline" textLength="242" x="27" y="71.9526">sendResponse(HttpExchange, String): void</text><ellipse cx="18" cy="81.5469" fill="#84BE84" rx="3" ry="3" style="stroke:#038048;stroke-width:1.0;"/><text fill="#000000" font-family="sans-serif" font-size="11" lengthAdjust="spacing" textLength="212" x="27" y="84.7573">notifyAllSubscribers(HTTPEvent): void</text><ellipse cx="18" cy="94.3516" fill="#84BE84" rx="3" ry="3" style="stroke:#038048;stroke-width:1.0;"/><text fill="#000000" font-family="sans-serif" font-size="11" lengthAdjust="spacing" textLength="233" x="27" y="97.562">addEventList(CompletableFuture&lt;?&gt;): int</text></a><text fill="#888888" font-family="sans-serif" font-size="10" lengthAdjust="spacing" textLength="192" x="45" y="120.4385">UMLDoclet 2.0.15, PlantUML 1.2021.13</text><!--MD5=[0690380808bcf2d8929e619c39c17c68]
@startuml
    set namespaceSeparator none
    hide empty fields
    hide empty methods

    class "<size:14>HTTPServer\n<size:10>org.example.controler.server" as org.example.controler.server.HTTPServer [[HTTPServer.html]] {
        +HTTPServer(int)
        {static} +sendResponse(HttpExchange, String): void
        +notifyAllSubscribers(HTTPEvent): void
        +addEventList(CompletableFuture<?>): int
    }

    center footer UMLDoclet 2.0.15, PlantUML 1.2021.13
@enduml

PlantUML version 1.2021.13(Mon Nov 01 11:38:45 UTC 2021)
(APACHE source distribution)
Java Runtime: OpenJDK Runtime Environment
JVM: OpenJDK 64-Bit Server VM
Default Encoding: UTF-8
Language: en
Country: null
--></g></svg>