<?xml version="1.0" encoding="UTF-8" standalone="no"?><svg xmlns="http://www.w3.org/2000/svg" xmlns:xlink="http://www.w3.org/1999/xlink" contentScriptType="application/ecmascript" contentStyleType="text/css" height="173px" preserveAspectRatio="none" style="width:256px;height:173px;background:#FFFFFF;" version="1.1" viewBox="0 0 256 173" width="256px" zoomAndPan="magnify"><defs><filter height="300%" id="fd2nxkfrrpurj" width="300%" x="-1" y="-1"><feGaussianBlur result="blurOut" stdDeviation="2.0"/><feColorMatrix in="blurOut" result="blurOut2" type="matrix" values="0 0 0 0 0 0 0 0 0 0 0 0 0 0 0 0 0 0 .4 0"/><feOffset dx="4.0" dy="4.0" in="blurOut2" result="blurOut3"/><feBlend in="SourceGraphic" in2="blurOut3" mode="normal"/></filter></defs><g><!--MD5=[0c93f6c337b10ffd292e19dd1ddcef1e]
class org.example.controler.server.UDPBroadcast--><a href="UDPBroadcast.html" target="_top" title="UDPBroadcast.html" xlink:actuate="onRequest" xlink:href="UDPBroadcast.html" xlink:show="new" xlink:title="UDPBroadcast.html" xlink:type="simple"><rect codeLine="5" fill="#FEFECE" filter="url(#fd2nxkfrrpurj)" height="37.9375" id="org.example.controler.server.UDPBroadcast" style="stroke:#A80036;stroke-width:1.5;" width="173" x="38" y="7"/><ellipse cx="53" cy="25.9688" fill="#ADD1B2" rx="11" ry="11" style="stroke:#A80036;stroke-width:1.0;"/><path d="M55.9688,31.6094 Q55.3906,31.9063 54.75,32.0469 Q54.1094,32.2031 53.4063,32.2031 Q50.9063,32.2031 49.5781,30.5625 Q48.2656,28.9063 48.2656,25.7813 Q48.2656,22.6563 49.5781,21 Q50.9063,19.3438 53.4063,19.3438 Q54.1094,19.3438 54.75,19.5 Q55.4063,19.6563 55.9688,19.9531 L55.9688,22.6719 Q55.3438,22.0938 54.75,21.8281 Q54.1563,21.5469 53.5313,21.5469 Q52.1875,21.5469 51.5,22.625 Q50.8125,23.6875 50.8125,25.7813 Q50.8125,27.875 51.5,28.9531 Q52.1875,30.0156 53.5313,30.0156 Q54.1563,30.0156 54.75,29.75 Q55.3438,29.4688 55.9688,28.8906 L55.9688,31.6094 Z " fill="#000000"/><text fill="#000000" font-family="sans-serif" font-size="14" lengthAdjust="spacing" textLength="100" x="87.5" y="24.9951">UDPBroadcast</text><text fill="#000000" font-family="sans-serif" font-size="10" lengthAdjust="spacing" textLength="141" x="67" y="37.5791">org.example.controler.server</text></a><!--MD5=[34948b780e0f536bdff41bddc1533c52]
class org.example.controler.server.UDPBroadcast.broadcastUDP--><a href="UDPBroadcast.broadcastUDP.html" target="_top" title="UDPBroadcast.broadcastUDP.html" xlink:actuate="onRequest" xlink:href="UDPBroadcast.broadcastUDP.html" xlink:show="new" xlink:title="UDPBroadcast.broadcastUDP.html" xlink:type="simple"><rect codeLine="7" fill="#FEFECE" filter="url(#fd2nxkfrrpurj)" height="37.9375" id="org.example.controler.server.UDPBroadcast.broadcastUDP" style="stroke:#A80036;stroke-width:1.5;" width="235" x="7" y="105"/><ellipse cx="22" cy="123.9688" fill="#ADD1B2" rx="11" ry="11" style="stroke:#A80036;stroke-width:1.0;"/><path d="M24.9688,129.6094 Q24.3906,129.9063 23.75,130.0469 Q23.1094,130.2031 22.4063,130.2031 Q19.9063,130.2031 18.5781,128.5625 Q17.2656,126.9063 17.2656,123.7813 Q17.2656,120.6563 18.5781,119 Q19.9063,117.3438 22.4063,117.3438 Q23.1094,117.3438 23.75,117.5 Q24.4063,117.6563 24.9688,117.9531 L24.9688,120.6719 Q24.3438,120.0938 23.75,119.8281 Q23.1563,119.5469 22.5313,119.5469 Q21.1875,119.5469 20.5,120.625 Q19.8125,121.6875 19.8125,123.7813 Q19.8125,125.875 20.5,126.9531 Q21.1875,128.0156 22.5313,128.0156 Q23.1563,128.0156 23.75,127.75 Q24.3438,127.4688 24.9688,126.8906 L24.9688,129.6094 Z " fill="#000000"/><text fill="#000000" font-family="sans-serif" font-size="14" lengthAdjust="spacing" textLength="203" x="36" y="122.9951">UDPBroadcast.broadcastUDP</text><text fill="#000000" font-family="sans-serif" font-size="10" lengthAdjust="spacing" textLength="141" x="67" y="135.5791">org.example.controler.server</text></a><!--MD5=[4e943c92d1013c84cec93623716c7acb]
reverse link org.example.controler.server.UDPBroadcast to org.example.controler.server.UDPBroadcast.broadcastUDP--><path codeLine="9" d="M124.5,60.11 C124.5,75.05 124.5,92.11 124.5,104.7 " fill="none" id="org.example.controler.server.UDPBroadcast-backto-org.example.controler.server.UDPBroadcast.broadcastUDP" style="stroke:#A80036;stroke-width:1.0;"/><ellipse cx="124.5" cy="53.06" fill="#FFFFFF" rx="8" ry="8" style="stroke:#A80036;stroke-width:1.0;"/><line style="stroke:#A80036;stroke-width:1.0;" x1="124.5" x2="124.5" y1="61.06" y2="45.06"/><line style="stroke:#A80036;stroke-width:1.0;" x1="116.5" x2="132.5" y1="53.06" y2="53.06"/><text fill="#888888" font-family="sans-serif" font-size="10" lengthAdjust="spacing" textLength="192" x="25.5" y="165.2197">UMLDoclet 2.0.15, PlantUML 1.2021.13</text><!--MD5=[0b9426dbaa5ad143cbb8e380478cef62]
@startuml
    set namespaceSeparator none
    hide empty fields
    hide empty methods

    class "<size:14>UDPBroadcast\n<size:10>org.example.controler.server" as org.example.controler.server.UDPBroadcast [[UDPBroadcast.html]] {
    }
    class "<size:14>UDPBroadcast.broadcastUDP\n<size:10>org.example.controler.server" as org.example.controler.server.UDPBroadcast.broadcastUDP [[UDPBroadcast.broadcastUDP.html]]

    org.example.controler.server.UDPBroadcast +- - org.example.controler.server.UDPBroadcast.broadcastUDP

    center footer UMLDoclet 2.0.15, PlantUML 1.2021.13
@enduml

PlantUML version 1.2021.13(Mon Nov 01 11:38:45 UTC 2021)
(APACHE source distribution)
Java Runtime: OpenJDK Runtime Environment
JVM: OpenJDK 64-Bit Server VM
Default Encoding: UTF-8
Language: en
Country: null
--></g></svg>